<svg xmlns="http://www.w3.org/2000/svg" width="121" height="126.318" viewBox="0 0 121 126.318">
  <path id="Path_134" data-name="Path 134" d="M25.421,15.136c-1.869,4.681-1.025,9.473,1.206,13.612-10.277-1-20.484,2.481-25.276,12.708C-5.078,55.3,12.743,65.626,27.269,65.716c-.381.613-.824,1.175-1.166,1.8a20.95,20.95,0,0,0-1.426,19.439c8.118,17.983,28.028,12.437,37.08-1.015a24.121,24.121,0,0,0,3.667-13.22c5.465,4.8,12.517,7.424,20.072,6,8.268-1.516,15.852-5,19.087-13.31,2.773-7.162-.131-15.22-4.963-20.654a19.906,19.906,0,0,0-5.9-4.48,2.353,2.353,0,0,1-.01-.593c.381-.261.8-.573,1.175-.814a19.815,19.815,0,0,0,8.951-14.185c1.868-13.4-12.206-23.336-24.13-24.553-7.775-.784-13.532,2.13-16.7,6.983A34.6,34.6,0,0,0,49.893,2.93C40.108,1.9,29.3,5.341,25.421,15.136Zm35.854,19.89a37.091,37.091,0,0,1,6.409,2,78.258,78.258,0,0,0,5.123,7.444,5.7,5.7,0,0,0,1.457,3.295,59.965,59.965,0,0,1,4.34,4.561A12.864,12.864,0,0,0,75.721,54.8a4.856,4.856,0,0,0-.884,2.4c-3.486-.532-6.872-1.336-10.448-.8a5.947,5.947,0,0,0-2.964,1.3,18.11,18.11,0,0,0-9.644-8.067,6.139,6.139,0,0,0,.251-6.9,1.131,1.131,0,0,0-.221-.22,10.339,10.339,0,0,0,8.831-6.289,9.318,9.318,0,0,0,.291-1.186A1.893,1.893,0,0,0,61.275,35.026Z" transform="translate(25.562 126.318) rotate(-104)" fill="#fff"/>
</svg>
