<svg xmlns="http://www.w3.org/2000/svg" width="381.84" height="663.474" viewBox="0 0 381.84 663.474">
  <g id="右下花" transform="translate(-1635.397 -3176.93)">
    <path id="Path_94" data-name="Path 94" d="M1502.726,478.748a.68.68,0,0,0-.5,1.123.477.477,0,0,0,0,.151.691.691,0,0,0,.225.405c.217.021.429.042.655.069a1.561,1.561,0,0,0,.5.3.816.816,0,0,0,1.1-.662,2.454,2.454,0,0,0-.024-.559c0-.026.013-.058.011-.09l-.019-.053a.687.687,0,0,0-.723-.615h-.016l-.056.008a1.318,1.318,0,0,0-.575-.066A2.294,2.294,0,0,0,1502.726,478.748Z" transform="translate(306.524 3207.056)" fill="#f79744"/>
    <path id="Path_95" data-name="Path 95" d="M1502.918,480.744a.587.587,0,0,0-.689.472.429.429,0,0,0,.021.286.766.766,0,0,0-.032.175,2.515,2.515,0,0,1,.1.638.716.716,0,0,0,.707.707,4.462,4.462,0,0,0,.993-.021c.691-.1.781-1.052.373-1.478A3.13,3.13,0,0,0,1502.918,480.744Z" transform="translate(306.764 3210.331)" fill="#f79744"/>
    <g id="Group_119" data-name="Group 119" transform="translate(1839.691 3408)">
      <path id="Path_69" data-name="Path 69" d="M1529.011,570.517c-2.628-1.084-7.825-4.646-10.531-2.295a10.222,10.222,0,0,1-4.737,2.5c-7.97,1.733-10.253-7.109-16.858-7.562-5.981-.408-10.423,1.071-14.807-4.508-3.838-4.883-4.716-10.993-4.244-17.052,1.311-16.687,12.042-30.612,16.6-46.45a100.332,100.332,0,0,0,6.344-10.856,3.332,3.332,0,0,0,.393-1.671,35.368,35.368,0,0,1,4.467-6.033,19.519,19.519,0,0,1,27.4-.83c8.108,7.571,8.919,21.214,10.276,31.448,2.189,16.56,9.289,33.889,6.653,50.8C1548.238,569.075,1540.2,575.127,1529.011,570.517Z" transform="translate(-1438.727 -402.073)" fill="#f9d0d0"/>
      <path id="Path_70" data-name="Path 70" d="M1538.595,491.656c-.918,3.736-4.119,5.617-7.644,6.585,3.127,2.844,7.977,6.676,9.287,8.7,3.229,5.022.5,9.185-3.757,11.467-1.642,2.376-3.6,4.617-5.349,6.778-3.015,3.734-8.06,2.938-9.916,7.6-1.876,4.7-6.668,7.563-10.675,10.265-4.533,3.06-4.685,8.353-10.1,10.469-8.971,3.514-18.763-5.062-24.73-11.534-14.659-7.25-29.159-22.637-27.181-37.6-2.8-8.13-.874-17.815,4.165-24.949,8.014-11.332,20.557-12.768,33.477-11.372,9.123.982,18.287,2.519,27.331,4.042,7.492,1.263,14.677,2.659,20.75,7.4A11.971,11.971,0,0,1,1538.595,491.656Z" transform="translate(-1366.422 -405.237)" fill="#f9d0d0"/>
      <path id="Path_71" data-name="Path 71" d="M1493.564,478.29c2.016-2.73,4.716-4.883,8.216-5.295,2.573-.3,6.526.524,9.539-.114.037-.035.085-.075.129-.116a3.493,3.493,0,0,1,2.549-3.156c.476-.173.953-.335,1.423-.5.655-2.02.9-4.581,1.619-6.427.945-2.444,4.332-4.2,6.424-5.447,5.062-2.994,6.169-9.618,10.9-13.017,9.687-6.957,21.1-1.974,26.027,7.887,2.987,5.99,3.075,13.028,5.962,19.167,2.644,5.626,5.49,10.864,6.51,17.056a4.2,4.2,0,0,1-.007,1.3c2.572,5.068,3.854,10.637,1.945,15.9-4.577,12.593-20.164,10.768-31.051,10.286-15.219-.67-30.422-4.288-43.1-12.924C1492.393,497.272,1486.726,487.528,1493.564,478.29Z" transform="translate(-1490.514 -434.023)" fill="#f9d0d0"/>
      <path id="Path_72" data-name="Path 72" d="M1469.844,440.79a2.527,2.527,0,0,0,2.9-.137c5.931-3.963,12.518,4.837,18.7,6.468,7.565,2,14.1,1.015,21.036,5.576,10.436,6.853,21.764,15.291,23.1,27.922-3.256,15.508-23.509,27.452-40.991,31.1a6.5,6.5,0,0,1-2.307.056,34.933,34.933,0,0,1-3.331,1.288c-.522.35-1.015.734-1.564,1.053a5.364,5.364,0,0,1-4.575.254,26.15,26.15,0,0,1-6.452-.154c-13.128-1.972-14.788-16.829-15.668-24.225-1.633-13.719-3.674-28.042,1.519-40.321A18.41,18.41,0,0,1,1469.844,440.79Z" transform="translate(-1384.569 -435.474)" fill="#f9d0d0"/>
      <path id="Path_73" data-name="Path 73" d="M1522.616,532.987c-6.7,1.951-12.608.47-14.538-6.739-.782-2.9-.462-5.967-1.234-8.858-.6-2.274-7.866-3.445-9.9-4.369-6.836-3.1-5.732-11.867-3.466-17.532,3.129-7.812,13.319-12.668,20.622-15.422,12.35-4.658,25.92-5.363,38.478-9.406a3.746,3.746,0,0,1,3.949.915,31.327,31.327,0,0,1,4.775.164c2.232.237,3.512,2.626,3.223,4.646-2.476,17.064-19.1,26.929-28.2,40.186C1532.842,521.647,1529.174,531.077,1522.616,532.987Z" transform="translate(-1481.912 -402.183)" fill="#f9d0d0"/>
      <g id="Group_111" data-name="Group 111" transform="translate(39.827 78.583)">
        <path id="Path_74" data-name="Path 74" d="M1512.8,475.774c-7.6,7.75-15.1,15.6-21.483,24.4-5.744,7.922-11.438,17.465-12.531,27.366-.768,6.94.368,14.692,3.793,20.825,4.822,8.638,12.687,4.689,17.894-1.271a.217.217,0,0,1,.358.091c3.755,19.5,33.99,24.412,45.115,8.613,3.166-4.49,3.582-10.329,2.38-15.539-.832-3.609-2.461-6.907-2.9-10.621-.383-3.246.42-6.356,1.2-9.474,4.279-17-8.012-32.484-18.585-44.339-.183-.2.119-.5.3-.3,6.474,7.255,12.651,14.667,16.421,23.734a40.292,40.292,0,0,1,3.337,14.395c.1,5.422-2.33,10.5-2.249,15.982.073,5.128,3.266,9.8,3.535,14.994a18.769,18.769,0,0,1-1.429,8.332,19.827,19.827,0,0,1-10.808,10.315c-10.3,4.2-23.424,2.544-31.438-5.5a18.515,18.515,0,0,1-4.007-6.071c-.262-.651-1.057-4.163-1.716-3.406a24.5,24.5,0,0,1-4.527,4c-4.018,2.781-8.455,2.155-11.644-1.423-6.5-7.286-7.148-21.333-3.968-30.1,6.52-17.958,19.5-31.9,32.647-45.308.191-.193.5.106.3.3Z" transform="translate(-1477.994 -475.408)" fill="#f49a8c"/>
      </g>
      <g id="Group_112" data-name="Group 112" transform="translate(85.23 62.404)">
        <path id="Path_75" data-name="Path 75" d="M1446.555,486.367c.559,16.513,11.8,32.341,22.847,43.779,12.073,12.493,28.583,22.891,46.272,16.492,15.67-5.669,22.9-22.831,22.358-38.441-.251-7.223-2.819-34.881-15.649-24.225-.173.148-.479-.042-.333-.258,7.75-11.607-15.164-15.932-22.479-15.689-7.425.246-15.2,4.227-21.593,7.633a72.126,72.126,0,0,0-19.121,14.316c-.186.2-.485-.1-.3-.3,6.953-7.538,15.959-13.119,25.221-17.364,6.643-3.046,13.762-5.444,21.129-4.45,6.04.813,13.138,2.526,17.434,7.19a6.515,6.515,0,0,1,1.668,5.351,8.005,8.005,0,0,1-1.115,2.815,8.524,8.524,0,0,1,2.609-1.745c9.4-4.128,11.8,14.667,12.422,19.825,1.6,13.288-.272,26.062-9.168,36.668a32.834,32.834,0,0,1-26.282,11.291c-9.364-.489-18.1-5.834-25.271-11.459a95.21,95.21,0,0,1-21.716-24.811c-4.92-7.939-9.041-17.151-9.362-26.615-.01-.277.416-.275.429,0Z" transform="translate(-1446.126 -467.631)" fill="#f49a8c"/>
      </g>
      <g id="Group_113" data-name="Group 113" transform="translate(7.419 63.09)">
        <path id="Path_76" data-name="Path 76" d="M1559.81,477.431c-1.128,9.689-6.6,18.279-12.423,25.843-4.437,5.767-9.562,11.584-15.408,15.976-3.851,2.892-20.821,14.089-24.612,6.264-.774-1.6-.3-3.67.106-5.288a27.3,27.3,0,0,1,1.677-4.419c.722-1.625-4.151-3.183-5.193-3.685-2.677-1.284-5.424-2.646-7.248-5.06-2.012-2.663,1.045-5.422-1.35-7.664-12.158-11.38,5.245-24.761,15.281-28.756,20.006-7.954,42.223,3.052,56.84,16.44.2.187-.1.489-.3.3-14.251-13.053-32.632-21.712-52.276-17.607-12.98,2.709-32.372,18.389-17.484,30.88a.215.215,0,0,1,.033.26c-4.421,7.889,7.488,10.775,12.474,13.8A.217.217,0,0,1,1510,515c-2.486,5.222-4.852,13.506,3.845,12.323,5.559-.761,10.964-3.836,15.605-6.834,5.849-3.78,10.671-9.185,15.148-14.447,6.851-8.049,13.535-17.867,14.784-28.614.031-.268.458-.271.429,0Z" transform="translate(-1491.203 -467.961)" fill="#f49a8c"/>
      </g>
      <g id="Group_114" data-name="Group 114" transform="translate(1.846)">
        <path id="Path_77" data-name="Path 77" d="M1567.469,504.837a.433.433,0,0,1-.843-.2c4.311-20.093,11.245-46.515-6.231-62.324-17.545-15.876-35.5,15.489-40.613,28.787a7.452,7.452,0,0,0-6.283,10.633c-.108.2-.221.393-.327.583a.433.433,0,0,1-.559.616,24.466,24.466,0,0,0-10.758-2.954c-9.612-.241-10.254,11.688-5.349,17.135,4.184,4.644,12.177,7.86,17.734,10.527,15.945,7.656,34.592,6.99,51.741,5.4.555-.05.589.811.04.861-15.818,1.463-31.444,1.637-46.694-3.323-8.6-2.79-22.369-8.582-26.469-17.434-3.583-7.721,3.745-14.164,10.772-13.987,3.786.094,8.551,4.469,6.961-.811-.676-2.239.21-5.973,2.528-7.046,1.35-.626,2.344-1.242,3.942-1.069,3.173.339,4.467-5.447,5.522-7.581a77.144,77.144,0,0,1,9.025-13.879c5.852-7.294,14.359-13.4,23.977-10.327,9.4,3.013,15.033,14.613,16.2,23.626C1573.661,476.526,1570.49,490.766,1567.469,504.837Z" transform="translate(-1491.919 -437.636)" fill="#f49a8c"/>
      </g>
      <g id="Group_115" data-name="Group 115" transform="translate(70.494 0.249)">
        <path id="Path_78" data-name="Path 78" d="M1464.492,513.464c-3.861-13.746-8.081-27.656-9.134-41.969-.773-10.554.834-22.255,10.124-28.743,5.255-3.674,11.979-4.689,18.235-4.933,8.759-.337,18.618.616,26.584,4.446a34.606,34.606,0,0,1,10.86,8.045c4.036,4.764,7.19,8.7,12.928,11.511,6.828,3.341,10.2,11.946,9.09,19.273-3.316,21.957-30.1,34.473-49.775,36.212-.275.027-.273-.4,0-.424,19.421-1.716,45.025-13.731,49.213-34.9,1.062-5.357-.495-10.654-3.305-15.2-2.906-4.7-9.36-6-13.25-9.864a75.609,75.609,0,0,1-5.2-6.3c-1.86-2.3-4.494-4.038-6.914-5.709a35.71,35.71,0,0,0-14.861-5.561c-14.621-2.378-34.56-2.476-41.185,13.646-5.122,12.466-1.365,27.967,1.644,40.471,1.606,6.676,3.5,13.282,5.361,19.9a.214.214,0,0,1-.414.11Z" transform="translate(-1455.188 -437.756)" fill="#f49a8c"/>
      </g>
      <path id="Path_79" data-name="Path 79" d="M1493.461,484.326a2.516,2.516,0,0,1-2.049-2.122,2.62,2.62,0,0,1-1.413-2.856,3.991,3.991,0,0,1,.649-1.847c.1-1.273.9-2.34,2.509-1.849a2.391,2.391,0,0,1,1.073.68,2.124,2.124,0,0,1,.568.612,1.144,1.144,0,0,1,.227.185l.008.006c1.477.27,2.235,1.954,2.215,3.466C1497.212,482.464,1495.437,484.559,1493.461,484.326Z" transform="translate(-1410.946 -396.695)" fill="#b97d4f"/>
      <path id="Path_80" data-name="Path 80" d="M1491.811,532.41a.333.333,0,0,0-.073.021c3.428-13.024,11.336-24.735,15.079-37.746a100.308,100.308,0,0,0,6.343-10.856,3.33,3.33,0,0,0,.393-1.671,35.349,35.349,0,0,1,4.467-6.033,18.753,18.753,0,0,1,8.135-5.126,31.914,31.914,0,0,1,4.34.164c2.233.237,3.512,2.626,3.223,4.646-2.476,17.064-19.1,26.93-28.2,40.186C1502.036,521.069,1498.368,530.5,1491.811,532.41Z" transform="translate(-1451.107 -401.606)" fill="#f9d0d0" style="mix-blend-mode: multiply;isolation: isolate"/>
      <path id="Path_81" data-name="Path 81" d="M1490.514,453.6a29.964,29.964,0,0,0,1.517,4.044c2.644,5.626,5.49,10.864,6.51,17.056a4.206,4.206,0,0,1-.006,1.3c2.572,5.068,3.853,10.637,1.945,15.9a15.955,15.955,0,0,1-1.311,2.7c-5.195-5.5-6.233-14.453-6.855-19.691A185.725,185.725,0,0,1,1490.514,453.6Z" transform="translate(-1416.196 -420.389)" fill="#f9d0d0" style="mix-blend-mode: multiply;isolation: isolate"/>
      <path id="Path_82" data-name="Path 82" d="M1517.006,470.284a72,72,0,0,1-25.96,11.2,6.5,6.5,0,0,1-2.307.056,34.894,34.894,0,0,1-3.331,1.288c-.522.35-1.015.734-1.564,1.053a5.363,5.363,0,0,1-4.575.254,26.153,26.153,0,0,1-6.452-.154,15.041,15.041,0,0,1-6.709-2.692c.379-.628.77-1.246,1.192-1.85,8.014-11.332,20.557-12.768,33.477-11.372C1506.181,468.647,1511.6,469.431,1517.006,470.284Z" transform="translate(-1381.032 -405.237)" fill="#f9d0d0" style="mix-blend-mode: multiply;isolation: isolate"/>
      <path id="Path_83" data-name="Path 83" d="M1506.522,537.824c-14.659-7.25-29.16-22.637-27.181-37.6-2.8-8.13-.874-17.815,4.165-24.949a28.16,28.16,0,0,1,3.215-3.8,19.137,19.137,0,0,1,4.831,3.287c8.108,7.571,8.919,21.214,10.276,31.448,1.444,10.958,5.03,22.253,6.533,33.539C1507.715,539.1,1507.1,538.45,1506.522,537.824Z" transform="translate(-1397.238 -401.073)" fill="#f9d0d0" style="mix-blend-mode: multiply;isolation: isolate"/>
      <g id="Group_117" data-name="Group 117" transform="translate(58.958 58.005)">
        <g id="Group_116" data-name="Group 116">
          <path id="Path_84" data-name="Path 84" d="M1494.032,470.144a.2.2,0,0,1-.042-.046.058.058,0,0,0,.033.029Z" transform="translate(-1475.025 -460.567)" fill="#f79744"/>
          <path id="Path_85" data-name="Path 85" d="M1515.792,482.4a1,1,0,0,1,.17,1.723c-.62.416-1.2.861-1.766,1.309a7.079,7.079,0,0,1,3.711-.262,1.089,1.089,0,0,1,.7,1.452,16.944,16.944,0,0,1,2.6.345c1.115.245.936,1.87-.073,2.116-1.151.287-2.311.531-3.458.759a.486.486,0,0,1-.437.31c-.383,0-.828.075-1.232.056a1.168,1.168,0,0,1-.14.189,11.948,11.948,0,0,1,3.241,1.234,1.1,1.1,0,0,1-.3,2c-.164.023-.316.027-.478.052a4.265,4.265,0,0,1,.407.655,1.064,1.064,0,0,1-.824,1.569.935.935,0,0,1,.2.329.788.788,0,0,1,.731.36,1.507,1.507,0,0,1,.907,1.515,1.615,1.615,0,0,1-2.317,1.2,1.58,1.58,0,0,1-.88-1.542c.011-.064.036-.108.05-.175-.171-.048-.341-.092-.512-.146a1.124,1.124,0,0,1-.391,1.257.817.817,0,0,1-.05.241c.2.175.422.343.624.514a.789.789,0,0,1,.266.554c.866.5.075,1.941-.967,1.56a10.727,10.727,0,0,1-1.244-.558c-.21-.106-.42-.221-.643-.335-.169-.058-.329-.139-.491-.206a1.163,1.163,0,0,1-.765,1.159c-.021.008-.042.008-.058.017.705,2.047,1.1,4.227,1.617,6.316.243,1.023-1,1.46-1.667.859a16.387,16.387,0,0,1-2.79-3.31,12.145,12.145,0,0,1-.472,1.816.732.732,0,0,1,.566.549c.048.06.1.114.146.177a.449.449,0,0,1-.233.741,5.611,5.611,0,0,1-.934,0c-.38.015-.593-.433-.509-.757a.881.881,0,0,1-.375-.162,3.423,3.423,0,0,1-1.146-1.841.657.657,0,0,1-.3-.146c-.017.019-.021.048-.044.06-.023.077-.04.156-.067.229a.766.766,0,0,1-1,.4.289.289,0,0,0-.056-.031c-.029,0-.056,0-.089,0a1.6,1.6,0,0,1-1.4.31.533.533,0,0,1-.393-.364,6.063,6.063,0,0,1-.3-1.252,2.019,2.019,0,0,1-.356.092,22.006,22.006,0,0,0,.1,2.4.9.9,0,0,1-1.619.6.877.877,0,0,1-.294.345,1.075,1.075,0,0,1-.11.2,1.13,1.13,0,0,1-1.381.146,8.69,8.69,0,0,1-1.207,2.105.9.9,0,0,1-1.577-.447,28.5,28.5,0,0,1,.011-2.859,1.963,1.963,0,0,1-.339-.039.328.328,0,0,1-.233.081,1.136,1.136,0,0,1-.724-.412,5.719,5.719,0,0,1-1.269,1.452c-.069.158-.127.314-.2.466a.744.744,0,0,1-.957.374.9.9,0,0,1-1.213-.46c-.859-1.972-.135-4.271.778-6.316a2.065,2.065,0,0,1-.622-.335l-.013.017a.766.766,0,0,1-1.269-.275,11.677,11.677,0,0,1-1.323.907,1.55,1.55,0,0,1,.375.031.829.829,0,0,1,.676-.015,1.222,1.222,0,0,1,.728,1.146c.058.913-.612,2.178-1.665,1.693a2.154,2.154,0,0,1-1.031-2.045,1.043,1.043,0,0,1,.337-.6.862.862,0,0,1-.776-1.03,8.182,8.182,0,0,1,.92-2.649,5.685,5.685,0,0,1-2.422.181.657.657,0,0,1-.451-.94c.172-.256.347-.5.53-.751a.57.57,0,0,1-.276-.177c-.069-.054-.135-.108-.194-.158a.824.824,0,0,1-.416-.859,1.6,1.6,0,0,1,.042-.219.8.8,0,0,1,.734-.616c.016-.006.025,0,.041-.006a.49.49,0,0,1,.643.006.513.513,0,0,0,.1,0,.609.609,0,0,1,.285.058,1.006,1.006,0,0,1-.3-.965,2.109,2.109,0,0,1,.125-.287,7,7,0,0,1-1.706-.083,1.571,1.571,0,0,1-1.317.418,2.3,2.3,0,0,1-1.069-.6,1,1,0,0,1,.046-1.379.779.779,0,0,0,.668-.562.767.767,0,0,1,1.178-.277,1.686,1.686,0,0,1,.148.148,2.533,2.533,0,0,1,.393-.264,1.774,1.774,0,0,1-.635-1.413,1.458,1.458,0,0,1,.435-.917,5.325,5.325,0,0,1-.813-.512.931.931,0,0,1,.331-1.558,7.558,7.558,0,0,1,2.877-.439,1.4,1.4,0,0,1-.129-.314c-.281-1.733,1.571-2.944,3.11-2.64a13.634,13.634,0,0,1-3.93-5.809.837.837,0,0,1,.649-1.005c1.777-.22,3.123.647,4.406,1.875.16.146.312.306.471.458a11.935,11.935,0,0,1,1.333,1.163c-.1-.156-.2-.306-.3-.453a.8.8,0,0,1-.279-1.307,1.522,1.522,0,0,0,.333-.37.95.95,0,0,1,.46-.485,1,1,0,0,1,.169-.868c-.033-.044-.073-.064-.106-.114-.343-.526.019-1.234.394-1.616a.69.69,0,0,1,.857-.048.317.317,0,0,0,.069.014l-.014-.042c-.272-.917-.77-2.332-.175-3.235.988-1.537,2.5.316,3.651,2.11.021-.125.042-.241.073-.364a.748.748,0,0,1,.106-.22c-.041-.092-.1-.181-.141-.277-.014-.027-.016-.037-.029-.06a.428.428,0,0,0,.1.089.865.865,0,0,1-.108-.106c-.05-.077-.068-.077-.033-.029-.547-.568.127-1.492.855-1.448-.335-.015-.015-.089.158-.21a1.073,1.073,0,0,1-.05-.7.889.889,0,0,1,.025-.139c.031-.121.06-.235.083-.354a.749.749,0,0,1,1-.616c.136.064.283.133.423.21a2.812,2.812,0,0,1,.626-.318.619.619,0,0,1,.824.583.28.28,0,0,1,.021-.069.593.593,0,0,1-.058.451.8.8,0,0,1-.137.221c-.108.117-.231.223-.347.331a1.1,1.1,0,0,1-.279.755c.048.052.1.1.144.162s.058.123.091.187c.248-.624.535-1.253.884-1.968a.936.936,0,0,1,1.752.4c0,.081-.006.158-.008.241a9.24,9.24,0,0,1,2.4-3.986,4.886,4.886,0,0,1,.414-.732.954.954,0,0,1,1.471-.239c1.442,1.417,1.2,3.841.715,6.179.083-.013.144-.044.242-.052a.8.8,0,0,1,.8.508,2.941,2.941,0,0,1,.077.428,4.867,4.867,0,0,1,1.43-1.117.822.822,0,0,1,1.225.689,10.777,10.777,0,0,1-.277,2.438c.046-.027.084-.06.125-.085a.8.8,0,0,1,.712-.023.781.781,0,0,1,.557-.033,1.041,1.041,0,0,1,.4-.067.543.543,0,0,1,.533.66.2.2,0,0,1-.008.062.934.934,0,0,1,.412,1.479,1.339,1.339,0,0,0-.111.144c.895-.884,1.777-1.781,2.617-2.717.7-.776,2.212.069,1.8,1.076A17.623,17.623,0,0,1,1515.792,482.4Z" transform="translate(-1479.615 -464.46)" fill="#f79744"/>
          <path id="Path_86" data-name="Path 86" d="M1490.65,486.678a.43.43,0,0,1,.74,0c.033.06.057.127.079.177a.623.623,0,0,1,.37.645.51.51,0,0,1-.071.191,2.16,2.16,0,0,1,.084.337.455.455,0,0,1-.481.424,3.355,3.355,0,0,0-.695.156.592.592,0,0,1-.691-.468,1.151,1.151,0,0,1,.541-1.15A1.117,1.117,0,0,1,1490.65,486.678Z" transform="translate(-1464.488 -442.88)" fill="#f79744"/>
          <path id="Path_87" data-name="Path 87" d="M1491.679,488.53l.312-.555a.66.66,0,0,1,.266-.245.469.469,0,0,1,.778-.125,7.675,7.675,0,0,1,.711.762.514.514,0,0,1-.173.736,1.074,1.074,0,0,1,.069.3.682.682,0,0,1-1.152.5,1.908,1.908,0,0,1-.306-.372A.7.7,0,0,1,1491.679,488.53Z" transform="translate(-1469.861 -441.819)" fill="#f79744"/>
          <path id="Path_88" data-name="Path 88" d="M1492.2,488.838a.575.575,0,0,1,.156.512,1,1,0,0,1,.04.385c-.094.811-.943.853-1.533,1.125a.728.728,0,0,1-1.024-.53,2.076,2.076,0,0,1,.545-1.906A1.347,1.347,0,0,1,1492.2,488.838Z" transform="translate(-1464.724 -441.003)" fill="#f79744"/>
          <path id="Path_89" data-name="Path 89" d="M1500.794,482.343c.027-.01.05-.021.083-.031.167-.518.365-.782,1.122-.855a.542.542,0,0,1,.487.291,1.974,1.974,0,0,1,.22,1.814,1.063,1.063,0,0,1-.462.4,3.556,3.556,0,0,1-.366.352.739.739,0,0,1-1.132-.258.362.362,0,0,0-.017-.062.555.555,0,0,1-.168-.164.7.7,0,0,1-.341-.6,3.024,3.024,0,0,1,.058-.41A.7.7,0,0,1,1500.794,482.343Z" transform="translate(-1496.805 -448.297)" fill="#f79744"/>
          <path id="Path_90" data-name="Path 90" d="M1500.643,485.057a.5.5,0,0,1,.9.133c.029.027.064.037.081.067a1.278,1.278,0,0,1-.033.793l-.014.008a.6.6,0,0,1-.075.268c-.2.343-.6.262-.924.335a.626.626,0,0,1-.7-.564A1.032,1.032,0,0,1,1500.643,485.057Z" transform="translate(-1494.921 -444.642)" fill="#f79744"/>
          <path id="Path_91" data-name="Path 91" d="M1500.178,486.623c.308,0,.715.144.79.481a.587.587,0,0,1-.1.437.623.623,0,0,1,.006.083c-.048.27-.1.541-.152.815a.641.641,0,0,1-.722.524,2.73,2.73,0,0,0-.483-.065.7.7,0,0,1-.661-.5A1.275,1.275,0,0,1,1500.178,486.623Z" transform="translate(-1491.928 -442.712)" fill="#f79744"/>
          <path id="Path_92" data-name="Path 92" d="M1498.935,488.322c-.013.035-.081.166-.152.3a2.24,2.24,0,0,1,.248.476.562.562,0,0,1-.543.705c-.524-.021-1.08-.077-1.29-.626s.246-1.155.591-1.523A.69.69,0,0,1,1498.935,488.322Z" transform="translate(-1486.619 -441.807)" fill="#f79744"/>
          <path id="Path_93" data-name="Path 93" d="M1501.029,474.792a.892.892,0,0,1,1.2.146,1.305,1.305,0,0,1,.826,1.446,1.773,1.773,0,0,1-.514.961,1.39,1.39,0,0,1-.51.391,1.629,1.629,0,0,1-1.6.037C1499.176,477.043,1500.268,475.352,1501.029,474.792Z" transform="translate(-1496.276 -455.68)" fill="#f79744"/>
          <path id="Path_94-2" data-name="Path 94" d="M1503.627,478.746a.534.534,0,0,1,.389.882.371.371,0,0,1,0,.118.544.544,0,0,1-.177.318c-.171.017-.337.033-.514.054a1.225,1.225,0,0,1-.389.237.641.641,0,0,1-.861-.52,1.931,1.931,0,0,1,.019-.439c0-.021-.01-.046-.009-.071l.015-.042a.539.539,0,0,1,.568-.483h.013l.044.006a1.034,1.034,0,0,1,.451-.052A1.8,1.8,0,0,1,1503.627,478.746Z" transform="translate(-1501.942 -451.233)" fill="#f79744"/>
          <path id="Path_95-2" data-name="Path 95" d="M1503.561,480.74a.461.461,0,0,1,.541.37.338.338,0,0,1-.017.225.6.6,0,0,1,.025.137,1.979,1.979,0,0,0-.075.5.563.563,0,0,1-.556.556,3.508,3.508,0,0,1-.78-.017c-.543-.075-.614-.826-.293-1.161A2.46,2.46,0,0,1,1503.561,480.74Z" transform="translate(-1502.214 -449.087)" fill="#f79744"/>
          <path id="Path_96" data-name="Path 96" d="M1488.123,488.656a.43.43,0,0,1,.067-.3.638.638,0,0,1,.073-.3.507.507,0,0,1,.568-.171,1.7,1.7,0,0,1,.626.545.5.5,0,0,1-.2.759A.736.736,0,0,1,1488.123,488.656Z" transform="translate(-1458.342 -441.367)" fill="#f79744"/>
          <path id="Path_97" data-name="Path 97" d="M1494.064,489.324a.521.521,0,0,1,.252.381.609.609,0,0,1-.2.56l-.035.025,0,.042a.322.322,0,0,1-.329.223h-.008c-.277.168-.787.089-.791-.329a.912.912,0,0,1,.389-.855A.588.588,0,0,1,1494.064,489.324Z" transform="translate(-1473.159 -439.904)" fill="#f79744"/>
          <path id="Path_98" data-name="Path 98" d="M1499.025,473.1a.988.988,0,0,1-.133.006.541.541,0,0,1-.684.22.76.76,0,0,1-1.1-.391,4.9,4.9,0,0,1-.171-.682.838.838,0,0,1,.684-.976.6.6,0,0,1,.173-.069c.356-.04.726-.019,1.092-.031a.727.727,0,0,1,.547,1.121A.594.594,0,0,1,1499.025,473.1Z" transform="translate(-1486.66 -459.405)" fill="#f79744"/>
          <path id="Path_99" data-name="Path 99" d="M1500.792,472.669l0-.01h0Z" transform="translate(-1495.924 -457.8)" fill="#f79744"/>
          <path id="Path_100" data-name="Path 100" d="M1502.187,473.324c-.225.031-.449.071-.672.1a.529.529,0,0,0-.058-.025.092.092,0,0,0-.036.019.1.1,0,0,0-.025-.046c-.042-.021-.042-.008.025.046a1.359,1.359,0,0,1-.458.143.687.687,0,0,1-.47-1.178,1.374,1.374,0,0,1,1.144-.389l.185-.037a.493.493,0,0,1,.531.6,1.046,1.046,0,0,1,.073.131A.485.485,0,0,1,1502.187,473.324Z" transform="translate(-1496.559 -458.56)" fill="#f79744"/>
          <path id="Path_101" data-name="Path 101" d="M1500.56,474.565a.655.655,0,0,1-.066,1.038,1.093,1.093,0,0,1-.978,0,.421.421,0,0,1-.166-.031.842.842,0,0,0-.121-.067.647.647,0,0,1-.379-.647c0-.077.014-.154.021-.231,0,0,0,.01.016.019a.59.59,0,0,1,.705-.541l.025,0a.676.676,0,0,1,.137.06v-.012A4.377,4.377,0,0,1,1500.56,474.565Z" transform="translate(-1491.883 -456.254)" fill="#f79744"/>
          <path id="Path_102" data-name="Path 102" d="M1498.91,470.118c-.019,0-.058.008-.1.014a.525.525,0,0,1-.1.037c.1-.021.152-.029.2-.035a.835.835,0,0,1-.57.2l-.019.015a2.527,2.527,0,0,1-1.336-.081.814.814,0,0,1-.148-1.506c.079-.385.281-.73.772-.7a1.033,1.033,0,0,1,.743.479,1.067,1.067,0,0,1,.414.25.71.71,0,0,1,.437.9.647.647,0,0,1-.123.252A.824.824,0,0,1,1498.91,470.118Z" transform="translate(-1485.21 -462.77)" fill="#f79744"/>
          <path id="Path_103" data-name="Path 103" d="M1499.318,469.459a.594.594,0,0,1-.256,1,.976.976,0,0,0-.114.033.58.58,0,0,1-.516-.988,1.021,1.021,0,0,1,.2-.152A.5.5,0,0,1,1499.318,469.459Z" transform="translate(-1489.342 -461.469)" fill="#f79744"/>
          <path id="Path_104" data-name="Path 104" d="M1500.569,470.991a.829.829,0,0,1-1.038.387.634.634,0,0,1-.37-.666c.008-.05.01-.092.021-.139a.672.672,0,0,1,.866-.491A.582.582,0,0,1,1500.569,470.991Z" transform="translate(-1492.414 -460.615)" fill="#f79744"/>
          <path id="Path_105" data-name="Path 105" d="M1494.253,469.046a.613.613,0,0,1-.853-.079,1.066,1.066,0,0,1-.248-.416.662.662,0,0,1,.262-.764c.036-.019.071-.01.1-.025a1.446,1.446,0,0,1,1.126-.41.574.574,0,0,1,.372.984C1494.746,468.561,1494.517,468.825,1494.253,469.046Z" transform="translate(-1474.369 -463.534)" fill="#f79744"/>
          <path id="Path_106" data-name="Path 106" d="M1496.158,467.986a.694.694,0,0,1-1.361.2,1.411,1.411,0,0,1,0-.46.5.5,0,0,1,.014-.289,1.107,1.107,0,0,1,.626-.555c.386-.191.982.1.815.605a.88.88,0,0,0-.077.287c.009.077.017.15.023.233C1496.188,468,1496.167,467.993,1496.158,467.986Z" transform="translate(-1478.911 -464.106)" fill="#f79744"/>
          <path id="Path_107" data-name="Path 107" d="M1497.752,467.17a1.115,1.115,0,0,1-.083-.131.634.634,0,0,1-.433-.859c.017-.035.038-.069.052-.1a.649.649,0,0,1,.708-.354,1.151,1.151,0,0,1,.792.462.46.46,0,0,1,.106.362.8.8,0,0,1-.543.82A.53.53,0,0,1,1497.752,467.17Z" transform="translate(-1486.532 -465.307)" fill="#f79744"/>
          <path id="Path_108" data-name="Path 108" d="M1500.126,468.951a.465.465,0,0,1-.383.539c-.63.046-.888.031-1.115-.331a.331.331,0,0,1-.227-.512.6.6,0,0,1,.312-.726.905.905,0,0,1,1.229.26.435.435,0,0,1,.044.264A1.615,1.615,0,0,1,1500.126,468.951Z" transform="translate(-1490.196 -463.052)" fill="#f79744"/>
          <path id="Path_109" data-name="Path 109" d="M1485.543,484.64c.023-.033.05-.042.071-.071a.82.82,0,0,1,.437-.616,1.1,1.1,0,0,1,1.257.52.775.775,0,0,1,.118.221c0,.029.027.052.029.081v.025a.27.27,0,0,1,0,.092.66.66,0,0,1-.3.637.156.156,0,0,0-.033.029v-.008a.711.711,0,0,1-.131.067l-.035.012a.788.788,0,0,1-.14.015c.179.058-.241.1-.437.135a.861.861,0,0,1-.793-.258A.756.756,0,0,1,1485.543,484.64Z" transform="translate(-1450.637 -445.664)" fill="#f79744"/>
          <path id="Path_110" data-name="Path 110" d="M1484.473,486.3a1.349,1.349,0,0,1,.379-.747.542.542,0,0,1,.589-.181.574.574,0,0,1,.57.961c-.079.081-.148.175-.225.26,0,.01-.012.015-.016.023-.061.071-.119.127-.173.2A.643.643,0,0,1,1484.473,486.3Z" transform="translate(-1447.357 -444.093)" fill="#f79744"/>
          <path id="Path_111" data-name="Path 111" d="M1486.764,471.147a1.518,1.518,0,0,1-.591.327.675.675,0,0,1-.691-.194,1.347,1.347,0,0,1-.208-2.116.723.723,0,0,1,.508-.289.553.553,0,0,0,0-.085.6.6,0,0,1,1.19-.048c.025.214.123.433.156.653a.95.95,0,0,1,.4.539l.01.027a.813.813,0,0,1-.464.922C1487.232,470.854,1486.918,471.008,1486.764,471.147Z" transform="translate(-1449.539 -462.552)" fill="#f79744"/>
          <path id="Path_112" data-name="Path 112" d="M1488.805,469.158a1.553,1.553,0,0,0-.343.464.54.54,0,0,1-.826.158.814.814,0,0,1,.657-1.454.379.379,0,0,1,.289.158l.019,0A.406.406,0,0,1,1488.805,469.158Z" transform="translate(-1455.99 -462.485)" fill="#f79744"/>
          <path id="Path_113" data-name="Path 113" d="M1485.844,470.171a1.272,1.272,0,0,1,.982.857c.187.649-.71.924-1.144.782a.546.546,0,0,1-.379-.68.51.51,0,0,1,0-.391l.073.125A.527.527,0,0,1,1485.844,470.171Z" transform="translate(-1449.69 -460.488)" fill="#f79744"/>
          <path id="Path_114" data-name="Path 114" d="M1484.11,471.97a1.139,1.139,0,0,1,.121.035.2.2,0,0,1,.137.191c.008.04.01.079.023.123s0,.054.007.089a1.263,1.263,0,0,1,.233.589.678.678,0,0,1-.618.7,1.194,1.194,0,0,1-.947-.622.674.674,0,0,1-.048-.545A.643.643,0,0,1,1484.11,471.97Z" transform="translate(-1442.719 -458.765)" fill="#f79744"/>
          <path id="Path_115" data-name="Path 115" d="M1484.24,473.756l.052-.012a.257.257,0,0,1,.071,0,.573.573,0,0,1,.09-.017l.015.008a.489.489,0,0,1,.455.375c.017.033.048.062.065.1a.55.55,0,0,1-.441.832c-.033.006-.071,0-.1.006a.505.505,0,0,1-.3-.012c-.566-.123-.811-1.028-.146-1.207.038-.008.069-.017.109-.029A.371.371,0,0,1,1484.24,473.756Z" transform="translate(-1444.426 -456.65)" fill="#f79744"/>
          <path id="Path_116" data-name="Path 116" d="M1483.115,477.523c-1-.158-1.015-1.038-.791-1.812a1.1,1.1,0,0,1,.422-.872.233.233,0,0,1,.042-.031,2.235,2.235,0,0,1,1.964-.5c.911.3.766,1.25.356,1.879C1484.75,476.741,1483.844,477.64,1483.115,477.523Z" transform="translate(-1441.91 -456.094)" fill="#f79744"/>
          <path id="Path_117" data-name="Path 117" d="M1483.189,478.4a.589.589,0,0,1-.541.5.648.648,0,0,1-.158-.046.545.545,0,0,1-.709-.331,1.02,1.02,0,0,1,.653-1.461.608.608,0,0,1,.246.046.646.646,0,0,1,.8.97C1483.4,478.174,1483.3,478.284,1483.189,478.4Z" transform="translate(-1438.998 -453.065)" fill="#f79744"/>
          <path id="Path_118" data-name="Path 118" d="M1482.8,478.93a.774.774,0,0,1,1.123-.058,1.535,1.535,0,0,1,.71.994.655.655,0,0,1-.45.659c-.328.1-.547.414-.9.5a.728.728,0,0,1-.7-.287A1.441,1.441,0,0,1,1482.8,478.93Z" transform="translate(-1441.421 -451.318)" fill="#f79744"/>
          <path id="Path_119" data-name="Path 119" d="M1482.677,481.88a.583.583,0,0,1-.712-.576.908.908,0,0,1,.489-.936.422.422,0,0,1,.581.154,1.173,1.173,0,0,1,.079.166.552.552,0,0,1,.013,1.049Q1482.9,481.8,1482.677,481.88Z" transform="translate(-1439.474 -449.539)" fill="#f79744"/>
          <path id="Path_120" data-name="Path 120" d="M1481.521,482.1a.5.5,0,0,1-.522.044.934.934,0,0,1-.323-.333c-.025.025-.052.008-.1-.069a.72.72,0,0,1-.1-.283.491.491,0,0,1,.191-.453,1.449,1.449,0,0,1,.695-.183.52.52,0,0,1,.549.593A1.3,1.3,0,0,1,1481.521,482.1Z" transform="translate(-1434.769 -448.985)" fill="#f79744"/>
          <path id="Path_121" data-name="Path 121" d="M1483.116,483.239a.359.359,0,0,1-.152.017c-.108.033-.21.065-.312.1a.606.606,0,0,1-.862-.589,1.268,1.268,0,0,1,.76-1.119.483.483,0,0,1,.566.125.785.785,0,0,1,.152.391.35.35,0,0,1,.17.139c.017.025.013.056.023.079.018.06.062.1.05.173s-.019.16-.029.241a.478.478,0,0,1-.285.362C1483.166,483.185,1483.151,483.22,1483.116,483.239Z" transform="translate(-1439.122 -448.128)" fill="#f79744"/>
          <path id="Path_122" data-name="Path 122" d="M1487.225,467.926l-.025.056a.451.451,0,0,1-.524.181c-.085-.031-.167-.065-.248-.094a.636.636,0,0,1-.341-.813,1.086,1.086,0,0,1,1.271-.672.415.415,0,0,1,.41.323.853.853,0,0,1,.112.166.63.63,0,0,1-.089.741A.738.738,0,0,1,1487.225,467.926Z" transform="translate(-1452.413 -464.416)" fill="#f79744"/>
          <path id="Path_123" data-name="Path 123" d="M1490.968,466.624a.518.518,0,0,1-.9-.429.75.75,0,0,1,.818-.678.516.516,0,0,1,.218.992C1491.061,466.549,1491.015,466.582,1490.968,466.624Z" transform="translate(-1464.225 -465.517)" fill="#f79744"/>
          <path id="Path_124" data-name="Path 124" d="M1493.163,469.052a1.187,1.187,0,0,1-1.265.16,1.362,1.362,0,0,1-.68-1.392.094.094,0,0,0,0-.035,3.08,3.08,0,0,1,.029-.368.769.769,0,0,1,1.057-.585,3,3,0,0,1,.755.31,2.531,2.531,0,0,1,.53.928.776.776,0,0,1-.408.957C1493.174,469.031,1493.169,469.043,1493.163,469.052Z" transform="translate(-1468.865 -464.162)" fill="#f79744"/>
          <path id="Path_125" data-name="Path 125" d="M1484.4,467.679a1.034,1.034,0,0,1,.538-.647c.023-.06.058-.112.086-.183a.58.58,0,0,1,1.1.372h.01a2.281,2.281,0,0,1-.78,1.211C1484.828,468.882,1484.206,468.224,1484.4,467.679Z" transform="translate(-1447.115 -464.491)" fill="#f79744"/>
          <path id="Path_126" data-name="Path 126" d="M1482.844,469.028l-.177-.152a.536.536,0,0,1,.058-.84c.025-.01.05-.025.071-.035a.534.534,0,0,1,.6.042C1484.03,468.325,1483.4,469.526,1482.844,469.028Z" transform="translate(-1440.733 -462.911)" fill="#f79744"/>
          <path id="Path_127" data-name="Path 127" d="M1482.945,471.546a.69.69,0,0,1-.864-.809c.042-.131.085-.254.123-.383a.707.707,0,0,1,.559-.46,1.151,1.151,0,0,1,.809.16c.027.01.046.039.075.052a1.653,1.653,0,0,1,.227,0,.615.615,0,0,1,.189,1.161A9.328,9.328,0,0,1,1482.945,471.546Z" transform="translate(-1440.574 -460.807)" fill="#f79744"/>
          <path id="Path_128" data-name="Path 128" d="M1490.143,490.06a.514.514,0,0,1,.346.738,2.461,2.461,0,0,1-.312.622.578.578,0,0,1-1.059-.327,1.259,1.259,0,0,1,.193-.892A.606.606,0,0,1,1490.143,490.06Z" transform="translate(-1461.378 -439.111)" fill="#f79744"/>
          <path id="Path_129" data-name="Path 129" d="M1485.455,486.5a.607.607,0,0,1,1.146-.191,1.7,1.7,0,0,1-.025,1.887.837.837,0,0,1-1.427-.3.647.647,0,0,1,.246-.888A2.184,2.184,0,0,1,1485.455,486.5Z" transform="translate(-1449.301 -443.427)" fill="#f79744"/>
        </g>
        <path id="Path_130" data-name="Path 130" d="M1505.43,488.011c-.841,1.508-3.51.526-4.7.112a13.529,13.529,0,0,1-2-.9,6.481,6.481,0,0,1,1.585,3.437.578.578,0,0,1-.745.524,4.594,4.594,0,0,1-2.085-1.768,2.714,2.714,0,0,1-1.059,2.626.9.9,0,0,1-1.354-.4,13.911,13.911,0,0,1-.345-1.839,5.054,5.054,0,0,1-2.771,2.84.79.79,0,0,1-1.044-.643,5.37,5.37,0,0,1,.784-3.7c.085-.15.2-.32.3-.491a3.188,3.188,0,0,1-.732.131,8.57,8.57,0,0,1-2.282.429.44.44,0,0,1-.293-.751c.316-.287.645-.533.967-.8a.939.939,0,0,1,.443-.72c.708-.485,1.411-.99,2.1-1.49a8.376,8.376,0,0,1-4.294-1.015.7.7,0,0,1,.187-1.263,8.958,8.958,0,0,1,5.029.146c-1.163-1.635-2.153-3.308-2.039-5.465.031-.616.726-1.3,1.367-.859a6.745,6.745,0,0,1,1.766,1.862c.036-2.419.583-4.733,2.189-6.233a.969.969,0,0,1,1.59.437,8.147,8.147,0,0,1,.17,4.381,9.219,9.219,0,0,0,.383-1.059c.241-.909,1.573-.4,1.363.489-.119.505-.254,1-.389,1.492,1.479-1.8,3.108-3.11,4.176-2.278,1.084.853-.018,2.792-1.646,4.733a.865.865,0,0,1,.747,1.5c-.12.121-.247.21-.366.316a7.89,7.89,0,0,1,2.486-.01.938.938,0,0,1,.283,1.7,14.858,14.858,0,0,1-3.06,1.452c.416.133.844.281,1.213.441C1504.237,485.755,1506.118,486.76,1505.43,488.011Z" transform="translate(-1473.286 -459.048)" fill="#f05f42"/>
        <path id="Path_131" data-name="Path 131" d="M1497.029,481.715a4.437,4.437,0,0,1-.206.782,2.428,2.428,0,0,1-2.012,1.252,2.383,2.383,0,0,1-1.8-.641,3.105,3.105,0,0,1-1.456-.972,2.326,2.326,0,0,1-1.127-3.414,2.449,2.449,0,0,1,.087-.589,2.869,2.869,0,0,1,3.339-1.951l.175-.11a2.422,2.422,0,0,1,3.622,2.559l-.14.68A2.715,2.715,0,0,1,1497.029,481.715Z" transform="translate(-1470.557 -454.516)" fill="#b97d4f"/>
      </g>
    </g>
    <path id="Path_133" data-name="Path 133" d="M105.82.1a.841.841,0,0,1,.6-.038c3.735,1.174,5.387,4.688,6.664,8.156a.889.889,0,0,1,1.515-.48,14.194,14.194,0,0,1,3.206,4.487,24.947,24.947,0,0,1,1.055,2.68,7.929,7.929,0,0,0,.285.925,3.314,3.314,0,0,1,1.022,2.151c.008.005,0,.015,0,.028.356.437.722.529,1.055-.239a.758.758,0,0,1,1.391,0,27.622,27.622,0,0,1,1.452,8.25c.178,2.535-.913,7.515,2.929,5.7.366-.168.892.132.72.567-1.515,4.065-1.5,10.132-4.363,13.7a4.772,4.772,0,0,0,2.738-1.505c.394-.465,1.185-.028,1.154.526a25.218,25.218,0,0,1-2.7,10.182,12.842,12.842,0,0,1-4.831,5.339.39.39,0,0,0-.071.1,1.251,1.251,0,0,1,.414.107,2.492,2.492,0,0,1,.478.264h.01a1.318,1.318,0,0,1,1.228.75.614.614,0,0,1,.086.132,8.943,8.943,0,0,0,1.475.844c.165-.023.285-.018.3.038l.041.005a.1.1,0,0,1,.135.122c-.142.465-.75.8-1.114,1.058-.742.542-1.513,1.042-2.275,1.566-.567.562-1.182,1.055-1.782,1.576-.389.328-1.294,1.025-.951,1.594.262.442,1.08.292,1.538.623.081-.018.16-.023.249-.036.5-.119.864.595.379.859-5.314,2.868-7.614,9.455-13.818,10.337-.015.005-.018.02-.043.025a.151.151,0,0,1-.061,0,10.857,10.857,0,0,1-1.276.084,37.542,37.542,0,0,1-5.7,18.661c2.148-1.851,4.3-3.682,6.455-5.512,3.737-4.968,9.109-9.369,13.731-13.193,3.951-3.229,7.159-7.07,11.42-9.826-.025-.071-.071-.127-.1-.214a1.283,1.283,0,0,1-.053-.318,2.629,2.629,0,0,1,.025-.875.648.648,0,0,1,.094-.17c-1.592-4.724-.974-11.207,1-16.213a12.1,12.1,0,0,1,3.005-6.046,12.84,12.84,0,0,1,2.453-2.753.751.751,0,0,1,1.213.458,5.017,5.017,0,0,0,.1.981c.857-.3,1.7-.63,2.527-1.009a28.043,28.043,0,0,1,2.293-4.775.811.811,0,0,1,1.378.2c.076.267.15.547.234.816a34.925,34.925,0,0,1,5.8-6.933,12.882,12.882,0,0,1,3.453-2.9.714.714,0,0,1,1.007.508c.16,1.032,1.124,1.294,2.08,1.241,1.579-1.131,3.087-2.329,4.576-3.625a1.426,1.426,0,0,1,.427-.254,43.649,43.649,0,0,1,5.881-3.892.7.7,0,0,1,1.007.646,6.423,6.423,0,0,0-.252,1.475,31.412,31.412,0,0,0,4.892-1.569,34.5,34.5,0,0,1,4.444-3.043c.272-.15.542.145.5.419a.747.747,0,0,1,.384-.1,20.65,20.65,0,0,0,2.123.127,36.6,36.6,0,0,0,6.305-1.424,7.69,7.69,0,0,0,.992-.676c.264-.208.742.066.58.417-.1.2-.191.381-.292.57a.58.58,0,0,1,.216.686,7.271,7.271,0,0,0-.216,3.163,7.321,7.321,0,0,1,2.659-2.474c.242-.28.465-.582.717-.849a1.064,1.064,0,0,1,1.309-.221,5.657,5.657,0,0,1,.608-.305.393.393,0,0,1,.521.5,10.824,10.824,0,0,0-.4,1.831,50.741,50.741,0,0,0,5.433-1.843,20.6,20.6,0,0,0,5.57-4.5.516.516,0,0,0,.03-.089.967.967,0,0,1,.684-.615.306.306,0,0,1,.214-.046A.814.814,0,0,1,207,17.91a1.9,1.9,0,0,0-.051.239l.005.005-.008.025a20.612,20.612,0,0,1-2.667,8.27,14.213,14.213,0,0,1-1.853,2.4c-.427.458-.836.925-1.238,1.408-.041.038-.066.074-.1.109.648.28,1.292.554,1.942.824a.7.7,0,0,1,.437,1.213,17.956,17.956,0,0,1-1.912,1.777.823.823,0,0,1-.285.524,1.486,1.486,0,0,1-.188.135,10.923,10.923,0,0,1-5.535,4.281,9.918,9.918,0,0,0,3.364,1.79c.135.023.244.043.371.053a.53.53,0,0,1,.323.918,8.932,8.932,0,0,1-.808.62.893.893,0,0,1-.4.676c-.114.076-.242.158-.374.237a16.49,16.49,0,0,1-5.573,4.063,3.174,3.174,0,0,0-.666,3.4,3.324,3.324,0,0,0,.958.14.534.534,0,0,1,.552.636c-.836,3.041-3.979,4.556-6.89,5.4-1.955.986-4.129,1.759-5.937,2.761.208.15.412.257.618.407a.827.827,0,0,1,.112,1.162c-.814.791-11.934,6.361-12.036,4.937.1,1.462-.842,2.042-2.1,2.583-3.348,1.472-7.581,1.914-11.6,1.945-1.368.114-2.738.2-4.1.269a9.345,9.345,0,0,1,1.4,1.353,1.047,1.047,0,0,1-.811,1.724,24.46,24.46,0,0,1-6.455-.425c-1.175-.224-2.456-.875-3.633-1.21.01.158.023.3.041.442a.894.894,0,0,1-1,1.154c-1.739-.295-6.72-.463-9.142-2.074-4.129,5.311-10.192,9.119-15.026,13.691-.135.127-.252.236-.371.361-4.785,5.118-9.4,10.3-14.654,14.99-1.248,1.119-2.548,2.189-3.87,3.249.425-.1.849-.188,1.269-.287a36.714,36.714,0,0,1,4.126-.712,8.825,8.825,0,0,1,3.173-3.31c5.479-3.63,13.086-6.4,19.645-5.255a.931.931,0,0,1,.658,1.434,10.078,10.078,0,0,0-.684,1.19,36.35,36.35,0,0,1,15.214-1.92c.925-.064,1.871-.033,2.662-.13.31-.028.356.4.109.509a7.1,7.1,0,0,0-1.353.854.55.55,0,0,1-.1.272c-2.558,3.074,5.985.559,7.287.252a25.036,25.036,0,0,1,10.625-.46.763.763,0,0,1,.516.427.418.418,0,0,0,.122-.036.661.661,0,0,1,.669.641c.018.839.7,1.246,1.559,1.431.58-.158,1.1-.323,1.37-.374.658-.1,1.33-.191,2-.242a12.964,12.964,0,0,1,7.022-.531.493.493,0,0,1,.119.91c-.493.3-.887.641-1.3.933-.437,3.488,8.153,4.6,11.4,4.927a.611.611,0,0,1,.058-.03.364.364,0,0,1,.531.086.321.321,0,0,0,.1.013c.061.01.076.056.114.076a6.357,6.357,0,0,0,.905-.16c.664-.16.847.821.216,1.025-.191.046-.419.137-.661.206a.454.454,0,0,1-.219.308c-1.345.857-2.692,1.724-4.086,2.52-.008.01-.02.005-.028.023-1.075.969-2.232,2.044-3.341,3.147.041.338.46.557,1.543.534a.968.968,0,0,1,.669,1.719c-2.044,1.459-6.231,2.448-6.183,5.52a1.246,1.246,0,0,1-.048.2c.005.064.046.119.064.2a4.121,4.121,0,0,0,1.736.971.5.5,0,0,1-.02.966c-1.97.328-4.185.826-6.364,1.019-1.134.183-2.255.325-3.394.506-.786.544-1.022,1.205,0,2.006a.47.47,0,0,1,.2.447c.249.211.287.62-.1.73a24.425,24.425,0,0,1-9.781.4.54.54,0,0,1-.4.666,19.343,19.343,0,0,1-3.491.481c-7.452,2.057-16.831,1.136-22.027-4.818-.132.358-.3.7-.437,1.055,0,.582-.539,1.233-1.187,1.022-2.059-.671-4.37-1.337-6.074-2.728a10.01,10.01,0,0,1-2.339-2.3c.015.028-3.859-6.165-3.913-3.236a1.032,1.032,0,0,1-1.289.984c-4.67-1.525-8.649-5.08-9.905-9.8a5.017,5.017,0,0,1-1.925-3.473c-2.27.951-4.706,1.543-7,2.441-1.975.773-3.992,1.886-6.061,2.517-.145.1-.267.186-.4.292a33.762,33.762,0,0,1-6.925,4.406c-5.146,3.145-10.37,6.165-15.4,9.254-.13.125-.249.229-.392.356l-.015.005a54.9,54.9,0,0,1-4.309,4.65c-.486.613-.958,1.246-1.414,1.871a25.705,25.705,0,0,1,2.736-.3c2.189-1.052,3.882-3.33,5.54-4.96a18.264,18.264,0,0,1,5.809-3.842,10.351,10.351,0,0,1,1.375-.432,22.541,22.541,0,0,1,4.337-1.808c.676-.221,1.073.747.6,1.172a6.265,6.265,0,0,0-.976,1.205,1.728,1.728,0,0,1,.091,1.131,20.17,20.17,0,0,1,13.937-3.847c.8.084,1.449,1.19.658,1.782a5.836,5.836,0,0,0-1.409,1.2,2.2,2.2,0,0,1-.013.608,88.78,88.78,0,0,1,12.859-.88.52.52,0,0,1,.191,1.012c-1.525.712-1.859,1.838-2.453,2.725a13.281,13.281,0,0,1,4.889-.27c2.662.186,7.264,2.316,9.849,1.4.689-.252.984.737.46,1.116-5.608,4.045,5.049,4.159,7.048,4.625,3.33.747,5.911,2.916,9.114,4.035a.17.17,0,0,1,.059.308,4.211,4.211,0,0,1-1.246.541c-.844.491-2.311.867-2.214,1.988.1,1.1,1.218,2.085,1.986,2.753,1.536,1.355,3.969,2.949,6.209,2.949a9.992,9.992,0,0,1,1.111-.122.6.6,0,0,1,.178,1.164,5.728,5.728,0,0,1-1.459.287c-.712.31-1.442.62-2.169.895a64.669,64.669,0,0,1-13.238,6.112c.036-.018-12.158,1.322-7.452,4.6a.678.678,0,0,1-.216,1.225,17.557,17.557,0,0,1-5.728.386c-.117,0-9.849-1.548-9.135-.564a1.072,1.072,0,0,1-.887,1.754,48.758,48.758,0,0,1-6.692-.961c-1.411-.374-10.35-5.1-8.489-1.82.595,1.027-.712,1.777-1.548,1.353-4.965-2.581-9.356-3.986-11.2-9.277-.262.092-.511.2-.77.305a4.332,4.332,0,0,0-.422,1.691c-.089.646-1.068.986-1.35.267-.671-1.731-1.866-3.3-2.408-5.057a15.886,15.886,0,0,1-.559-4.614,1.051,1.051,0,0,1-1.9-.386c-.745-2.652-2.387-4.508-2.12-7.342a1.285,1.285,0,0,1,.058-.191,10.041,10.041,0,0,0-2.054-1.286,20.226,20.226,0,0,1-3.679.936h-.01a88.26,88.26,0,0,1-15.453,15.328c-5.608,4.47-11.952,8.049-17.865,12.066A66.227,66.227,0,0,1,1.6,172.127a.54.54,0,0,1-.341-1.012c.137-.071.28-.132.417-.2a1.4,1.4,0,0,1-.249-1.032,1.652,1.652,0,0,1-.275-.005A1.234,1.234,0,0,1,.9,167.451c4.068-1.49,8.133-2.982,12.145-4.579a37.4,37.4,0,0,1,3.857-1.617c3.346-2.969,6.89-5.265,9.651-9.079a34.164,34.164,0,0,0,5.7-14.306c-2.858.244-4.444-2.082-7.195-4.3A21.628,21.628,0,0,1,16.974,120.2a.73.73,0,0,1,1.259-.6l.005.015c-1.108-5.382-3.859-9.918-2.316-15.875a1,1,0,0,1,1.378-.7,2.65,2.65,0,0,1,1.335,1.19c.079-4.968.206-9.676,1.836-14.5.313-.936,1.63-.63,1.782.231.521-.008,1.05,0,1.569,0,.013-.854.005-1.708,0-2.573a3.681,3.681,0,0,1,.869-2.38.881.881,0,0,1,1.375-.145l2.568-.1a12.683,12.683,0,0,1,3.592-4.53c.348-.295,1.06-.236,1.126.328a4.427,4.427,0,0,0,.165.707,29.476,29.476,0,0,0,3.023-2.125c.02-.023.053-.02.094-.038.254-.923.412-1.686.5-2.052a.82.82,0,0,1,1.569-.074c.081.089.16.178.236.254.885-1.058,1.858-2.082,2.82-3.081a.772.772,0,0,1,1.36.585,29.387,29.387,0,0,1-.5,4.378,5.958,5.958,0,0,1,.966-.353.707.707,0,0,1,.806.913,14.839,14.839,0,0,0-.562,6.824c0,.028.14.717.361,1.586.656,1.363,1.495,2.652,2.186,3.905a.805.805,0,0,0,.125-.132.572.572,0,0,1,1.017.275c.066,1,.109,1.983.114,2.962a4.761,4.761,0,0,1,.01,1.78c-.01.079-.023.16-.038.242,0,.48,0,.974-.02,1.457-.018.158-1.243,6.933.852,5.459a.549.549,0,0,1,.887.45c-.086,1.47-2.776,11.316.094,10.525.437-.117.694.386.605.737-.32,1.22-.7,2.441-1.124,3.659a12.861,12.861,0,0,1-1.747,4.353c-2.715,5.771-6.791,10.958-12.628,13.475a.136.136,0,0,1-.043.061,7.3,7.3,0,0,1-.783.264c-.231.086-.453.186-.681.267-.01.005-.01-.005-.03,0,.417,4.942-1.355,10.109-3.737,14.311a31.979,31.979,0,0,1-2.736,4.06c1.065-.623,2.118-1.251,3.14-1.9.745-.478,1.48-.989,2.214-1.48a.592.592,0,0,1,.239-.521A181.7,181.7,0,0,0,46.5,140.08c4.861-4.617,8.6-10.241,13.18-15.115a25.329,25.329,0,0,1,2.929-2.649c3.295-3.27,6.315-6.013,8.469-10.365a25.1,25.1,0,0,0,2.639-10.325,1.5,1.5,0,0,0-.069-.252h-.01c-.036.01-.056-.02-.1-.015a9.1,9.1,0,0,1-5.548,1.716,8.807,8.807,0,0,1-5.265-1.884,1.2,1.2,0,0,1-.3-.239,15.928,15.928,0,0,1-2.26-2.214.5.5,0,0,1,.47-.816c2.57.414.913.295-.219-.559a22.025,22.025,0,0,1-2.654-2.212c-2.245-2.324-3.9-4.823-3.475-8.151a.634.634,0,0,1,.925-.417,5.154,5.154,0,0,0,1.6.819,1.821,1.821,0,0,0-.119-.516c-.076-.234-.168-.481-.254-.7-.791-1.528-2.794-3.247-4.261-4.683a.484.484,0,0,1-.119-.13A8.108,8.108,0,0,1,50.7,79.754c-.287-.554.414-.928.862-.684,1.925,1.124-.5-2.2-.539-2.242a12.222,12.222,0,0,1-1.762-2.619,8.05,8.05,0,0,1-.864-6.857.687.687,0,0,1,1.131-.29c.173.132.305.282.458.412-.539-2.875-2.141-5.487-.053-8.131a.467.467,0,0,1,.519-.2,12.1,12.1,0,0,1,2.888-6.361.68.68,0,0,1,1.134.325c.188.986,1.968-3.613,2.123-3.941a13.743,13.743,0,0,1,3-3.867,15.627,15.627,0,0,1,8.217-4.637.56.56,0,0,1,.646.595,26.908,26.908,0,0,0-.147,3.043.92.92,0,0,1,.308.819c.295.353.831.475,1.808.191a.532.532,0,0,1,.636.534,29.7,29.7,0,0,0-.343,4.314,11.263,11.263,0,0,1,.015,2.07c.051.735.168,1.439.267,2.12a.423.423,0,0,1,.707.209c-.018-.069.806,3.918,1.574,1.759a.565.565,0,0,1,.956-.142,6.868,6.868,0,0,1,1.386,2.5,12.223,12.223,0,0,1,.531,2.758.717.717,0,0,1,.018.132q-.069,3.406,3.539,5.189a.508.508,0,0,1,.923-.107c1.487,2.842,2.489,5.842,1.973,9.125-.043.341-1.332,7.642,1.205,5.537a.569.569,0,0,1,.9.524,22.865,22.865,0,0,1-.272,2.563c.74,6.081-3.745,14.642-9.458,16.643h-.008c.773,2.22-.01,5.52-.33,7.4a23.194,23.194,0,0,1-2.909,8c1.073-.605,2.148-1.19,3.2-1.787,5.23-2.977,10.337-6.239,15.534-9.28a45.239,45.239,0,0,0,4.917-5.583c4.419-5.985,6.264-12.486,8.207-19.376a12.913,12.913,0,0,1-9.186-5.375,46.254,46.254,0,0,1-3.857-6.336C88.8,65.252,88.4,59.921,85.207,57.539a.876.876,0,0,1,.02-1.49c2-1,3.539-1.309,5.446-.62-1.142-2.062-2.72-3.859-4.009-5.845-1.922-2.949-2.446-6.074-2.855-9.524a.752.752,0,0,1,1.32-.57c5.311,5.916,2.581-3.745,2.342-6.29-.2-2.077.61-4.32,1.215-6.252a.725.725,0,0,1,1.393.109c1.342,1.279,1.82,1.081,1.4-.595a12.454,12.454,0,0,1,.221-3.005A13.747,13.747,0,0,1,93.533,19a.754.754,0,0,1,1.381-.023c1.642,2.848,2.22-3.821,2.222-3.653a8.879,8.879,0,0,1,.684-3.221.755.755,0,0,1,1.147-.323c2.5,2.222,1.937-3.025,2.3-4.388a.771.771,0,0,1,1.36-.356c.287.305,1.937-6.244,1.983-6.43A.827.827,0,0,1,105.82.1Z" transform="matrix(-0.259, -0.966, 0.966, -0.259, 1850.96, 3421.434)" fill="#58595b" opacity="0.3"/>
    <g id="Group_221" data-name="Group 221" transform="translate(1913.31 3580.044) rotate(97)">
      <path id="Path_69-2" data-name="Path 69" d="M1551.772,614.877c-3.794-1.565-11.3-6.707-15.2-3.313a14.759,14.759,0,0,1-6.84,3.613c-11.507,2.5-14.8-10.263-24.339-10.918-8.635-.589-15.048,1.547-21.377-6.509-5.542-7.05-6.809-15.872-6.127-24.618,1.893-24.092,17.385-44.2,23.972-67.063a144.827,144.827,0,0,0,9.158-15.673,4.809,4.809,0,0,0,.568-2.412,51.061,51.061,0,0,1,6.449-8.711c10.491-11.267,28.45-11.567,39.558-1.2,11.706,10.93,12.877,30.628,14.835,45.4,3.16,23.909,13.411,48.927,9.606,73.35C1579.532,612.8,1567.929,621.533,1551.772,614.877Z" transform="translate(-1425.938 -356.394)" fill="#f9d0d0"/>
      <path id="Path_70-2" data-name="Path 70" d="M1579.135,502.322c-1.325,5.395-5.948,8.11-11.036,9.507,4.515,4.106,11.516,9.639,13.408,12.567,4.662,7.251.718,13.261-5.424,16.556-2.371,3.43-5.2,6.665-7.723,9.786-4.352,5.392-11.637,4.241-14.316,10.966-2.709,6.788-9.626,10.918-15.411,14.82-6.545,4.418-6.764,12.06-14.589,15.114-12.951,5.073-27.09-7.308-35.7-16.652-21.164-10.468-42.1-32.683-39.242-54.288-4.037-11.738-1.262-25.72,6.012-36.02,11.571-16.361,29.68-18.433,48.332-16.418,13.171,1.418,26.4,3.638,39.459,5.836,10.816,1.823,21.191,3.839,29.958,10.69A17.283,17.283,0,0,1,1579.135,502.322Z" transform="translate(-1311.716 -390.067)" fill="#f9d0d0"/>
      <path id="Path_71-2" data-name="Path 71" d="M1494.917,494.847c2.911-3.941,6.809-7.05,11.862-7.644,3.716-.432,9.422.757,13.771-.165.054-.051.123-.108.186-.168a5.043,5.043,0,0,1,3.68-4.557c.688-.249,1.375-.484,2.054-.715.946-2.917,1.3-6.614,2.337-9.278,1.364-3.529,6.254-6.07,9.275-7.864,7.308-4.322,8.906-13.886,15.733-18.794,13.985-10.044,30.46-2.85,37.576,11.387,4.313,8.648,4.439,18.809,8.608,27.673,3.818,8.122,7.927,15.685,9.4,24.624a6.064,6.064,0,0,1-.01,1.871c3.713,7.317,5.563,15.358,2.809,22.957-6.608,18.181-29.111,15.547-44.829,14.85-21.972-.967-43.922-6.191-62.23-18.659C1493.226,522.252,1485.044,508.183,1494.917,494.847Z" transform="translate(-1490.514 -430.935)" fill="#f9d0d0"/>
      <path id="Path_72-2" data-name="Path 72" d="M1474.709,441.3a3.648,3.648,0,0,0,4.184-.2c8.563-5.722,18.073,6.984,27,9.338,10.922,2.88,20.356,1.466,30.37,8.05,15.066,9.894,31.422,22.077,33.344,40.312-4.7,22.389-33.941,39.633-59.181,44.9a9.38,9.38,0,0,1-3.331.081,50.407,50.407,0,0,1-4.809,1.859c-.754.5-1.466,1.06-2.259,1.52a7.744,7.744,0,0,1-6.6.367,37.748,37.748,0,0,1-9.314-.222c-18.953-2.847-21.35-24.3-22.621-34.975-2.357-19.806-5.3-40.486,2.193-58.214A26.58,26.58,0,0,1,1474.709,441.3Z" transform="translate(-1354.559 -448.493)" fill="#f9d0d0"/>
      <path id="Path_73-2" data-name="Path 73" d="M1536.319,560.739c-9.675,2.817-18.2.679-20.99-9.729-1.129-4.184-.667-8.615-1.781-12.789-.871-3.283-11.357-4.974-14.295-6.308-9.87-4.478-8.275-17.133-5-25.312,4.518-11.279,19.23-18.289,29.772-22.266,17.83-6.725,37.423-7.743,55.553-13.579a5.408,5.408,0,0,1,5.7,1.321,45.223,45.223,0,0,1,6.894.237c3.223.342,5.07,3.791,4.653,6.707-3.575,24.636-27.571,38.88-40.709,58.019C1551.082,544.366,1545.786,557.981,1536.319,560.739Z" transform="matrix(0.995, 0.105, -0.105, 0.995, -1429.192, -521.695)" fill="#f9d0d0"/>
      <g id="Group_111-2" data-name="Group 111" transform="translate(57.5 113.454)">
        <path id="Path_74-2" data-name="Path 74" d="M1528.245,475.937c-10.978,11.189-21.8,22.515-31.016,35.227-8.293,11.438-16.514,25.216-18.092,39.51-1.109,10.02.532,21.212,5.476,30.067,6.962,12.471,18.316,6.77,25.834-1.835a.313.313,0,0,1,.517.132c5.421,28.156,49.073,35.245,65.135,12.435,4.571-6.482,5.172-14.913,3.436-22.434-1.2-5.211-3.553-9.972-4.19-15.334-.552-4.686.607-9.176,1.739-13.679,6.178-24.537-11.567-46.9-26.832-64.014-.264-.288.172-.727.433-.43,9.347,10.474,18.265,21.176,23.708,34.266a58.172,58.172,0,0,1,4.818,20.783c.141,7.827-3.365,15.154-3.247,23.074.105,7.4,4.716,14.153,5.1,21.647a27.1,27.1,0,0,1-2.064,12.03,28.625,28.625,0,0,1-15.6,14.892c-14.874,6.062-33.818,3.673-45.389-7.945a26.73,26.73,0,0,1-5.785-8.765c-.378-.94-1.525-6.01-2.478-4.917a35.382,35.382,0,0,1-6.536,5.773c-5.8,4.016-12.207,3.112-16.812-2.054-9.377-10.519-10.32-30.8-5.728-43.454,9.414-25.928,28.154-46.052,47.134-65.414.276-.279.718.153.439.439Z" transform="translate(-1477.994 -475.408)" fill="#f49a8c"/>
      </g>
      <g id="Group_112-2" data-name="Group 112" transform="translate(123.051 90.096)">
        <path id="Path_75-2" data-name="Path 75" d="M1446.745,494.681c.807,23.84,17.037,46.692,32.986,63.206,17.43,18.037,41.268,33.049,66.805,23.81,22.623-8.185,33.061-32.962,32.28-55.5-.363-10.429-4.07-50.359-22.593-34.975-.25.213-.691-.06-.48-.372,11.189-16.757-21.894-23-32.455-22.651-10.72.355-21.951,6.1-31.176,11.02-10.125,5.4-19.805,12.216-27.606,20.668-.268.291-.7-.144-.433-.435,10.038-10.882,23.041-18.941,36.414-25.069,9.591-4.4,19.869-7.86,30.505-6.425,8.72,1.174,18.968,3.646,25.171,10.381a9.406,9.406,0,0,1,2.409,7.726,11.563,11.563,0,0,1-1.61,4.064,12.3,12.3,0,0,1,3.766-2.52c13.573-5.959,17.04,21.176,17.935,28.622,2.31,19.184-.393,37.627-13.237,52.939a47.4,47.4,0,0,1-37.946,16.3c-13.519-.706-26.135-8.422-36.485-16.544-12.507-9.822-23-22.341-31.352-35.822-7.1-11.462-13.053-24.762-13.517-38.426-.015-.4.6-.4.619,0Z" transform="translate(-1446.126 -467.631)" fill="#f49a8c"/>
      </g>
      <g id="Group_113-2" data-name="Group 113" transform="translate(10.712 91.086)">
        <path id="Path_76-2" data-name="Path 76" d="M1590.255,481.633c-1.628,13.988-9.525,26.39-17.935,37.311-6.407,8.326-13.8,16.724-22.245,23.065-5.56,4.175-30.061,20.341-35.533,9.044-1.117-2.307-.433-5.3.153-7.635a39.405,39.405,0,0,1,2.421-6.38c1.042-2.346-5.993-4.6-7.5-5.32-3.866-1.853-7.83-3.821-10.465-7.3-2.9-3.845,1.508-7.828-1.949-11.066-17.553-16.43,7.572-35.75,22.062-41.517,28.883-11.483,60.959,4.407,82.063,23.735.295.27-.141.706-.436.435-20.575-18.845-47.113-31.346-75.473-25.42-18.74,3.911-46.737,26.549-25.242,44.583a.312.312,0,0,1,.048.375c-6.383,11.39,10.81,15.556,18.01,19.917a.314.314,0,0,1,.105.421c-3.59,7.539-7,19.5,5.551,17.791,8.026-1.1,15.83-5.539,22.53-9.867,8.444-5.458,15.406-13.261,21.87-20.858,9.891-11.621,19.542-25.8,21.344-41.312.045-.388.661-.391.619,0Z" transform="translate(-1491.203 -467.961)" fill="#f49a8c"/>
      </g>
      <g id="Group_114-2" data-name="Group 114" transform="translate(2.666)">
        <path id="Path_77-2" data-name="Path 77" d="M1601,534.657a.625.625,0,0,1-1.216-.282c6.223-29.009,16.235-67.156-9-89.981-25.331-22.921-51.258,22.362-58.635,41.562a10.759,10.759,0,0,0-9.071,15.352c-.156.285-.319.568-.472.841a.625.625,0,0,1-.808.889,35.322,35.322,0,0,0-15.532-4.265c-13.877-.349-14.8,16.875-7.722,24.738,6.04,6.7,17.581,11.348,25.6,15.2,23.02,11.053,49.942,10.092,74.7,7.8.8-.072.85,1.172.058,1.244-22.837,2.112-45.4,2.364-67.415-4.8-12.42-4.028-32.3-12.39-38.215-25.171-5.173-11.147,5.406-20.449,15.553-20.194,5.466.135,12.345,6.452,10.05-1.171-.977-3.232.3-8.624,3.649-10.173,1.949-.9,3.385-1.793,5.691-1.544,4.581.49,6.449-7.864,7.972-10.945a111.359,111.359,0,0,1,13.03-20.038c8.449-10.531,20.731-19.353,34.617-14.91,13.568,4.349,21.7,21.1,23.387,34.11C1609.934,493.783,1605.357,514.343,1601,534.657Z" transform="translate(-1491.919 -437.636)" fill="#f49a8c"/>
      </g>
      <g id="Group_115-2" data-name="Group 115" transform="translate(101.777 0.359)">
        <path id="Path_78-2" data-name="Path 78" d="M1468.621,547.06c-5.575-19.845-11.667-39.928-13.187-60.593-1.117-15.238,1.2-32.13,14.616-41.5,7.587-5.3,17.3-6.77,26.327-7.122,12.645-.487,26.88.889,38.381,6.419,5.548,2.67,11.687,6.906,15.679,11.615,5.826,6.878,10.381,12.568,18.665,16.619,9.858,4.824,14.722,17.247,13.123,27.826-4.788,31.7-43.451,49.771-71.863,52.282-.4.039-.394-.577,0-.613,28.04-2.478,65.005-19.824,71.052-50.386,1.532-7.734-.714-15.382-4.772-21.951-4.2-6.785-13.514-8.669-19.13-14.241-2.773-2.754-5.055-6.064-7.51-9.1-2.686-3.319-6.488-5.83-9.982-8.242-6.46-4.457-13.771-6.782-21.455-8.029-21.11-3.433-49.9-3.574-59.46,19.7-7.4,18-1.97,40.378,2.373,58.43,2.319,9.639,5.055,19.175,7.74,28.724a.309.309,0,0,1-.6.159Z" transform="translate(-1455.188 -437.756)" fill="#f49a8c"/>
      </g>
      <path id="Path_79-2" data-name="Path 79" d="M1495,488.23a3.632,3.632,0,0,1-2.958-3.064c-1.562-.514-2.2-2.409-2.04-4.124a5.76,5.76,0,0,1,.937-2.667c.138-1.838,1.3-3.379,3.623-2.67a3.452,3.452,0,0,1,1.55.982,3.066,3.066,0,0,1,.82.883,1.649,1.649,0,0,1,.328.267l.012.009c2.133.391,3.226,2.82,3.2,5C1500.42,485.541,1497.858,488.566,1495,488.23Z" transform="translate(-1375.873 -361.713)" fill="#b97d4f"/>
      <path id="Path_80-2" data-name="Path 80" d="M1491.843,559.668a.481.481,0,0,0-.105.03c4.95-18.8,16.367-35.711,21.771-54.5a144.818,144.818,0,0,0,9.158-15.673,4.806,4.806,0,0,0,.568-2.412,51.035,51.035,0,0,1,6.449-8.711,27.074,27.074,0,0,1,11.744-7.4,46.069,46.069,0,0,1,6.265.237c3.223.342,5.071,3.791,4.653,6.707-3.574,24.636-27.571,38.88-40.708,58.019C1506.606,543.3,1501.311,556.911,1491.843,559.668Z" transform="translate(-1433.076 -370.819)" fill="#f9d0d0" style="mix-blend-mode: multiply;isolation: isolate"/>
      <path id="Path_81-2" data-name="Path 81" d="M1490.514,453.6a43.243,43.243,0,0,0,2.19,5.839c3.817,8.122,7.927,15.685,9.4,24.624a6.08,6.08,0,0,1-.009,1.871c3.713,7.317,5.563,15.357,2.808,22.957a23.032,23.032,0,0,1-1.892,3.9c-7.5-7.936-9-20.866-9.9-28.43C1491.889,474.156,1490.541,463.736,1490.514,453.6Z" transform="translate(-1383.217 -405.652)" fill="#f9d0d0" style="mix-blend-mode: multiply;isolation: isolate"/>
      <path id="Path_82-2" data-name="Path 82" d="M1539.593,471.465a103.954,103.954,0,0,1-37.48,16.166,9.38,9.38,0,0,1-3.331.081,50.4,50.4,0,0,1-4.809,1.859c-.754.5-1.466,1.06-2.259,1.52a7.744,7.744,0,0,1-6.6.367,37.756,37.756,0,0,1-9.314-.222,21.717,21.717,0,0,1-9.687-3.887c.547-.907,1.111-1.8,1.721-2.67,11.57-16.361,29.679-18.433,48.332-16.418C1523.964,469.1,1531.789,470.233,1539.593,471.465Z" transform="translate(-1343.279 -377.552)" fill="#f9d0d0" style="mix-blend-mode: multiply;isolation: isolate"/>
      <g id="Group_117-2" data-name="Group 117" transform="translate(85.121 83.744)">
        <g id="Group_116-2" data-name="Group 116">
          <path id="Path_84-2" data-name="Path 84" d="M1494.051,470.164a.3.3,0,0,1-.06-.066.085.085,0,0,0,.048.042Z" transform="translate(-1466.609 -456.338)" fill="#f79744"/>
          <path id="Path_85-2" data-name="Path 85" d="M1530.446,489.452a1.452,1.452,0,0,1,.246,2.487c-.9.6-1.733,1.243-2.55,1.889a10.221,10.221,0,0,1,5.358-.378,1.573,1.573,0,0,1,1,2.1,24.459,24.459,0,0,1,3.757.5c1.61.354,1.352,2.7-.1,3.055-1.661.414-3.337.766-4.992,1.1a.7.7,0,0,1-.631.448c-.553,0-1.2.108-1.778.081a1.669,1.669,0,0,1-.2.273,17.25,17.25,0,0,1,4.68,1.781,1.588,1.588,0,0,1-.43,2.887c-.237.033-.456.039-.69.075a6.158,6.158,0,0,1,.588.946,1.536,1.536,0,0,1-1.189,2.265,1.348,1.348,0,0,1,.282.475,1.138,1.138,0,0,1,1.055.52,2.176,2.176,0,0,1,1.309,2.187,2.332,2.332,0,0,1-3.346,1.739,2.281,2.281,0,0,1-1.271-2.226c.015-.093.052-.156.073-.252-.246-.069-.492-.132-.739-.21a1.623,1.623,0,0,1-.565,1.814,1.179,1.179,0,0,1-.072.348c.294.252.61.5.9.742a1.139,1.139,0,0,1,.385.8c1.25.718.108,2.8-1.4,2.253a15.5,15.5,0,0,1-1.8-.805c-.3-.153-.606-.318-.928-.484-.244-.084-.475-.2-.709-.3a1.679,1.679,0,0,1-1.1,1.673c-.031.012-.06.012-.084.024,1.018,2.956,1.592,6.1,2.334,9.119.351,1.478-1.442,2.109-2.406,1.24a23.659,23.659,0,0,1-4.028-4.779,17.531,17.531,0,0,1-.682,2.622,1.057,1.057,0,0,1,.817.793c.069.087.15.165.21.255a.648.648,0,0,1-.336,1.069,8.113,8.113,0,0,1-1.349-.006c-.549.021-.856-.625-.736-1.094a1.272,1.272,0,0,1-.541-.234,4.943,4.943,0,0,1-1.655-2.658.949.949,0,0,1-.426-.21c-.024.027-.03.069-.063.087-.033.111-.057.225-.1.33a1.106,1.106,0,0,1-1.445.571.425.425,0,0,0-.081-.045c-.042,0-.081-.006-.129,0a2.312,2.312,0,0,1-2.019.447.769.769,0,0,1-.568-.526,8.77,8.77,0,0,1-.426-1.808,2.908,2.908,0,0,1-.513.132,31.74,31.74,0,0,0,.144,3.469,1.292,1.292,0,0,1-2.337.859,1.265,1.265,0,0,1-.424.5,1.567,1.567,0,0,1-.159.292,1.632,1.632,0,0,1-1.994.21,12.544,12.544,0,0,1-1.742,3.04,1.293,1.293,0,0,1-2.277-.646,41.139,41.139,0,0,1,.015-4.127,2.832,2.832,0,0,1-.49-.057.473.473,0,0,1-.337.117,1.639,1.639,0,0,1-1.045-.595,8.254,8.254,0,0,1-1.832,2.1c-.1.228-.183.454-.291.673a1.074,1.074,0,0,1-1.382.541,1.3,1.3,0,0,1-1.751-.664c-1.241-2.847-.2-6.166,1.124-9.119a2.978,2.978,0,0,1-.9-.484l-.018.024a1.107,1.107,0,0,1-1.833-.4,16.864,16.864,0,0,1-1.911,1.309,2.241,2.241,0,0,1,.541.045,1.2,1.2,0,0,1,.976-.021,1.765,1.765,0,0,1,1.051,1.655c.084,1.318-.883,3.145-2.4,2.445a3.109,3.109,0,0,1-1.489-2.953,1.506,1.506,0,0,1,.486-.865,1.244,1.244,0,0,1-1.121-1.487,11.817,11.817,0,0,1,1.328-3.824,8.207,8.207,0,0,1-3.5.261.949.949,0,0,1-.652-1.358c.249-.37.5-.727.765-1.084a.822.822,0,0,1-.4-.255c-.1-.078-.2-.156-.28-.228a1.189,1.189,0,0,1-.6-1.24,2.3,2.3,0,0,1,.06-.315,1.156,1.156,0,0,1,1.061-.889c.024-.009.036,0,.06-.009a.708.708,0,0,1,.928.009.737.737,0,0,0,.138.006.88.88,0,0,1,.412.084,1.453,1.453,0,0,1-.433-1.394,3.069,3.069,0,0,1,.18-.414,10.111,10.111,0,0,1-2.463-.12,2.269,2.269,0,0,1-1.9.6,3.317,3.317,0,0,1-1.544-.862,1.447,1.447,0,0,1,.066-1.991,1.126,1.126,0,0,0,.965-.811,1.108,1.108,0,0,1,1.7-.4,2.416,2.416,0,0,1,.213.213,3.671,3.671,0,0,1,.568-.382,2.561,2.561,0,0,1-.916-2.039,2.1,2.1,0,0,1,.628-1.325,7.688,7.688,0,0,1-1.174-.739,1.345,1.345,0,0,1,.478-2.25,10.912,10.912,0,0,1,4.154-.634,2.032,2.032,0,0,1-.186-.454c-.406-2.5,2.268-4.25,4.49-3.812-2.649-2.559-4.941-5.521-5.674-8.386a1.209,1.209,0,0,1,.937-1.451c2.565-.318,4.509.934,6.362,2.706.231.21.451.441.679.661a17.23,17.23,0,0,1,1.925,1.679c-.138-.225-.294-.442-.438-.655a1.161,1.161,0,0,1-.4-1.886,2.194,2.194,0,0,0,.481-.535,1.372,1.372,0,0,1,.664-.7,1.449,1.449,0,0,1,.243-1.253c-.048-.063-.105-.093-.153-.165-.5-.76.027-1.781.568-2.334a1,1,0,0,1,1.237-.069.457.457,0,0,0,.1.021l-.021-.06c-.393-1.325-1.112-3.367-.252-4.671,1.427-2.22,3.613.456,5.271,3.046.03-.18.061-.348.106-.526a1.077,1.077,0,0,1,.153-.318c-.06-.132-.141-.261-.2-.4-.021-.039-.024-.054-.042-.087a.619.619,0,0,0,.144.129,1.258,1.258,0,0,1-.156-.153c-.072-.111-.1-.111-.048-.042-.79-.82.184-2.154,1.235-2.09-.483-.021-.021-.129.228-.3a1.549,1.549,0,0,1-.072-1.015,1.317,1.317,0,0,1,.036-.2c.045-.174.087-.339.121-.511a1.082,1.082,0,0,1,1.447-.889c.2.093.409.192.61.3a4.062,4.062,0,0,1,.9-.46.893.893,0,0,1,1.189.841.4.4,0,0,1,.03-.1.855.855,0,0,1-.084.652,1.154,1.154,0,0,1-.2.318c-.156.168-.334.321-.5.478a1.587,1.587,0,0,1-.4,1.09c.069.075.138.147.207.234.054.09.084.177.132.27.358-.9.772-1.808,1.277-2.841a1.351,1.351,0,0,1,2.529.577c0,.117-.009.228-.012.349a13.34,13.34,0,0,1,3.463-5.755,7.053,7.053,0,0,1,.6-1.057,1.377,1.377,0,0,1,2.123-.345c2.082,2.046,1.739,5.545,1.033,8.921.12-.018.207-.063.349-.075a1.159,1.159,0,0,1,1.153.733,4.237,4.237,0,0,1,.111.619,7.025,7.025,0,0,1,2.064-1.613,1.186,1.186,0,0,1,1.769.994,15.565,15.565,0,0,1-.4,3.52c.067-.039.121-.087.181-.123a1.157,1.157,0,0,1,1.028-.033,1.127,1.127,0,0,1,.8-.048,1.5,1.5,0,0,1,.583-.1.785.785,0,0,1,.769.952.28.28,0,0,1-.012.09,1.349,1.349,0,0,1,.595,2.136,1.936,1.936,0,0,0-.16.207c1.292-1.277,2.565-2.571,3.779-3.923,1.015-1.121,3.193.1,2.6,1.553A25.443,25.443,0,0,1,1530.446,489.452Z" transform="translate(-1478.215 -463.557)" fill="#f79744"/>
          <path id="Path_86-2" data-name="Path 86" d="M1490.95,486.771a.621.621,0,0,1,1.069.006c.048.087.082.183.115.255a.9.9,0,0,1,.534.931.742.742,0,0,1-.1.276,3.13,3.13,0,0,1,.121.486.658.658,0,0,1-.694.613,4.848,4.848,0,0,0-1,.225.854.854,0,0,1-1-.676,1.662,1.662,0,0,1,.781-1.661A1.613,1.613,0,0,1,1490.95,486.771Z" transform="translate(-1453.179 -423.537)" fill="#f79744"/>
          <path id="Path_87-2" data-name="Path 87" d="M1491.713,489.009l.45-.8a.955.955,0,0,1,.384-.354.678.678,0,0,1,1.124-.18,11.093,11.093,0,0,1,1.027,1.1.742.742,0,0,1-.249,1.063,1.553,1.553,0,0,1,.1.426.985.985,0,0,1-1.663.715,2.759,2.759,0,0,1-.442-.538A1.006,1.006,0,0,1,1491.713,489.009Z" transform="translate(-1460.214 -421.57)" fill="#f79744"/>
          <path id="Path_88-2" data-name="Path 88" d="M1493.262,489.119a.83.83,0,0,1,.225.739,1.444,1.444,0,0,1,.057.556c-.135,1.171-1.361,1.231-2.214,1.625a1.051,1.051,0,0,1-1.478-.766,3,3,0,0,1,.786-2.751A1.945,1.945,0,0,1,1493.262,489.119Z" transform="translate(-1453.586 -420.058)" fill="#f79744"/>
          <path id="Path_89-2" data-name="Path 89" d="M1501.049,482.737c.039-.015.072-.03.119-.045.241-.748.526-1.129,1.62-1.235a.783.783,0,0,1,.7.421,2.85,2.85,0,0,1,.318,2.619,1.536,1.536,0,0,1-.667.574,5.113,5.113,0,0,1-.529.508,1.067,1.067,0,0,1-1.634-.372.516.516,0,0,0-.024-.09.8.8,0,0,1-.243-.237,1.006,1.006,0,0,1-.492-.871,4.372,4.372,0,0,1,.084-.592A1.015,1.015,0,0,1,1501.049,482.737Z" transform="translate(-1495.291 -433.584)" fill="#f79744"/>
          <path id="Path_90-2" data-name="Path 90" d="M1500.981,485.155a.729.729,0,0,1,1.3.192c.042.039.093.054.117.1a1.847,1.847,0,0,1-.048,1.144l-.021.012a.87.87,0,0,1-.108.387c-.285.5-.868.378-1.333.483a.9.9,0,0,1-1.007-.814A1.49,1.49,0,0,1,1500.981,485.155Z" transform="translate(-1492.721 -426.805)" fill="#f79744"/>
          <path id="Path_91-2" data-name="Path 91" d="M1500.8,486.623c.444,0,1.033.207,1.141.694a.846.846,0,0,1-.15.631.9.9,0,0,1,.009.12c-.069.39-.141.781-.219,1.177a.926.926,0,0,1-1.042.757,3.942,3.942,0,0,0-.7-.093,1.014,1.014,0,0,1-.955-.727A1.84,1.84,0,0,1,1500.8,486.623Z" transform="translate(-1488.89 -423.227)" fill="#f79744"/>
          <path id="Path_92-2" data-name="Path 92" d="M1499.73,488.7c-.018.051-.117.24-.22.439a3.224,3.224,0,0,1,.358.688.811.811,0,0,1-.784,1.018c-.757-.03-1.559-.111-1.863-.9s.355-1.667.853-2.2A1,1,0,0,1,1499.73,488.7Z" transform="translate(-1481.948 -421.548)" fill="#f79744"/>
          <path id="Path_93-2" data-name="Path 93" d="M1501.549,474.868a1.288,1.288,0,0,1,1.733.21,1.884,1.884,0,0,1,1.193,2.087,2.561,2.561,0,0,1-.742,1.388,2.006,2.006,0,0,1-.736.565,2.351,2.351,0,0,1-2.316.054C1498.873,478.118,1500.45,475.676,1501.549,474.868Z" transform="translate(-1494.686 -447.275)" fill="#f79744"/>
          <path id="Path_94-3" data-name="Path 94" d="M1504.318,478.75a.772.772,0,0,1,.562,1.274.536.536,0,0,1,0,.171.786.786,0,0,1-.255.459c-.246.024-.487.048-.743.078a1.768,1.768,0,0,1-.562.342.925.925,0,0,1-1.244-.751,2.793,2.793,0,0,1,.028-.634c0-.03-.015-.066-.012-.1l.021-.06a.778.778,0,0,1,.82-.7h.018l.063.009a1.492,1.492,0,0,1,.651-.075A2.6,2.6,0,0,1,1504.318,478.75Z" transform="translate(-1501.885 -439.029)" fill="#f79744"/>
          <path id="Path_95-3" data-name="Path 95" d="M1504.158,480.747a.665.665,0,0,1,.781.535.487.487,0,0,1-.024.324.866.866,0,0,1,.036.2,2.856,2.856,0,0,0-.108.724.812.812,0,0,1-.8.8,5.068,5.068,0,0,1-1.126-.024c-.784-.108-.886-1.192-.424-1.676A3.553,3.553,0,0,1,1504.158,480.747Z" transform="translate(-1502.214 -435.049)" fill="#f79744"/>
          <path id="Path_96-2" data-name="Path 96" d="M1488.125,489.005a.622.622,0,0,1,.1-.427.923.923,0,0,1,.105-.433.732.732,0,0,1,.82-.246,2.447,2.447,0,0,1,.9.787.724.724,0,0,1-.291,1.1A1.063,1.063,0,0,1,1488.125,489.005Z" transform="translate(-1445.128 -420.731)" fill="#f79744"/>
          <path id="Path_97-2" data-name="Path 97" d="M1494.557,489.369a.752.752,0,0,1,.363.55.88.88,0,0,1-.286.808l-.051.036,0,.06a.465.465,0,0,1-.475.321h-.012c-.4.243-1.136.129-1.142-.475a1.317,1.317,0,0,1,.562-1.234A.85.85,0,0,1,1494.557,489.369Z" transform="translate(-1464.376 -418.019)" fill="#f79744"/>
          <path id="Path_98-2" data-name="Path 98" d="M1499.955,473.948a1.431,1.431,0,0,1-.193.009.782.782,0,0,1-.988.318,1.1,1.1,0,0,1-1.586-.565,7.086,7.086,0,0,1-.246-.985,1.209,1.209,0,0,1,.988-1.409.861.861,0,0,1,.25-.1c.514-.057,1.048-.027,1.577-.045a1.05,1.05,0,0,1,.79,1.619A.858.858,0,0,1,1499.955,473.948Z" transform="translate(-1482.104 -454.183)" fill="#f79744"/>
          <path id="Path_99-2" data-name="Path 99" d="M1500.793,472.674l-.006-.015h0Z" transform="translate(-1493.766 -451.206)" fill="#f79744"/>
          <path id="Path_100-2" data-name="Path 100" d="M1503.029,473.931c-.324.045-.649.1-.97.147a.776.776,0,0,0-.084-.036.133.133,0,0,0-.052.027.143.143,0,0,0-.036-.066c-.06-.03-.06-.012.036.066a1.963,1.963,0,0,1-.661.207.992.992,0,0,1-.679-1.7,1.983,1.983,0,0,1,1.652-.562c.087-.018.183-.036.267-.054a.712.712,0,0,1,.766.871,1.514,1.514,0,0,1,.106.189A.7.7,0,0,1,1503.029,473.931Z" transform="translate(-1494.904 -452.616)" fill="#f79744"/>
          <path id="Path_101-2" data-name="Path 101" d="M1501.32,474.776a.946.946,0,0,1-.1,1.5,1.578,1.578,0,0,1-1.412-.006.608.608,0,0,1-.24-.045,1.206,1.206,0,0,0-.174-.1.934.934,0,0,1-.546-.934c.005-.111.021-.222.03-.333,0,0,.006.015.024.027a.852.852,0,0,1,1.018-.781l.036,0a.976.976,0,0,1,.2.087v-.018A6.314,6.314,0,0,1,1501.32,474.776Z" transform="translate(-1488.792 -448.34)" fill="#f79744"/>
          <path id="Path_102-2" data-name="Path 102" d="M1500.029,471.032c-.027.006-.084.012-.147.021a.758.758,0,0,1-.15.054c.15-.03.219-.042.282-.051a1.206,1.206,0,0,1-.823.291l-.027.021a3.649,3.649,0,0,1-1.928-.117,1.175,1.175,0,0,1-.213-2.175c.114-.556.406-1.054,1.114-1.015a1.492,1.492,0,0,1,1.073.691,1.539,1.539,0,0,1,.6.36,1.025,1.025,0,0,1,.631,1.3.934.934,0,0,1-.177.364A1.187,1.187,0,0,1,1500.029,471.032Z" transform="translate(-1480.249 -460.422)" fill="#f79744"/>
          <path id="Path_103-2" data-name="Path 103" d="M1499.793,469.546a.858.858,0,0,1-.369,1.442,1.413,1.413,0,0,0-.165.048.837.837,0,0,1-.745-1.427,1.474,1.474,0,0,1,.291-.219A.728.728,0,0,1,1499.793,469.546Z" transform="translate(-1485.391 -458.011)" fill="#f79744"/>
          <path id="Path_104-2" data-name="Path 104" d="M1501.2,471.407a1.2,1.2,0,0,1-1.5.559.915.915,0,0,1-.534-.961c.012-.072.015-.132.03-.2a.97.97,0,0,1,1.25-.709A.84.84,0,0,1,1501.2,471.407Z" transform="translate(-1489.423 -456.427)" fill="#f79744"/>
          <path id="Path_105-2" data-name="Path 105" d="M1494.756,469.8a.885.885,0,0,1-1.232-.114,1.541,1.541,0,0,1-.357-.6.956.956,0,0,1,.378-1.1c.051-.027.1-.015.15-.036a2.088,2.088,0,0,1,1.625-.592.829.829,0,0,1,.537,1.421C1495.467,469.1,1495.137,469.48,1494.756,469.8Z" transform="translate(-1466.049 -461.841)" fill="#f79744"/>
          <path id="Path_106-2" data-name="Path 106" d="M1496.771,468.5a1,1,0,0,1-1.964.288,2.033,2.033,0,0,1,0-.664.72.72,0,0,1,.02-.417,1.6,1.6,0,0,1,.9-.8c.558-.276,1.417.147,1.177.874a1.273,1.273,0,0,0-.111.415c.012.111.024.216.033.336C1496.813,468.518,1496.783,468.512,1496.771,468.5Z" transform="translate(-1471.87 -462.9)" fill="#f79744"/>
          <path id="Path_107-2" data-name="Path 107" d="M1498,467.817a1.6,1.6,0,0,1-.12-.189.915.915,0,0,1-.625-1.241c.024-.051.054-.1.075-.144a.937.937,0,0,1,1.022-.511,1.662,1.662,0,0,1,1.144.667.664.664,0,0,1,.153.523,1.161,1.161,0,0,1-.784,1.183A.765.765,0,0,1,1498,467.817Z" transform="translate(-1481.805 -465.128)" fill="#f79744"/>
          <path id="Path_108-2" data-name="Path 108" d="M1500.914,469.462a.671.671,0,0,1-.552.778c-.91.066-1.283.045-1.61-.478a.479.479,0,0,1-.328-.739.859.859,0,0,1,.451-1.048,1.307,1.307,0,0,1,1.775.375.627.627,0,0,1,.064.382A2.337,2.337,0,0,1,1500.914,469.462Z" transform="translate(-1486.577 -460.946)" fill="#f79744"/>
          <path id="Path_109-2" data-name="Path 109" d="M1485.594,484.972c.033-.048.073-.06.1-.1a1.184,1.184,0,0,1,.63-.889,1.593,1.593,0,0,1,1.815.751,1.118,1.118,0,0,1,.171.318c0,.042.039.075.042.117v.036a.392.392,0,0,1,0,.132.953.953,0,0,1-.427.919.228.228,0,0,0-.048.042v-.012a1.03,1.03,0,0,1-.189.1l-.051.018a1.139,1.139,0,0,1-.2.021c.259.084-.348.15-.63.2a1.243,1.243,0,0,1-1.144-.372A1.092,1.092,0,0,1,1485.594,484.972Z" transform="translate(-1435.199 -428.7)" fill="#f79744"/>
          <path id="Path_110-2" data-name="Path 110" d="M1484.478,486.724a1.947,1.947,0,0,1,.547-1.078.782.782,0,0,1,.85-.261.829.829,0,0,1,.823,1.388c-.114.117-.213.252-.324.375,0,.015-.018.021-.024.033-.087.1-.171.183-.25.291A.929.929,0,0,1,1484.478,486.724Z" transform="translate(-1430.892 -425.788)" fill="#f79744"/>
          <path id="Path_111-2" data-name="Path 111" d="M1487.614,472.428a2.193,2.193,0,0,1-.853.472.975.975,0,0,1-1-.279c-1.048-.628-1.259-2.427-.3-3.055a1.044,1.044,0,0,1,.733-.418.8.8,0,0,0,0-.123.872.872,0,0,1,1.719-.069c.035.31.177.625.225.943a1.372,1.372,0,0,1,.583.778l.015.039a1.173,1.173,0,0,1-.67,1.331C1488.29,472,1487.836,472.227,1487.614,472.428Z" transform="translate(-1433.869 -460.019)" fill="#f79744"/>
          <path id="Path_112-2" data-name="Path 112" d="M1489.473,469.528a2.242,2.242,0,0,0-.5.67.78.78,0,0,1-1.192.228,1.175,1.175,0,0,1,.949-2.1.547.547,0,0,1,.417.228l.027,0A.586.586,0,0,1,1489.473,469.528Z" transform="translate(-1442.096 -459.895)" fill="#f79744"/>
          <path id="Path_113-2" data-name="Path 113" d="M1486.1,470.171a1.837,1.837,0,0,1,1.418,1.238c.27.937-1.025,1.334-1.652,1.129a.788.788,0,0,1-.547-.982.737.737,0,0,1,0-.565l.1.18A.761.761,0,0,1,1486.1,470.171Z" transform="translate(-1433.904 -456.191)" fill="#f79744"/>
          <path id="Path_114-2" data-name="Path 114" d="M1484.61,472.06a1.649,1.649,0,0,1,.174.051.291.291,0,0,1,.2.276c.012.057.015.114.033.177.01.042,0,.078.01.129a1.823,1.823,0,0,1,.336.85.979.979,0,0,1-.892,1.009,1.724,1.724,0,0,1-1.366-.9.973.973,0,0,1-.069-.787A.928.928,0,0,1,1484.61,472.06Z" transform="translate(-1424.852 -452.995)" fill="#f79744"/>
          <path id="Path_115-2" data-name="Path 115" d="M1484.526,473.771l.075-.018a.373.373,0,0,1,.1-.006.826.826,0,0,1,.129-.024l.021.012a.705.705,0,0,1,.657.541c.024.048.069.09.093.138a.794.794,0,0,1-.637,1.2c-.048.009-.1,0-.144.009a.73.73,0,0,1-.438-.018c-.817-.177-1.171-1.484-.211-1.742.054-.012.1-.024.157-.042A.537.537,0,0,1,1484.526,473.771Z" transform="translate(-1427.044 -449.074)" fill="#f79744"/>
          <path id="Path_116-2" data-name="Path 116" d="M1483.518,478.981c-1.439-.228-1.466-1.5-1.141-2.616a1.588,1.588,0,0,1,.609-1.259.335.335,0,0,1,.06-.045,3.226,3.226,0,0,1,2.835-.724c1.316.427,1.106,1.805.514,2.712C1485.879,477.852,1484.57,479.15,1483.518,478.981Z" transform="translate(-1424.027 -448.043)" fill="#f79744"/>
          <path id="Path_117-2" data-name="Path 117" d="M1483.86,479a.85.85,0,0,1-.781.727.939.939,0,0,1-.229-.066.787.787,0,0,1-1.024-.478,1.472,1.472,0,0,1,.943-2.109.879.879,0,0,1,.355.066.932.932,0,0,1,1.153,1.4C1484.166,478.677,1484.025,478.836,1483.86,479Z" transform="translate(-1420.058 -442.425)" fill="#f79744"/>
          <path id="Path_118-2" data-name="Path 118" d="M1483,479.051a1.117,1.117,0,0,1,1.622-.084,2.216,2.216,0,0,1,1.024,1.436.945.945,0,0,1-.649.952c-.474.144-.79.6-1.3.715a1.051,1.051,0,0,1-1.015-.415A2.08,2.08,0,0,1,1483,479.051Z" transform="translate(-1423.257 -439.185)" fill="#f79744"/>
          <path id="Path_119-2" data-name="Path 119" d="M1482.993,482.578a.842.842,0,0,1-1.027-.832,1.311,1.311,0,0,1,.706-1.352.609.609,0,0,1,.838.222,1.683,1.683,0,0,1,.114.24.8.8,0,0,1,.018,1.514Q1483.317,482.47,1482.993,482.578Z" transform="translate(-1420.618 -435.886)" fill="#f79744"/>
          <path id="Path_120-2" data-name="Path 120" d="M1481.991,482.664a.726.726,0,0,1-.754.063,1.345,1.345,0,0,1-.466-.481c-.036.036-.075.012-.15-.1a1.042,1.042,0,0,1-.147-.409.71.71,0,0,1,.276-.655,2.094,2.094,0,0,1,1-.264.751.751,0,0,1,.793.856A1.87,1.87,0,0,1,1481.991,482.664Z" transform="translate(-1414.492 -434.859)" fill="#f79744"/>
          <path id="Path_121-2" data-name="Path 121" d="M1483.7,483.961a.519.519,0,0,1-.219.024c-.156.048-.3.093-.451.147a.875.875,0,0,1-1.244-.85,1.831,1.831,0,0,1,1.1-1.616.7.7,0,0,1,.817.18,1.133,1.133,0,0,1,.22.565.506.506,0,0,1,.246.2c.024.036.019.081.033.114.026.087.09.147.072.249-.006.12-.027.231-.042.348a.69.69,0,0,1-.411.523C1483.776,483.883,1483.755,483.934,1483.7,483.961Z" transform="translate(-1420.188 -433.271)" fill="#f79744"/>
          <path id="Path_122-2" data-name="Path 122" d="M1487.751,468.543l-.036.081a.652.652,0,0,1-.757.261c-.123-.045-.241-.093-.357-.135a.918.918,0,0,1-.493-1.174,1.568,1.568,0,0,1,1.835-.97.6.6,0,0,1,.592.466,1.229,1.229,0,0,1,.162.24.91.91,0,0,1-.129,1.069A1.064,1.064,0,0,1,1487.751,468.543Z" transform="translate(-1437.49 -463.475)" fill="#f79744"/>
          <path id="Path_123-2" data-name="Path 123" d="M1491.373,467.115a.748.748,0,0,1-1.3-.619,1.083,1.083,0,0,1,1.181-.979.746.746,0,0,1,.315,1.433C1491.508,467.007,1491.441,467.055,1491.373,467.115Z" transform="translate(-1452.763 -465.517)" fill="#f79744"/>
          <path id="Path_124-2" data-name="Path 124" d="M1494.027,470.064a1.713,1.713,0,0,1-1.826.231,1.966,1.966,0,0,1-.982-2.009.136.136,0,0,0,0-.051,4.434,4.434,0,0,1,.042-.532,1.11,1.11,0,0,1,1.526-.844,4.334,4.334,0,0,1,1.09.448,3.653,3.653,0,0,1,.766,1.34,1.121,1.121,0,0,1-.588,1.382C1494.042,470.034,1494.036,470.052,1494.027,470.064Z" transform="translate(-1458.947 -463.005)" fill="#f79744"/>
          <path id="Path_125-2" data-name="Path 125" d="M1484.413,468.218a1.493,1.493,0,0,1,.777-.934c.033-.087.084-.162.124-.264a.838.838,0,0,1,1.586.538h.015a3.293,3.293,0,0,1-1.126,1.748C1485.034,469.954,1484.136,469,1484.413,468.218Z" transform="translate(-1430.587 -463.615)" fill="#f79744"/>
          <path id="Path_126-2" data-name="Path 126" d="M1483,469.517l-.255-.219a.774.774,0,0,1,.084-1.213c.036-.015.072-.036.1-.051a.771.771,0,0,1,.868.06C1484.712,468.5,1483.808,470.234,1483,469.517Z" transform="translate(-1422.202 -460.685)" fill="#f79744"/>
          <path id="Path_127-2" data-name="Path 127" d="M1483.339,472.288a1,1,0,0,1-1.247-1.168c.06-.189.123-.366.177-.553a1.021,1.021,0,0,1,.808-.664,1.662,1.662,0,0,1,1.168.231c.039.015.066.057.109.075a2.388,2.388,0,0,1,.327,0,.889.889,0,0,1,.273,1.676A13.454,13.454,0,0,1,1483.339,472.288Z" transform="translate(-1422.166 -456.782)" fill="#f79744"/>
          <path id="Path_128-2" data-name="Path 128" d="M1490.6,490.106a.742.742,0,0,1,.5,1.066,3.558,3.558,0,0,1-.451.9.835.835,0,0,1-1.529-.472,1.817,1.817,0,0,1,.279-1.288A.875.875,0,0,1,1490.6,490.106Z" transform="translate(-1449.073 -416.549)" fill="#f79744"/>
          <path id="Path_129-2" data-name="Path 129" d="M1485.627,486.732a.877.877,0,0,1,1.655-.276,2.455,2.455,0,0,1-.036,2.724,1.208,1.208,0,0,1-2.06-.439.934.934,0,0,1,.354-1.283A3.163,3.163,0,0,1,1485.627,486.732Z" transform="translate(-1433.43 -424.553)" fill="#f79744"/>
        </g>
        <path id="Path_130-2" data-name="Path 130" d="M1513.35,495.336c-1.214,2.178-5.068.76-6.783.162a19.547,19.547,0,0,1-2.883-1.307,9.356,9.356,0,0,1,2.288,4.962.835.835,0,0,1-1.075.757,6.632,6.632,0,0,1-3.01-2.553,3.918,3.918,0,0,1-1.529,3.791,1.3,1.3,0,0,1-1.956-.58,20.058,20.058,0,0,1-.5-2.655,7.3,7.3,0,0,1-4,4.1,1.141,1.141,0,0,1-1.508-.928,7.753,7.753,0,0,1,1.132-5.343c.123-.216.282-.463.427-.709a4.6,4.6,0,0,1-1.057.189,12.373,12.373,0,0,1-3.3.619.635.635,0,0,1-.423-1.084c.457-.414.931-.769,1.4-1.156a1.355,1.355,0,0,1,.639-1.039c1.022-.7,2.036-1.43,3.037-2.151a12.094,12.094,0,0,1-6.2-1.466,1.007,1.007,0,0,1,.27-1.823,12.933,12.933,0,0,1,7.26.21c-1.679-2.361-3.109-4.776-2.944-7.891.045-.889,1.048-1.88,1.973-1.241a9.74,9.74,0,0,1,2.55,2.688c.051-3.493.841-6.833,3.16-9a1.4,1.4,0,0,1,2.295.631,11.764,11.764,0,0,1,.246,6.326,13.319,13.319,0,0,0,.553-1.529c.348-1.313,2.271-.58,1.968.706-.171.73-.367,1.442-.562,2.154,2.135-2.6,4.488-4.49,6.029-3.289,1.564,1.232-.027,4.031-2.376,6.833a1.25,1.25,0,0,1,1.078,2.169c-.174.174-.357.3-.528.457a11.392,11.392,0,0,1,3.589-.015,1.355,1.355,0,0,1,.408,2.454,21.446,21.446,0,0,1-4.417,2.1c.6.192,1.219.406,1.751.637C1511.628,492.08,1514.344,493.531,1513.35,495.336Z" transform="translate(-1466.943 -453.521)" fill="#f05f42"/>
        <path id="Path_131-2" data-name="Path 131" d="M1500.114,484.385a6.4,6.4,0,0,1-.3,1.129,3.505,3.505,0,0,1-2.9,1.808,3.441,3.441,0,0,1-2.6-.925,4.484,4.484,0,0,1-2.1-1.4,3.358,3.358,0,0,1-1.627-4.929,3.534,3.534,0,0,1,.126-.85,4.142,4.142,0,0,1,4.821-2.817l.252-.159a3.5,3.5,0,0,1,5.229,3.695l-.2.982A3.92,3.92,0,0,1,1500.114,484.385Z" transform="translate(-1461.895 -445.117)" fill="#b97d4f"/>
      </g>
    </g>
  </g>
</svg>
