<svg xmlns="http://www.w3.org/2000/svg" width="589.817" height="923.142" viewBox="0 0 589.817 923.142">
  <g id="右上花" transform="translate(-1552.453 -1094.443)">
    <path id="Path_759" data-name="Path 759" d="M1517.129,508.3c4.056,1.181,7.631.285,8.8-4.079.474-1.754.279-3.612.747-5.362.365-1.376,4.761-2.085,5.993-2.645,4.138-1.878,3.469-7.183,2.1-10.612-1.894-4.729-8.062-7.668-12.482-9.335-7.475-2.82-15.69-3.246-23.291-5.693a2.268,2.268,0,0,0-2.39.554,18.968,18.968,0,0,0-2.89.1,2.439,2.439,0,0,0-1.951,2.812c1.5,10.329,11.559,16.3,17.067,24.325C1510.939,501.439,1513.159,507.148,1517.129,508.3Z" transform="translate(199.609 626.641)" fill="#f9d0d0"/>
    <path id="Path_760" data-name="Path 760" d="M1498.669,440.335a1.529,1.529,0,0,1-1.754-.083c-3.59-2.4-7.577,2.928-11.32,3.915-4.579,1.208-8.534.615-12.733,3.375-6.317,4.148-13.174,9.256-13.979,16.9,1.971,9.387,14.23,16.617,24.812,18.825a3.934,3.934,0,0,0,1.4.034,21.14,21.14,0,0,0,2.016.78c.316.212.615.444.947.637a3.247,3.247,0,0,0,2.769.154,15.831,15.831,0,0,0,3.905-.093c7.946-1.194,8.951-10.187,9.484-14.663.988-8.3,2.224-16.974-.919-24.407A11.144,11.144,0,0,0,1498.669,440.335Z" transform="translate(168.028 748.493)" fill="#f9d0d0"/>
    <path id="Path_761" data-name="Path 761" d="M.6,302.9a1.607,1.607,0,0,0,.38,1.044c4.694,5.536,11.881,5.8,18.733,5.479a1.638,1.638,0,0,0,.272,2.923,26.108,26.108,0,0,0,9.97,2.258,48.348,48.348,0,0,0,5.327-.133,11.181,11.181,0,0,1,1.81-.2,6.149,6.149,0,0,0,4.4.2l.051-.026c1,.291,1.417.854.361,1.974a1.4,1.4,0,0,0,.981,2.379c5.333-.19,10.116-1.734,15.139-3.486,4.46-1.506,12.173-6.984,11.831.892-.019.74.88,1.436,1.494.822,5.845-5.529,16.215-9.882,20.232-17.335a8.711,8.711,0,0,1-.582,5.738c-.481,1.013.823,2.062,1.733,1.607a47.354,47.354,0,0,0,15.45-11.964c2.531-2.987,5.232-7.706,5.619-12.1a1.619,1.619,0,0,1,.07-.2,2.973,2.973,0,0,0,.506.62,5.186,5.186,0,0,0,.81.645l.013.007a2.38,2.38,0,0,0,2.164,1.55,1.454,1.454,0,0,0,.285.063,14.5,14.5,0,0,1,2.492,1.9c.077.3.178.5.3.487l.045.063c.018.158.2.247.3.139.69-.576.81-1.841,1.005-2.657.367-1.664.7-3.347,1.025-5.011.545-1.392.943-2.79,1.412-4.182.265-.911.8-2.948,2.031-2.784.936.12,1.271,1.626,2.157,2.176a2.942,2.942,0,0,1,.127.456.886.886,0,0,0,1.746.025c1.062-11.147,10.629-19.834,7.693-31.057-.012-.019,0-.044,0-.076a.328.328,0,0,1-.038-.114c-.233-.728-.48-1.5-.765-2.215,10.6-4.568,20.258-13.026,27.717-23.225-1.62,4.985-3.182,10-4.764,15.006-5.8,9.959-9.433,22.3-12.59,32.962-2.664,9.072-6.9,17.316-8.542,26.585-.139.006-.284-.044-.443-.032a3.786,3.786,0,0,0-.576.133,5.371,5.371,0,0,0-1.48.7.749.749,0,0,0-.222.266c-9.212.69-19.84,6.441-26.964,13.432a22.644,22.644,0,0,0-8.144,9.484,24.214,24.214,0,0,0-2.922,6.187c-.272.9.659,2.107,1.67,1.734a9.584,9.584,0,0,1,1.74-.538c.095,1.689.139,3.353.095,5.036a52.96,52.96,0,0,0-6.5,7.345,1.533,1.533,0,0,0,1.341,2.246c.512-.07,1.044-.152,1.569-.209a64.8,64.8,0,0,0-7.643,14.919,23.1,23.1,0,0,0-2.448,7.971,1.337,1.337,0,0,0,1.594,1.36c1.86-.481,3.012.968,3.625,2.638-.8,3.524-1.758,6.96-2.9,10.445a3.6,3.6,0,0,0-.126.892,82.411,82.411,0,0,0-2.4,12.843,1.305,1.305,0,0,0,1.829,1.272,11.228,11.228,0,0,1,2.322-1.487,56.274,56.274,0,0,1,.866,9.477,62.356,62.356,0,0,0-1.974,9.775.678.678,0,0,0,1.063.563,1.576,1.576,0,0,0,.114.734,35.971,35.971,0,0,1,1.741,3.524c.847,4,2.049,8.086,2.113,11.8a12.67,12.67,0,0,1-.418,2.176c-.19.589.652,1.2,1.1.677.272-.3.526-.588.784-.9a1.057,1.057,0,0,0,1.3-.12,13.546,13.546,0,0,1,5.25-2.657,13.532,13.532,0,0,0-2.29,6.32c-.3.62-.651,1.221-.943,1.847a1.948,1.948,0,0,0,.569,2.385,8.334,8.334,0,0,0-.062,1.265.718.718,0,0,0,1.2.532,19.335,19.335,0,0,1,2.866-2.012,101.769,101.769,0,0,1,.759,10.623,38.225,38.225,0,0,1-3.676,12.735.258.258,0,0,1-.12.133,1.778,1.778,0,0,0-.557,1.594.49.49,0,0,0,.063.4,1.532,1.532,0,0,0,2.277,1.1,3.121,3.121,0,0,1,.367-.253h.025l.038-.044a37.993,37.993,0,0,0,12.185-10.515,28.645,28.645,0,0,0,2.765-4.884c.455-1.069.974-2.094,1.5-3.131a2.623,2.623,0,0,1,.12-.247c.936.892,1.879,1.791,2.8,2.7a1.315,1.315,0,0,0,2.4-.12A38.917,38.917,0,0,0,127.9,441.7a1.5,1.5,0,0,0,.677-.86,1.56,1.56,0,0,0,.107-.43,20.235,20.235,0,0,0,3.29-12.527,18.281,18.281,0,0,1,5.518,4.46c.126.2.24.38.347.589a1,1,0,0,0,1.822-.133c.177-.626.329-1.2.443-1.8a1.714,1.714,0,0,0,.873-1.189c.044-.247.1-.525.139-.8a31.232,31.232,0,0,0,2.916-12.464c1.108-2.094,2.753-3.562,5.315-3.581a5.11,5.11,0,0,1,.924,1.537,1.008,1.008,0,0,0,1.5.481c4.586-3.625,4.9-10.085,4.252-15.665.259-4.043.032-8.32.417-12.135.393.246.74.519,1.139.759a1.514,1.514,0,0,0,2.063-.639c.753-1.949,2.233-24.971-.253-24.1,2.556-.879,2.865-2.923,2.891-5.453.095-6.776-2.182-14.324-5.061-21.213-.81-2.41-1.651-4.815-2.5-7.193a16.819,16.819,0,0,0,3.321,1.417,1.946,1.946,0,0,0,2.354-2.632,45.111,45.111,0,0,0-5.39-10.724c-1.221-1.829-3.246-3.537-4.669-5.327.247-.095.493-.164.766-.241a1.664,1.664,0,0,0,1.252-2.543c-1.778-2.771-5.668-11.161-10.141-14.115,6.086-10.882,8.2-23.978,12.533-35.537a7.12,7.12,0,0,1,.323-.873c5.3-11.875,10.806-23.5,15.019-35.847,1.006-2.948,1.9-5.928,2.759-8.952.127.8.285,1.582.417,2.366a73.907,73.907,0,0,0,1.772,7.567,16.076,16.076,0,0,0-3.354,7.788c-2.252,11.983-1.493,26.983,5.194,37.353a1.72,1.72,0,0,0,2.917.069,20.17,20.17,0,0,1,1.537-2.018,67.333,67.333,0,0,0,7.706,27.344c.583,1.639,1.31,3.245,1.715,4.65.171.544.949.31.949-.19a11.023,11.023,0,0,1,.494-2.9,1.407,1.407,0,0,0,.373-.374c3.416-6.586,5.27,9.806,5.7,12.248,1.215,6.833,3.063,12.666,6.884,18.474a1.3,1.3,0,0,0,1.095.55,1.429,1.429,0,0,1,.038.26,1.2,1.2,0,0,0,1.569.671c1.437-.57,2.645.31,3.581,1.632.139,1.107.234,2.119.348,2.6.285,1.209.632,2.417,1.018,3.6.405,4.618,1.689,9.116,4.176,12.369a.909.909,0,0,0,1.62-.469c.158-1.05.455-1.967.676-2.872,5.613-3.271,13.723,10.6,16.621,15.9a.508.508,0,0,0-.013.127.68.68,0,0,0,.557.829c.019.063.063.127.082.183.05.1.165.07.214.127a14.155,14.155,0,0,1,.38,1.664c.2,1.253,2.018.854,1.9-.373-.051-.367-.063-.822-.114-1.253a.964.964,0,0,0,.373-.613c.462-2.923.969-5.865,1.348-8.8l.006-.063c.873-2.537,1.885-5.3,2.96-7.971.608-.177,1.278.385,2.012,2.252.639,1.524,3.018,1.689,3.423-.114,1.019-4.53-.309-12.388,4.973-14.532.146-.063.2-.165.3-.228.12-.032.253,0,.392-.032a7.534,7.534,0,0,1,2.923,2.271.933.933,0,0,0,1.626-.746c-.867-3.6-1.606-7.744-2.872-11.6-.494-2.069-1.044-4.087-1.556-6.162.36-1.721,1.3-2.613,3.409-1.462a.8.8,0,0,0,.906.013c.543.278,1.265.057,1.164-.683a45.1,45.1,0,0,0-6.37-16.993.974.974,0,0,0,.841-1.158,37.664,37.664,0,0,0-1.67-6.321c-1.9-14.178-10.211-29.539-24.143-34.107.5-.5.987-1.019,1.486-1.512a1.824,1.824,0,0,0,.873-2.752c-2.632-3.049-5.422-6.51-9.035-8.415a18.954,18.954,0,0,0-5.624-2.328c.057,0-13.306-2.132-8.352-4.346a1.9,1.9,0,0,0,.741-2.917c-5.979-6.858-14.906-11.084-23.889-9.819-2.942-1.385-5.353-1.512-7.3-.791.013-4.561-.74-9.135-.892-13.71-.108-3.916.342-8.149-.076-12.147.063-.316.146-.595.2-.912a61.68,61.68,0,0,0,2.525-15.006c1.645-11.053,3.055-22.143,4.7-32.956.109-.3.184-.594.3-.936l.007-.044a102.183,102.183,0,0,0,4.833-10.686c.7-1.278,1.423-2.543,2.158-3.783a47.71,47.71,0,0,0,1.467,4.9c-.208,4.5-2.892,9.041-4.473,13.026a33.759,33.759,0,0,0-2.333,12.7,20.486,20.486,0,0,0,.228,2.683,43.352,43.352,0,0,0,.037,8.7c.133,1.329,2.068,1.278,2.429.177a11.917,11.917,0,0,1,1.379-2.518,3.37,3.37,0,0,0,1.988-.677,37.507,37.507,0,0,0,3.5,26.572c.734,1.31,3.088,1.613,3.524-.158a10.113,10.113,0,0,1,1.031-3.264,4.923,4.923,0,0,0,1.012-.469,165.332,165.332,0,0,0,7.776,22.567.975.975,0,0,0,1.891-.386c.115-3.125,1.784-4.511,2.848-6.169.392,3.018,1.4,5.232,3.086,8.547,2.246,4.4,9.206,10.73,9.5,15.792.07,1.386,1.954,1.164,2.22-.007,2.878-12.5,10.769,5.618,12.983,8.693,3.707,5.143,9.268,7.984,13.475,12.646a.323.323,0,0,0,.576-.133,7.135,7.135,0,0,0,.032-2.512c.234-1.79-.183-4.574,1.8-5.232,1.936-.6,4.435.6,6.105,1.4,3.435,1.658,7.934,4.65,9.541,8.491a18.481,18.481,0,0,0,.6,2c.443,1.215,2.194.664,2.113-.551a9.741,9.741,0,0,0-.576-2.695c.025-1.443.025-2.9-.012-4.352a119.891,119.891,0,0,0,.841-27.021c.006.088-6.491-21.707,2.493-16.032a1.258,1.258,0,0,0,1.942-1.246,33.216,33.216,0,0,0-3.461-10.053c-.107-.215-9.78-15.7-7.579-15.19,1.55.379,3.271-1.171,2.367-2.778-1.816-3.207-4.163-7.769-6.491-10.73-1.658-2.138-16.171-13.969-9.237-13.178,2.177.259,2.531-2.505,1.176-3.619-7.972-6.611-13.532-13.1-23.9-12.444-.043-.5-.057-1.012-.057-1.525a8.233,8.233,0,0,1,2.588-1.936c1.037-.62.917-2.524-.519-2.5-3.429.089-6.978-.791-10.369-.462a29.255,29.255,0,0,0-8.276,2.385,1.952,1.952,0,0,0-2.024-2.973c-5.074.651-9.42-.81-14.076,1.689-.115.076-.184.165-.285.234a18.142,18.142,0,0,1-3.67-2.575c-.38-2.315-.259-4.726-1.063-6.959l-.024-.013c6.674-11.634,11.438-24.566,15.032-37.441,3.549-12.805,5.1-26.23,7.681-39.231A121.928,121.928,0,0,0,219,.766c-.176-1.145-1.873-.942-1.949.184-.032.272-.032.557-.057.835a2.636,2.636,0,0,0-1.935.31,3.478,3.478,0,0,0-.2-.456c-1.2-2.442-4.435-1.151-4.314,1.329.4,8.009.791,16.026.942,24.041-.151,2.562-.082,5.169.019,7.75-2.657,7.851-4,15.557-8.535,23.029-5.163,8.567-12.217,14.716-20.289,20.055-1.657-5.068-6.757-6.093-12.54-9.18A40.194,40.194,0,0,0,141.48,64.5a1.355,1.355,0,0,0-.127,2.582l.038.006c-9.984,2.006-19.714.583-28.755,7.516a1.822,1.822,0,0,0-.2,2.847,4.836,4.836,0,0,0,3,1.424c-8.433,3.733-16.38,7.345-23.44,13.6-1.361,1.221.1,3.258,1.688,2.885.361.892.741,1.791,1.12,2.689-1.443.627-2.916,1.234-4.372,1.86-1.854.791-2.366,1.62-3.435,3.2a1.6,1.6,0,0,0,.759,2.436l1.67,4.46a23.484,23.484,0,0,0-5.156,9.408c-.246.817.355,1.974,1.373,1.708a5.593,5.593,0,0,1,1.341-.234,55.9,55.9,0,0,1-1.455,6.674c-.026.051,0,.108.006.19-1.405,1.094-2.594,1.936-3.157,2.328a1.526,1.526,0,0,0,1.018,2.739c.228.076.424.152.627.2-1.2,2.3-2.214,4.694-3.252,7.048a1.443,1.443,0,0,0,1.994,1.911,51.938,51.938,0,0,0,7.073-4.018,17.48,17.48,0,0,0,.108,1.886,1.334,1.334,0,0,0,2.163.74,27.59,27.59,0,0,1,11.261-5.9c.044-.013,1.3-.285,2.949-.531,2.8.133,5.605.639,8.243.93a1.884,1.884,0,0,0-.127.291,1.068,1.068,0,0,0,1.209,1.556c1.739-.613,3.454-1.271,5.118-1.954a9.153,9.153,0,0,0,3.049-1.272c.12-.07.247-.158.367-.228.829-.367,1.664-.721,2.486-1.1.26-.133,10.927-7.111,9.946-2.48a1.007,1.007,0,0,0,1.4,1.183c2.43-1.2,17.291-12.894,18.044-7.44.107.836,1.164.937,1.683.513,1.847-1.423,3.656-2.955,5.44-4.568a23.884,23.884,0,0,0,6.176-6.112c7.889-8.807,13.779-19.511,13.867-31.279.025-.05.076-.069.076-.127a14.38,14.38,0,0,0-.127-1.537c-.006-.456.013-.892-.006-1.354,0-.019-.032-.013-.051-.063,8.737-2.828,16.285-9.617,21.739-16.677a64.284,64.284,0,0,0,4.966-7.63c-.3,2.271-.6,4.536-.987,6.745-.285,1.6-.62,3.226-.93,4.846a1.115,1.115,0,0,0-.708.791,333.02,333.02,0,0,1-10.465,33.373c-4.384,11.622-11.274,22.067-16.291,33.411a53.32,53.32,0,0,0-2.41,6.922c-3.195,7.978-5.688,15.127-11.571,21.928a46.218,46.218,0,0,1-15.7,11.957,4.29,4.29,0,0,1-.494.076l-.018-.032c.018-.057-.07-.076-.07-.139a17.023,17.023,0,0,0-1.094-10.717,16.344,16.344,0,0,0-7-7.636,3.78,3.78,0,0,0-.658-.336,29.412,29.412,0,0,0-5.4-2.259.908.908,0,0,0-1.031,1.392c2.549,4.1,1.144,1.347-1.14.025a39,39,0,0,0-5.668-2.917c-5.618-2.157-11.053-3.2-16.423-.063a1.2,1.2,0,0,0-.063,1.9,9.122,9.122,0,0,1,2.549,2.132,3.2,3.2,0,0,1-.943.171c-.48.032-.955.051-1.4.07-3.176-.247-7.541-2.436-11.078-3.9a.7.7,0,0,0-.29-.1,13.579,13.579,0,0,0-3.733-1.132c-1.158-.108-1.291,1.367-.545,1.949,3.284,2.48-4.125.747-4.225.709a23.259,23.259,0,0,0-5.745-1.133c-4.574-.506-8.934.336-12.3,3.492a1.261,1.261,0,0,0,.3,2.151c.335.164.7.3,1.044.481-5.3,1.139-10.92.285-13.932,5.764a.943.943,0,0,0,.019,1.05,22.514,22.514,0,0,0-8.763,9.5c-.468.873.525,1.867,1.379,1.7,1.816-.367-4.745,5.991-5.195,6.473-2.1,2.132-3.284,5.225-4.448,7.927a29.216,29.216,0,0,0-1.974,17.366,1.03,1.03,0,0,0,1.481.671,54.393,54.393,0,0,1,5.086-2.442,1.639,1.639,0,0,0,1.614-.076c.81.253,1.424,1.075,1.677,2.936a.956.956,0,0,0,1.348.721,57.026,57.026,0,0,1,7.092-3.707,21.555,21.555,0,0,0,3.556-1.468c1.291-.43,2.556-.753,3.828-1.076-.151.544.158,1.2.854,1.063-.114.019,7.263-1.455,4.15,1.4a1.045,1.045,0,0,0,.443,1.746,12.252,12.252,0,0,0,5.251.556,21.681,21.681,0,0,0,5.086-1.069.919.919,0,0,0,.235-.076c3.865-1.708,7.649-.955,11.433,2.309A.942.942,0,0,0,96,211.861c5.941.48,11.786.006,17.025-3.227.518-.335,12.1-7.782,10.331-1.942a1.038,1.038,0,0,0,1.525,1.171,42.3,42.3,0,0,0,4.194-2.329c10.9-3.125,22.276-16.968,21.561-28.153v-.012c4.34-.279,9.42-4,12.4-5.9a42.792,42.792,0,0,0,11.539-10.743q-.378,3.4-.753,6.744c-1.266,11.091-3.164,22.149-4.625,33.208a83.426,83.426,0,0,1-5.972,12.438c-7.016,11.856-16.791,19.695-27.162,28a23.752,23.752,0,0,0-15.791-11.793A84.232,84.232,0,0,0,106.7,227.3c-7.168-.506-16.563,2.67-22.934-1.069a1.6,1.6,0,0,0-2.506,1.12c-.278,4.119.317,6.972,2.86,9.737-4.341-.456-8.541-1.853-12.869-2.626-6.434-1.151-12.128.2-18.322,1.986a1.394,1.394,0,0,0-.038,2.664c13.944,4.815-4.5,7.124-9.028,8.566-3.707,1.145-6.927,4.144-9.806,6.567a1.348,1.348,0,0,0,1.2,2.3c3.145,1.386,3.151,2.316,0,2.816a23.691,23.691,0,0,0-4.973,2.556C27.726,263.4,25.8,266.03,24,268.276a1.4,1.4,0,0,0,.974,2.372c6.023.747-4.947,6.536-4.682,6.422-2.48,1.145-2.885,1.715-4.985,3.492a1.376,1.376,0,0,0,.3,2.176c5.586,2.683-3.777,5.5-5.833,7.1a1.435,1.435,0,0,0,.373,2.588c.715.253-9.268,7.807-9.553,8.016A1.559,1.559,0,0,0,.6,302.9Z" transform="translate(2093.715 1458.271) rotate(120)" fill="#898989" opacity="0.292"/>
    <g id="Group_210" data-name="Group 210" transform="translate(1697.056 1546.286)">
      <g id="Group_123" data-name="Group 123" transform="translate(5 156.668)">
        <path id="Path_69" data-name="Path 69" d="M1531.724,721.225c6.589-2.718,19.622-11.65,26.408-5.754a25.633,25.633,0,0,0,11.879,6.276c19.987,4.346,25.709-17.826,42.273-18.963,15-1.022,26.136,2.687,37.129-11.305,9.625-12.244,11.827-27.567,10.642-42.758-3.287-41.845-30.2-76.762-41.636-116.479-6.036-8.571-10.94-17.868-15.906-27.222a8.351,8.351,0,0,1-.987-4.189,88.652,88.652,0,0,0-11.2-15.129c-18.222-19.569-49.415-20.09-68.707-2.081-20.331,18.984-22.366,53.2-25.767,78.859-5.488,41.527-23.293,84.979-16.684,127.4C1483.509,717.61,1503.662,732.786,1531.724,721.225Z" transform="translate(-1318.705 -455.274)" fill="#f9d0d0"/>
        <path id="Path_70" data-name="Path 70" d="M1454.912,527.89c2.3,9.37,10.33,14.086,19.168,16.511-7.842,7.132-20,16.742-23.289,21.828-8.1,12.594-1.247,23.033,9.422,28.756,4.116,5.958,9.036,11.576,13.413,17,7.56,9.365,20.211,7.366,24.864,19.047,4.706,11.79,16.72,18.964,26.768,25.74,11.368,7.674,11.748,20.946,25.339,26.252,22.495,8.812,47.051-12.693,62.014-28.923,36.759-18.181,73.12-56.766,68.159-94.291,7.011-20.388,2.191-44.673-10.444-62.562-20.1-28.417-51.549-32.016-83.946-28.516-22.877,2.462-45.857,6.318-68.535,10.137-18.786,3.167-36.805,6.667-52.034,18.567C1456.592,504.627,1452.147,516.746,1454.912,527.89Z" transform="translate(-1447.238 -467.623)" fill="#f9d0d0"/>
      </g>
      <g id="Group_122" data-name="Group 122">
        <path id="Path_71" data-name="Path 71" d="M1696.51,534.539c-5.055-6.845-11.827-12.244-20.6-13.277-6.453-.751-16.366,1.315-23.92-.287-.093-.089-.213-.188-.323-.292-.173-3.266-2.072-6.37-6.391-7.914-1.195-.433-2.389-.84-3.568-1.241-1.643-5.066-2.264-11.488-4.058-16.115-2.369-6.13-10.862-10.543-16.11-13.658-12.693-7.507-15.469-24.118-27.327-32.643-24.29-17.445-52.905-4.951-65.264,19.777-7.492,15.02-7.711,32.669-14.952,48.064-6.63,14.107-13.767,27.243-16.324,42.769a10.533,10.533,0,0,0,.016,3.25c-6.449,12.708-9.663,26.674-4.878,39.873,11.477,31.578,50.563,27,77.863,25.792,38.162-1.68,76.287-10.752,108.085-32.407C1699.447,582.138,1713.658,557.7,1696.51,534.539Z" transform="translate(-1258.944 -423.533)" fill="#f9d0d0"/>
        <path id="Path_72" data-name="Path 72" d="M1623.707,442.528c-1.972,1.268-4.549,1.466-7.267-.344-14.874-9.938-31.391,12.13-46.9,16.22-18.969,5-35.356,2.546-52.749,13.981-26.168,17.185-54.575,38.345-57.913,70.017,8.164,38.887,58.951,68.838,102.789,77.988a16.3,16.3,0,0,0,5.785.141,87.57,87.57,0,0,0,8.352,3.229c1.309.876,2.546,1.841,3.923,2.64,3.444,2.055,7.6,2,11.472.637a65.592,65.592,0,0,0,16.178-.386c32.918-4.946,37.083-42.2,39.289-60.746,4.094-34.4,9.213-70.32-3.809-101.11A46.162,46.162,0,0,0,1623.707,442.528Z" transform="translate(-1392.33 -429.199)" fill="#f9d0d0"/>
        <path id="Path_73" data-name="Path 73" d="M1596.924,627.269c16.8,4.894,31.615,1.179,36.456-16.9,1.962-7.267,1.158-14.962,3.094-22.214,1.513-5.7,19.725-8.639,24.827-10.956,17.143-7.778,14.373-29.757,8.692-43.963-7.846-19.59-33.4-31.766-51.71-38.673-30.969-11.681-65-13.449-96.488-23.586a9.394,9.394,0,0,0-9.9,2.3,78.586,78.586,0,0,0-11.973.412c-5.6.595-8.807,6.584-8.081,11.649,6.209,42.79,47.886,67.528,70.705,100.771C1571.283,598.832,1580.48,622.48,1596.924,627.269Z" transform="translate(-1253.779 -299.264)" fill="#f9d0d0"/>
        <g id="Group_111" data-name="Group 111" transform="translate(166.255 197.054)">
          <path id="Path_74" data-name="Path 74" d="M1569.806,476.326c19.068,19.433,37.859,39.106,53.87,61.185,14.4,19.866,28.683,43.8,31.422,68.624,1.925,17.4-.924,36.842-9.511,52.222-12.092,21.661-31.813,11.759-44.871-3.188a.543.543,0,0,0-.9.23c-9.416,48.9-85.234,61.216-113.129,21.6-7.939-11.259-8.984-25.9-5.968-38.965,2.087-9.051,6.171-17.32,7.277-26.633.959-8.138-1.054-15.937-3.021-23.758-10.731-42.617,20.09-81.457,46.6-111.184.459-.5-.3-1.263-.751-.746-16.235,18.191-31.724,36.78-41.177,59.515-4.675,11.232-8.155,23.878-8.368,36.1-.245,13.6,5.843,26.319,5.639,40.076-.182,12.86-8.19,24.582-8.864,37.6a47.072,47.072,0,0,0,3.584,20.894,49.721,49.721,0,0,0,27.1,25.866c25.834,10.528,58.737,6.38,78.833-13.8a46.423,46.423,0,0,0,10.048-15.223c.657-1.633,2.65-10.439,4.3-8.54a61.448,61.448,0,0,0,11.352,10.027c10.074,6.975,21.2,5.4,29.2-3.568,16.287-18.27,17.925-53.495,9.949-75.474-16.351-45.033-48.9-79.986-81.865-113.615-.48-.485-1.247.266-.762.762Z" transform="translate(-1477.994 -475.408)" fill="#f49a8c"/>
        </g>
        <g id="Group_112" data-name="Group 112" transform="translate(0 156.484)">
          <path id="Path_75" data-name="Path 75" d="M1676.542,514.613c-1.4,41.407-29.591,81.1-57.292,109.78-30.274,31.328-71.676,57.4-116.031,41.355-39.294-14.216-57.423-57.251-56.066-96.393.631-18.113,7.069-87.467,39.241-60.746.434.37,1.2-.1.835-.647-19.433-29.105,38.026-39.951,56.37-39.341,18.619.616,38.125,10.6,54.147,19.141,17.587,9.386,34.4,21.218,47.949,35.9.464.506,1.216-.251.751-.756-17.435-18.9-40.019-32.9-63.245-43.541-16.658-7.638-34.51-13.653-52.983-11.159-15.144,2.04-32.945,6.334-43.718,18.03a16.336,16.336,0,0,0-4.184,13.418,20.073,20.073,0,0,0,2.8,7.058c-.542-.965-4.183-3.344-6.542-4.377-23.575-10.35-29.6,36.779-31.15,49.712-4.012,33.32.683,65.352,22.991,91.948,15.822,18.854,41.412,29.6,65.905,28.313,23.482-1.226,45.393-14.629,63.371-28.735,21.723-17.059,39.951-38.8,54.454-62.217,12.338-19.908,22.673-43.008,23.477-66.741.026-.694-1.044-.689-1.075,0Z" transform="translate(-1446.126 -467.631)" fill="#f49a8c"/>
        </g>
        <g id="Group_113" data-name="Group 113" transform="translate(235.166 158.204)">
          <path id="Path_76" data-name="Path 76" d="M1510.607,491.708c2.828,24.3,16.543,45.836,31.151,64.8,11.128,14.461,23.978,29.048,38.637,40.061,9.656,7.252,52.211,35.329,61.717,15.708,1.94-4.006.752-9.2-.266-13.261a68.5,68.5,0,0,0-4.205-11.081c-1.809-4.074,10.408-7.982,13.022-9.239,6.714-3.219,13.6-6.636,18.175-12.687,5.045-6.678-2.619-13.6,3.386-19.219,30.488-28.536-13.152-62.092-38.319-72.109-50.167-19.944-105.878,7.654-142.532,41.225-.512.469.245,1.226.756.756,35.736-32.731,81.828-54.444,131.086-44.151,32.548,6.792,81.176,46.113,43.844,77.435a.54.54,0,0,0-.083.652c11.086,19.783-18.776,27.019-31.281,34.594a.545.545,0,0,0-.183.731c6.234,13.094,12.166,33.869-9.641,30.9-13.94-1.909-27.494-9.62-39.132-17.137-14.665-9.479-26.758-23.033-37.985-36.227-17.179-20.184-33.941-44.8-37.072-71.754-.078-.673-1.148-.678-1.075,0Z" transform="translate(-1491.203 -467.961)" fill="#f49a8c"/>
        </g>
        <g id="Group_114" data-name="Group 114" transform="translate(238.902)">
          <path id="Path_77" data-name="Path 77" d="M1504.15,606.148a1.085,1.085,0,0,0,2.113-.49c-10.81-50.385-28.2-116.641,15.624-156.284,44-39.811,89.028,38.84,101.841,72.187,4.632-.037,10.073,3.021,12.886,6.292a18.739,18.739,0,0,1,2.869,20.372c.271.5.553.986.819,1.461a1.086,1.086,0,0,0,1.4,1.544c8.828-4.424,17.076-7.158,26.977-7.408,24.1-.605,25.714,29.309,13.413,42.967-10.491,11.644-30.535,19.709-44.469,26.4-39.983,19.2-86.742,17.529-129.746,13.553-1.393-.125-1.476,2.035-.1,2.16,39.665,3.667,78.849,4.106,117.09-8.332,21.572-7,56.092-21.52,66.374-43.718,8.984-19.36-9.39-35.517-27.013-35.074-9.494.235-21.441,11.206-17.456-2.034,1.7-5.614-.527-14.978-6.339-17.67-3.385-1.57-5.879-3.115-9.885-2.682-7.956.851-11.2-13.658-13.846-19.011a193.454,193.454,0,0,0-22.631-34.8c-14.676-18.291-36.007-33.613-60.125-25.9-23.565,7.554-37.7,36.644-40.62,59.244C1488.624,535.156,1496.575,570.866,1504.15,606.148Z" transform="translate(-1491.919 -437.636)" fill="#f49a8c"/>
        </g>
        <g id="Group_115" data-name="Group 115" transform="translate(47.277 0.624)">
          <path id="Path_78" data-name="Path 78" d="M1653.024,627.6c9.682-34.468,20.262-69.349,22.9-105.242,1.94-26.466-2.093-55.806-25.386-72.077-13.178-9.213-30.04-11.759-45.726-12.369-21.963-.845-46.687,1.544-66.663,11.148-9.636,4.638-20.3,11.994-27.232,20.174-10.12,11.947-18.029,21.828-32.418,28.865-17.122,8.378-25.568,29.956-22.792,48.33,8.316,55.06,75.469,86.445,124.816,90.806.688.068.683-1,0-1.064-48.7-4.3-112.905-34.432-123.407-87.514-2.661-13.434,1.241-26.716,8.289-38.125,7.288-11.785,23.471-15.056,33.227-24.734,4.816-4.784,8.78-10.533,13.042-15.807,4.665-5.765,11.269-10.126,17.336-14.315,11.221-7.742,23.919-11.78,37.265-13.945,36.665-5.963,86.664-6.208,103.274,34.218,12.845,31.26,3.422,70.131-4.121,101.485-4.028,16.741-8.78,33.305-13.444,49.89a.538.538,0,0,0,1.038.277Z" transform="translate(-1455.189 -437.756)" fill="#f49a8c"/>
        </g>
        <path id="Path_79" data-name="Path 79" d="M1499.483,497.589c2.89-.349,4.481-2.686,5.139-5.321,2.712-.892,3.819-4.184,3.542-7.163a10.006,10.006,0,0,0-1.627-4.633c-.24-3.193-2.254-5.869-6.292-4.638a5.992,5.992,0,0,0-2.692,1.706,5.33,5.33,0,0,0-1.424,1.534,2.877,2.877,0,0,0-.569.464l-.021.016c-3.7.678-5.6,4.9-5.555,8.691C1490.077,492.92,1494.527,498.173,1499.483,497.589Z" transform="translate(-1261.184 -277.846)" fill="#b97d4f"/>
        <path id="Path_80" data-name="Path 80" d="M1596.924,625.017a.84.84,0,0,1,.183.052c-8.6-32.658-28.427-62.024-37.812-94.651-6.036-8.571-10.94-17.868-15.907-27.222a8.343,8.343,0,0,1-.986-4.189,88.634,88.634,0,0,0-11.2-15.129,47.029,47.029,0,0,0-20.4-12.854,80.04,80.04,0,0,0-10.883.412c-5.6.595-8.807,6.584-8.081,11.649,6.209,42.79,47.886,67.528,70.705,100.771C1571.283,596.579,1580.48,620.228,1596.924,625.017Z" transform="translate(-1253.779 -297.012)" fill="#f9d0d0" style="mix-blend-mode: multiply;isolation: isolate"/>
        <path id="Path_81" data-name="Path 81" d="M1517.8,453.6a75.087,75.087,0,0,1-3.8,10.142c-6.63,14.107-13.767,27.243-16.324,42.769a10.534,10.534,0,0,0,.016,3.25c-6.449,12.708-9.663,26.674-4.878,39.873a40,40,0,0,0,3.287,6.772c13.027-13.783,15.63-36.242,17.19-49.378C1515.409,489.3,1517.751,471.206,1517.8,453.6Z" transform="translate(-1258.944 -370.321)" fill="#f9d0d0" style="mix-blend-mode: multiply;isolation: isolate"/>
        <path id="Path_82" data-name="Path 82" d="M1466.108,474.3c19.271,13.616,43.072,23.476,65.1,28.078a16.291,16.291,0,0,0,5.785.141,87.475,87.475,0,0,0,8.353,3.229c1.309.877,2.546,1.842,3.923,2.64,3.444,2.055,7.6,2,11.472.636a65.583,65.583,0,0,0,16.178-.386,37.717,37.717,0,0,0,16.824-6.751c-.949-1.576-1.93-3.125-2.989-4.638-20.1-28.417-51.548-32.016-83.946-28.516C1493.252,470.19,1479.661,472.157,1466.108,474.3Z" transform="translate(-1361.863 -311.183)" fill="#f9d0d0" style="mix-blend-mode: multiply;isolation: isolate"/>
        <path id="Path_83" data-name="Path 83" d="M1482.66,637.85c36.759-18.181,73.121-56.766,68.159-94.291,7.012-20.388,2.192-44.672-10.444-62.562a70.567,70.567,0,0,0-8.061-9.521,47.969,47.969,0,0,0-12.113,8.243c-20.331,18.984-22.366,53.2-25.767,78.859-3.621,27.478-12.615,55.8-16.381,84.1C1479.672,641.058,1481.22,639.42,1482.66,637.85Z" transform="translate(-1311.487 -294.935)" fill="#f9d0d0" style="mix-blend-mode: multiply;isolation: isolate"/>
        <g id="Group_117" data-name="Group 117" transform="translate(179.138 145.452)">
          <g id="Group_116" data-name="Group 116">
            <path id="Path_84" data-name="Path 84" d="M1493.99,470.213a.509.509,0,0,0,.1-.115.147.147,0,0,1-.083.073Z" transform="translate(-1423.42 -446.198)" fill="#f79744"/>
            <path id="Path_85" data-name="Path 85" d="M1498.257,506.369a2.522,2.522,0,0,0-.428,4.32c1.554,1.043,3.01,2.16,4.429,3.281a17.75,17.75,0,0,0-9.307-.657,2.731,2.731,0,0,0-1.743,3.641,42.531,42.531,0,0,0-6.525.866c-2.8.615-2.347,4.69.182,5.306,2.885.72,5.8,1.33,8.671,1.9a1.219,1.219,0,0,0,1.1.777c.96,0,2.077.188,3.088.141a2.919,2.919,0,0,0,.35.475,29.958,29.958,0,0,0-8.128,3.094c-1.973,1.137-1.67,4.627.746,5.013.412.057.793.068,1.2.13a10.766,10.766,0,0,0-1.022,1.643,2.667,2.667,0,0,0,2.066,3.933,2.337,2.337,0,0,0-.49.825,1.976,1.976,0,0,0-1.833.9,3.78,3.78,0,0,0-2.274,3.8,4.052,4.052,0,0,0,5.812,3.021,3.961,3.961,0,0,0,2.207-3.866c-.026-.162-.09-.271-.125-.439.428-.12.855-.23,1.283-.365a2.82,2.82,0,0,0,.98,3.151,2.06,2.06,0,0,0,.125.6c-.511.438-1.059.861-1.565,1.289a1.977,1.977,0,0,0-.667,1.388c-2.171,1.247-.187,4.867,2.425,3.913a26.8,26.8,0,0,0,3.12-1.4c.526-.266,1.054-.553,1.612-.84.423-.147.825-.35,1.232-.517a2.915,2.915,0,0,0,1.919,2.906c.052.021.105.021.147.042-1.769,5.134-2.765,10.6-4.054,15.839-.61,2.566,2.505,3.662,4.179,2.155a41.117,41.117,0,0,0,7-8.3,30.456,30.456,0,0,0,1.184,4.555,1.835,1.835,0,0,0-1.418,1.377c-.12.151-.261.287-.365.443a1.125,1.125,0,0,0,.584,1.857,14.04,14.04,0,0,0,2.342-.01c.955.037,1.487-1.085,1.278-1.9a2.213,2.213,0,0,0,.94-.407,8.584,8.584,0,0,0,2.875-4.617,1.647,1.647,0,0,0,.74-.365c.042.047.052.12.109.151.058.193.1.391.167.574a1.921,1.921,0,0,0,2.509.991.772.772,0,0,1,.141-.078c.073.005.141-.01.223-.005a4.015,4.015,0,0,0,3.506.777,1.335,1.335,0,0,0,.986-.913,15.163,15.163,0,0,0,.741-3.14,5.087,5.087,0,0,0,.892.229,55.424,55.424,0,0,1-.25,6.025c-.24,2.442,2.76,3.156,4.059,1.492a2.206,2.206,0,0,0,.737.866,2.713,2.713,0,0,0,.276.506c.8,1.006,2.28.918,3.464.365a21.816,21.816,0,0,0,3.026,5.28c1.132,1.429,3.866.866,3.955-1.122a71.6,71.6,0,0,0-.027-7.168,4.944,4.944,0,0,0,.85-.1.825.825,0,0,0,.585.2,2.847,2.847,0,0,0,1.815-1.033,14.321,14.321,0,0,0,3.183,3.641c.172.4.318.788.505,1.169a1.866,1.866,0,0,0,2.4.939,2.251,2.251,0,0,0,3.042-1.153c2.154-4.946.339-10.71-1.952-15.839a5.183,5.183,0,0,0,1.56-.84l.032.042c1.105,1.19,2.561.475,3.183-.688a29.226,29.226,0,0,0,3.318,2.274,3.889,3.889,0,0,0-.939.078,2.077,2.077,0,0,0-1.695-.037,3.066,3.066,0,0,0-1.826,2.875c-.146,2.29,1.533,5.462,4.173,4.247a5.4,5.4,0,0,0,2.588-5.128,2.615,2.615,0,0,0-.845-1.5,2.161,2.161,0,0,0,1.947-2.582,20.534,20.534,0,0,0-2.306-6.642,14.25,14.25,0,0,0,6.073.454,1.648,1.648,0,0,0,1.132-2.358c-.434-.642-.872-1.263-1.331-1.883a1.43,1.43,0,0,0,.694-.444c.172-.136.339-.271.485-.4a2.065,2.065,0,0,0,1.043-2.154,4.013,4.013,0,0,0-.1-.548,2.008,2.008,0,0,0-1.842-1.544c-.042-.016-.062,0-.1-.016a1.229,1.229,0,0,0-1.613.016,1.272,1.272,0,0,1-.24.01,1.53,1.53,0,0,0-.715.146,2.521,2.521,0,0,0,.751-2.421,5.25,5.25,0,0,0-.313-.72,17.568,17.568,0,0,0,4.279-.209,3.939,3.939,0,0,0,3.3,1.049,5.762,5.762,0,0,0,2.681-1.5,2.513,2.513,0,0,0-.115-3.459,1.957,1.957,0,0,1-1.675-1.409,1.923,1.923,0,0,0-2.953-.694,4.17,4.17,0,0,0-.37.371,6.394,6.394,0,0,0-.986-.663,4.446,4.446,0,0,0,1.591-3.542,3.651,3.651,0,0,0-1.09-2.3,13.362,13.362,0,0,0,2.04-1.284c1.45-1.121.673-3.318-.829-3.907a18.952,18.952,0,0,0-7.215-1.1,3.51,3.51,0,0,0,.323-.788c.7-4.346-3.938-7.382-7.8-6.62,4.6-4.445,8.581-9.589,9.854-14.566a2.1,2.1,0,0,0-1.627-2.52c-4.456-.553-7.831,1.623-11.05,4.7-.4.365-.783.767-1.18,1.148a29.9,29.9,0,0,0-3.344,2.916c.239-.391.511-.767.761-1.137a2.017,2.017,0,0,0,.7-3.276,3.815,3.815,0,0,1-.835-.929,2.378,2.378,0,0,0-1.152-1.216,2.519,2.519,0,0,0-.423-2.176c.084-.109.182-.162.265-.287.861-1.32-.046-3.094-.986-4.053a1.732,1.732,0,0,0-2.149-.12.805.805,0,0,1-.172.036l.036-.1c.683-2.3,1.93-5.848.438-8.112-2.478-3.855-6.276.793-9.156,5.29-.052-.313-.1-.605-.183-.913a1.853,1.853,0,0,0-.265-.553c.1-.23.245-.454.354-.694.037-.068.042-.094.073-.151a1.071,1.071,0,0,1-.25.224,2.15,2.15,0,0,0,.271-.266c.126-.193.172-.193.083-.073,1.372-1.424-.319-3.74-2.144-3.631.84-.037.037-.224-.4-.527a2.69,2.69,0,0,0,.125-1.763,2.228,2.228,0,0,0-.062-.35c-.078-.3-.151-.589-.209-.887a1.879,1.879,0,0,0-2.514-1.544c-.339.162-.709.334-1.059.527a7.051,7.051,0,0,0-1.571-.8,1.552,1.552,0,0,0-2.066,1.461.712.712,0,0,0-.052-.172,1.494,1.494,0,0,0,.145,1.132,2.04,2.04,0,0,0,.345.553c.271.292.579.558.871.829a2.76,2.76,0,0,0,.7,1.894c-.12.13-.24.256-.36.407-.094.157-.146.308-.229.47-.621-1.565-1.341-3.141-2.217-4.935a2.346,2.346,0,0,0-4.393,1c0,.2.015.4.021.605a23.172,23.172,0,0,0-6.016-10,12.271,12.271,0,0,0-1.038-1.836,2.392,2.392,0,0,0-3.688-.6c-3.615,3.553-3.021,9.631-1.794,15.494-.208-.031-.36-.109-.605-.13a2.013,2.013,0,0,0-2,1.273,7.279,7.279,0,0,0-.193,1.074,12.2,12.2,0,0,0-3.584-2.8,2.061,2.061,0,0,0-3.073,1.727,27.037,27.037,0,0,0,.694,6.114c-.115-.068-.209-.151-.313-.214a2.009,2.009,0,0,0-1.785-.057,1.958,1.958,0,0,0-1.4-.083,2.614,2.614,0,0,0-1.013-.167,1.362,1.362,0,0,0-1.335,1.654.484.484,0,0,0,.02.157,2.343,2.343,0,0,0-1.033,3.709,3.26,3.26,0,0,1,.276.36c-2.243-2.217-4.455-4.466-6.563-6.813-1.763-1.946-5.546.172-4.523,2.7C1489.873,497.323,1493.828,502.055,1498.257,506.369Z" transform="translate(-1470.742 -461.392)" fill="#f79744"/>
            <path id="Path_86" data-name="Path 86" d="M1492.99,486.993a1.078,1.078,0,0,0-1.857.01c-.084.151-.142.318-.2.443a1.561,1.561,0,0,0-.928,1.617,1.28,1.28,0,0,0,.178.48,5.418,5.418,0,0,0-.209.845,1.142,1.142,0,0,0,1.206,1.064,8.422,8.422,0,0,1,1.742.391,1.484,1.484,0,0,0,1.732-1.174,2.886,2.886,0,0,0-1.356-2.885A2.809,2.809,0,0,0,1492.99,486.993Z" transform="translate(-1440.359 -377.165)" fill="#f79744"/>
            <path id="Path_87" data-name="Path 87" d="M1497.016,490.159l-.782-1.393a1.658,1.658,0,0,0-.667-.615,1.177,1.177,0,0,0-1.952-.313,19.259,19.259,0,0,0-1.784,1.91,1.291,1.291,0,0,0,.433,1.847,2.685,2.685,0,0,0-.172.741,1.712,1.712,0,0,0,2.89,1.242,4.794,4.794,0,0,0,.766-.934A1.747,1.747,0,0,0,1497.016,490.159Z" transform="translate(-1433.493 -373.027)" fill="#f79744"/>
            <path id="Path_88" data-name="Path 88" d="M1490.324,489.792a1.44,1.44,0,0,0-.391,1.284,2.493,2.493,0,0,0-.1.965c.235,2.035,2.364,2.139,3.846,2.822a1.825,1.825,0,0,0,2.566-1.33c.152-1.67.073-3.667-1.366-4.779C1493.313,487.538,1491.445,488.545,1490.324,489.792Z" transform="translate(-1441.001 -369.843)" fill="#f79744"/>
            <path id="Path_89" data-name="Path 89" d="M1505.388,483.683c-.068-.026-.125-.052-.208-.078-.418-1.3-.913-1.962-2.812-2.144a1.358,1.358,0,0,0-1.22.731c-.663,1.351-1.388,3.088-.553,4.549a2.662,2.662,0,0,0,1.157,1,9.062,9.062,0,0,0,.919.882,1.853,1.853,0,0,0,2.838-.647.993.993,0,0,1,.042-.156,1.39,1.39,0,0,0,.423-.412,1.747,1.747,0,0,0,.855-1.513,7.548,7.548,0,0,0-.146-1.028A1.764,1.764,0,0,0,1505.388,483.683Z" transform="translate(-1397.156 -398.311)" fill="#f79744"/>
            <path id="Path_90" data-name="Path 90" d="M1502.466,485.39a1.266,1.266,0,0,0-2.259.334c-.073.068-.162.094-.2.167a3.2,3.2,0,0,0,.083,1.988l.036.021a1.51,1.51,0,0,0,.188.673c.5.861,1.508.657,2.316.84a1.57,1.57,0,0,0,1.748-1.414A2.587,2.587,0,0,0,1502.466,485.39Z" transform="translate(-1398.579 -384.044)" fill="#f79744"/>
            <path id="Path_91" data-name="Path 91" d="M1500.79,486.623c-.772-.005-1.795.36-1.982,1.205a1.475,1.475,0,0,0,.261,1.1,1.447,1.447,0,0,0-.015.209c.12.678.245,1.356.38,2.045a1.608,1.608,0,0,0,1.811,1.315,6.856,6.856,0,0,1,1.209-.162,1.761,1.761,0,0,0,1.659-1.262C1504.833,488.4,1503.493,486.7,1500.79,486.623Z" transform="translate(-1403.242 -376.513)" fill="#f79744"/>
            <path id="Path_92" data-name="Path 92" d="M1497.462,489.621c.031.088.2.417.381.762a5.6,5.6,0,0,0-.622,1.195,1.408,1.408,0,0,0,1.362,1.768c1.315-.052,2.708-.193,3.235-1.57.521-1.362-.616-2.9-1.481-3.819A1.731,1.731,0,0,0,1497.462,489.621Z" transform="translate(-1410.112 -372.979)" fill="#f79744"/>
            <path id="Path_93" data-name="Path 93" d="M1504.99,475.05a2.238,2.238,0,0,0-3.011.365,3.273,3.273,0,0,0-2.071,3.626,4.44,4.44,0,0,0,1.289,2.41,3.484,3.484,0,0,0,1.278.981,4.084,4.084,0,0,0,4.022.094C1509.638,480.695,1506.9,476.454,1504.99,475.05Z" transform="translate(-1398.676 -427.126)" fill="#f79744"/>
            <path id="Path_94" data-name="Path 94" d="M1503.363,478.759a1.34,1.34,0,0,0-.975,2.212.94.94,0,0,0,0,.3,1.362,1.362,0,0,0,.443.8c.428.042.845.084,1.289.136a3.074,3.074,0,0,0,.976.595,1.607,1.607,0,0,0,2.16-1.3,4.829,4.829,0,0,0-.048-1.1c-.005-.052.026-.114.021-.177l-.037-.1a1.352,1.352,0,0,0-1.425-1.21h-.031l-.11.016a2.6,2.6,0,0,0-1.132-.13A4.518,4.518,0,0,0,1503.363,478.759Z" transform="translate(-1389.356 -409.769)" fill="#f79744"/>
            <path id="Path_95" data-name="Path 95" d="M1503.6,480.765a1.156,1.156,0,0,0-1.356.929.846.846,0,0,0,.042.563,1.5,1.5,0,0,0-.063.344,4.964,4.964,0,0,1,.188,1.257,1.411,1.411,0,0,0,1.393,1.393,8.789,8.789,0,0,0,1.956-.042c1.362-.188,1.539-2.071.736-2.911A6.167,6.167,0,0,0,1503.6,480.765Z" transform="translate(-1388.742 -401.393)" fill="#f79744"/>
            <path id="Path_96" data-name="Path 96" d="M1491.733,489.843a1.078,1.078,0,0,0-.167-.741,1.591,1.591,0,0,0-.183-.751,1.271,1.271,0,0,0-1.424-.428,4.253,4.253,0,0,0-1.57,1.367,1.257,1.257,0,0,0,.505,1.9C1490.151,491.773,1491.56,491.34,1491.733,489.843Z" transform="translate(-1448.18 -371.26)" fill="#f79744"/>
            <path id="Path_97" data-name="Path 97" d="M1493.608,489.478a1.3,1.3,0,0,0-.632.955,1.526,1.526,0,0,0,.5,1.4l.088.063.006.1a.807.807,0,0,0,.824.558h.021c.694.423,1.972.224,1.982-.824a2.288,2.288,0,0,0-.975-2.144A1.475,1.475,0,0,0,1493.608,489.478Z" transform="translate(-1427.794 -365.553)" fill="#f79744"/>
            <path id="Path_98" data-name="Path 98" d="M1498.268,475.993a2.508,2.508,0,0,0,.334.016,1.357,1.357,0,0,0,1.716.553,1.906,1.906,0,0,0,2.754-.981,12.511,12.511,0,0,0,.428-1.711,2.1,2.1,0,0,0-1.717-2.446,1.511,1.511,0,0,0-.433-.173c-.892-.1-1.821-.047-2.739-.078a1.824,1.824,0,0,0-1.372,2.812A1.491,1.491,0,0,0,1498.268,475.993Z" transform="translate(-1411.039 -441.665)" fill="#f79744"/>
            <path id="Path_99" data-name="Path 99" d="M1500.787,472.685l.01-.025h0Z" transform="translate(-1394.759 -435.398)" fill="#f79744"/>
            <path id="Path_100" data-name="Path 100" d="M1500.979,475.388c.563.078,1.126.177,1.685.255a1.235,1.235,0,0,1,.146-.062.228.228,0,0,1,.089.047.255.255,0,0,1,.063-.115c.1-.052.1-.021-.063.115a3.412,3.412,0,0,0,1.148.36c1.508.177,2.265-2,1.179-2.953a3.444,3.444,0,0,0-2.869-.975c-.151-.031-.319-.062-.464-.094a1.236,1.236,0,0,0-1.33,1.513,2.611,2.611,0,0,0-.183.329A1.217,1.217,0,0,0,1500.979,475.388Z" transform="translate(-1396.857 -438.367)" fill="#f79744"/>
            <path id="Path_101" data-name="Path 101" d="M1499.411,475.282a1.643,1.643,0,0,0,.166,2.6,2.742,2.742,0,0,0,2.453-.01,1.056,1.056,0,0,0,.417-.078,2.135,2.135,0,0,1,.3-.167,1.623,1.623,0,0,0,.95-1.622c-.01-.193-.037-.386-.053-.579,0,.005-.01.026-.041.047a1.479,1.479,0,0,0-1.768-1.356l-.063.005a1.689,1.689,0,0,0-.344.151v-.031A10.972,10.972,0,0,0,1499.411,475.282Z" transform="translate(-1402.937 -429.366)" fill="#f79744"/>
            <path id="Path_102" data-name="Path 102" d="M1497.186,473.223c.047.01.145.021.255.036a1.326,1.326,0,0,0,.261.094c-.261-.052-.381-.073-.49-.089a2.091,2.091,0,0,0,1.429.506l.047.036c.971.4,2.358,0,3.35-.2,1.883-.375,1.9-2.995.37-3.777-.2-.965-.7-1.831-1.935-1.763a2.591,2.591,0,0,0-1.863,1.2,2.678,2.678,0,0,0-1.038.626,1.781,1.781,0,0,0-1.1,2.259,1.63,1.63,0,0,0,.307.631A2.061,2.061,0,0,0,1497.186,473.223Z" transform="translate(-1413.306 -454.795)" fill="#f79744"/>
            <path id="Path_103" data-name="Path 103" d="M1498.692,469.754a1.49,1.49,0,0,0,.641,2.5,2.385,2.385,0,0,1,.287.083,1.454,1.454,0,0,0,1.294-2.478,2.578,2.578,0,0,0-.506-.381A1.264,1.264,0,0,0,1498.692,469.754Z" transform="translate(-1405.474 -449.72)" fill="#f79744"/>
            <path id="Path_104" data-name="Path 104" d="M1499.43,472.405a2.078,2.078,0,0,0,2.6.97,1.591,1.591,0,0,0,.928-1.67c-.021-.125-.026-.229-.052-.349a1.684,1.684,0,0,0-2.17-1.231A1.459,1.459,0,0,0,1499.43,472.405Z" transform="translate(-1401.648 -446.387)" fill="#f79744"/>
            <path id="Path_105" data-name="Path 105" d="M1495.471,471.6a1.536,1.536,0,0,0,2.139-.2,2.669,2.669,0,0,0,.621-1.043,1.659,1.659,0,0,0-.657-1.915c-.089-.047-.178-.026-.261-.063a3.625,3.625,0,0,0-2.823-1.028,1.44,1.44,0,0,0-.933,2.468C1494.235,470.385,1494.809,471.048,1495.471,471.6Z" transform="translate(-1427.097 -457.78)" fill="#f79744"/>
            <path id="Path_106" data-name="Path 106" d="M1495.085,469.741c-.063,1.92,2.921,2.561,3.412.5a3.557,3.557,0,0,0,0-1.153,1.257,1.257,0,0,0-.036-.725,2.776,2.776,0,0,0-1.57-1.393c-.97-.48-2.462.256-2.045,1.518a2.209,2.209,0,0,1,.193.72c-.021.193-.041.376-.058.584C1495.011,469.767,1495.064,469.757,1495.085,469.741Z" transform="translate(-1420.1 -460.01)" fill="#f79744"/>
            <path id="Path_107" data-name="Path 107" d="M1500.056,469.37a2.755,2.755,0,0,0,.209-.328,1.588,1.588,0,0,0,1.085-2.155c-.042-.089-.094-.172-.13-.25a1.628,1.628,0,0,0-1.775-.887,2.888,2.888,0,0,0-1.987,1.158,1.156,1.156,0,0,0-.266.908,2.017,2.017,0,0,0,1.362,2.055A1.328,1.328,0,0,0,1500.056,469.37Z" transform="translate(-1409.957 -464.7)" fill="#f79744"/>
            <path id="Path_108" data-name="Path 108" d="M1498.362,470.688a1.166,1.166,0,0,0,.959,1.351c1.581.115,2.228.078,2.8-.83a.831.831,0,0,0,.569-1.283,1.491,1.491,0,0,0-.783-1.821c-1.074-.454-2.447-.532-3.082.652a1.091,1.091,0,0,0-.11.663A4.039,4.039,0,0,0,1498.362,470.688Z" transform="translate(-1405.029 -455.897)" fill="#f79744"/>
            <path id="Path_109" data-name="Path 109" d="M1490.235,485.768c-.058-.084-.125-.1-.178-.178a2.058,2.058,0,0,0-1.1-1.544c-1.074-.5-2.478.271-3.151,1.3a1.961,1.961,0,0,0-.3.553c0,.073-.067.131-.073.2v.063a.681.681,0,0,0-.005.23,1.654,1.654,0,0,0,.741,1.6.405.405,0,0,1,.083.073v-.021a1.756,1.756,0,0,0,.329.167l.088.031a1.968,1.968,0,0,0,.35.036c-.449.146.6.261,1.095.339a2.159,2.159,0,0,0,1.988-.647A1.9,1.9,0,0,0,1490.235,485.768Z" transform="translate(-1459.531 -388.032)" fill="#f79744"/>
            <path id="Path_110" data-name="Path 110" d="M1488.766,487.74a3.386,3.386,0,0,0-.949-1.873,1.359,1.359,0,0,0-1.477-.454,1.44,1.44,0,0,0-1.429,2.41c.2.2.371.438.564.652,0,.026.031.037.041.057.151.177.3.318.433.506C1486.9,490.38,1489.069,489.258,1488.766,487.74Z" transform="translate(-1463.604 -381.902)" fill="#f79744"/>
            <path id="Path_111" data-name="Path 111" d="M1486.856,475.5a3.815,3.815,0,0,0,1.481.819,1.693,1.693,0,0,0,1.732-.485c1.821-1.09,2.187-4.215.522-5.306a1.813,1.813,0,0,0-1.273-.725,1.389,1.389,0,0,1,0-.214c-.136-1.664-2.781-1.831-2.984-.12-.062.538-.307,1.086-.391,1.638a2.383,2.383,0,0,0-1.012,1.351l-.026.068a2.037,2.037,0,0,0,1.163,2.311C1485.682,474.764,1486.47,475.149,1486.856,475.5Z" transform="translate(-1461.969 -453.947)" fill="#f79744"/>
            <path id="Path_112" data-name="Path 112" d="M1487.575,470.416a3.9,3.9,0,0,1,.861,1.163,1.354,1.354,0,0,0,2.071.4c1.7-1.607.663-3.793-1.649-3.646a.951.951,0,0,0-.724.4l-.047.005A1.017,1.017,0,0,0,1487.575,470.416Z" transform="translate(-1451.629 -453.685)" fill="#f79744"/>
            <path id="Path_113" data-name="Path 113" d="M1487.791,470.172a3.19,3.19,0,0,0-2.463,2.149c-.469,1.628,1.78,2.316,2.869,1.962a1.369,1.369,0,0,0,.95-1.706,1.28,1.28,0,0,0,0-.981l-.183.313A1.322,1.322,0,0,0,1487.791,470.172Z" transform="translate(-1460.218 -445.891)" fill="#f79744"/>
            <path id="Path_114" data-name="Path 114" d="M1484.287,472.277a2.93,2.93,0,0,0-.3.089.5.5,0,0,0-.344.48c-.021.1-.026.2-.057.308-.016.073,0,.135-.016.224a3.166,3.166,0,0,0-.584,1.476,1.7,1.7,0,0,0,1.55,1.753,2.993,2.993,0,0,0,2.373-1.56,1.69,1.69,0,0,0,.12-1.367A1.611,1.611,0,0,0,1484.287,472.277Z" transform="translate(-1469.844 -439.164)" fill="#f79744"/>
            <path id="Path_115" data-name="Path 115" d="M1485.652,473.807l-.131-.031a.641.641,0,0,0-.177-.011,1.4,1.4,0,0,0-.224-.042l-.036.021a1.226,1.226,0,0,0-1.142.939c-.042.084-.12.157-.162.24a1.379,1.379,0,0,0,1.106,2.087c.083.015.177.005.25.015a1.269,1.269,0,0,0,.762-.031c1.418-.308,2.034-2.577.365-3.026-.095-.021-.173-.042-.272-.073A.928.928,0,0,0,1485.652,473.807Z" transform="translate(-1467.256 -430.912)" fill="#f79744"/>
            <path id="Path_116" data-name="Path 116" d="M1488.01,482.477c2.5-.4,2.546-2.6,1.983-4.544a2.757,2.757,0,0,0-1.059-2.186.594.594,0,0,0-.1-.078,5.606,5.606,0,0,0-4.925-1.257c-2.285.741-1.92,3.135-.892,4.711C1483.91,480.515,1486.184,482.769,1488.01,482.477Z" transform="translate(-1473.104 -428.741)" fill="#f79744"/>
            <path id="Path_117" data-name="Path 117" d="M1482.763,480.45a1.476,1.476,0,0,0,1.357,1.263,1.624,1.624,0,0,0,.4-.115,1.366,1.366,0,0,0,1.779-.829c.668-1.4.01-3.428-1.637-3.662a1.526,1.526,0,0,0-.616.115,1.619,1.619,0,0,0-2,2.431C1482.232,479.882,1482.477,480.158,1482.763,480.45Z" transform="translate(-1475.344 -416.917)" fill="#f79744"/>
            <path id="Path_118" data-name="Path 118" d="M1486.966,479.34a1.941,1.941,0,0,0-2.817-.146,3.852,3.852,0,0,0-1.779,2.494,1.643,1.643,0,0,0,1.128,1.654c.823.251,1.371,1.038,2.259,1.242a1.826,1.826,0,0,0,1.763-.72C1488.536,482.366,1488.1,480.691,1486.966,479.34Z" transform="translate(-1472.498 -410.099)" fill="#f79744"/>
            <path id="Path_119" data-name="Path 119" d="M1484.031,484.253a1.462,1.462,0,0,0,1.784-1.445,2.276,2.276,0,0,0-1.226-2.348,1.058,1.058,0,0,0-1.455.386,2.937,2.937,0,0,0-.2.417,1.383,1.383,0,0,0-.031,2.629Q1483.467,484.065,1484.031,484.253Z" transform="translate(-1474.133 -403.155)" fill="#f79744"/>
            <path id="Path_120" data-name="Path 120" d="M1481.462,484.024a1.261,1.261,0,0,0,1.309.109,2.338,2.338,0,0,0,.809-.835c.063.063.13.021.26-.172a1.8,1.8,0,0,0,.256-.709,1.232,1.232,0,0,0-.48-1.137,3.636,3.636,0,0,0-1.743-.459,1.3,1.3,0,0,0-1.377,1.487A3.253,3.253,0,0,0,1481.462,484.024Z" transform="translate(-1480.464 -400.995)" fill="#f79744"/>
            <path id="Path_121" data-name="Path 121" d="M1482.786,485.694a.9.9,0,0,0,.381.042c.271.083.527.162.782.256a1.52,1.52,0,0,0,2.16-1.476,3.18,3.18,0,0,0-1.9-2.807,1.21,1.21,0,0,0-1.419.313,1.957,1.957,0,0,0-.381.981.88.88,0,0,0-.427.35c-.042.062-.032.141-.058.2-.046.151-.156.256-.125.433.01.209.047.4.073.605a1.2,1.2,0,0,0,.715.908C1482.661,485.558,1482.7,485.647,1482.786,485.694Z" transform="translate(-1474.871 -397.651)" fill="#f79744"/>
            <path id="Path_122" data-name="Path 122" d="M1487.881,470.021l.063.141a1.132,1.132,0,0,0,1.314.454c.214-.078.418-.162.621-.235a1.594,1.594,0,0,0,.856-2.04,2.723,2.723,0,0,0-3.187-1.685,1.041,1.041,0,0,0-1.028.809,2.159,2.159,0,0,0-.282.417,1.582,1.582,0,0,0,.224,1.857A1.85,1.85,0,0,0,1487.881,470.021Z" transform="translate(-1456.943 -461.219)" fill="#f79744"/>
            <path id="Path_123" data-name="Path 123" d="M1491.188,468.293a1.3,1.3,0,0,0,2.255-1.075,1.882,1.882,0,0,0-2.051-1.7,1.3,1.3,0,0,0-.548,2.488C1490.953,468.105,1491.068,468.189,1491.188,468.293Z" transform="translate(-1440.014 -465.517)" fill="#f79744"/>
            <path id="Path_124" data-name="Path 124" d="M1492.423,472.491a2.976,2.976,0,0,0,3.172.4c1.356-.569,1.742-2.092,1.706-3.49a.244.244,0,0,1,0-.089,7.6,7.6,0,0,0-.073-.923,1.927,1.927,0,0,0-2.651-1.466,7.525,7.525,0,0,0-1.893.777,6.358,6.358,0,0,0-1.33,2.327,1.947,1.947,0,0,0,1.022,2.4C1492.4,472.439,1492.407,472.47,1492.423,472.491Z" transform="translate(-1435.119 -460.23)" fill="#f79744"/>
            <path id="Path_125" data-name="Path 125" d="M1488.77,469.509a2.593,2.593,0,0,0-1.351-1.623c-.058-.151-.146-.282-.214-.459-.678-1.9-3.365-.662-2.754.934h-.026a5.72,5.72,0,0,0,1.956,3.036C1487.691,472.524,1489.25,470.875,1488.77,469.509Z" transform="translate(-1464.026 -461.515)" fill="#f79744"/>
            <path id="Path_126" data-name="Path 126" d="M1484.545,470.687l.444-.381a1.344,1.344,0,0,0-.146-2.108c-.063-.026-.126-.063-.177-.089a1.34,1.34,0,0,0-1.508.1C1481.571,468.924,1483.141,471.934,1484.545,470.687Z" transform="translate(-1471.908 -455.348)" fill="#f79744"/>
            <path id="Path_127" data-name="Path 127" d="M1485.726,474.065a1.731,1.731,0,0,0,2.165-2.029c-.1-.329-.214-.636-.308-.96a1.773,1.773,0,0,0-1.4-1.153,2.89,2.89,0,0,0-2.03.4c-.067.026-.115.1-.188.13a4.153,4.153,0,0,0-.569.005,1.543,1.543,0,0,0-.474,2.911A23.342,23.342,0,0,0,1485.726,474.065Z" transform="translate(-1473.742 -447.134)" fill="#f79744"/>
            <path id="Path_128" data-name="Path 128" d="M1490.115,490.216a1.289,1.289,0,0,0-.866,1.852,6.172,6.172,0,0,0,.783,1.56,1.45,1.45,0,0,0,2.655-.819,3.156,3.156,0,0,0-.485-2.238A1.52,1.52,0,0,0,1490.115,490.216Z" transform="translate(-1444.011 -362.457)" fill="#f79744"/>
            <path id="Path_129" data-name="Path 129" d="M1488.629,487.3a1.522,1.522,0,0,0-2.875-.48c-.757,1.419-1.09,3.4.063,4.732,1.179,1.351,2.906.7,3.579-.762a1.622,1.622,0,0,0-.616-2.228A5.464,5.464,0,0,0,1488.629,487.3Z" transform="translate(-1461.056 -379.303)" fill="#f79744"/>
          </g>
          <path id="Path_130" data-name="Path 130" d="M1488.079,512.9c2.108,3.782,8.8,1.32,11.78.281a33.917,33.917,0,0,0,5.008-2.269c-2.055,2.635-3.75,5.447-3.975,8.618a1.45,1.45,0,0,0,1.867,1.315,11.52,11.52,0,0,0,5.228-4.435c-.182,2.671.5,5.222,2.655,6.584,1.091.7,3,.475,3.4-1.007a34.868,34.868,0,0,0,.866-4.612c1.535,3.183,3.585,5.948,6.949,7.121a1.982,1.982,0,0,0,2.619-1.612c.663-3.234-.37-6.484-1.967-9.281-.214-.376-.49-.8-.74-1.231a7.98,7.98,0,0,0,1.836.329,21.489,21.489,0,0,0,5.723,1.075,1.1,1.1,0,0,0,.735-1.883c-.792-.72-1.618-1.336-2.426-2.009a2.352,2.352,0,0,0-1.111-1.8c-1.773-1.215-3.537-2.483-5.274-3.735a21.007,21.007,0,0,0,10.768-2.546,1.749,1.749,0,0,0-.469-3.167,22.462,22.462,0,0,0-12.61.365c2.916-4.1,5.4-8.295,5.113-13.7-.078-1.544-1.821-3.266-3.427-2.155a16.916,16.916,0,0,0-4.429,4.669c-.089-6.067-1.461-11.868-5.488-15.63a2.429,2.429,0,0,0-3.986,1.1c-1.3,3.553-1.132,7.251-.428,10.987a23.174,23.174,0,0,1-.96-2.655c-.6-2.28-3.944-1.007-3.417,1.226.3,1.267.637,2.5.976,3.74-3.709-4.507-7.794-7.8-10.471-5.713-2.718,2.139.047,7,4.127,11.869a2.17,2.17,0,0,0-1.873,3.767c.3.3.621.527.918.793a19.785,19.785,0,0,0-6.234-.026c-2.082.355-2.353,3.224-.71,4.262a37.283,37.283,0,0,0,7.674,3.641c-1.043.334-2.118.7-3.041,1.106C1491.069,507.242,1486.352,509.762,1488.079,512.9Z" transform="translate(-1450.448 -440.271)" fill="#f05f42"/>
          <path id="Path_131" data-name="Path 131" d="M1491.774,490.785a11.125,11.125,0,0,0,.517,1.962c.787,2.019,3.125,2.848,5.045,3.14a5.975,5.975,0,0,0,4.508-1.607,7.783,7.783,0,0,0,3.652-2.436,5.832,5.832,0,0,0,2.827-8.561,6.142,6.142,0,0,0-.219-1.477c-1.335-3.865-4.565-5.389-8.373-4.893l-.438-.276c-4.491-2.9-10.146,1.393-9.082,6.417l.35,1.706A6.807,6.807,0,0,0,1491.774,490.785Z" transform="translate(-1439.921 -422.583)" fill="#b97d4f"/>
        </g>
      </g>
    </g>
    <path id="Path_762" data-name="Path 762" d="M25.425,387.677a8.995,8.995,0,0,0,13.211,1.134,8.271,8.271,0,0,0,2.3-5.072,8.406,8.406,0,0,0,1.031-1.824,6.51,6.51,0,0,0,.384-2.352,15.432,15.432,0,0,0-2.361-8.523,11.964,11.964,0,0,0-1.041-1.4c-.238-.834-.417-1.7-.63-2.54-.256-1.176-.374-2.429-.63-3.614,1.21-5.233,1.27-10.8,1.415-16.049.315-9.589.929-18.564,4.79-27.5,1.141-2.532,2.5-5.3,3.81-8.208-1.476,20.72,3.468,43.41,11.122,61.777.495,1.16,1.015,2.285,1.509,3.435-3.623,1.8-5.378,7.322-5.591,10.893-.289,5.472,2.318,11.583,8.421,12.1a10,10,0,0,0,6.972-2.079c6.281,12.861,12.384,25.723,16.143,39.719a32.122,32.122,0,0,0-1.714,3.657c-.75,1.483-1.764,2.855-2.429,4.355-1.586,3.742-2.931,8.174-.767,12.009.2.35.451.69.664,1.031,2.574,6,9.768,10.075,15.556,4.415.229-.247.418-.5.664-.767,4.782-3.307,5.063-18.5-2.471-21.164a2.951,2.951,0,0,0-.426-.306,11.508,11.508,0,0,0-2.882-1.492c-.1-.119-.264-.2-.357-.29a13.96,13.96,0,0,1-4.007-4.091c-3.921-13.663-9.981-26.269-16.135-38.918a10.036,10.036,0,0,0,2.071-7.032,9.677,9.677,0,0,0-.29-3.75,10.538,10.538,0,0,0-2.258-4.645,7.141,7.141,0,0,0-4.672-4.372,9.09,9.09,0,0,0-3.186-.546,5.5,5.5,0,0,0-1.211-.221c-.4-.972-.826-1.918-1.226-2.864-7.919-19.382-8.072-39.821-9.215-60.209a103.861,103.861,0,0,0,13.7,25.818c6.315,8.9,14.976,15.666,21.982,23.84a1.338,1.338,0,0,0,.051,1.227c1.882,3.622.229,7.415-.163,11.226a12.035,12.035,0,0,0,2.115,8.216,8.967,8.967,0,0,0,11.608,2.77,10.614,10.614,0,0,0,4.739-12.939c-1.516-4.279-9-10.706-14.233-9.589-3.7-6.154-9.137-10.867-14.14-16.535-12.9-14.677-22.6-29.261-25.86-48.839-.17-.972-.316-1.935-.451-2.907-.051-.238-.051-.528-.111-.8v-.017c-2.225-15.223-2.591-30.616-5.659-45.813-1.764-8.694-4-17.311-6.4-25.9,2.916,5.455,5.915,10.876,9.99,15.785,6.58,7.96,14.993,15.342,23.2,22.254-.061,2.25.4,4.62.478,6.853.033,3.111.3,6.734,2.377,9.256,3.605,4.159,8.609,4.628,13.075,1.586a9.975,9.975,0,0,0,3.051-12.939c-1.475-2.566-3.878-3.818-6.622-4.526a25.385,25.385,0,0,0-6.58-.716,15.069,15.069,0,0,0-1.883-.7,1.329,1.329,0,0,0-.793-.009,4.3,4.3,0,0,0-2.012-1.475l-.093.018c-6.819-7.782-14.209-14.976-21.138-22.749-6.52-7.3-9.418-18.155-15.8-25.493-.8-2.148-1.789-4.228-2.745-6.308-.145-.333-.273-.681-.408-1.005-.426-1.552-.887-3.043-1.322-4.56-4.678-15.965-8.777-31.92-10.781-48.481-2.173-18.41-.656-37.469-.562-55.989a294.248,294.248,0,0,0-3.785-50.595C14.455,28.118,12.826,13.091,4.824.724a1.406,1.406,0,0,0-2.507,1.27c12.444,30.284,13.91,66.79,13.707,99.127-.027,4.585-.051,9.145-.094,13.74-.673,5.532-.069,11.4-.042,16.936.034,6.2-.162,12.333-.393,18.478C7.959,169.376,1,197.12,6.255,218.658A17.746,17.746,0,0,1,6,221.5c-.2.912-.468,1.773-.707,2.66-.282.417-.546.835-.845,1.227a26.115,26.115,0,0,0-2.368,3.5,10.734,10.734,0,0,0-2.021,4.7,8.944,8.944,0,0,0,3.487,8.14,4.682,4.682,0,0,0,2.829,1.636,14.561,14.561,0,0,0,1.849.563c5.429,1.151,9.7-2.531,10.962-7.509,1.483-6.051-3.426-11.686-8.728-14.217.461-11.166-1.023-22.417.2-33.693,1.21-11.149,4.048-21.939,7.194-32.644,2.165,14.353,6.486,28.519,10.595,42.378.444,1.415.861,2.8,1.26,4.185a11.887,11.887,0,0,0,.947,4.458,3.313,3.313,0,0,0,.222.6,1.557,1.557,0,0,0,.255.929,1.1,1.1,0,0,1,.12.179c.239.572.486,1.126.785,1.68,3.725,12.649,7.346,25.374,10.228,38.253a202.815,202.815,0,0,1,3.409,22.4c-.886,9.572,1.859,19.553,1.619,29.176-1.458,7.892-7.322,15.6-8.975,23.166-1.449,6.751-1.765,13.8-2.063,20.687-.239,6.682-1.159,13.245-1.857,19.809-1.875,1.594-3.768,3.017-5.482,4.56a9.59,9.59,0,0,0-3.809,4.346,16.393,16.393,0,0,0-1.091,1.935A12.338,12.338,0,0,0,25.425,387.677Z" transform="matrix(-0.966, 0.259, -0.259, -0.966, 1977.022, 1544.326)" fill="#898989"/>
    <path id="Path_763" data-name="Path 763" d="M1540.239,463.564a7.317,7.317,0,0,0-4.973-3.2c-1.558-.181-3.95.317-5.774-.069-.022-.021-.052-.045-.078-.07a2.114,2.114,0,0,0-1.543-1.91c-.288-.1-.577-.2-.861-.3-.4-1.223-.547-2.773-.98-3.89-.572-1.48-2.622-2.545-3.889-3.3-3.064-1.812-3.734-5.822-6.6-7.88-5.863-4.211-12.771-1.2-15.754,4.774-1.809,3.626-1.861,7.886-3.609,11.6-1.6,3.405-3.323,6.576-3.94,10.324a2.544,2.544,0,0,0,0,.785c-1.557,3.068-2.333,6.439-1.178,9.625,2.77,7.623,12.205,6.518,18.8,6.226,9.212-.405,18.415-2.6,26.09-7.823C1540.948,475.054,1544.378,469.156,1540.239,463.564Z" transform="translate(222.933 1531.08)" fill="#f9d0d0"/>
    <path id="Path_765" data-name="Path 765" d="M455.763,941.5a6.254,6.254,0,0,1-2.405,6.723,11.4,11.4,0,0,1,4.2,14.456,12.5,12.5,0,0,1,3,8.335c-.1,7.876-6.634,9.666-13.123,7.954a11.5,11.5,0,0,1-5.427-.795,15.812,15.812,0,0,1-5.482-4c-.828,2.226-1.544,5.012-4.2,6.746-3.6,2.428-7,3.413-11.334,2.395-6.2-1.466-14.813-9.812-12.161-16.951a7.19,7.19,0,0,1,4.15-4.34c-8.089-7.418-14.455-17.107-4.609-24.111,3.558-2.506,7.149-3.188,10.528-2.215,2.5-5.9,7.518-10.013,15.16-8.94C441.9,927.9,453.749,932.825,455.763,941.5Zm-35.914,14.444c2.988,2.864,5.628,5.9,9.421,8.089l-.011.089a7.179,7.179,0,0,1,.929.559,3.007,3.007,0,0,1,1.175,1.411,8.417,8.417,0,0,1,3.289-3.726,4.264,4.264,0,0,1,1.376-3.423,72.109,72.109,0,0,1-.985-9.253,19.974,19.974,0,0,1-8.469-5.829C427.021,948.265,423.418,952.583,419.849,955.939Z" transform="translate(1212.166 641.355)" fill="#fff"/>
    <path id="Path_766" data-name="Path 766" d="M406.093,950.613a3.561,3.561,0,0,1,1.37-3.828,6.494,6.494,0,0,1-2.389-8.231,7.117,7.117,0,0,1-1.707-4.746c.057-4.485,3.778-5.5,7.473-4.529a6.546,6.546,0,0,1,3.09.453,9,9,0,0,1,3.121,2.28c.472-1.268.879-2.854,2.389-3.841a7.608,7.608,0,0,1,6.454-1.364c3.529.835,8.435,5.587,6.925,9.652a4.094,4.094,0,0,1-2.363,2.472c4.606,4.224,8.231,9.741,2.625,13.729a6.861,6.861,0,0,1-5.995,1.261c-1.421,3.357-4.281,5.7-8.632,5.09C413.986,958.353,407.239,955.55,406.093,950.613Zm20.45-8.224a28.419,28.419,0,0,0-5.364-4.606l.007-.051a4.081,4.081,0,0,1-.529-.318,1.712,1.712,0,0,1-.669-.8,4.793,4.793,0,0,1-1.873,2.122,2.428,2.428,0,0,1-.784,1.949,41.064,41.064,0,0,1,.561,5.269,11.374,11.374,0,0,1,4.823,3.319C422.459,946.758,424.511,944.3,426.543,942.388Z" transform="translate(1240.761 725.089)" fill="#fff"/>
  </g>
</svg>
