<svg xmlns="http://www.w3.org/2000/svg" width="529.727" height="1211.533" viewBox="0 0 529.727 1211.533">
  <g id="左上花" transform="translate(183.978 -1699.627)">
    <path id="Path_767" data-name="Path 767" d="M.238,187.619a1.5,1.5,0,0,1-.025-1.13c2.595-6.907,9.319-9.608,15.978-11.65a1.651,1.651,0,0,1-.755-2.873,26.357,26.357,0,0,1,8.731-5.549,40.58,40.58,0,0,1,5.123-1.672c-.05.005.74-.152,1.784-.461a6.156,6.156,0,0,1,4.125-1.692h.046c.866-.613,1.074-1.312-.34-1.981a1.434,1.434,0,0,1,.147-2.63c5.148-1.637,10.211-1.8,15.6-1.87,4.758-.051,13.986,2.518,10.971-4.9-.274-.669.349-1.622,1.124-1.267,7.46,3.259,18.821,3.851,25.2,9.588a8.744,8.744,0,0,0-2.5-5.28,1.294,1.294,0,0,1,1.095-2.108,47.75,47.75,0,0,1,18.79,6.106c3.431,1.987,7.626,5.559,9.491,9.6a1.816,1.816,0,0,0,.168.147,2.784,2.784,0,0,1,.217-.755,5.476,5.476,0,0,1,.573-.9h0a2.493,2.493,0,0,1,1.545-2.24,2.1,2.1,0,0,0,.238-.152,14.9,14.9,0,0,0,1.723-2.665c-.025-.309.011-.512.112-.558l.01-.066a.206.206,0,0,1,.263-.253c.831.329,1.4,1.485,1.85,2.209.932,1.454,1.8,2.939,2.691,4.419.988,1.1,1.86,2.336,2.762,3.507.583.745,1.784,2.5,2.884,1.936.892-.446.663-1.977,1.327-2.818-.03-.162-.015-.289-.035-.461-.183-.963,1.206-1.561,1.652-.619,4.819,10.236,16.9,15.233,17.944,26.939-.01.025.031.04.031.081s-.021.076-.021.107a16.489,16.489,0,0,1,.03,2.407c11.68.7,23.751,5.412,34.347,12.6-3.233-4.2-6.436-8.448-9.679-12.669-8.888-7.48-16.57-18.015-23.214-27.081-5.666-7.728-12.507-14.118-17.239-22.383-.162.046-.284.117-.426.167a2.328,2.328,0,0,1-.593.081,5.234,5.234,0,0,1-1.626-.147,1.059,1.059,0,0,1-.32-.208c-9,2.508-21.08.674-30.248-3.552a22.418,22.418,0,0,1-11.021-6.228,24.49,24.49,0,0,1-4.916-4.905c-.542-.765-.076-2.22,1.008-2.189a10.76,10.76,0,0,0,1.845-.127c-.471-1.627-1.024-3.238-1.627-4.829a53.88,53.88,0,0,1-8.711-4.753,1.551,1.551,0,0,1,.522-2.595c.512-.1,1.043-.2,1.556-.34a65.711,65.711,0,0,1-12.365-11.564A23.628,23.628,0,0,1,63,100.636a1.355,1.355,0,0,1,1.064-1.85C66,98.583,66.6,96.81,66.6,95.011c-1.931-3.056-4.044-5.995-6.324-8.939a3.707,3.707,0,0,1-.421-.806,83.887,83.887,0,0,1-6.674-11.4,1.3,1.3,0,0,1,1.313-1.829,11.748,11.748,0,0,0,2.741.618,58.528,58.528,0,0,0-2.468-9.329A65.216,65.216,0,0,1,49.57,54.7c-.273-.522.309-1.018.811-.9a1.5,1.5,0,0,1-.137-.73c.2-1.282.345-2.61.436-3.952-.548-4.11-.791-8.407-2-11.954a17.889,17.889,0,0,0-1.155-1.936c-.365-.507.2-1.378.816-1.029.339.2.709.406,1.048.6a1.073,1.073,0,0,1,1.3-.329,13.435,13.435,0,0,0,5.914.714A13.53,13.53,0,0,1,52.24,29.97c-.491-.491-1.034-.927-1.525-1.434a2.031,2.031,0,0,1-.268-2.473c-.167-.4-.365-.791-.5-1.186a.732.732,0,0,1,.979-.912,18.231,18.231,0,0,0,3.395.917A106.358,106.358,0,0,0,51.43,14.529,39.128,39.128,0,0,0,43.575,3.645c-.046-.02-.1-.061-.157-.086a1.776,1.776,0,0,1-1.1-1.338.493.493,0,0,1-.055-.385c-.065-1.023.537-2.027,1.789-1.8.146.016.289.061.44.091V.1l.051.035A38.411,38.411,0,0,1,59.75,5.991a28.369,28.369,0,0,1,4.312,3.714c.8.841,1.657,1.667,2.5,2.463.066.091.132.117.2.193.588-1.171,1.16-2.367,1.743-3.537a1.313,1.313,0,0,1,2.306-.7,36.779,36.779,0,0,1,3.147,3.77,1.483,1.483,0,0,1,.938.577,3.23,3.23,0,0,1,.233.36,20.7,20.7,0,0,1,7.444,10.819,18.9,18.9,0,0,0,3.714-6.127,5.25,5.25,0,0,1,.132-.674.988.988,0,0,1,1.754-.5c.39.512.735,1.034,1.064,1.551a1.764,1.764,0,0,1,1.221.836c.147.223.3.466.431.7A31.673,31.673,0,0,1,97.908,30.32c1.774,1.637,3.841,2.452,6.3,1.606a6.463,6.463,0,0,0,.355-1.783,1.01,1.01,0,0,1,1.231-.973c5.619,1.875,8.153,7.926,9.426,13.454,1.631,3.78,2.858,7.926,4.541,11.422.3-.375.537-.765.831-1.125a1.547,1.547,0,0,1,2.184-.1c1.389,1.616,10.672,23.006,8.006,23.042,2.732-.036,3.735,1.789,4.607,4.206,2.4,6.425,2.787,14.387,2.422,21.916.075,2.595.091,5.169.091,7.718a17.391,17.391,0,0,1,2.686-2.5,1.971,1.971,0,0,1,3.147,1.7,47.046,47.046,0,0,1-1.475,12.065c-.527,2.174-1.885,4.459-2.62,6.674.274-.02.548-.025.826-.041a1.655,1.655,0,0,1,2.022,1.991c-.714,3.243-1.53,12.557-4.809,16.905,9.531,8.28,16.012,20.026,24.08,29.569.208.248.426.486.628.72,9.1,9.471,18.309,18.669,26.553,28.971,1.961,2.468,3.847,5.012,5.686,7.6-.147-.816-.274-1.611-.4-2.4a71.466,71.466,0,0,1-.912-7.8,16.089,16.089,0,0,1-5.843-6.283c-6.253-10.642-10.651-25.165-7.824-37.337a1.735,1.735,0,0,1,2.742-1.08,23.123,23.123,0,0,0,2.158,1.4,68.007,68.007,0,0,1-2.007-28.682c-.035-1.743.127-3.507.051-5-.035-.567.765-.639.938-.142a11.906,11.906,0,0,0,1.455,2.58,1.154,1.154,0,0,1,.5.253c5.484,5.108,1.647-11.159,1.221-13.642-1.16-6.9-1.419-13.1.259-19.91a1.394,1.394,0,0,1,.826-.928c0-.071-.025-.178-.025-.254a1.215,1.215,0,0,1,1.272-1.176c1.551.056,2.392-1.186,2.828-2.752-.254-1.1-.487-2.113-.552-2.62-.152-1.252-.223-2.508-.254-3.781-1.191-4.51-1.54-9.243-.268-13.206a.936.936,0,0,1,1.723-.117,26.537,26.537,0,0,0,1.611,2.539c6.477,1.181,9.451-14.817,10.393-20.827l-.055-.107a.736.736,0,0,1,.233-1.013.445.445,0,0,0,.031-.173c.02-.121.106-.147.167-.213-.061-.573-.112-1.14-.208-1.713-.253-1.252,1.6-1.51,1.911-.309.091.37.212.811.334,1.262a.922.922,0,0,1,.558.456c1.459,2.615,2.924,5.214,4.287,7.9.02.02.041.041.041.061,1.693,2.1,3.587,4.388,5.544,6.572.648-.025,1.1-.811,1.161-2.827a1.811,1.811,0,0,1,3.293-1.059c2.519,3.952,3.932,11.914,9.689,12.127.157.005.248.091.39.111a2.493,2.493,0,0,0,.355-.106,7.685,7.685,0,0,0,2.022-3.127.941.941,0,0,1,1.8.132c.42,3.715,1.1,7.911,1.252,12.02.233,2.128.39,4.262.593,6.39.942,1.52,2.149,2.052,3.739.223a.931.931,0,0,1,.877-.3c.395-.446,1.181-.5,1.349.253a45.869,45.869,0,0,1-.259,18.365.994.994,0,0,1,1.205.831,37.164,37.164,0,0,1,.543,6.552c3.086,14.164.4,31.626-11.3,40.763.668.294,1.276.593,1.931.9,1.084.066,2.244,1.166,1.768,2.336-1.454,3.816-2.929,8.042-5.736,11.093a18.865,18.865,0,0,1-4.536,4.14c.056-.015-11.933,6.593-6.466,7a1.922,1.922,0,0,1,1.707,2.513c-3.36,8.574-10.4,15.663-19.388,17.523-2.341,2.326-4.586,3.263-6.689,3.253,1.555,4.338,2.391,8.959,3.826,13.333,1.247,3.77,3.127,7.652,4.1,11.615.162.264.33.522.482.8a62.826,62.826,0,0,1,7.55,13.424c5.357,9.958,10.46,20.042,15.734,29.792.2.253.4.491.619.77l.025.021a103.618,103.618,0,0,1,8.245,8.553c1.1.988,2.235,1.921,3.37,2.853a41.315,41.315,0,0,1-.279-5.179c-1.758-4.2-5.858-7.616-8.736-10.87a33.952,33.952,0,0,1-6.577-11.27c-.284-.877-.5-1.758-.689-2.625a43.168,43.168,0,0,1-2.919-8.305c-.334-1.292,1.5-1.926,2.255-1.009a10.03,10.03,0,0,0,2.168,1.936,3.167,3.167,0,0,1,2.1-.025,37.926,37.926,0,0,1-5.747-26.518c.243-1.485,2.376-2.59,3.405-1.054a10.191,10.191,0,0,0,2.1,2.767,4.24,4.24,0,0,1,1.13.117,168.819,168.819,0,0,1-.339-24.177,1,1,0,0,1,1.945-.284c1.186,2.949,3.244,3.684,4.829,4.905-.653-3-.481-5.437,0-9.177.659-4.976,5.1-13.383,3.654-18.309-.385-1.328,1.475-1.769,2.128-.76,7.019,10.941,8.316-8.995,9.37-12.7,1.769-6.162,6.1-10.763,8.529-16.657.086-.218.451-.345.583-.066a8.74,8.74,0,0,1,.881,2.392c.816,1.621,1.373,4.419,3.481,4.338,2.062-.066,4.029-2.047,5.371-3.4,2.7-2.762,5.934-7.16,6.162-11.351a17.034,17.034,0,0,1-.122-2.1c.005-1.328,1.875-1.383,2.22-.2a10.992,10.992,0,0,1,.38,2.777c.517,1.368,1,2.737,1.439,4.12a122.335,122.335,0,0,1,10.059,25.454c0-.071,1.231,22.9,7.85,14.4.654-.8,2.184-.583,2.265.537a32.524,32.524,0,0,1,.152,10.763c-.025.223-3.933,18.289-2.017,17.062,1.353-.912,3.521-.005,3.192,1.839-.628,3.684-1.307,8.818-2.478,12.405-.862,2.625-10.642,18.861-4.282,15.714,1.956-.983,3.258,1.5,2.347,3.051-5.336,9.03-8.422,17.113-18.512,20.017.152.491.309.993.487,1.479a7.937,7.937,0,0,0,3.126.953c1.2.233,1.728,2.118.335,2.575-3.273,1.069-6.329,3.121-9.694,3.983a29.662,29.662,0,0,1-8.711.553,1.978,1.978,0,0,1-.9,3.532c-5.062,1.11-8.7,3.993-13.971,3.2a1.4,1.4,0,0,1-.359-.137,18.64,18.64,0,0,0-2.615,3.719c.42,2.336,1.342,4.591,1.363,6.988v.021c10.338,8.792,19.267,19.5,27.1,30.511,7.774,10.961,13.82,23.219,20.757,34.712a124.216,124.216,0,0,1,16.672,44.736,1.012,1.012,0,0,1-1.93.517c-.107-.258-.228-.532-.325-.79a2.565,2.565,0,0,1-1.956.345c-.02.177-.02.36-.03.517-.334,2.747-3.841,2.625-4.591.218-2.341-7.774-4.722-15.532-7.322-23.209-1.008-2.4-1.834-4.905-2.635-7.383-5.2-6.593-9.137-13.454-15.977-19.033-7.87-6.375-16.668-9.836-26.178-12.147.136,5.356-4.384,8.1-8.818,13.034a40.592,40.592,0,0,1-25.864,13.758,1.365,1.365,0,0,1-1-2.412l.035-.015c-10.221,1.515-18.993,6.192-29.948,2.671a1.864,1.864,0,0,1-1.2-2.63,5.028,5.028,0,0,1,2.362-2.377c-9.283-.659-18.075-1.4-26.934-4.941-1.718-.689-1.038-3.121.608-3.329.051-.968.1-1.951.163-2.929-1.607-.1-3.2-.208-4.8-.284-2.052-.107-2.823-.735-4.368-1.86a1.656,1.656,0,0,1-.121-2.6l.076-4.8a23.363,23.363,0,0,1-8.128-7.2c-.517-.659-.32-2,.724-2.073a8.094,8.094,0,0,0,1.348-.223,56.9,56.9,0,0,0-3.674-5.883c-.035-.046-.02-.127-.06-.178-1.7-.562-3.112-.968-3.766-1.15a1.532,1.532,0,0,1,.015-2.944c.172-.132.355-.263.517-.405-1.916-1.789-3.719-3.7-5.493-5.6a1.457,1.457,0,0,1,1.226-2.509,54.032,54.032,0,0,1,8.118,1.419,16.144,16.144,0,0,1-.547-1.87,1.351,1.351,0,0,1,1.814-1.414,27.376,27.376,0,0,0,12.714,1.759c.066-.005,1.353-.178,3.02-.5,2.615-1.095,5.1-2.513,7.521-3.694a1.089,1.089,0,0,0-.243-.233,1.089,1.089,0,0,1,.633-1.9c1.87-.02,3.724.025,5.559.1a8.667,8.667,0,0,1,3.309.157c.157.036.294.061.446.1.917.061,1.813.112,2.746.208.284.02,12.846,3.025,10.318-1.059a1.014,1.014,0,0,1,.932-1.6c2.711.324,20.883,6.37,19.717.922-.2-.857.786-1.292,1.444-1.084,2.235.74,4.49,1.571,6.719,2.488a23.1,23.1,0,0,1,7.951,3.745c10.55,5.671,19.839,13.834,23.939,25.008.035.035.1.066.117.107.2.537.263.993.405,1.495.142.436.314.861.436,1.307,0,.01-.016.02-.016.06,9.284-.273,18.8,3.593,26.417,8.463a63.077,63.077,0,0,1,7.332,5.544c-1.054-2.047-2.113-4.084-3.253-6.076-.831-1.439-1.7-2.863-2.539-4.292a1.125,1.125,0,0,1-.948-.507,342.305,342.305,0,0,0-21.37-28.221c-8.174-9.547-18.293-17.139-26.944-26.214a50.912,50.912,0,0,1-4.667-5.777c-5.777-6.5-10.575-12.425-18.511-16.925a46.641,46.641,0,0,0-19.074-6.005,4.268,4.268,0,0,0-.466.1l-.006.025c.025.066-.03.111-.03.172a17.178,17.178,0,0,1,2.636,10.566,16.439,16.439,0,0,1-4.074,9.653,2.255,2.255,0,0,1-.492.557,29.327,29.327,0,0,1-4.373,3.978.912.912,0,0,1-1.469-.953c1.034-4.763.638-1.672-1.069.355a40.722,40.722,0,0,1-4.419,4.743c-4.581,3.952-9.43,6.806-15.613,5.665a1.209,1.209,0,0,1-.7-1.789,9.4,9.4,0,0,0,1.718-2.9,3.448,3.448,0,0,0-.988.167c-.451.132-.907.279-1.348.4-2.939,1.343-6.339,4.905-9.208,7.495-.071.086-.162.147-.238.233a15.759,15.759,0,0,1-3.192,2.357c-1.054.471-1.688-.892-1.175-1.677,2.3-3.487-4.175.689-4.251.765a22.918,22.918,0,0,1-5.088,3.035c-4.186,2.067-8.635,2.726-12.927.9a1.3,1.3,0,0,1-.435-2.153c.258-.294.567-.537.841-.816-5.448.719-10.485,3.456-15.253-.715a.958.958,0,0,1-.325-1,23.16,23.16,0,0,1-11.615-6.071,1.292,1.292,0,0,1,.755-2.093c1.849-.258-6.578-4.064-7.2-4.363-2.706-1.343-4.885-3.876-6.9-6.051a29.427,29.427,0,0,1-7.835-15.861,1.052,1.052,0,0,1,1.181-1.145,43.7,43.7,0,0,0,5.665.583,1.726,1.726,0,0,1,1.576-.471c.694-.517.988-1.5.557-3.38a.973.973,0,0,1,1.069-1.125,55.346,55.346,0,0,0,8.042,1.1,20.587,20.587,0,0,1,3.862.187c1.4-.03,2.706-.182,4-.294-.3-.482-.243-1.211.466-1.307-.116.025,7.414-1.079,3.471-2.767a1.048,1.048,0,0,1-.2-1.8,12.65,12.65,0,0,1,4.834-2.316,22.7,22.7,0,0,1,5.22-.734c.076,0,.157-.01.233-.01q6.385.5,10.084-6.1a.945.945,0,0,1-.111-1.728c5.5-2.5,11.219-4.039,17.3-2.747.628.122,14.189,3.274,10.495-1.677a1.1,1.1,0,0,1,1.074-1.667,45.024,45.024,0,0,1,4.774.791c11.457-.75,27.025,8.529,30.171,19.444l.02.01c4.206-1.216,10.333.588,13.809,1.379a43.283,43.283,0,0,1,14.671,6.283c-1.013-2.077-2-4.145-3.015-6.167-5.022-10.13-10.6-20.006-15.745-30.05a86.3,86.3,0,0,0-9.962-9.78c-10.748-8.883-22.728-13.039-35.437-17.386a24.092,24.092,0,0,1-11.021,16.646,87.415,87.415,0,0,1-12.233,6.557c-6.638,2.949-16.657,3.122-21.44,8.848a1.645,1.645,0,0,1-2.8-.178c-1.683-3.851-2.058-6.765-.6-10.276-3.993,1.961-7.51,4.713-11.361,6.912-5.726,3.294-11.615,3.973-18.132,4.353a1.4,1.4,0,0,1-.917-2.523c11.609-9.324-6.73-5.23-11.559-5.027-3.922.152-8-1.586-11.589-2.919a1.374,1.374,0,0,1,.365-2.61c2.539-2.4,2.22-3.278-.953-2.676a23.854,23.854,0,0,1-5.6-.725c-2.959-.552-5.665-2.362-8.179-3.9a1.429,1.429,0,0,1,.106-2.6c5.5-2.777-6.937-4.525-6.623-4.51-2.757-.233-3.334-.628-5.944-1.632a1.407,1.407,0,0,1-.481-2.179c4.409-4.459-5.483-3.937-7.991-4.758a1.447,1.447,0,0,1-.507-2.585c.6-.491-11.5-4.262-11.863-4.363A1.565,1.565,0,0,1,.238,187.619Z" transform="translate(321.987 1852.688) rotate(90)" fill="#fff"/>
    <path id="Path_768" data-name="Path 768" d="M349.779,342.9a11.311,11.311,0,0,0,13.261-10.15,10.405,10.405,0,0,0-2.132-6.678,11.789,11.789,0,0,0-.613-2.558,8.122,8.122,0,0,0-1.633-2.523c-2.288-2.919-6.03-4.883-9.423-5.946a13.462,13.462,0,0,0-2.162-.4c-.919-.589-1.832-1.237-2.738-1.85-1.231-.865-2.408-1.946-3.64-2.817-3.321-5.91-8-11.129-12.306-16.156-7.856-9.183-14.894-18.084-18.864-29.663-1.087-3.327-2.174-7.057-3.417-10.858,16.2,20.522,40.053,37.452,62.755,48.088,1.441.643,2.883,1.249,4.318,1.9-1.844,4.751,1.213,11.381,4.036,14.888,4.372,5.345,11.988,8.823,18.113,4.132a12.8,12.8,0,0,0,4.739-7.844c16.744,6.648,33.338,13.423,48.707,23.272.21,1.621,1.063,3.219,1.513,4.858.552,2.018.787,4.15,1.429,6.114,1.688,4.835,4.2,10.1,9.471,11.826.474.156,1,.264,1.483.408,7.489,3.393,17.651,1.087,18.24-9.086,0-.427-.048-.817-.036-1.28,1.658-7.129-10.967-21.524-20.246-17.615-.258.042-.474.036-.667.072A15.535,15.535,0,0,0,456,334.1a4.318,4.318,0,0,0-.553.042,17.649,17.649,0,0,1-7.2-.408c-15.243-9.417-31.584-16-48.034-22.558a12.651,12.651,0,0,0-4.042-8.306,12.041,12.041,0,0,0-3.453-3.243,13.235,13.235,0,0,0-6.036-2.42,9.02,9.02,0,0,0-8.054-.1,11.445,11.445,0,0,0-3.447,2.2,7.556,7.556,0,0,0-1.315.8q-1.784-.82-3.561-1.622c-23.819-11.315-41.284-30.227-59.661-48.238a130.648,130.648,0,0,0,34.665,12.42c13.423,2.925,27.236,1.874,40.677,3.561a1.712,1.712,0,0,0,1.1,1.075c4.8,1.784,6.5,6.727,9.369,10.612a15.141,15.141,0,0,0,8.919,5.844,11.313,11.313,0,0,0,13.183-7.279A13.381,13.381,0,0,0,412,260.432c-5.051-2.69-17.453-2.318-21.4,3.171-8.666-2.607-17.711-2.384-27.188-3.4-24.456-2.739-45.854-8.09-65.505-23.555-.979-.751-1.934-1.537-2.871-2.324-.27-.192-.5-.445-.787-.649l-.024-.018c-14.99-12.294-28.371-26.329-44.13-37.854-9.009-6.606-18.408-12.72-27.927-18.69,7.345,2.594,14.726,5.081,22.678,6.222,12.894,1.82,26.99,1.561,40.491,1.039,1.85,2.15,4.3,3.97,6.264,5.976,2.667,2.871,5.976,6.024,10.072,6.576,6.865.853,11.927-2.961,13.507-9.591a12.558,12.558,0,0,0-8.132-14.624c-3.537-1.141-6.847-.27-10.006,1.4a31.483,31.483,0,0,0-6.738,4.931,16.459,16.459,0,0,0-2.348.937,1.712,1.712,0,0,0-.757.661,5.38,5.38,0,0,0-3.117.324c-.03.024-.036.078-.078.09-12.93-1.447-25.9-1.88-38.965-3.243-12.27-1.261-24.167-8.931-36.323-10.318-2.577-1.321-5.267-2.42-7.916-3.562-.42-.186-.835-.4-1.249-.583-1.706-1.081-3.393-2.078-5.081-3.123-17.9-10.906-35.248-22.3-51.169-35.987-17.645-15.315-32.4-34.359-48.016-51.656A369.417,369.417,0,0,0,48.841,28.675C34.583,17.414,20.319,4.8,2.374.069A1.779,1.779,0,0,0,1.119,3.4C38.391,21.035,70.726,53.773,97.968,84.048c3.856,4.306,7.705,8.57,11.555,12.883,4.09,5.723,9.633,10.672,14.33,15.819,5.291,5.736,10.3,11.6,15.321,17.537,9.171,24.167,26.227,55.92,49.4,71.5a25.929,25.929,0,0,1,2.168,2.853c.577,1.021,1.075,2.042,1.574,3.081.1.625.234,1.243.276,1.856a35.256,35.256,0,0,0,.745,5.279,13.617,13.617,0,0,0,2.114,6.084,11.23,11.23,0,0,0,10.15,4.613,5.977,5.977,0,0,0,4.036-.865,19.688,19.688,0,0,0,2.2-1.033c6.012-3.543,6.877-10.6,3.82-16.294-3.742-6.9-13.1-7.976-20.173-5.856-9.057-10.768-19.981-19.987-28.407-31.518-8.324-11.417-14.828-23.873-20.99-36.515,14.2,11.525,30.227,21.056,45.824,30.473,1.6.943,3.165,1.88,4.727,2.835,1.123,1.507,3.051,2.408,4.66,3.333a7.25,7.25,0,0,0,.7.372,2.027,2.027,0,0,0,1.045.649,2.109,2.109,0,0,0,.252.066,22.116,22.116,0,0,0,2.156.907c14.21,8.594,28.359,17.393,41.969,26.942A258.111,258.111,0,0,1,269.608,217c7.279,9.663,18.318,16.642,26.257,25.813,5.327,8.57,6.4,20.72,11.291,29.176,4.36,7.513,10.047,14.348,15.615,21.008,5.447,6.432,10.162,13.309,15.075,20.017-.378,3.075-.949,6.006-1.237,8.9a12.045,12.045,0,0,0,.138,7.261,19,19,0,0,0,.63,2.739A15.524,15.524,0,0,0,349.779,342.9Z" transform="translate(-144.007 2180.654) rotate(-90)" fill="#898989"/>
    <path id="Path_770" data-name="Path 770" d="M1449.09,482.17c.555,2.262,2.493,3.4,4.627,3.986-1.893,1.721-4.828,4.041-5.622,5.269-1.954,3.04-.3,5.56,2.274,6.941.994,1.438,2.181,2.794,3.238,4.1,1.825,2.26,4.879,1.778,6,4.6,1.136,2.846,4.036,4.578,6.461,6.213,2.744,1.853,2.836,5.056,6.117,6.337,5.43,2.127,11.358-3.064,14.969-6.982,8.873-4.389,17.65-13.7,16.453-22.761a17.251,17.251,0,0,0-2.521-15.1c-4.851-6.859-12.443-7.728-20.263-6.883-5.522.594-11.069,1.525-16.544,2.447-4.535.764-8.884,1.609-12.56,4.482A7.245,7.245,0,0,0,1449.09,482.17Z" transform="translate(-1232.482 2228.911)" fill="#f9d0d0"/>
    <path id="Path_771" data-name="Path 771" d="M1490.754,531.06c1.591-.656,4.737-2.812,6.375-1.389a6.188,6.188,0,0,0,2.868,1.515c4.824,1.049,6.206-4.3,10.2-4.578,3.62-.247,6.309.648,8.963-2.729,2.323-2.956,2.855-6.654,2.569-10.321-.794-10.1-7.289-18.529-10.051-28.116a60.709,60.709,0,0,1-3.84-6.571,2.017,2.017,0,0,1-.238-1.011,21.4,21.4,0,0,0-2.7-3.652,11.815,11.815,0,0,0-16.585-.5c-4.907,4.583-5.4,12.841-6.22,19.036-1.325,10.024-5.623,20.513-4.027,30.752C1479.115,530.188,1483.98,533.851,1490.754,531.06Z" transform="translate(-1303.396 2379.157)" fill="#f9d0d0"/>
    <g id="Group_211" data-name="Group 211" transform="translate(-183.978 2167.391)">
      <path id="Path_69" data-name="Path 69" d="M1630.757,475.2c-7.84,3.234-23.346,13.861-31.421,6.846-4.333-3.743-8.486-6.245-14.135-7.467-23.779-5.171-30.589,21.21-50.3,22.563-17.846,1.217-31.1-3.2-44.177,13.451-11.453,14.568-14.071,32.8-12.663,50.875,3.911,49.788,35.928,91.333,49.54,138.589,7.182,10.2,13.017,21.26,18.926,32.39a9.936,9.936,0,0,1,1.174,4.984,105.5,105.5,0,0,0,13.327,18c21.681,23.283,58.8,23.9,81.749,2.477,24.19-22.588,26.611-63.3,30.658-93.829,6.531-49.41,27.716-101.11,19.851-151.581C1688.124,479.5,1664.145,461.443,1630.757,475.2Z" transform="translate(-1361.386 -470.551)" fill="#f9d0d0"/>
      <path id="Path_70" data-name="Path 70" d="M1719.81,654.637c-2.738-11.148-12.29-16.759-22.806-19.646,9.33-8.485,23.8-19.919,27.71-25.971,9.634-14.984,1.483-27.405-11.211-34.214-4.9-7.089-10.75-13.774-15.958-20.223-8.994-11.142-24.047-8.764-29.584-22.663-5.6-14.028-19.895-22.564-31.849-30.627-13.526-9.131-13.979-24.922-30.149-31.235-26.766-10.484-55.983,15.1-73.786,34.413-43.737,21.632-87,67.541-81.1,112.19-8.343,24.258-2.608,53.153,12.426,74.438,23.911,33.811,61.334,38.094,99.88,33.929,27.219-2.93,54.562-7.517,81.546-12.061,22.352-3.768,43.792-7.933,61.911-22.092C1717.812,682.316,1723.1,667.9,1719.81,654.637Z" transform="translate(-1206.115 -405.263)" fill="#f9d0d0"/>
      <path id="Path_71" data-name="Path 71" d="M1499.615,554.06c6.015,8.144,14.072,14.568,24.513,15.8,7.679.894,19.472-1.565,28.46.341.111.105.253.223.384.347.205,3.886,2.465,7.58,7.6,9.417,1.422.515,2.843,1,4.245,1.477,1.955,6.027,2.693,13.669,4.83,19.174,2.817,7.294,12.923,12.545,19.167,16.251,15.1,8.932,18.406,28.7,32.515,38.839,28.9,20.757,62.947,5.891,77.653-23.531,8.914-17.871,9.175-38.871,17.79-57.188,7.889-16.785,16.382-32.415,19.422-50.887a12.512,12.512,0,0,0-.019-3.868c7.673-15.121,11.5-31.737,5.8-47.442-13.655-37.573-60.16-32.129-92.643-30.689-45.4,2-90.767,12.793-128.6,38.559C1496.12,497.425,1479.211,526.5,1499.615,554.06Z" transform="translate(-1490.514 -178.919)" fill="#f9d0d0"/>
      <path id="Path_72" data-name="Path 72" d="M1491.589,660.326c2.346-1.509,5.413-1.744,8.647.41,17.7,11.825,37.349-14.432,55.8-19.3,22.571-5.953,42.067-3.029,62.761-16.635,31.136-20.447,64.935-45.624,68.908-83.308-9.715-46.269-70.141-81.9-122.3-92.792a19.383,19.383,0,0,0-6.883-.168,104.214,104.214,0,0,0-9.938-3.842c-1.558-1.043-3.03-2.191-4.668-3.141-4.1-2.445-9.044-2.378-13.65-.757a78.011,78.011,0,0,0-19.248.46c-39.168,5.884-44.122,50.21-46.747,72.277-4.873,40.931-10.962,83.668,4.53,120.3A54.932,54.932,0,0,0,1491.589,660.326Z" transform="translate(-1237.159 -168.967)" fill="#f9d0d0"/>
      <path id="Path_73" data-name="Path 73" d="M1583.867,472.793c-19.993-5.822-37.615-1.4-43.375,20.105-2.336,8.647-1.378,17.8-3.682,26.431-1.8,6.784-23.468,10.279-29.54,13.035-20.4,9.255-17.1,35.406-10.342,52.308,9.336,23.308,39.74,37.8,61.528,46.015,36.845,13.9,77.336,16,114.8,28.063a11.176,11.176,0,0,0,11.781-2.731,93.506,93.506,0,0,0,14.246-.491c6.66-.707,10.478-7.834,9.615-13.861-7.387-50.912-56.977-80.347-84.129-119.9C1614.376,506.629,1603.432,478.492,1583.867,472.793Z" transform="translate(-1462.423 -355.844)" fill="#f9d0d0"/>
      <g id="Group_111" data-name="Group 111" transform="translate(118.828 3.915)">
        <path id="Path_74" data-name="Path 74" d="M1581.84,743.158c-22.687-23.122-45.046-46.529-64.1-72.8-17.138-23.637-34.127-52.11-37.387-81.65-2.29-20.707,1.1-43.835,11.317-62.134,14.388-25.773,37.852-13.991,53.389,3.793a.646.646,0,0,0,1.067-.273c11.2-58.187,101.413-72.836,134.6-25.7,9.446,13.4,10.688,30.819,7.1,46.362-2.482,10.77-7.343,20.608-8.658,31.688-1.143,9.683,1.252,18.963,3.593,28.267,12.769,50.707-23.9,96.92-55.449,132.289-.546.6.354,1.5.9.888,19.315-21.645,37.745-43.761,48.993-70.813,5.561-13.364,9.7-28.41,9.957-42.948.292-16.176-6.953-31.316-6.711-47.684.217-15.3,9.745-29.249,10.546-44.736a56,56,0,0,0-4.264-24.86c-6.226-14.184-17.933-24.941-32.248-30.776-30.737-12.527-69.887-7.591-93.8,16.418a55.264,55.264,0,0,0-11.956,18.113c-.782,1.943-3.152,12.421-5.12,10.161a73.122,73.122,0,0,0-13.507-11.93c-11.987-8.3-25.227-6.431-34.742,4.246-19.379,21.738-21.328,63.649-11.838,89.8,19.454,53.581,58.182,95.17,97.4,135.182.571.577,1.483-.317.907-.906Z" transform="translate(-1477.994 -475.408)" fill="#f49a8c"/>
      </g>
      <g id="Group_112" data-name="Group 112" transform="translate(254.293 77.379)">
        <path id="Path_75" data-name="Path 75" d="M1447.406,655.382c1.669-49.268,35.208-96.492,68.167-130.619,36.021-37.275,85.282-68.3,138.056-49.206,46.753,16.915,68.323,68.119,66.709,114.692-.75,21.552-8.411,104.071-46.69,72.278-.516-.441-1.428.124-.993.77,23.122,34.63-45.245,47.535-67.07,46.809-22.154-.733-45.363-12.613-64.425-22.775-20.926-11.167-40.93-25.245-57.051-42.712-.553-.6-1.447.3-.894.9,20.744,22.489,47.615,39.143,75.251,51.806,19.819,9.087,41.061,16.244,63.041,13.277,18.02-2.427,39.2-7.536,52.017-21.452a19.435,19.435,0,0,0,4.978-15.966c-.385-3.01-1.868-5.8-3.327-8.4.646,1.148,4.978,3.979,7.784,5.208,28.05,12.315,35.214-43.761,37.064-59.149,4.773-39.645-.812-77.758-27.355-109.4-18.827-22.433-49.273-35.214-78.416-33.687-27.939,1.459-54.009,17.406-75.4,34.19-25.847,20.3-47.535,46.169-64.791,74.027-14.68,23.687-26.976,51.173-27.933,79.41-.031.825,1.242.819,1.279,0Z" transform="translate(-1446.126 -467.631)" fill="#f49a8c"/>
      </g>
      <g id="Group_113" data-name="Group 113" transform="translate(22.136 139.124)">
        <path id="Path_76" data-name="Path 76" d="M1695.9,619.565c-3.366-28.907-19.684-54.537-37.065-77.107-13.24-17.207-28.529-34.562-45.971-47.665-11.49-8.629-62.122-42.036-73.432-18.69-2.308,4.767-.894,10.949.318,15.779a81.391,81.391,0,0,0,5,13.184c2.153,4.848-12.384,9.5-15.494,10.993-7.989,3.83-16.182,7.9-21.626,15.1-6,7.945,3.117,16.176-4.028,22.868-36.276,33.954,15.649,73.879,45.591,85.8,59.69,23.73,125.977-9.106,169.589-49.05.61-.558-.292-1.458-.9-.9-42.519,38.944-97.361,64.779-155.969,52.532-38.727-8.082-96.584-54.866-52.166-92.134a.645.645,0,0,0,.1-.776c-13.192-23.538,22.339-32.147,37.217-41.16a.647.647,0,0,0,.217-.869c-7.417-15.58-14.475-40.3,11.472-36.766,16.587,2.272,32.713,11.446,46.561,20.39,17.449,11.279,31.837,27.406,45.2,43.1,20.441,24.016,40.384,53.308,44.11,85.374.093.8,1.364.807,1.279,0Z" transform="translate(-1491.203 -467.961)" fill="#f49a8c"/>
      </g>
      <g id="Group_114" data-name="Group 114" transform="translate(5.509 276.963)">
        <path id="Path_77" data-name="Path 77" d="M1717.332,467.39a1.291,1.291,0,0,0-2.514.584c12.861,59.95,33.55,138.782-18.59,185.951-52.347,47.368-105.927-46.213-121.173-85.89-5.511.043-11.985-3.594-15.331-7.486a22.294,22.294,0,0,1-3.414-24.239c-.323-.59-.657-1.174-.975-1.739a1.292,1.292,0,0,0-1.668-1.837c-10.5,5.264-20.318,8.516-32.1,8.815-28.676.72-30.6-34.873-15.958-51.123,12.482-13.854,36.331-23.451,52.91-31.409,47.572-22.843,103.208-20.856,154.374-16.126,1.657.149,1.758-2.421.12-2.57-47.194-4.364-93.818-4.885-139.317,9.913-25.666,8.324-66.741,25.6-78.974,52.017-10.69,23.035,11.172,42.259,32.14,41.732,11.3-.28,25.511-13.333,20.769,2.42-2.017,6.679.628,17.821,7.542,21.024,4.028,1.869,7,3.706,11.762,3.191,9.467-1.012,13.327,16.25,16.474,22.619a230.26,230.26,0,0,0,26.928,41.409c17.46,21.762,42.842,39.993,71.539,30.812,28.039-8.988,44.853-43.6,48.33-70.489C1735.8,551.859,1726.346,509.37,1717.332,467.39Z" transform="translate(-1491.919 -437.636)" fill="#f49a8c"/>
      </g>
      <g id="Group_115" data-name="Group 115" transform="translate(210.328 269.123)">
        <path id="Path_78" data-name="Path 78" d="M1482.948,449.224c-11.52,41.011-24.109,82.513-27.251,125.219-2.308,31.489,2.49,66.4,30.2,85.759,15.68,10.962,35.742,13.991,54.407,14.717,26.132,1.006,55.549-1.837,79.317-13.265,11.464-5.518,24.152-14.271,32.4-24,12.042-14.215,21.452-25.971,38.572-34.345,20.372-9.969,30.422-35.642,27.119-57.5-9.894-65.512-89.794-102.854-148.509-108.043-.818-.081-.812,1.192,0,1.266,57.946,5.121,134.339,40.968,146.833,104.127,3.166,15.984-1.477,31.787-9.863,45.363-8.671,14.022-27.926,17.914-39.534,29.429-5.73,5.692-10.447,12.532-15.518,18.807-5.551,6.86-13.409,12.049-20.628,17.033-13.351,9.212-28.46,14.016-44.338,16.592-43.624,7.095-103.114,7.386-122.878-40.714-15.282-37.194-4.072-83.444,4.9-120.75,4.792-19.919,10.446-39.627,16-59.36a.64.64,0,0,0-1.235-.329Z" transform="translate(-1455.188 -437.756)" fill="#f49a8c"/>
      </g>
      <path id="Path_79" data-name="Path 79" d="M1500.362,475.582c-3.44.416-5.333,3.2-6.115,6.331-3.227,1.061-4.544,4.978-4.216,8.522a11.911,11.911,0,0,0,1.937,5.512c.285,3.8,2.682,6.983,7.487,5.518a7.132,7.132,0,0,0,3.2-2.029,6.335,6.335,0,0,0,1.694-1.825,3.431,3.431,0,0,0,.677-.552l.025-.019c4.407-.807,6.667-5.828,6.611-10.341C1511.552,481.137,1506.258,474.886,1500.362,475.582Z" transform="translate(-1254.167 -229.819)" fill="#b97d4f"/>
      <path id="Path_80" data-name="Path 80" d="M1491.955,471.046a.988.988,0,0,1-.217-.062c10.23,38.858,33.823,73.8,44.991,112.619,7.182,10.2,13.016,21.26,18.926,32.39a9.934,9.934,0,0,1,1.174,4.984,105.472,105.472,0,0,0,13.327,18,55.955,55.955,0,0,0,24.27,15.295,95.267,95.267,0,0,0,12.948-.491c6.661-.708,10.479-7.834,9.615-13.861-7.387-50.912-56.976-80.347-84.126-119.9C1522.464,504.881,1511.52,476.744,1491.955,471.046Z" transform="translate(-1370.51 -354.096)" fill="#f9d0d0" style="mix-blend-mode: multiply;isolation: isolate"/>
      <path id="Path_81" data-name="Path 81" d="M1490.514,575.919a89.4,89.4,0,0,1,4.525-12.067c7.889-16.784,16.381-32.415,19.422-50.887a12.534,12.534,0,0,0-.019-3.867c7.673-15.121,11.5-31.737,5.8-47.442a47.541,47.541,0,0,0-3.91-8.057c-15.5,16.4-18.6,43.122-20.453,58.751C1493.357,533.436,1490.57,554.969,1490.514,575.919Z" transform="translate(-1268.778 -167.787)" fill="#f9d0d0" style="mix-blend-mode: multiply;isolation: isolate"/>
      <path id="Path_82" data-name="Path 82" d="M1617.969,510.1c-22.93-16.2-51.247-27.933-77.455-33.407a19.379,19.379,0,0,0-6.883-.167,104.16,104.16,0,0,0-9.938-3.842c-1.558-1.043-3.029-2.191-4.668-3.141-4.1-2.445-9.043-2.378-13.649-.757a78.048,78.048,0,0,0-19.25.46,44.881,44.881,0,0,0-20.018,8.032c1.13,1.875,2.3,3.718,3.557,5.518,23.911,33.811,61.333,38.094,99.881,33.929C1585.672,514.98,1601.842,512.64,1617.969,510.1Z" transform="translate(-1212.274 -196.953)" fill="#f9d0d0" style="mix-blend-mode: multiply;isolation: isolate"/>
      <path id="Path_83" data-name="Path 83" d="M1562.994,477.224c-43.737,21.632-87,67.541-81.1,112.19-8.343,24.258-2.608,53.152,12.426,74.437a83.944,83.944,0,0,0,9.591,11.328,57.094,57.094,0,0,0,14.413-9.808c24.19-22.588,26.611-63.3,30.658-93.828,4.307-32.694,15.009-66.393,19.491-100.068C1566.55,473.407,1564.708,475.356,1562.994,477.224Z" transform="translate(-1236.933 -378.015)" fill="#f9d0d0" style="mix-blend-mode: multiply;isolation: isolate"/>
      <g id="Group_117" data-name="Group 117" transform="translate(175.907 177.316)">
        <g id="Group_116" data-name="Group 116">
          <path id="Path_84" data-name="Path 84" d="M1494.115,470.1a.6.6,0,0,0-.124.137.176.176,0,0,1,.1-.087Z" transform="translate(-1437.405 -341.832)" fill="#f79744"/>
          <path id="Path_85" data-name="Path 85" d="M1581.3,553.147a3,3,0,0,0,.509-5.14c-1.85-1.242-3.581-2.57-5.269-3.9a21.12,21.12,0,0,0,11.073.782c1.962-.428,2.639-2.632,2.074-4.332a50.627,50.627,0,0,0,7.765-1.031c3.327-.732,2.793-5.58-.217-6.313-3.433-.856-6.9-1.583-10.317-2.265a1.451,1.451,0,0,0-1.3-.925c-1.142,0-2.471-.224-3.674-.168a3.491,3.491,0,0,0-.417-.565,35.653,35.653,0,0,0,9.671-3.681c2.347-1.353,1.986-5.506-.887-5.965-.491-.068-.944-.081-1.428-.155a12.791,12.791,0,0,0,1.217-1.956,3.174,3.174,0,0,0-2.458-4.68,2.784,2.784,0,0,0,.584-.981,2.35,2.35,0,0,0,2.179-1.074,4.5,4.5,0,0,0,2.706-4.519,4.82,4.82,0,0,0-6.915-3.594,4.713,4.713,0,0,0-2.627,4.6c.031.193.106.323.15.522-.509.142-1.017.273-1.526.434a3.354,3.354,0,0,0-1.168-3.749,2.458,2.458,0,0,0-.148-.72c.608-.522,1.26-1.024,1.861-1.533a2.353,2.353,0,0,0,.795-1.651c2.583-1.484.223-5.791-2.886-4.656a31.894,31.894,0,0,0-3.712,1.664c-.626.317-1.254.658-1.918,1-.5.174-.982.416-1.465.615a3.47,3.47,0,0,0-2.285-3.457c-.063-.025-.124-.025-.174-.05,2.1-6.108,3.29-12.613,4.824-18.845.726-3.054-2.98-4.358-4.973-2.563a48.9,48.9,0,0,0-8.324,9.876,36.176,36.176,0,0,0-1.409-5.419,2.185,2.185,0,0,0,1.689-1.639c.142-.179.311-.341.434-.527a1.338,1.338,0,0,0-.7-2.21,16.83,16.83,0,0,0-2.787.012c-1.135-.043-1.769,1.292-1.52,2.26a2.626,2.626,0,0,0-1.117.484,10.2,10.2,0,0,0-3.421,5.493,1.972,1.972,0,0,0-.882.434c-.049-.056-.061-.143-.13-.18-.069-.229-.118-.465-.2-.683a2.286,2.286,0,0,0-2.986-1.18.9.9,0,0,1-.167.093c-.087-.007-.169.012-.267.006a4.774,4.774,0,0,0-4.172-.925,1.588,1.588,0,0,0-1.172,1.086,18.119,18.119,0,0,0-.882,3.737,6.015,6.015,0,0,0-1.061-.273,65.379,65.379,0,0,1,.3-7.169c.284-2.905-3.285-3.756-4.83-1.776a2.62,2.62,0,0,0-.876-1.03,3.265,3.265,0,0,0-.329-.6c-.95-1.2-2.713-1.092-4.122-.434a25.938,25.938,0,0,0-3.6-6.282c-1.347-1.7-4.6-1.03-4.706,1.334-.129,2.831-.122,5.655.032,8.529a5.866,5.866,0,0,0-1.011.118.979.979,0,0,0-.7-.242,3.387,3.387,0,0,0-2.16,1.229,17.028,17.028,0,0,0-3.787-4.332c-.2-.472-.379-.937-.6-1.391a2.221,2.221,0,0,0-2.856-1.117,2.678,2.678,0,0,0-3.619,1.372c-2.564,5.884-.4,12.744,2.322,18.845a6.159,6.159,0,0,0-1.856,1l-.037-.05c-1.316-1.415-3.049-.565-3.787.82a34.7,34.7,0,0,0-3.948-2.706,4.652,4.652,0,0,0,1.119-.093,2.471,2.471,0,0,0,2.017.043,3.648,3.648,0,0,0,2.173-3.42c.174-2.725-1.825-6.5-4.966-5.053a6.427,6.427,0,0,0-3.078,6.1,3.112,3.112,0,0,0,1.005,1.788,2.571,2.571,0,0,0-2.315,3.072,24.428,24.428,0,0,0,2.743,7.9,16.955,16.955,0,0,0-7.225-.54,1.96,1.96,0,0,0-1.346,2.805c.515.764,1.036,1.5,1.582,2.241a1.7,1.7,0,0,0-.825.528c-.2.161-.4.322-.578.472a2.455,2.455,0,0,0-1.241,2.564,4.707,4.707,0,0,0,.123.652,2.388,2.388,0,0,0,2.192,1.837c.049.019.074,0,.123.019a1.462,1.462,0,0,0,1.919-.019,1.515,1.515,0,0,1,.285-.012,1.822,1.822,0,0,0,.85-.174,3,3,0,0,0-.894,2.88,6.3,6.3,0,0,0,.372.857,20.875,20.875,0,0,0-5.09.248,4.688,4.688,0,0,0-3.929-1.248,6.855,6.855,0,0,0-3.191,1.781c-1.092.838-.962,3.327.136,4.116a7.506,7.506,0,0,0,1.627.93,7.15,7.15,0,0,0,.366.745,2.288,2.288,0,0,0,3.513.825,4.967,4.967,0,0,0,.441-.44,7.582,7.582,0,0,0,1.173.788,5.292,5.292,0,0,0-1.894,4.215,4.356,4.356,0,0,0,1.3,2.737,15.906,15.906,0,0,0-2.426,1.528c-1.725,1.334-.8,3.947.987,4.649a22.546,22.546,0,0,0,8.585,1.31,4.151,4.151,0,0,0-.385.937c-.839,5.171,4.686,8.784,9.28,7.877-5.475,5.289-10.212,11.409-11.725,17.331a2.5,2.5,0,0,0,1.936,3c5.3.658,9.318-1.931,13.147-5.593.478-.435.932-.912,1.4-1.365a35.82,35.82,0,0,0,3.978-3.47c-.286.465-.609.912-.906,1.353a2.4,2.4,0,0,0-.833,3.9,4.536,4.536,0,0,1,.993,1.1,2.833,2.833,0,0,0,1.373,1.447,2.986,2.986,0,0,0,.5,2.588c-.1.13-.218.192-.317.341-1.024,1.57.055,3.681,1.173,4.823a2.061,2.061,0,0,0,2.556.143,1.023,1.023,0,0,1,.205-.043l-.042.124c-.814,2.737-2.3,6.958-.522,9.652,2.949,4.587,7.468-.944,10.894-6.294.062.372.125.72.218,1.086a2.228,2.228,0,0,0,.315.658c-.124.273-.292.54-.422.826-.043.08-.049.111-.086.18a1.277,1.277,0,0,1,.3-.267,2.608,2.608,0,0,0-.323.317c-.149.23-.2.23-.1.087-1.634,1.695.379,4.451,2.551,4.32-1,.043-.044.267.471.627a3.2,3.2,0,0,0-.148,2.1,2.528,2.528,0,0,0,.074.416c.094.36.18.7.249,1.055a2.236,2.236,0,0,0,2.991,1.838c.4-.192.843-.4,1.26-.627a8.407,8.407,0,0,0,1.868.95,1.847,1.847,0,0,0,2.458-1.738.806.806,0,0,0,.061.2,1.765,1.765,0,0,0-.174-1.347,2.4,2.4,0,0,0-.409-.658c-.323-.347-.689-.663-1.037-.987a3.28,3.28,0,0,0-.832-2.253c.143-.155.285-.3.428-.484.113-.186.174-.366.273-.559.74,1.862,1.6,3.737,2.639,5.872a2.792,2.792,0,0,0,5.226-1.192c0-.242-.018-.472-.025-.72a27.577,27.577,0,0,0,7.157,11.893,14.619,14.619,0,0,0,1.235,2.185c1.017,1.465,2.979,2.073,4.388.714,4.3-4.227,3.595-11.459,2.136-18.436.248.037.428.13.72.155a2.4,2.4,0,0,0,2.384-1.514,8.716,8.716,0,0,0,.229-1.279,14.51,14.51,0,0,0,4.265,3.333,2.452,2.452,0,0,0,3.656-2.054,32.179,32.179,0,0,0-.826-7.275c.137.081.249.18.373.255a2.39,2.39,0,0,0,2.123.068,2.329,2.329,0,0,0,1.663.1,3.106,3.106,0,0,0,1.2.2,1.622,1.622,0,0,0,1.589-1.968.607.607,0,0,0-.024-.186,2.788,2.788,0,0,0,1.229-4.413,4.158,4.158,0,0,1-.33-.428c2.669,2.638,5.3,5.313,7.809,8.106,2.1,2.316,6.6-.2,5.382-3.209C1591.272,563.911,1586.566,558.28,1581.3,553.147Z" transform="translate(-1473.358 -449.822)" fill="#f79744"/>
          <path id="Path_86" data-name="Path 86" d="M1491.992,492.272a1.283,1.283,0,0,0,2.21-.012c.1-.18.169-.379.236-.527a1.858,1.858,0,0,0,1.1-1.925,1.514,1.514,0,0,0-.212-.571,6.563,6.563,0,0,0,.25-1.005,1.359,1.359,0,0,0-1.435-1.267,10.011,10.011,0,0,1-2.073-.466,1.765,1.765,0,0,0-2.061,1.4,3.432,3.432,0,0,0,1.614,3.432A3.324,3.324,0,0,0,1491.992,492.272Z" transform="translate(-1413.936 -466.109)" fill="#f79744"/>
          <path id="Path_87" data-name="Path 87" d="M1491.833,492.058l.932,1.657a1.967,1.967,0,0,0,.794.732,1.4,1.4,0,0,0,2.322.373,22.86,22.86,0,0,0,2.124-2.272,1.536,1.536,0,0,0-.516-2.2,3.182,3.182,0,0,0,.2-.881,2.037,2.037,0,0,0-3.438-1.478,5.7,5.7,0,0,0-.913,1.111A2.079,2.079,0,0,0,1491.833,492.058Z" transform="translate(-1426.737 -474.585)" fill="#f79744"/>
          <path id="Path_88" data-name="Path 88" d="M1496.931,494.424a1.716,1.716,0,0,0,.466-1.527,3.008,3.008,0,0,0,.117-1.148c-.279-2.421-2.813-2.545-4.575-3.358a2.171,2.171,0,0,0-3.054,1.582c-.181,1.987-.089,4.364,1.625,5.686C1493.374,497.105,1495.6,495.907,1496.931,494.424Z" transform="translate(-1414.939 -480.303)" fill="#f79744"/>
          <path id="Path_89" data-name="Path 89" d="M1501.936,487.828c.08.031.148.062.247.093.5,1.545,1.086,2.334,3.347,2.551a1.615,1.615,0,0,0,1.452-.869c.787-1.608,1.651-3.674.658-5.412a3.171,3.171,0,0,0-1.378-1.186,10.624,10.624,0,0,0-1.093-1.049,2.2,2.2,0,0,0-3.376.77,1.162,1.162,0,0,1-.049.186,1.642,1.642,0,0,0-.5.491,2.081,2.081,0,0,0-1.019,1.8,8.911,8.911,0,0,0,.174,1.223A2.1,2.1,0,0,0,1501.936,487.828Z" transform="translate(-1490.035 -432.566)" fill="#f79744"/>
          <path id="Path_90" data-name="Path 90" d="M1502.154,489.654a1.507,1.507,0,0,0,2.688-.4c.087-.081.193-.112.241-.2a3.812,3.812,0,0,0-.1-2.365l-.043-.025a1.79,1.79,0,0,0-.224-.8c-.589-1.024-1.794-.782-2.756-1a1.867,1.867,0,0,0-2.08,1.682A3.077,3.077,0,0,0,1502.154,489.654Z" transform="translate(-1485.083 -453.398)" fill="#f79744"/>
          <path id="Path_91" data-name="Path 91" d="M1502.958,493.632c.919.006,2.135-.428,2.358-1.434a1.748,1.748,0,0,0-.31-1.3,1.786,1.786,0,0,0,.018-.249c-.143-.807-.291-1.614-.452-2.433a1.914,1.914,0,0,0-2.155-1.564,8.181,8.181,0,0,1-1.44.192,2.1,2.1,0,0,0-1.974,1.5C1498.148,491.515,1499.743,493.545,1502.958,493.632Z" transform="translate(-1478.345 -467.805)" fill="#f79744"/>
          <path id="Path_92" data-name="Path 92" d="M1502.486,491.893c-.038-.106-.242-.5-.454-.906a6.648,6.648,0,0,0,.74-1.421,1.675,1.675,0,0,0-1.62-2.1c-1.564.062-3.222.229-3.849,1.868-.62,1.62.733,3.445,1.762,4.544A2.059,2.059,0,0,0,1502.486,491.893Z" transform="translate(-1465.738 -473.837)" fill="#f79744"/>
          <path id="Path_93" data-name="Path 93" d="M1503.352,484.1a2.662,2.662,0,0,0,3.582-.435,3.892,3.892,0,0,0,2.464-4.314,5.289,5.289,0,0,0-1.532-2.868,4.154,4.154,0,0,0-1.521-1.167,4.862,4.862,0,0,0-4.786-.112C1497.822,477.379,1501.081,482.425,1503.352,484.1Z" transform="translate(-1489.169 -384.277)" fill="#f79744"/>
          <path id="Path_94" data-name="Path 94" d="M1506.717,483.638a1.6,1.6,0,0,0,1.162-2.632,1.129,1.129,0,0,0,0-.353,1.619,1.619,0,0,0-.527-.949c-.509-.05-1.007-.1-1.534-.162a3.679,3.679,0,0,0-1.161-.708,1.913,1.913,0,0,0-2.571,1.552,5.718,5.718,0,0,0,.058,1.31c.006.062-.03.136-.026.211l.044.124a1.608,1.608,0,0,0,1.695,1.44h.037l.13-.019a3.086,3.086,0,0,0,1.347.155A5.356,5.356,0,0,0,1506.717,483.638Z" transform="translate(-1501.689 -408.885)" fill="#f79744"/>
          <path id="Path_95" data-name="Path 95" d="M1506.231,486.1a1.375,1.375,0,0,0,1.614-1.1,1.009,1.009,0,0,0-.05-.671,1.738,1.738,0,0,0,.074-.41,5.928,5.928,0,0,1-.224-1.5,1.678,1.678,0,0,0-1.657-1.657,10.456,10.456,0,0,0-2.328.05c-1.621.223-1.832,2.464-.875,3.464A7.339,7.339,0,0,0,1506.231,486.1Z" transform="translate(-1502.214 -423.701)" fill="#f79744"/>
          <path id="Path_96" data-name="Path 96" d="M1488.131,489.77a1.282,1.282,0,0,0,.2.882,1.9,1.9,0,0,0,.217.894,1.512,1.512,0,0,0,1.694.509,5.065,5.065,0,0,0,1.869-1.626,1.5,1.5,0,0,0-.6-2.266C1490.012,487.474,1488.337,487.989,1488.131,489.77Z" transform="translate(-1399.274 -474.024)" fill="#f79744"/>
          <path id="Path_97" data-name="Path 97" d="M1496.268,493.137a1.55,1.55,0,0,0,.751-1.136,1.815,1.815,0,0,0-.591-1.67l-.1-.075-.007-.124a.961.961,0,0,0-.981-.664h-.025c-.826-.5-2.346-.267-2.359.981a2.722,2.722,0,0,0,1.16,2.551A1.755,1.755,0,0,0,1496.268,493.137Z" transform="translate(-1433.897 -483.747)" fill="#f79744"/>
          <path id="Path_98" data-name="Path 98" d="M1503.185,472.11a3.008,3.008,0,0,0-.4-.019,1.614,1.614,0,0,0-2.041-.658c-1.2-.521-2.881-.323-3.278,1.167a14.669,14.669,0,0,0-.508,2.036,2.5,2.5,0,0,0,2.04,2.911,1.8,1.8,0,0,0,.516.205c1.062.118,2.166.056,3.258.093a2.17,2.17,0,0,0,1.632-3.346A1.773,1.773,0,0,0,1503.185,472.11Z" transform="translate(-1466.295 -356.116)" fill="#f79744"/>
          <path id="Path_99" data-name="Path 99" d="M1500.8,472.659l-.012.03h0Z" transform="translate(-1486.277 -360.185)" fill="#f79744"/>
          <path id="Path_100" data-name="Path 100" d="M1505.951,472.68c-.67-.093-1.34-.211-2-.3a1.555,1.555,0,0,1-.173.074.274.274,0,0,1-.107-.056.3.3,0,0,1-.074.137c-.125.062-.125.025.074-.137a4.047,4.047,0,0,0-1.366-.428c-1.794-.211-2.694,2.383-1.4,3.513a4.1,4.1,0,0,0,3.414,1.161c.18.037.379.074.553.112a1.471,1.471,0,0,0,1.583-1.8,3.23,3.23,0,0,0,.218-.391A1.448,1.448,0,0,0,1505.951,472.68Z" transform="translate(-1489.16 -359.89)" fill="#f79744"/>
          <path id="Path_101" data-name="Path 101" d="M1503.957,477.527a1.955,1.955,0,0,0-.2-3.1,3.262,3.262,0,0,0-2.918.012,1.258,1.258,0,0,0-.5.093,2.573,2.573,0,0,1-.359.2,1.93,1.93,0,0,0-1.13,1.93c.011.23.043.46.062.689,0-.006.013-.031.049-.056a1.76,1.76,0,0,0,2.1,1.614l.074-.006a2.009,2.009,0,0,0,.41-.18v.037A13.049,13.049,0,0,0,1503.957,477.527Z" transform="translate(-1478.067 -375.319)" fill="#f79744"/>
          <path id="Path_102" data-name="Path 102" d="M1503.911,468.959c-.057-.012-.173-.025-.3-.043a1.584,1.584,0,0,0-.311-.112c.311.062.454.087.584.105a2.5,2.5,0,0,0-1.7-.6l-.054-.043c-1.156-.478-2.807,0-3.985.242-2.241.447-2.266,3.563-.44,4.494.235,1.148.838,2.179,2.3,2.1a3.085,3.085,0,0,0,2.216-1.428,3.183,3.183,0,0,0,1.234-.745,2.118,2.118,0,0,0,1.3-2.687,1.928,1.928,0,0,0-.366-.751A2.428,2.428,0,0,0,1503.911,468.959Z" transform="translate(-1463.036 -334.045)" fill="#f79744"/>
          <path id="Path_103" data-name="Path 103" d="M1501.443,472.416a1.774,1.774,0,0,0-.763-2.98,2.857,2.857,0,0,1-.342-.1c-1.645-.527-2.843,1.893-1.539,2.949a3.044,3.044,0,0,0,.6.453A1.5,1.5,0,0,0,1501.443,472.416Z" transform="translate(-1471.679 -339.414)" fill="#f79744"/>
          <path id="Path_104" data-name="Path 104" d="M1503.377,471.411a2.473,2.473,0,0,0-3.1-1.155,1.893,1.893,0,0,0-1.1,1.987c.025.149.031.273.061.416a2,2,0,0,0,2.583,1.465A1.736,1.736,0,0,0,1503.377,471.411Z" transform="translate(-1479.044 -345.529)" fill="#f79744"/>
          <path id="Path_105" data-name="Path 105" d="M1496.5,467.76a1.828,1.828,0,0,0-2.545.236,3.177,3.177,0,0,0-.738,1.241,1.975,1.975,0,0,0,.782,2.278c.106.056.211.031.311.075.757.975,2.073,1.155,3.358,1.223a1.714,1.714,0,0,0,1.11-2.936C1497.972,469.207,1497.289,468.419,1496.5,467.76Z" transform="translate(-1437.177 -327.365)" fill="#f79744"/>
          <path id="Path_106" data-name="Path 106" d="M1498.9,468.932c.075-2.284-3.476-3.047-4.06-.6a4.268,4.268,0,0,0-.005,1.372,1.5,1.5,0,0,0,.044.863,3.3,3.3,0,0,0,1.868,1.657c1.154.571,2.929-.3,2.433-1.806a2.629,2.629,0,0,1-.23-.857c.026-.229.049-.447.068-.7C1498.984,468.9,1498.922,468.914,1498.9,468.932Z" transform="translate(-1447.438 -323.671)" fill="#f79744"/>
          <path id="Path_107" data-name="Path 107" d="M1498.879,466.384a3.345,3.345,0,0,0-.248.391,1.891,1.891,0,0,0-1.291,2.564c.05.105.113.2.155.3a1.937,1.937,0,0,0,2.111,1.055,3.433,3.433,0,0,0,2.364-1.378,1.369,1.369,0,0,0,.317-1.081,2.4,2.4,0,0,0-1.621-2.445A1.582,1.582,0,0,0,1498.879,466.384Z" transform="translate(-1465.403 -315.101)" fill="#f79744"/>
          <path id="Path_108" data-name="Path 108" d="M1503.647,469.461a1.388,1.388,0,0,0-1.142-1.607c-1.882-.137-2.651-.093-3.327.987a.989.989,0,0,0-.677,1.527,1.775,1.775,0,0,0,.932,2.166c1.278.54,2.911.633,3.668-.776a1.3,1.3,0,0,0,.131-.788A4.818,4.818,0,0,0,1503.647,469.461Z" transform="translate(-1474.019 -330.22)" fill="#f79744"/>
          <path id="Path_109" data-name="Path 109" d="M1485.773,487.329c.069.1.15.124.212.211a2.445,2.445,0,0,0,1.3,1.837c1.278.59,2.948-.322,3.75-1.552a2.343,2.343,0,0,0,.354-.658c0-.087.079-.156.086-.242v-.075a.8.8,0,0,0,.007-.273,1.967,1.967,0,0,0-.882-1.9.486.486,0,0,1-.1-.087v.025a2.14,2.14,0,0,0-.391-.2l-.106-.037a2.334,2.334,0,0,0-.416-.043c.535-.174-.719-.31-1.3-.4a2.568,2.568,0,0,0-2.365.769A2.257,2.257,0,0,0,1485.773,487.329Z" transform="translate(-1381.628 -446.777)" fill="#f79744"/>
          <path id="Path_110" data-name="Path 110" d="M1484.5,487.6a4.024,4.024,0,0,0,1.13,2.228,1.617,1.617,0,0,0,1.757.54,1.713,1.713,0,0,0,1.7-2.867c-.236-.242-.44-.522-.67-.776-.007-.031-.037-.043-.05-.068-.18-.211-.353-.379-.515-.6C1486.717,484.462,1484.135,485.8,1484.5,487.6Z" transform="translate(-1373.757 -456.692)" fill="#f79744"/>
          <path id="Path_111" data-name="Path 111" d="M1490.563,469.328a4.531,4.531,0,0,0-1.762-.975,2.016,2.016,0,0,0-2.061.578c-2.166,1.3-2.6,5.015-.622,6.313a2.159,2.159,0,0,0,1.515.863,1.6,1.6,0,0,1-.006.254c.161,1.98,3.309,2.178,3.551.143.074-.64.366-1.292.465-1.949a2.833,2.833,0,0,0,1.2-1.608l.031-.081a2.423,2.423,0,0,0-1.385-2.75C1491.96,470.2,1491.023,469.744,1490.563,469.328Z" transform="translate(-1379.496 -338.132)" fill="#f79744"/>
          <path id="Path_112" data-name="Path 112" d="M1491.789,470.57a4.665,4.665,0,0,1-1.024-1.384,1.611,1.611,0,0,0-2.464-.472c-2.018,1.912-.788,4.513,1.962,4.339a1.131,1.131,0,0,0,.862-.472l.056-.007A1.209,1.209,0,0,0,1491.789,470.57Z" transform="translate(-1393.881 -333.639)" fill="#f79744"/>
          <path id="Path_113" data-name="Path 113" d="M1486.995,475.17a3.8,3.8,0,0,0,2.93-2.557c.558-1.937-2.117-2.756-3.414-2.334a1.629,1.629,0,0,0-1.13,2.03,1.524,1.524,0,0,0,0,1.167l.217-.373A1.573,1.573,0,0,0,1486.995,475.17Z" transform="translate(-1379.124 -347.221)" fill="#f79744"/>
          <path id="Path_114" data-name="Path 114" d="M1486.346,476.918a3.527,3.527,0,0,0,.361-.105.6.6,0,0,0,.409-.571c.025-.118.031-.236.068-.366.019-.087,0-.161.019-.267a3.767,3.767,0,0,0,.695-1.757,2.024,2.024,0,0,0-1.843-2.086,3.561,3.561,0,0,0-2.823,1.856,2.011,2.011,0,0,0-.143,1.626A1.918,1.918,0,0,0,1486.346,476.918Z" transform="translate(-1362.853 -359.478)" fill="#f79744"/>
          <path id="Path_115" data-name="Path 115" d="M1485.517,477.605l.156.037a.775.775,0,0,0,.211.013,1.679,1.679,0,0,0,.267.049l.043-.025a1.457,1.457,0,0,0,1.359-1.118c.049-.1.143-.186.193-.285a1.64,1.64,0,0,0-1.316-2.483c-.1-.019-.211-.006-.3-.019a1.51,1.51,0,0,0-.906.037c-1.688.366-2.421,3.067-.435,3.6.112.025.206.05.323.087A1.108,1.108,0,0,0,1485.517,477.605Z" transform="translate(-1366.728 -371.804)" fill="#f79744"/>
          <path id="Path_116" data-name="Path 116" d="M1484.915,474.268c-2.974.472-3.029,3.1-2.359,5.406a3.283,3.283,0,0,0,1.26,2.6.679.679,0,0,0,.124.093,6.667,6.667,0,0,0,5.859,1.5c2.719-.881,2.285-3.73,1.063-5.605C1489.794,476.6,1487.088,473.921,1484.915,474.268Z" transform="translate(-1361.974 -381.365)" fill="#f79744"/>
          <path id="Path_117" data-name="Path 117" d="M1486.187,478.544a1.756,1.756,0,0,0-1.615-1.5,1.931,1.931,0,0,0-.471.136,1.626,1.626,0,0,0-2.117.987c-.795,1.664-.012,4.078,1.948,4.358a1.814,1.814,0,0,0,.733-.137,1.926,1.926,0,0,0,2.383-2.893C1486.819,479.22,1486.528,478.891,1486.187,478.544Z" transform="translate(-1354.338 -397.298)" fill="#f79744"/>
          <path id="Path_118" data-name="Path 118" d="M1483.693,484.938a2.308,2.308,0,0,0,3.351.174,4.579,4.579,0,0,0,2.118-2.967,1.954,1.954,0,0,0-1.341-1.967c-.98-.3-1.631-1.235-2.687-1.478a2.174,2.174,0,0,0-2.1.857C1481.824,481.338,1482.339,483.331,1483.693,484.938Z" transform="translate(-1360.229 -410.483)" fill="#f79744"/>
          <path id="Path_119" data-name="Path 119" d="M1484.089,480.369a1.74,1.74,0,0,0-2.123,1.719,2.71,2.71,0,0,0,1.459,2.793,1.259,1.259,0,0,0,1.732-.459,3.428,3.428,0,0,0,.236-.5,1.646,1.646,0,0,0,.038-3.129Q1484.758,480.592,1484.089,480.369Z" transform="translate(-1355.188 -420.023)" fill="#f79744"/>
          <path id="Path_120" data-name="Path 120" d="M1483.619,481.107a1.5,1.5,0,0,0-1.557-.13,2.791,2.791,0,0,0-.964.993c-.074-.074-.154-.025-.309.2a2.13,2.13,0,0,0-.3.844,1.467,1.467,0,0,0,.571,1.353,4.322,4.322,0,0,0,2.073.546,1.551,1.551,0,0,0,1.638-1.769A3.861,3.861,0,0,0,1483.619,481.107Z" transform="translate(-1344.128 -423.057)" fill="#f79744"/>
          <path id="Path_121" data-name="Path 121" d="M1485.747,482.163a1.071,1.071,0,0,0-.453-.049c-.323-.1-.628-.192-.932-.3a1.808,1.808,0,0,0-2.57,1.757,3.782,3.782,0,0,0,2.266,3.34,1.441,1.441,0,0,0,1.689-.372,2.336,2.336,0,0,0,.453-1.167,1.052,1.052,0,0,0,.508-.416c.05-.074.038-.168.069-.236.055-.18.185-.3.149-.515-.012-.249-.056-.478-.087-.72a1.426,1.426,0,0,0-.85-1.081C1485.9,482.325,1485.853,482.219,1485.747,482.163Z" transform="translate(-1354.487 -430.079)" fill="#f79744"/>
          <path id="Path_122" data-name="Path 122" d="M1489.574,467.322l-.074-.168a1.347,1.347,0,0,0-1.564-.54c-.255.093-.5.193-.739.279a1.9,1.9,0,0,0-1.018,2.427c.764,1.6,2.414,2.52,3.793,2.005a1.237,1.237,0,0,0,1.221-.962,2.559,2.559,0,0,0,.337-.5,1.882,1.882,0,0,0-.268-2.21A2.2,2.2,0,0,0,1489.574,467.322Z" transform="translate(-1385.708 -320.956)" fill="#f79744"/>
          <path id="Path_123" data-name="Path 123" d="M1492.777,466.015a1.547,1.547,0,0,0-2.683,1.279,2.239,2.239,0,0,0,2.44,2.023,1.541,1.541,0,0,0,.652-2.961C1493.056,466.239,1492.919,466.139,1492.777,466.015Z" transform="translate(-1412.988 -312.479)" fill="#f79744"/>
          <path id="Path_124" data-name="Path 124" d="M1497.023,467.585a3.538,3.538,0,0,0-3.774-.478c-1.613.676-2.073,2.489-2.03,4.153a.3.3,0,0,1,0,.106,9.1,9.1,0,0,0,.086,1.1,2.294,2.294,0,0,0,3.155,1.744,8.957,8.957,0,0,0,2.253-.925,7.554,7.554,0,0,0,1.582-2.768,2.315,2.315,0,0,0-1.215-2.855C1497.055,467.646,1497.043,467.61,1497.023,467.585Z" transform="translate(-1424.529 -325.334)" fill="#f79744"/>
          <path id="Path_125" data-name="Path 125" d="M1484.467,469.158a3.088,3.088,0,0,0,1.606,1.931c.07.18.175.335.256.546.807,2.259,4,.788,3.277-1.111h.03a6.806,6.806,0,0,0-2.327-3.613C1485.752,465.57,1483.9,467.532,1484.467,469.158Z" transform="translate(-1373.232 -321.83)" fill="#f79744"/>
          <path id="Path_126" data-name="Path 126" d="M1483.54,468.284l-.527.453a1.6,1.6,0,0,0,.174,2.507c.074.031.149.075.211.105a1.591,1.591,0,0,0,1.793-.124C1487.078,470.382,1485.21,466.8,1483.54,468.284Z" transform="translate(-1357.898 -329.695)" fill="#f79744"/>
          <path id="Path_127" data-name="Path 127" d="M1484.706,469.949a2.059,2.059,0,0,0-2.576,2.414c.124.391.254.757.366,1.142a2.11,2.11,0,0,0,1.669,1.372,3.435,3.435,0,0,0,2.415-.478c.081-.031.137-.118.224-.155a4.89,4.89,0,0,0,.676-.007,1.836,1.836,0,0,0,.565-3.463A27.828,27.828,0,0,0,1484.706,469.949Z" transform="translate(-1358.288 -345.153)" fill="#f79744"/>
          <path id="Path_128" data-name="Path 128" d="M1492.2,494.784a1.534,1.534,0,0,0,1.031-2.2,7.344,7.344,0,0,0-.932-1.856,1.726,1.726,0,0,0-3.159.975,3.759,3.759,0,0,0,.577,2.663A1.807,1.807,0,0,0,1492.2,494.784Z" transform="translate(-1406.374 -489.956)" fill="#f79744"/>
          <path id="Path_129" data-name="Path 129" d="M1486.226,491.9a1.811,1.811,0,0,0,3.42.571c.9-1.689,1.3-4.047-.074-5.63-1.4-1.607-3.457-.832-4.257.906a1.929,1.929,0,0,0,.732,2.651A6.507,6.507,0,0,0,1486.226,491.9Z" transform="translate(-1378.356 -463.557)" fill="#f79744"/>
        </g>
        <path id="Path_130" data-name="Path 130" d="M1540.833,485.446c-2.509-4.5-10.473-1.571-14.018-.335a40.41,40.41,0,0,0-5.958,2.7c2.445-3.135,4.463-6.48,4.729-10.254a1.725,1.725,0,0,0-2.221-1.564,13.7,13.7,0,0,0-6.22,5.277c.216-3.178-.59-6.214-3.159-7.834-1.3-.838-3.576-.565-4.042,1.2a41.443,41.443,0,0,0-1.03,5.487c-1.825-3.787-4.265-7.077-8.269-8.473a2.358,2.358,0,0,0-3.115,1.918c-.789,3.848.441,7.715,2.339,11.042.255.447.584.956.882,1.465a9.491,9.491,0,0,0-2.184-.391,25.568,25.568,0,0,0-6.81-1.279,1.312,1.312,0,0,0-.875,2.241c.943.857,1.925,1.589,2.887,2.39a2.8,2.8,0,0,0,1.321,2.148c2.111,1.446,4.208,2.954,6.275,4.444-4.543.031-9.068.77-12.811,3.029a2.082,2.082,0,0,0,.559,3.768,26.726,26.726,0,0,0,15-.434c-3.47,4.879-6.424,9.869-6.083,16.306.093,1.837,2.167,3.886,4.078,2.563a20.117,20.117,0,0,0,5.27-5.555c.107,7.219,1.739,14.122,6.531,18.6a2.891,2.891,0,0,0,4.742-1.3c1.546-4.227,1.348-8.628.508-13.072a27.124,27.124,0,0,1,1.144,3.159c.72,2.713,4.692,1.2,4.065-1.459-.353-1.508-.757-2.979-1.16-4.45,4.413,5.363,9.273,9.28,12.457,6.8,3.234-2.545-.054-8.33-4.909-14.122a2.582,2.582,0,0,0,2.227-4.482c-.359-.36-.738-.627-1.091-.943a23.54,23.54,0,0,0,7.418.031c2.477-.422,2.8-3.836.843-5.071a44.344,44.344,0,0,0-9.129-4.332c1.24-.4,2.519-.838,3.618-1.316C1537.275,492.174,1542.886,489.176,1540.833,485.446Z" transform="translate(-1444.929 -415.019)" fill="#f05f42"/>
        <path id="Path_131" data-name="Path 131" d="M1510.818,481.821a13.29,13.29,0,0,0-.614-2.334c-.937-2.4-3.719-3.389-6-3.737-1.9-.279-3.706.6-5.364,1.912a9.267,9.267,0,0,0-4.346,2.9,6.94,6.94,0,0,0-3.363,10.186,7.319,7.319,0,0,0,.26,1.757c1.589,4.6,5.431,6.412,9.962,5.822l.521.329c5.345,3.451,12.074-1.657,10.808-7.635l-.416-2.03A8.1,8.1,0,0,0,1510.818,481.821Z" transform="translate(-1431.835 -406.13)" fill="#b97d4f"/>
      </g>
    </g>
  </g>
</svg>
