<svg xmlns="http://www.w3.org/2000/svg" width="554.97" height="677.578" viewBox="0 0 554.97 677.578">
  <g id="左下花" transform="translate(213.112 -3576.922)">
    <g id="Group_212" data-name="Group 212" transform="translate(81.514 3576.922)">
      <g id="Group_107" data-name="Group 107">
        <path id="Path_1" data-name="Path 1" d="M18.471,42.49c2.6.887,5.521-.293,7.616-1.8,3.188-2.29,7.356-3.461,7.94-7.836.176-1.286,4.3-3.05,5.328-4.143A6.917,6.917,0,0,0,40.9,25.037c.452-3.4-1.025-6.195-3.146-8.748-3.959-4.756-10.2-7.713-15.971-10.18A30.139,30.139,0,0,0,10.2.388C-7.6-3.4,2.57,21.6,6.11,28.484,8.844,33.8,12.479,40.445,18.471,42.49Z" transform="translate(68.057 58.141)" fill="#f5a2b2"/>
        <path id="Path_2" data-name="Path 2" d="M9.888,47.683a19.742,19.742,0,0,0,22.359-6.4c5.537-7.144,3.5-17.507.67-25.917-.207-.681-.443-1.357-.7-2.02-.211-.585-.425-1.158-.637-1.715a2.837,2.837,0,0,0-.6-.969c-2.517-4.775-6.363-8.566-10.5-9.765C17.44-.534,13.986-.373,10.357,2.268,3.624,7.181,1.124,19.356.191,27.732-.778,36.427,1.862,44.89,9.888,47.683Z" transform="translate(43.403 63.579)" fill="#f5a2b2"/>
        <path id="Path_3" data-name="Path 3" d="M1.556,6.171c-4.021,6.715.5,12.438,5.085,17.021,0,3.774,2.09,7.309,5.172,10.372a20.752,20.752,0,0,0,1.9,6.486,16.349,16.349,0,0,0,9.047,7.13c5.927,1.954,12.213-.624,17.85-3.4,2.3-1.721,4.69-3.349,6.973-5.088a39.026,39.026,0,0,0,5.1-9.016C56.237,21.5,59.6,11.515,51.926,4.56,46.459-.389,37.282-.19,30.436.153c-2.024.1-4.03.3-6.034.544A56.583,56.583,0,0,0,16.5.8C11.075.412,4.571,1.128,1.556,6.171Z" transform="translate(2.585 50.866)" fill="#f5a2b2"/>
        <path id="Path_4" data-name="Path 4" d="M19.7,2.912C13.626-1.724,7.588-1.082,6.019,6.7c-.294,1.434-.411,3.8-1.686,4.748-1.121.832-2.269.763-3.172,2.015a7.2,7.2,0,0,0-.921,5.92A7.136,7.136,0,0,0,.9,21.576,21.809,21.809,0,0,0,2.434,24.73c2.109,3.631,6.6,6.349,11.36,7.77a38.254,38.254,0,0,0,15.647,4.1c8.163.195,8.449-6.3,5.566-11.993a73.814,73.814,0,0,0-5.374-8.51C26.354,11.367,24.437,6.531,19.7,2.912Z" transform="translate(17.332 20.241)" fill="#f5a2b2"/>
        <path id="Path_5" data-name="Path 5" d="M50.977,36.472c1.607-7.3-.964-17.487-3.876-24.331C43.929,4.7,37.022-.171,29.357,0,21.366.183,14.5,7.3,9.317,12.636a2.537,2.537,0,0,0-.708,1.484C5.436,16.848,2.622,20.215,1.49,24.132c-.218.209-.443.42-.653.638a2.657,2.657,0,0,0,.15,4c.352,5.312,3.966,9.61,8.873,12.158,7.8,4.048,15.6,4.336,23.927,3.608C39.305,44.061,49.437,43.425,50.977,36.472Z" transform="translate(57.809 29.367)" fill="#f5a2b2"/>
        <path id="Path_6" data-name="Path 6" d="M42.543,10.649c-3.086-2.171-5.723-.833-8.5.191-3.665,1.337-6.276-4.495-9.268-6.994-4.314-3.6-8.541,1.019-12.7-1.781C-3.71-8.565-1.675,24.7,4.963,36.7a54.949,54.949,0,0,0,2.564,7.082C8.305,51.467,13.594,57.4,19.576,57.56c4.7.127,8.625-3.887,11.494-8.854,1.057-1.167,2.044-2.38,2.955-3.542,2.442-3.1,4.214-6.951,6.54-10.145,2.485-3.417,5.752-7.7,6-13.068C46.748,18.155,45.652,12.838,42.543,10.649Z" transform="translate(41.741)" fill="#f5a2b2"/>
        <g id="Group_102" data-name="Group 102" transform="translate(41.004 5.121)">
          <path id="Path_7" data-name="Path 7" d="M9.708,40.626C4.653,33.053.472,23.752.232,14.527.037,7.036,9.65-5.184,16.391,3.7a.187.187,0,0,0,.29.039c5.081-4.316,18.753-5.814,19.311,3.42a.185.185,0,0,0,.277.157c4.7-2.612,9.617-2.852,11.387,3.021,1.294,4.313.513,9.372-.737,13.6-1.891,6.4-7.4,11.242-12.714,14.906-6.361,4.387-13.867,6.873-21.279,8.809a.184.184,0,0,0,.1.354C26.4,44.508,43.595,37.6,47.613,22.824,49.388,16.3,49.547,2.142,39.066,5.578c-.452.15-2.661,1.4-2.76.776a7.357,7.357,0,0,0-1.185-3.111C33.864,1.352,31.429.571,29.326.2a17.944,17.944,0,0,0-7.482.526,16.635,16.635,0,0,0-3.331,1.307c-1.57.79-1.695,1.47-3.052-.021C11.5-2.34,6.153,1.457,3.381,5.01c-4.262,5.466-3.874,11.582-2.2,17.97A60.066,60.066,0,0,0,9.391,40.812c.129.195.445.011.317-.186Z" fill="#f071a0"/>
        </g>
        <g id="Group_103" data-name="Group 103" transform="translate(57.306 24.885)">
          <path id="Path_8" data-name="Path 8" d="M.37,33.075C6.229,18.595,17.478,1.889,34.47.43,48.753-.8,63.482,18.863,52.028,30.407a.188.188,0,0,0,0,.257c9.056,9.476-7.868,17.132-15.546,18.1-12.572,1.586-23.652-7.495-29.634-17.68a.183.183,0,0,0-.316.184C14.011,44.009,28.126,52.847,42.926,47.51c4.688-1.691,10.409-4.791,11.972-9.892.64-2.09-.222-4.16-1.4-5.852-1.074-1.539-.264-1.877.657-3.2a15.517,15.517,0,0,0,2.179-4.457C59.843,12.539,46.466.834,35.965.056,20.374-1.095,8.345,15.632,2.319,27.776c-.844,1.7-1.593,3.443-2.3,5.2-.088.222.266.316.356.1Z" fill="#f071a0"/>
        </g>
        <g id="Group_104" data-name="Group 104" transform="translate(7.464 18.476)">
          <path id="Path_9" data-name="Path 9" d="M46.482,39.27c.367-5.267-2.2-10.479-4.593-15.006A78.441,78.441,0,0,0,30.59,8.225C26.762,4.027,21.343-.417,15.339.031A8,8,0,0,0,8.283,9.193,8.557,8.557,0,0,0,9.6,12.23c.617,1.007,2.024,1.709.156,2.183a14.051,14.051,0,0,0-6.542,4.064A11.681,11.681,0,0,0,.97,31.2c2.337,5.408,8.746,7.591,14.18,7.514,6.946-.1,13.908-3.76,19.328-7.84.186-.139,0-.46-.186-.316-7.868,5.925-19.72,11.153-28.911,5.115-9.959-6.542-3.644-19.452,6.266-21.3a.185.185,0,0,0,.082-.306C9.273,11.731,7.87,8.858,8.867,5.461,10.153,1.074,15.5-.2,19.348.781c5.328,1.357,9.689,6.061,13.109,10.135A83.193,83.193,0,0,1,41.573,24.45c2.412,4.407,4.9,9.663,4.543,14.82-.018.234.35.234.366,0Z" fill="#f071a0"/>
        </g>
        <g id="Group_105" data-name="Group 105" transform="translate(0 50.956)">
          <path id="Path_10" data-name="Path 10" d="M40.921,10.97C38.894,1.134,25.613-.657,17.447.183,8.282,1.129-3.477,8.329.971,19.257A14.057,14.057,0,0,0,6.6,25.437c.824.46,1.758.778,2.614,1.171,2.077.948,1.573,3.4,1.668,5.054a8.887,8.887,0,0,0,1.3,2.889c2.374,4.516,5.382,10.017,10.032,12.538a4.443,4.443,0,0,0,4.237.028,6.186,6.186,0,0,0,1.951-1.9c1.073-1.395,1.45,1.146,2.188,2.2,2.659,3.769,7.622.688,10.173-1.427,4.293-3.565,6.63-8.126,7.99-13.423a60.11,60.11,0,0,0,1.4-24.923c-.039-.232-.393-.134-.354.1a56.647,56.647,0,0,1,.039,17.439c-.61,4.466-1.434,9.461-3.561,13.484C43.258,44.383,32.427,54.844,29.307,43.6a.184.184,0,0,0-.334-.043C23.235,53.98,14.722,38.662,12.006,33.409c-.871-1.688-.735-3.277-.839-5.058a1.72,1.72,0,0,0-.424-1.164c-1.891-1.541-4.259-1.972-6.055-3.722C.4,19.3-.709,13.818,2.316,8.529,6.224,1.707,15.9.081,23.019.385,29.822.677,39,3.439,40.569,11.066c.046.231.4.132.352-.1Z" fill="#f071a0"/>
        </g>
        <g id="Group_106" data-name="Group 106" transform="translate(43.075 63.035)">
          <path id="Path_11" data-name="Path 11" d="M12.363,2.143C1.6,12.872-4.46,31.357,3.949,45.155c6.227,10.223,19.656,9.075,24.54-1.6a19.9,19.9,0,0,0,1.527-8.537c-.007-.565-.465-.76.08-.12A10.364,10.364,0,0,0,31.169,36a12.268,12.268,0,0,0,3.061,1.886c3.177,1.471,5.913.644,5.081-3.181.459,2.12,4.512,3.949,6.376,4.473a9.6,9.6,0,0,0,6.928-1.107c5.013-2.587,7.93-8.537,8.648-13.892C62.53,14.733,54.54,7.215,46.736,3.612A41.292,41.292,0,0,0,17.8,1.8c-.223.073-.127.429.1.354C30.688-1.925,47.707.816,56.7,11.372c5.289,6.208,5.371,14.364,1.153,21.131a14.282,14.282,0,0,1-8.01,6.283c-4.429,1.268-8.28-1.7-10.836-4.992-.116-.148-.358.014-.307.18,2.149,6.964-6.86,3.554-8.763-.009a.184.184,0,0,0-.342.091c.338,6.415-1.764,12.771-7.405,16.311-5.605,3.52-12.213,1.362-16.35-3.259C-5.579,34.358,2.007,12.986,12.622,2.4c.168-.166-.093-.426-.259-.261Z" fill="#f071a0"/>
        </g>
        <path id="Path_12" data-name="Path 12" d="M22.868,3.922C21.052,2,18.177-.29,14.959.03a6.119,6.119,0,0,0-5,3.592c-1.886-1.057-4.121-1.6-6.32-.232C.756,5.174.188,8.524.032,11.258-.54,21.388,6.617,28.763,14.709,34.179a2.315,2.315,0,0,0,2.281.175c5.568,2.5,9.994-5.339,10.647-10.27C28.615,16.681,28,9.352,22.868,3.922Z" transform="translate(30.328 26.68)" fill="#f5a2b2" opacity="0.4" style="mix-blend-mode: multiply;isolation: isolate"/>
        <path id="Path_13" data-name="Path 13" d="M24.41,27.06c2.614-.433,6.111-1.534,7.646-4.378a6.114,6.114,0,0,0-.175-6.158c1.931-.973,3.629-2.519,3.729-5.108.13-3.384-2.33-5.732-4.505-7.389C23.028-2.118,12.916-.313,3.892,3.365a2.324,2.324,0,0,0-1.42,1.792C-2.717,8.369,1.306,16.427,5.03,19.728,10.617,24.684,17.039,28.274,24.41,27.06Z" transform="translate(53.089 50.027)" fill="#f5a2b2" opacity="0.4" style="mix-blend-mode: multiply;isolation: isolate"/>
        <path id="Path_14" data-name="Path 14" d="M1.471,13.535C-1.741,19.41.489,24.961,6.39,24.673c1.259,4.615,5.058,6.978,10.105,3.99,6.61-3.91,9.871-13.2,11.079-20.314a2.17,2.17,0,0,0-1.553-2.592l-.116-.072a21.192,21.192,0,0,0,.258-2.834A2.7,2.7,0,0,0,23.013.037C15.264,1.258,5.336,6.468,1.471,13.535Z" transform="translate(31.956 57.158)" fill="#f5a2b2" opacity="0.4" style="mix-blend-mode: multiply;isolation: isolate"/>
        <path id="Path_15" data-name="Path 15" d="M.918,4.881c-2.63,5.226.778,11.471,5.331,14.078,6.3,3.6,14.557,1.514,21.376,2.768a2.571,2.571,0,0,0,3.049-2.68A3.935,3.935,0,0,0,33,15.274c-.4-3.7-3.24-6.206-6-8.417C21.017,2.062,5.767-4.77.918,4.881Z" transform="translate(22.101 44.449)" fill="#f5a2b2" opacity="0.4" style="mix-blend-mode: multiply;isolation: isolate"/>
        <path id="Path_16" data-name="Path 16" d="M18.862,2.967A5.579,5.579,0,0,0,12.4.421a5.068,5.068,0,0,0-1.6.928C8.955-.376,6.359-.695,3.338,1.873-2.321,6.687.522,15.67,2.4,22.446a2.865,2.865,0,0,0-.03.933c.409,3.29.885,6.392,2.526,9.307a2.706,2.706,0,0,0,4.164.726A5.111,5.111,0,0,0,10.789,30.9a2.207,2.207,0,0,0,.438-.6C14.861,23.222,23.739,11.105,18.862,2.967Z" transform="translate(49.19 25.888)" fill="#f5a2b2" opacity="0.4" style="mix-blend-mode: multiply;isolation: isolate"/>
        <path id="Path_17" data-name="Path 17" d="M3.626,29.6a6.009,6.009,0,0,0,6.867.066,5.092,5.092,0,0,0,1.243-1.273c2.247.849,4.8.292,6.926-2.793,3.992-5.775-1.282-12.319-5.008-17.332a2.55,2.55,0,0,0-.247-.787C12.076,4.887,10.733,2.471,8.339.573a2.939,2.939,0,0,0-4.155.713,4.4,4.4,0,0,0-.913,2.628,2.087,2.087,0,0,0-.243.638C1.61,11.563-3.332,24.4,3.626,29.6Z" transform="translate(51.367 57.827)" fill="#f5a2b2" opacity="0.4" style="mix-blend-mode: multiply;isolation: isolate"/>
        <path id="Path_18" data-name="Path 18" d="M28.431,3.582A7.426,7.426,0,0,0,20.569,2.9c-1.455-2.932-4.581-3.851-8.641-1.8C7.478,3.359,5.623,7.124,4.3,11.259A34.318,34.318,0,0,0,.523,22.48c-.055.111-.109.222-.17.329a2.561,2.561,0,0,0-.068,2.474A14.677,14.677,0,0,0,.6,28.961a2.7,2.7,0,0,0,3.209,1.988c4.727-1.082,8.635-4.164,12.306-7.187,3.922-3.234,8.212-6.626,11.782-10.214C30.476,10.956,31.727,6.169,28.431,3.582Z" transform="translate(57.878 33.544)" fill="#f5a2b2" opacity="0.4" style="mix-blend-mode: multiply;isolation: isolate"/>
      </g>
      <g id="Group_108" data-name="Group 108" transform="translate(49.986 45.371)">
        <path id="Path_19" data-name="Path 19" d="M.018,0,0,.018.011.011Z" transform="translate(5.902 17.178)" fill="#f79744"/>
        <path id="Path_20" data-name="Path 20" d="M12.662,14.252a.436.436,0,0,0,.257-.708c-.213-.245-.408-.491-.6-.744a3.093,3.093,0,0,0,1.536.515.473.473,0,0,0,.449-.533,7.1,7.1,0,0,0,1.13.139c.5.02.6-.683.206-.9-.452-.248-.913-.479-1.377-.7a.191.191,0,0,0-.146-.179c-.159-.043-.341-.123-.513-.159a.32.32,0,0,0-.035-.1,5.193,5.193,0,0,0,1.5-.163.477.477,0,0,0,.089-.873c-.061-.029-.129-.046-.193-.075a1.889,1.889,0,0,0,.247-.232.464.464,0,0,0-.177-.749.475.475,0,0,0,.123-.116.331.331,0,0,0,.345-.071.647.647,0,0,0,.544-.538.7.7,0,0,0-.84-.76.678.678,0,0,0-.536.553.277.277,0,0,0,0,.077c-.079,0-.157,0-.229.005a.5.5,0,0,0-.034-.572.346.346,0,0,0,.009-.1c.106-.052.211-.1.32-.15a.344.344,0,0,0,.173-.2c.42-.114.243-.812-.239-.767a4.883,4.883,0,0,0-.586.1c-.1.023-.2.045-.306.072-.072,0-.15.023-.225.032a.515.515,0,0,0-.2-.572.066.066,0,0,0-.029-.011A28.2,28.2,0,0,0,14.7,3.3c.216-.4-.252-.722-.6-.544a7.339,7.339,0,0,0-1.541,1.085,4.574,4.574,0,0,0,0-.815.324.324,0,0,0,.3-.17.741.741,0,0,1,.081-.059.2.2,0,0,0-.018-.338,1.943,1.943,0,0,0-.393-.1c-.159-.05-.3.118-.3.261a.437.437,0,0,0-.177.029,1.5,1.5,0,0,0-.69.645.279.279,0,0,0-.138.032.049.049,0,0,0-.012-.032v-.1a.333.333,0,0,0-.375-.275.076.076,0,0,0-.029.009.114.114,0,0,0-.039-.011.7.7,0,0,0-.554-.282.244.244,0,0,0-.206.109,2.771,2.771,0,0,0-.26.493,1.148,1.148,0,0,0-.136-.075,9.294,9.294,0,0,1,.3-1,.387.387,0,0,0-.613-.427.371.371,0,0,0-.086-.179c-.009-.032-.013-.066-.021-.095a.5.5,0,0,0-.569-.217A3.482,3.482,0,0,0,8.353.223a.388.388,0,0,0-.708.014c-.121.393-.223.8-.305,1.2-.056-.007-.1-.014-.15-.018A.156.156,0,0,0,7.1,1.364a.439.439,0,0,0-.346.095A2.551,2.551,0,0,0,6.372.7C6.363.631,6.355.557,6.342.488A.33.33,0,0,0,5.98.223a.39.39,0,0,0-.558.064,3.465,3.465,0,0,0-.37,2.741.939.939,0,0,0-.3.073l0-.011a.333.333,0,0,0-.563-.019,4.879,4.879,0,0,0-.456-.529.634.634,0,0,0,.161.027.362.362,0,0,0,.281.082.54.54,0,0,0,.433-.4c.125-.379-.018-.982-.511-.894a.929.929,0,0,0-.662.745.457.457,0,0,0,.075.29.379.379,0,0,0-.44.349,3.644,3.644,0,0,0,.1,1.217,2.336,2.336,0,0,0-1-.341.287.287,0,0,0-.3.343c.046.129.093.25.145.37a.33.33,0,0,0-.139.048c-.033.014-.066.03-.1.046a.357.357,0,0,0-.27.317c0,.029,0,.063-.005.093a.352.352,0,0,0,.245.341l.016,0a.214.214,0,0,0,.268.075c.016,0,.029,0,.043,0a.273.273,0,0,0,.125.007.437.437,0,0,0-.231.375.671.671,0,0,0,.018.134,3.087,3.087,0,0,0-.721-.152A.7.7,0,0,0,.755,5.3a1.049,1.049,0,0,0-.519.132.438.438,0,0,0-.128.586.944.944,0,0,0,.2.191c.007.037.014.079.021.12A.336.336,0,0,0,.8,6.57c.021-.013.044-.03.07-.047.041.057.1.106.141.157A.753.753,0,0,0,.59,7.2a.621.621,0,0,0,.079.433,2.613,2.613,0,0,0-.4.125.4.4,0,0,0-.038.692A3.473,3.473,0,0,0,1.4,8.96a.644.644,0,0,0-.084.113,1.109,1.109,0,0,0,1.023,1.453A5.894,5.894,0,0,0,.042,12.54a.359.359,0,0,0,.161.492,2.306,2.306,0,0,0,2.061-.3c.082-.046.161-.095.243-.143a5.811,5.811,0,0,0,.694-.341l-.182.159a.35.35,0,0,0-.258.518.672.672,0,0,1,.1.188A.4.4,0,0,0,3,13.366a.432.432,0,0,0-.025.384.408.408,0,0,0-.059.036.609.609,0,0,0-.009.724.3.3,0,0,0,.354.112c.013,0,.018,0,.029,0l-.005.018c-.22.359-.583.9-.436,1.343.247.754,1.1.143,1.772-.486a1.5,1.5,0,0,0-.011.159c-.005.041.016.07.022.1-.034.032-.059.068-.091.1l-.018.016c.016-.005.029-.014.05-.021a.176.176,0,0,0-.057.032c-.03.029-.034.027-.011.007-.3.181-.113.64.2.7-.14-.025-.018.041.045.109a.429.429,0,0,0-.1.291v.061a1.178,1.178,0,0,1-.005.157.321.321,0,0,0,.354.367c.064-.009.134-.023.2-.037a1.277,1.277,0,0,0,.229.2.271.271,0,0,0,.41-.156v.036a.261.261,0,0,0,.025-.2.246.246,0,0,0-.034-.109c-.032-.059-.071-.112-.111-.175a.452.452,0,0,0-.032-.348c.027-.02.052-.032.077-.052a.509.509,0,0,0,.059-.068c.041.286.084.585.157.922a.407.407,0,0,0,.781.025c.007-.034.016-.068.027-.1a4.042,4.042,0,0,0,.563,1.94c.029.12.056.239.095.357a.418.418,0,0,0,.6.259c.764-.438.93-1.482.976-2.519.037.014.061.034.1.045a.338.338,0,0,0,.392-.125,1.025,1.025,0,0,0,.081-.173,2.033,2.033,0,0,0,.476.626.358.358,0,0,0,.594-.152,4.464,4.464,0,0,0,.152-1.053c.018.012.025.032.043.045a.364.364,0,0,0,.3.093.368.368,0,0,0,.229.073.544.544,0,0,0,.163.071.241.241,0,0,0,.3-.22l0-.025a.407.407,0,0,0,.333-.577c-.009-.025-.02-.047-.029-.075.277.47.551.944.8,1.432a.477.477,0,0,0,.878-.256A7.681,7.681,0,0,0,12.662,14.252Z" transform="translate(1.396 1.299)" fill="#f79744"/>
        <path id="Path_21" data-name="Path 21" d="M.157.832A.192.192,0,0,0,.475.913L.525.846A.264.264,0,0,0,.747.618a.715.715,0,0,0,0-.086A.869.869,0,0,0,.813.4.206.206,0,0,0,.655.163,1.136,1.136,0,0,1,.383.022.262.262,0,0,0,.042.145a.5.5,0,0,0,.1.542A.94.94,0,0,0,.157.832Z" transform="translate(12.523 2.737)" fill="#f79744"/>
        <path id="Path_22" data-name="Path 22" d="M.01.52.08.787A.279.279,0,0,0,.164.919a.21.21,0,0,0,.318.14C.607.982.736.9.859.814A.222.222,0,0,0,.87.486.635.635,0,0,0,.93.37.3.3,0,0,0,.5.036a.761.761,0,0,0-.168.12A.3.3,0,0,0,.01.52Z" transform="translate(11.166 1.352)" fill="#f79744"/>
        <path id="Path_23" data-name="Path 23" d="M.933,1.068a.253.253,0,0,0,.118-.2A.392.392,0,0,0,1.112.708C1.159.356.808.247.59.07A.32.32,0,0,0,.1.179a.9.9,0,0,0,.023.86A.588.588,0,0,0,.933,1.068Z" transform="translate(12.749 0.953)" fill="#f79744"/>
        <path id="Path_24" data-name="Path 24" d="M.166.839A.166.166,0,0,0,.2.861c.014.24.068.366.381.485a.237.237,0,0,0,.23-.066c.175-.2.379-.461.295-.74a.439.439,0,0,0-.15-.22A1.182,1.182,0,0,0,.839.133.326.326,0,0,0,.328.115L.319.138a.259.259,0,0,0-.088.05.306.306,0,0,0-.208.22A.811.811,0,0,0,0,.585.3.3,0,0,0,.166.839Z" transform="translate(2.119 4.403)" fill="#f79744"/>
        <path id="Path_25" data-name="Path 25" d="M.224.7A.217.217,0,0,0,.615.744C.632.735.648.735.658.727A.558.558,0,0,0,.73.39L.725.385a.2.2,0,0,0,0-.122C.678.1.5.086.372.02A.275.275,0,0,0,.017.183.45.45,0,0,0,.224.7Z" transform="translate(3.489 2.051)" fill="#f79744"/>
        <path id="Path_26" data-name="Path 26" d="M.475,1.036A.334.334,0,0,0,.861.921a.285.285,0,0,0,0-.193A.334.334,0,0,0,.877.693C.881.573.89.456.9.335a.272.272,0,0,0-.243-.3A1.245,1.245,0,0,1,.444.008.3.3,0,0,0,.112.145.551.551,0,0,0,.475,1.036Z" transform="translate(4.687 0.522)" fill="#f79744"/>
        <path id="Path_27" data-name="Path 27" d="M.707.712C.7.7.687.631.672.567A1.255,1.255,0,0,0,.833.393.244.244,0,0,0,.681.039C.458-.013.218-.047.07.163s-.023.509.079.7A.3.3,0,0,0,.707.712Z" transform="translate(6.45 0.199)" fill="#f79744"/>
        <path id="Path_28" data-name="Path 28" d="M.289,1.344a.386.386,0,0,0,.52.068A.567.567,0,0,0,1.321.9.8.8,0,0,0,1.208.434a.593.593,0,0,0-.172-.22A.71.71,0,0,0,.364.024C-.238.194.031,1.024.289,1.344Z" transform="translate(0.678 10.266)" fill="#f79744"/>
        <path id="Path_29" data-name="Path 29" d="M.583.8A.231.231,0,0,0,.841.471.184.184,0,0,0,.856.425.258.258,0,0,0,.82.269C.747.246.677.219.607.193A.482.482,0,0,0,.468.048a.28.28,0,0,0-.42.123A1.491,1.491,0,0,0,.01.359C.01.371,0,.377,0,.387v.02a.233.233,0,0,0,.18.268H.194l.018,0a.475.475,0,0,0,.182.07A.851.851,0,0,0,.583.8Z" transform="translate(0.016 6.936)" fill="#f79744"/>
        <path id="Path_30" data-name="Path 30" d="M.452.844A.2.2,0,0,0,.722.749a.146.146,0,0,0,.02-.1A.186.186,0,0,0,.763.6a.715.715,0,0,1,.03-.22A.245.245,0,0,0,.614.082,1.462,1.462,0,0,0,.283,0C.049-.025-.063.284.037.459A1.037,1.037,0,0,0,.452.844Z" transform="translate(0.457 5.116)" fill="#f79744"/>
        <path id="Path_31" data-name="Path 31" d="M.013.2a.234.234,0,0,0,0,.136.255.255,0,0,0,0,.132A.212.212,0,0,0,.225.6.707.707,0,0,0,.551.441a.215.215,0,0,0,0-.34A.321.321,0,0,0,.013.2Z" transform="translate(14.575 2.296)" fill="#f79744"/>
        <path id="Path_32" data-name="Path 32" d="M.4.628A.2.2,0,0,0,.538.5.252.252,0,0,0,.52.242L.508.228l0-.018A.153.153,0,0,0,.4.078H.4C.3-.023.07-.046.027.131a.4.4,0,0,0,.066.4A.265.265,0,0,0,.4.628Z" transform="translate(10.693)" fill="#f79744"/>
        <path id="Path_33" data-name="Path 33" d="M1,.283C.984.272.968.272.948.263A.235.235,0,0,0,.683.1.33.33,0,0,0,.176.143,2.509,2.509,0,0,0,.029.41.373.373,0,0,0,.212.894.212.212,0,0,0,.281.94c.141.056.3.09.452.133A.317.317,0,0,0,1.088.66.254.254,0,0,0,1,.283Z" transform="translate(2.572 14.443)" fill="#f79744"/>
        <path id="Path_34" data-name="Path 34" d="M0,0,0,0H0Z" transform="translate(0.545 13.406)" fill="#f79744"/>
        <path id="Path_35" data-name="Path 35" d="M.858.252C.772.218.679.175.59.135L.56.141.545.128.531.146C.515.146.515.142.545.128A.551.551,0,0,0,.377.016.3.3,0,0,0,.041.461.609.609,0,0,0,.484.75c.023.014.05.023.071.036A.213.213,0,0,0,.846.591C.858.575.878.563.892.545A.213.213,0,0,0,.858.252Z" transform="translate(0 13.282)" fill="#f79744"/>
        <path id="Path_36" data-name="Path 36" d="M.708.558A.287.287,0,0,0,.787.114.479.479,0,0,0,.372.007.145.145,0,0,0,.3.005.423.423,0,0,0,.248.018.283.283,0,0,0,.014.249C.007.282.005.316,0,.347l.007,0a.257.257,0,0,0,.241.3l.007,0A.429.429,0,0,0,.32.64v0A2.2,2.2,0,0,0,.708.558Z" transform="translate(1.829 11.818)" fill="#f79744"/>
        <path id="Path_37" data-name="Path 37" d="M1.142.28,1.1.262a.24.24,0,0,0-.038-.03.548.548,0,0,0,.077.037A.353.353,0,0,0,.919.122l0-.009A1.118,1.118,0,0,0,.345,0,.353.353,0,0,0,.115.618C.1.793.15.955.363,1A.453.453,0,0,0,.73.88a.454.454,0,0,0,.2-.064A.3.3,0,0,0,1.211.487.22.22,0,0,0,1.185.369.276.276,0,0,0,1.142.28Z" transform="translate(2.302 17.26)" fill="#f79744"/>
        <path id="Path_38" data-name="Path 38" d="M.409.507a.256.256,0,0,0,0-.447C.393.051.378.044.362.033.153-.1-.1.194.041.393A.321.321,0,0,0,.112.482.215.215,0,0,0,.409.507Z" transform="translate(1.538 16.352)" fill="#f79744"/>
        <path id="Path_39" data-name="Path 39" d="M.631.284C.563.107.44-.029.236.005A.272.272,0,0,0,.011.247L0,.3A.288.288,0,0,0,.313.6.249.249,0,0,0,.631.284Z" transform="translate(0.81 15.375)" fill="#f79744"/>
        <path id="Path_40" data-name="Path 40" d="M.564.11A.273.273,0,0,0,.192.047.5.5,0,0,0,.042.2.293.293,0,0,0,.074.546C.085.559.1.559.11.57A.641.641,0,0,0,.539.865.25.25,0,0,0,.806.491C.715.369.648.23.564.11Z" transform="translate(5.28 18.88)" fill="#f79744"/>
        <path id="Path_41" data-name="Path 41" d="M.635.39C.722.069.249-.171.079.156A.681.681,0,0,0,.027.348.223.223,0,0,0,0,.473a.477.477,0,0,0,.206.3C.345.9.626.839.612.612a.5.5,0,0,1,0-.136A.355.355,0,0,0,.647.385Z" transform="translate(3.924 18.998)" fill="#f79744"/>
        <path id="Path_42" data-name="Path 42" d="M.331.053A.265.265,0,0,0,.279.1.272.272,0,0,0,.005.417.141.141,0,0,1,.012.466.28.28,0,0,0,.272.689.492.492,0,0,0,.654.582.19.19,0,0,0,.74.442.356.356,0,0,0,.6.037.228.228,0,0,0,.331.053Z" transform="translate(1.469 19.518)" fill="#f79744"/>
        <path id="Path_43" data-name="Path 43" d="M.8.342a.2.2,0,0,0-.1-.27c-.257-.088-.37-.111-.5.02a.145.145,0,0,0-.154.19.259.259,0,0,0,.055.34A.4.4,0,0,0,.639.646.2.2,0,0,0,.686.54.771.771,0,0,0,.8.342Z" transform="translate(0.898 17.392)" fill="#f79744"/>
        <path id="Path_44" data-name="Path 44" d="M.016.423A.163.163,0,0,0,.039.464a.317.317,0,0,0,.111.3A.481.481,0,0,0,.736.691.232.232,0,0,0,.806.6.113.113,0,0,0,.833.579l0-.013A.129.129,0,0,0,.845.527a.28.28,0,0,0-.054-.3L.779.212h0C.757.2.747.182.733.174L.718.164A.143.143,0,0,0,.661.144C.744.139.571.071.491.033A.378.378,0,0,0,.132.06.31.31,0,0,0,.016.423Z" transform="translate(15.82 6.136)" fill="#f79744"/>
        <path id="Path_45" data-name="Path 45" d="M0,.254A.609.609,0,0,0,.078.608.234.234,0,0,0,.305.751a.253.253,0,0,0,.35-.34A.615.615,0,0,1,.59.272L.583.263A.992.992,0,0,1,.529.16.278.278,0,0,0,0,.254Z" transform="translate(17.114 5.188)" fill="#f79744"/>
        <path id="Path_46" data-name="Path 46" d="M.944.242a.754.754,0,0,0-.211-.2A.294.294,0,0,0,.42.049.586.586,0,0,0,.1.916a.313.313,0,0,0,.184.175.143.143,0,0,1-.012.039c-.05.283.388.427.493.148C.8,1.19.868,1.111.9,1.022A.393.393,0,0,0,1.131.837L1.14.825A.348.348,0,0,0,1.051.389C1.112.419,1,.323.944.242Z" transform="translate(12.53 19.35)" fill="#f79744"/>
        <path id="Path_47" data-name="Path 47" d="M.654.418a.656.656,0,0,1-.1-.234A.231.231,0,0,0,.227.028.352.352,0,0,0,.344.709.173.173,0,0,0,.482.679H.489A.18.18,0,0,0,.654.418Z" transform="translate(10.756 19.504)" fill="#f79744"/>
        <path id="Path_48" data-name="Path 48" d="M.166.706A.541.541,0,0,0,.672.456C.824.2.475-.01.279,0A.237.237,0,0,0,.044.247.221.221,0,0,0,0,.41L.044.365A.227.227,0,0,0,.166.706Z" transform="translate(12.977 18.31)" fill="#f79744"/>
        <path id="Path_49" data-name="Path 49" d="M.43.748a.509.509,0,0,1,.057,0A.087.087,0,0,0,.563.68.5.5,0,0,0,.581.63.054.054,0,0,0,.591.6.5.5,0,0,0,.758.369.292.292,0,0,0,.572.01.519.519,0,0,0,.108.169a.293.293,0,0,0-.077.22A.281.281,0,0,0,.43.748Z" transform="translate(15.304 17.363)" fill="#f79744"/>
        <path id="Path_50" data-name="Path 50" d="M.219.546C.224.548.23.555.24.557s.018,0,.029.009S.289.579.3.584L.307.579A.214.214,0,0,0,.544.473C.555.459.569.451.582.437a.238.238,0,0,0-.1-.4A.123.123,0,0,0,.442.03.181.181,0,0,0,.317,0C.058-.011-.137.342.122.493l.043.02C.176.53.2.535.219.546Z" transform="translate(15.28 15.753)" fill="#f79744"/>
        <path id="Path_51" data-name="Path 51" d="M.549,0C.111-.038.009.327.018.679A.477.477,0,0,0,.1,1.092l.016.02a.951.951,0,0,0,.767.424c.413-.023.456-.438.354-.751C1.151.511.871.037.549,0Z" transform="translate(16.007 14.627)" fill="#f79744"/>
        <path id="Path_52" data-name="Path 52" d="M.688.312A.25.25,0,0,0,.516.04C.5.035.47.046.45.044A.237.237,0,0,0,.114.108.437.437,0,0,0,.231.793.256.256,0,0,0,.336.8.279.279,0,0,0,.774.48.686.686,0,0,0,.688.312Z" transform="translate(17.55 13.001)" fill="#f79744"/>
        <path id="Path_53" data-name="Path 53" d="M.082.852A.34.34,0,0,0,.552,1a.641.641,0,0,0,.4-.343A.271.271,0,0,0,.842.333C.715.253.658.1.517.027A.312.312,0,0,0,.193.07.638.638,0,0,0,.082.852Z" transform="translate(17.224 11.197)" fill="#f79744"/>
        <path id="Path_54" data-name="Path 54" d="M.386.033A.245.245,0,0,0,.03.2.389.389,0,0,0,.123.641a.186.186,0,0,0,.264,0C.409.619.422.6.445.578A.237.237,0,0,0,.556.14C.5.106.449.069.386.033Z" transform="translate(18.206 10.23)" fill="#f79744"/>
        <path id="Path_55" data-name="Path 55" d="M.53.079A.229.229,0,0,0,.312.006a.379.379,0,0,0-.17.1C.137.1.119.1.09.128A.23.23,0,0,0,.017.235a.2.2,0,0,0,.03.213A.579.579,0,0,0,.316.6.218.218,0,0,0,.611.414.571.571,0,0,0,.53.079Z" transform="translate(19.644 10.244)" fill="#f79744"/>
        <path id="Path_56" data-name="Path 56" d="M.624.167A.135.135,0,0,0,.558.14L.436.063A.264.264,0,0,0,.011.215.558.558,0,0,0,.205.771.21.21,0,0,0,.459.778.333.333,0,0,0,.567.631.165.165,0,0,0,.651.594C.663.583.663.571.674.56S.708.526.713.492.722.424.729.39A.222.222,0,0,0,.642.2C.635.192.633.175.624.167Z" transform="translate(18.61 9.018)" fill="#f79744"/>
        <path id="Path_57" data-name="Path 57" d="M.556.162.549.139A.191.191,0,0,0,.354,0C.314.007.273.01.236.014A.277.277,0,0,0,0,.321.473.473,0,0,0,.468.74.172.172,0,0,0,.672.65.329.329,0,0,0,.74.593.272.272,0,0,0,.783.273.325.325,0,0,0,.556.162Z" transform="translate(11.346 21.305)" fill="#f79744"/>
        <path id="Path_58" data-name="Path 58" d="M.43.12A.228.228,0,0,0,0,.2.334.334,0,0,0,.272.58a.227.227,0,0,0,.2-.4A.255.255,0,0,1,.43.12Z" transform="translate(7.816 21.472)" fill="#f79744"/>
        <path id="Path_59" data-name="Path 59" d="M.985.212A.515.515,0,0,0,.47.006C.216.04.089.284.034.519l0,.013A1.033,1.033,0,0,0,0,.693a.332.332,0,0,0,.377.361A1.3,1.3,0,0,0,.735,1a1.1,1.1,0,0,0,.32-.329A.34.34,0,0,0,.992.224Z" transform="translate(6.644 19.521)" fill="#f79744"/>
        <path id="Path_60" data-name="Path 60" d="M0,.321A.476.476,0,0,0,.156.652c.007.03.014.055.02.091C.2,1.088.71,1,.678.7h0A1,1,0,0,0,.488.11C.315-.135-.014.071,0,.321Z" transform="translate(12.902 21.552)" fill="#f79744"/>
        <path id="Path_61" data-name="Path 61" d="M.218.025.131.066a.234.234,0,0,0-.07.361L.086.45A.229.229,0,0,0,.345.5C.638.45.51-.125.218.025Z" transform="translate(15.039 21.149)" fill="#f79744"/>
        <path id="Path_62" data-name="Path 62" d="M.447.039A.3.3,0,0,0,0,.289C0,.344.007.4.007.461A.329.329,0,0,0,.193.716a.519.519,0,0,0,.36.02A.151.151,0,0,0,.587.722a.714.714,0,0,0,.1.025.266.266,0,0,0,.2-.469C.744.175.6.13.447.039Z" transform="translate(15.424 19.216)" fill="#f79744"/>
        <path id="Path_63" data-name="Path 63" d="M.363.739A.223.223,0,0,0,.587.464,1.035,1.035,0,0,0,.526.169.25.25,0,0,0,.045.194a.547.547,0,0,0-.015.4A.259.259,0,0,0,.363.739Z" transform="translate(14.199 0.111)" fill="#f79744"/>
        <path id="Path_64" data-name="Path 64" d="M.054.789A.266.266,0,0,0,.518,1a.736.736,0,0,0,.2-.8A.365.365,0,0,0,.077.17a.287.287,0,0,0,.01.4A1.44,1.44,0,0,0,.054.789Z" transform="translate(16.747 4.184)" fill="#f79744"/>
      </g>
      <path id="Path_65" data-name="Path 65" d="M6.69,2.46a3.245,3.245,0,0,0,0-.744A2.223,2.223,0,0,0,5.177.124,2.195,2.195,0,0,0,3.422.277,2.871,2.871,0,0,0,1.9.807a2.241,2.241,0,0,0-1.23.569A2.19,2.19,0,0,0,.094,3.6a2.022,2.022,0,0,0-.059.545A2.651,2.651,0,0,0,2.564,6.667l.134.141a2.236,2.236,0,0,0,3.829-1.45l.031-.636A2.482,2.482,0,0,0,6.69,2.46Z" transform="translate(55.909 51.584)" fill="#b97d4f"/>
    </g>
    <g id="Group_213" data-name="Group 213" transform="translate(-213.112 3694.414)">
      <g id="Group_107-2" data-name="Group 107">
        <path id="Path_1-2" data-name="Path 1" d="M89.757,206.472c12.633,4.309,26.828-1.425,37.01-8.731,15.491-11.129,35.742-16.819,38.582-38.079.853-6.247,20.9-14.822,25.89-20.13,4.309-4.57,6.69-11.738,7.524-17.87,2.2-16.542-4.979-30.1-15.289-42.51-19.237-23.109-49.557-37.479-77.609-49.468C88.75,16.81,69.811,6.185,49.552,1.885c-86.487-18.392-37.063,103.08-19.861,136.528C42.975,164.223,60.637,196.534,89.757,206.472Z" transform="translate(330.705 282.522)" fill="#f5a2b2"/>
        <path id="Path_2-2" data-name="Path 2" d="M48.05,231.7C86.4,245.084,130.089,234.91,156.7,200.594c26.907-34.716,16.985-85.07,3.258-125.938-1.007-3.31-2.155-6.594-3.423-9.817-1.024-2.841-2.067-5.63-3.093-8.333a13.772,13.772,0,0,0-2.9-4.708c-12.232-23.2-30.919-41.623-51-47.452C84.746-2.6,67.962-1.814,50.325,11.018,17.608,34.892,5.463,94.056.928,134.758-3.781,177.006,9.05,218.134,48.05,231.7Z" transform="translate(210.907 308.947)" fill="#f5a2b2"/>
        <path id="Path_3-2" data-name="Path 3" d="M7.562,29.987c-19.538,32.631,2.414,60.441,24.709,82.707,0,18.341,10.156,35.516,25.133,50.4,1.956,11,3.961,22.023,9.218,31.519,9.053,16.368,26.385,28.852,43.961,34.646,28.8,9.5,59.345-3.031,86.739-16.541,11.154-8.366,22.787-16.272,33.882-24.725,9.982-12.285,17.757-27.688,24.776-43.813,17.288-39.721,33.614-88.224-3.658-122.019C225.756-1.888,181.161-.924,147.9.744c-9.835.486-19.582,1.442-29.323,2.641a274.958,274.958,0,0,0-38.382.521C53.816,2,22.211,5.479,7.562,29.987Z" transform="translate(12.561 247.173)" fill="#f5a2b2"/>
        <path id="Path_4-2" data-name="Path 4" d="M95.716,14.152c-29.5-22.527-58.842-19.409-66.469,18.4-1.427,6.967-2,18.47-8.193,23.074-5.448,4.041-11.026,3.71-15.413,9.791C-.5,73.871-1,84.124,1.167,94.184a34.685,34.685,0,0,0,3.214,10.659,105.992,105.992,0,0,0,7.447,15.326c10.25,17.645,32.074,30.85,55.2,37.757,23.927,11.789,50.641,19.339,76.034,19.93,39.668.946,41.059-30.616,27.046-58.278-7.368-14.508-16.856-28.018-26.115-41.354C128.061,55.236,118.747,31.736,95.716,14.152Z" transform="translate(84.219 98.358)" fill="#f5a2b2"/>
        <path id="Path_5-2" data-name="Path 5" d="M247.709,177.227c7.81-35.472-4.683-84.975-18.835-118.232C213.462,22.845,179.9-.829,142.656.022,103.823.891,70.471,35.469,45.275,61.4a12.329,12.329,0,0,0-3.441,7.211C26.414,81.87,12.739,98.228,7.24,117.264c-1.06,1.016-2.155,2.041-3.171,3.1-4.883,5.2-6.2,14.518.729,19.461,1.712,25.812,19.27,46.7,43.117,59.076,37.889,19.67,75.793,21.068,116.269,17.533C190.994,214.106,240.229,211.013,247.709,177.227Z" transform="translate(280.909 142.704)" fill="#f5a2b2"/>
        <path id="Path_6-2" data-name="Path 6" d="M206.727,51.748c-14.995-10.547-27.809-4.048-41.319.93-17.809,6.5-30.495-21.842-45.038-33.987-20.963-17.5-41.5,4.951-61.718-8.654-76.678-51.657-66.791,109.987-34.534,168.3A266.9,266.9,0,0,0,36.577,212.75c3.78,37.34,29.478,66.149,58.547,66.948,22.832.616,41.909-18.887,55.854-43.022,5.134-5.673,9.931-11.564,14.361-17.21,11.867-15.047,20.476-33.778,31.78-49.295,12.076-16.6,27.948-37.418,29.174-63.5C227.16,88.22,221.835,62.382,206.727,51.748Z" transform="translate(202.833)" fill="#f5a2b2"/>
        <g id="Group_102-2" data-name="Group 102" transform="translate(199.248 24.884)">
          <path id="Path_7-2" data-name="Path 7" d="M47.173,197.413c-24.562-36.8-44.882-82-46.045-126.824-.946-36.4,45.766-95.782,78.519-52.613a.911.911,0,0,0,1.408.191c24.691-20.972,91.125-28.252,93.837,16.62a.9.9,0,0,0,1.346.765c22.831-12.693,46.731-13.857,55.332,14.681,6.289,20.956,2.493,45.541-3.579,66.062-9.191,31.076-35.959,54.629-61.778,72.43-30.911,21.319-67.382,33.4-103.4,42.8a.893.893,0,0,0,.477,1.72c65-16.977,148.551-50.52,168.074-122.342,8.625-31.7,9.4-100.5-41.528-83.8-2.2.73-12.928,6.794-13.414,3.77a35.735,35.735,0,0,0-5.76-15.116C164.552,6.569,152.72,2.773,142.5.956,130.488-1.18,117.839.522,106.144,3.511A80.827,80.827,0,0,0,89.959,9.862c-7.628,3.84-8.235,7.142-14.83-.1C55.894-11.371,29.9,7.081,16.427,24.344-4.284,50.9-2.4,80.624,5.715,111.665c8,30.6,22.4,60.4,39.92,86.652.626.947,2.164.052,1.539-.9Z" fill="#f071a0"/>
        </g>
        <g id="Group_103-2" data-name="Group 103" transform="translate(278.464 120.924)">
          <path id="Path_8-2" data-name="Path 8" d="M1.8,160.72C30.267,90.357,84.93,9.179,167.5,2.09c69.408-5.96,140.977,89.571,85.323,145.668a.914.914,0,0,0,0,1.25c44,46.045-38.234,83.246-75.541,87.964-61.092,7.706-114.93-36.419-144-85.913a.89.89,0,0,0-1.537.895c36.34,61.9,104.929,104.844,176.847,78.911,22.78-8.218,50.581-23.283,58.173-48.069,3.111-10.156-1.078-20.216-6.821-28.435-5.22-7.481-1.285-9.122,3.19-15.568a75.4,75.4,0,0,0,10.59-21.659c17.07-56.2-47.932-113.08-98.963-116.859C99-5.321,40.552,75.962,11.267,134.97c-4.1,8.253-7.742,16.732-11.2,25.272-.426,1.077,1.294,1.538,1.729.478Z" fill="#f071a0"/>
        </g>
        <g id="Group_104-2" data-name="Group 104" transform="translate(36.267 89.778)">
          <path id="Path_9-2" data-name="Path 9" d="M225.869,190.823c1.781-25.595-10.686-50.92-22.319-72.917a381.16,381.16,0,0,0-54.907-77.938c-18.6-20.4-44.932-42-74.106-39.816-22.3,1.642-37.566,23.64-34.291,44.516C41.091,50,43.9,54.92,46.667,59.429c3,4.891,9.834,8.306.756,10.608-12.337,3.127-23.11,10.686-31.79,19.747A56.759,56.759,0,0,0,4.714,151.615c11.355,26.28,42.5,36.888,68.9,36.514,33.752-.495,67.582-18.27,93.922-38.1.9-.677.018-2.233-.9-1.537C128.4,177.288,70.811,202.69,26.148,173.352-22.244,141.563,8.441,78.829,56.6,69.837a.9.9,0,0,0,.4-1.485C45.061,57.005,38.24,43.044,43.088,26.537,49.335,5.217,75.319-.968,94.015,3.793c25.889,6.594,47.08,29.452,63.7,49.25a404.261,404.261,0,0,1,44.3,65.767c11.72,21.415,23.831,46.957,22.076,72.013-.087,1.137,1.7,1.137,1.781,0Z" fill="#f071a0"/>
        </g>
        <g id="Group_105-2" data-name="Group 105" transform="translate(0 247.608)">
          <path id="Path_10-2" data-name="Path 10" d="M198.847,53.3C189,5.513,124.463-3.192,84.777.891,40.244,5.487-16.9,40.472,4.719,93.572c4.754,11.641,16.62,24.048,27.375,30.033,4.007,2.233,8.541,3.779,12.7,5.691,10.095,4.6,7.644,16.507,8.1,24.56.26,4.431,4.327,10.226,6.333,14.039,11.537,21.945,26.151,48.677,48.747,60.928a21.59,21.59,0,0,0,20.59.138c3.971-1.981,6.846-5.812,9.479-9.235,5.212-6.777,7.045,5.569,10.633,10.668,12.919,18.314,37.036,3.345,49.434-6.932,20.86-17.324,32.214-39.487,38.825-65.228,10.061-39.3,13.682-81.005,6.786-121.107-.192-1.13-1.911-.652-1.72.477,4.865,28.243,4.075,56.436.191,84.74-2.963,21.7-6.967,45.976-17.306,65.523-14.69,27.8-67.321,78.633-82.481,23.979a.9.9,0,0,0-1.625-.208c-27.88,50.667-69.25-23.77-82.446-49.295-4.231-8.2-3.571-15.925-4.076-24.577-.1-1.85-.608-4.475-2.059-5.656-9.191-7.489-20.694-9.583-29.425-18.088C1.955,93.781-3.447,67.144,11.252,41.445,30.243,8.294,77.245.4,111.856,1.873c33.058,1.416,77.635,14.839,85.28,51.9.226,1.121,1.938.643,1.711-.469Z" fill="#f071a0"/>
        </g>
        <g id="Group_106-2" data-name="Group 106" transform="translate(209.311 306.304)">
          <path id="Path_11-2" data-name="Path 11" d="M60.073,10.413C7.78,62.548-21.671,152.371,19.187,219.422c30.259,49.676,95.512,44.1,119.248-7.758,5.934-12.945,7.576-27.4,7.419-41.484-.034-2.745-2.259-3.692.391-.583a50.243,50.243,0,0,0,5.213,5.317c4.353,3.9,9.618,6.724,14.873,9.166,15.438,7.15,28.731,3.128,24.692-15.455,2.232,10.3,21.926,19.191,30.98,21.737,11.45,3.232,23.466-.1,33.665-5.378,24.361-12.571,38.531-41.484,42.023-67.5C303.85,71.592,265.025,35.06,227.1,17.554,184.394-2.15,131.286-5.53,86.509,8.753c-1.085.356-.616,2.085.478,1.72C149.122-9.352,231.82,3.966,275.529,55.258c25.7,30.165,26.1,69.8,5.6,102.681-8.932,14.326-22.607,25.854-38.921,30.529-21.521,6.159-40.234-8.279-52.656-24.256-.565-.721-1.737.07-1.494.877,10.442,33.839-33.335,17.271-42.579-.043a.894.894,0,0,0-1.66.443c1.643,31.171-8.574,62.056-35.984,79.258-27.237,17.107-59.346,6.62-79.449-15.838C-27.109,166.957,9.753,63.1,61.331,11.681c.817-.808-.452-2.068-1.259-1.268Z" fill="#f071a0"/>
        </g>
        <path id="Path_12-2" data-name="Path 12" d="M111.124,19.06C102.3,9.694,88.327-1.409,72.689.147,60.379,1.389,53.011,8.652,48.39,17.6c-9.166-5.135-20.025-7.758-30.711-1.129C3.673,25.141.911,41.422.156,54.706c-2.781,49.224,32,85.062,71.317,111.377a11.25,11.25,0,0,0,11.086.851c27.055,12.172,48.564-25.942,51.736-49.9C139.046,81.056,136.057,45.445,111.124,19.06Z" transform="translate(147.373 129.643)" fill="#f5a2b2" opacity="0.4" style="mix-blend-mode: multiply;isolation: isolate"/>
        <path id="Path_13-2" data-name="Path 13" d="M118.616,131.491c12.7-2.1,29.694-7.455,37.156-21.276,5.873-10.921,3.988-21.077-.851-29.921,9.384-4.726,17.636-12.241,18.122-24.821.634-16.446-11.32-27.853-21.893-35.907C111.9-10.294,62.762-1.519,18.914,16.352a11.3,11.3,0,0,0-6.9,8.706C-13.2,40.669,6.344,79.824,24.44,95.862,51.59,119.945,82.795,137.39,118.616,131.491Z" transform="translate(257.975 243.094)" fill="#f5a2b2" opacity="0.4" style="mix-blend-mode: multiply;isolation: isolate"/>
        <path id="Path_14-2" data-name="Path 14" d="M7.146,65.77c-15.6,28.548-4.771,55.523,23.907,54.125,6.117,22.423,24.578,33.908,49.1,19.391,32.118-19,47.965-64.142,53.838-98.71,1.137-6.8-2.605-11.025-7.549-12.6-.182-.113-.375-.235-.565-.348a102.915,102.915,0,0,0,1.252-13.77c.191-8.479-6.752-15.038-15.308-13.682C74.171,6.112,25.929,31.428,7.146,65.77Z" transform="translate(155.283 277.747)" fill="#f5a2b2" opacity="0.4" style="mix-blend-mode: multiply;isolation: isolate"/>
        <path id="Path_15-2" data-name="Path 15" d="M4.46,23.719C-8.319,49.114,8.24,79.46,30.367,92.127c30.6,17.5,70.736,7.359,103.87,13.448,9.279,1.694,14.752-5.707,14.814-13.023,6.837-3.8,12.205-10.174,11.322-18.331-1.931-17.966-15.745-30.155-29.156-40.9C102.128,10.019,28.021-23.177,4.46,23.719Z" transform="translate(107.396 215.988)" fill="#f5a2b2" opacity="0.4" style="mix-blend-mode: multiply;isolation: isolate"/>
        <path id="Path_16-2" data-name="Path 16" d="M91.654,14.417C85.278,3.765,72.107-2.047,60.231,2.045a24.625,24.625,0,0,0-7.758,4.509C43.516-1.83,30.9-3.376,16.218,9.1c-27.5,23.4-13.682,67.043-4.535,99.97a13.941,13.941,0,0,0-.146,4.536c1.989,15.985,4.3,31.059,12.275,45.227a13.15,13.15,0,0,0,20.234,3.528,24.834,24.834,0,0,0,8.383-12.233,10.732,10.732,0,0,0,2.13-2.91C72.212,112.84,115.355,53.963,91.654,14.417Z" transform="translate(239.029 125.799)" fill="#f5a2b2" opacity="0.4" style="mix-blend-mode: multiply;isolation: isolate"/>
        <path id="Path_17-2" data-name="Path 17" d="M17.622,143.819a29.2,29.2,0,0,0,33.368.321,24.734,24.734,0,0,0,6.039-6.186c10.92,4.127,23.336,1.417,33.657-13.57,19.4-28.062-6.23-59.859-24.334-84.219a12.4,12.4,0,0,0-1.2-3.823c-6.473-12.6-13-24.335-24.63-33.561C34.379-2.091,24.937-.328,20.332,6.248c-3.2,4.6-4.438,8.523-4.438,12.771a10.143,10.143,0,0,0-1.182,3.1C7.821,56.186-16.191,118.573,17.622,143.819Z" transform="translate(249.606 280.999)" fill="#f5a2b2" opacity="0.4" style="mix-blend-mode: multiply;isolation: isolate"/>
        <path id="Path_18-2" data-name="Path 18" d="M138.152,17.407c-11.824-9.243-25.734-8.748-38.2-3.292C92.88-.133,77.694-4.6,57.965,5.384,36.339,16.321,27.323,34.618,20.91,54.712A166.752,166.752,0,0,0,2.544,109.237c-.268.539-.529,1.078-.824,1.6a12.442,12.442,0,0,0-.33,12.024A71.294,71.294,0,0,0,2.936,140.73a13.111,13.111,0,0,0,15.594,9.661c22.971-5.256,41.962-20.234,59.8-34.925,19.06-15.716,39.9-32.2,57.25-49.633C148.091,53.236,154.172,29.978,138.152,17.407Z" transform="translate(281.243 162.998)" fill="#f5a2b2" opacity="0.4" style="mix-blend-mode: multiply;isolation: isolate"/>
      </g>
      <g id="Group_108-2" data-name="Group 108" transform="translate(242.895 220.47)">
        <path id="Path_19-2" data-name="Path 19" d="M.088,0,0,.087.053.052Z" transform="translate(28.678 83.475)" fill="#f79744"/>
        <path id="Path_20-2" data-name="Path 20" d="M61.528,69.256a2.117,2.117,0,0,0,1.251-3.44c-1.033-1.19-1.981-2.388-2.893-3.614a15.034,15.034,0,0,0,7.464,2.5,2.3,2.3,0,0,0,2.18-2.589,34.5,34.5,0,0,0,5.49.677c2.406.1,2.91-3.319,1-4.353-2.2-1.207-4.439-2.328-6.69-3.4a.93.93,0,0,0-.711-.869c-.774-.209-1.66-.6-2.495-.774a1.566,1.566,0,0,0-.172-.468,25.222,25.222,0,0,0,7.281-.79c1.841-.5,2.337-3.406.433-4.24-.295-.139-.626-.225-.938-.365a9.219,9.219,0,0,0,1.2-1.13,2.257,2.257,0,0,0-.861-3.64,2.307,2.307,0,0,0,.6-.564,1.611,1.611,0,0,0,1.677-.347,3.145,3.145,0,0,0,2.642-2.616A3.406,3.406,0,0,0,73.9,35.547a3.294,3.294,0,0,0-2.606,2.685,1.342,1.342,0,0,0,0,.374c-.383.009-.764.009-1.113.026a2.423,2.423,0,0,0-.166-2.78,1.686,1.686,0,0,0,.044-.505c.513-.252,1.025-.494,1.556-.729a1.669,1.669,0,0,0,.841-.973c2.043-.556,1.182-3.944-1.163-3.727a23.807,23.807,0,0,0-2.849.487c-.487.113-.99.217-1.486.348-.347.017-.73.112-1.094.156a2.5,2.5,0,0,0-.956-2.78.313.313,0,0,0-.141-.052,136.98,136.98,0,0,0,6.682-12.058c1.051-1.955-1.224-3.51-2.919-2.642a35.658,35.658,0,0,0-7.489,5.274,22.276,22.276,0,0,0,0-3.961,1.573,1.573,0,0,0,1.477-.825,3.675,3.675,0,0,1,.391-.287.971.971,0,0,0-.088-1.641,9.413,9.413,0,0,0-1.911-.479c-.772-.242-1.442.574-1.442,1.27a2.119,2.119,0,0,0-.86.139A7.287,7.287,0,0,0,55.254,16a1.355,1.355,0,0,0-.669.156.238.238,0,0,0-.06-.156v-.5A1.616,1.616,0,0,0,52.7,14.158a.362.362,0,0,0-.139.044.54.54,0,0,0-.191-.053,3.377,3.377,0,0,0-2.693-1.373,1.187,1.187,0,0,0-1,.53,13.5,13.5,0,0,0-1.261,2.4,5.5,5.5,0,0,0-.66-.364,45.17,45.17,0,0,1,1.451-4.865A1.881,1.881,0,0,0,45.23,8.4a1.807,1.807,0,0,0-.418-.868c-.042-.157-.061-.322-.1-.46a2.424,2.424,0,0,0-2.762-1.052A16.933,16.933,0,0,0,40.59,1.083c-.608-1.4-2.954-1.511-3.441.07-.59,1.911-1.086,3.866-1.484,5.838-.27-.034-.478-.069-.73-.087a.758.758,0,0,0-.445-.278,2.133,2.133,0,0,0-1.684.46,12.389,12.389,0,0,0-1.842-3.675c-.044-.347-.086-.7-.148-1.042A1.6,1.6,0,0,0,29.06,1.083,1.894,1.894,0,0,0,26.35,1.4c-2.831,3.58-2.58,8.645-1.8,13.318a4.548,4.548,0,0,0-1.451.356l-.018-.052c-.652-1.2-1.98-.911-2.737-.095a23.654,23.654,0,0,0-2.216-2.571,3.1,3.1,0,0,0,.782.13,1.762,1.762,0,0,0,1.365.4,2.624,2.624,0,0,0,2.1-1.963c.607-1.842-.087-4.77-2.485-4.344A4.513,4.513,0,0,0,16.681,10.2a2.216,2.216,0,0,0,.365,1.407A1.841,1.841,0,0,0,14.91,13.3a17.714,17.714,0,0,0,.477,5.916,11.351,11.351,0,0,0-4.849-1.659A1.393,1.393,0,0,0,9.1,19.223c.226.625.451,1.217.7,1.8a1.6,1.6,0,0,0-.677.235c-.158.069-.322.147-.479.225A1.732,1.732,0,0,0,7.333,23.02c-.008.139-.008.3-.025.451A1.713,1.713,0,0,0,8.5,25.131l.077.017a1.039,1.039,0,0,0,1.3.365c.078.018.14,0,.209.018a1.317,1.317,0,0,0,.608.034A2.122,2.122,0,0,0,9.575,27.39a3.238,3.238,0,0,0,.087.651,14.99,14.99,0,0,0-3.5-.739,3.39,3.39,0,0,0-2.493-1.564,5.1,5.1,0,0,0-2.52.642,2.128,2.128,0,0,0-.624,2.85,4.59,4.59,0,0,0,.955.93c.035.182.069.382.1.582a1.634,1.634,0,0,0,2.286,1.182c.1-.061.216-.148.339-.226.2.278.469.513.685.765a3.661,3.661,0,0,0-2.023,2.546,3.014,3.014,0,0,0,.383,2.1,12.671,12.671,0,0,0-1.92.609,1.959,1.959,0,0,0-.183,3.362A16.883,16.883,0,0,0,6.785,43.54a3.129,3.129,0,0,0-.408.547c-1.494,3.388,1.651,6.871,4.97,7.063C6.638,53.792,2.294,57.137.2,60.933a1.743,1.743,0,0,0,.782,2.389C4.5,64.721,7.707,63.67,11,61.845c.4-.226.782-.461,1.182-.7a28.266,28.266,0,0,0,3.371-1.659l-.886.773a1.7,1.7,0,0,0-1.251,2.519,3.279,3.279,0,0,1,.486.912,1.929,1.929,0,0,0,.687,1.251,2.1,2.1,0,0,0-.121,1.868,2.034,2.034,0,0,0-.288.174c-.972.9-.615,2.529-.043,3.519a1.454,1.454,0,0,0,1.721.547c.061,0,.086.017.139,0l-.027.087c-1.07,1.746-2.833,4.361-2.12,6.525,1.2,3.666,5.326.694,8.609-2.364a7.344,7.344,0,0,0-.052.774c-.025.2.078.338.1.5-.165.157-.288.331-.443.5l-.088.078c.079-.026.139-.069.243-.1a.859.859,0,0,0-.278.156c-.148.139-.166.13-.052.034-1.434.877-.547,3.11.956,3.405-.678-.121-.087.2.217.53A2.083,2.083,0,0,0,22.58,82.6l-.008.3a5.645,5.645,0,0,1-.026.765,1.56,1.56,0,0,0,1.719,1.781c.313-.043.653-.113.974-.182a6.214,6.214,0,0,0,1.111.973,1.316,1.316,0,0,0,1.99-.756v.174a1.266,1.266,0,0,0,.121-.973,1.189,1.189,0,0,0-.164-.53c-.156-.286-.347-.546-.538-.851A2.2,2.2,0,0,0,27.6,81.6c.13-.1.251-.158.372-.252a2.417,2.417,0,0,0,.287-.331c.2,1.39.409,2.841.765,4.483a1.98,1.98,0,0,0,3.8.122c.034-.165.077-.33.13-.5a19.642,19.642,0,0,0,2.736,9.427c.139.582.27,1.163.46,1.737a2.031,2.031,0,0,0,2.893,1.26c3.711-2.129,4.519-7.2,4.745-12.242.182.07.294.166.477.218a1.64,1.64,0,0,0,1.9-.608,4.919,4.919,0,0,0,.392-.843,9.883,9.883,0,0,0,2.311,3.04,1.739,1.739,0,0,0,2.885-.738,21.752,21.752,0,0,0,.738-5.117c.087.06.123.156.209.217a1.77,1.77,0,0,0,1.443.452,1.787,1.787,0,0,0,1.11.356,2.634,2.634,0,0,0,.792.347,1.171,1.171,0,0,0,1.459-1.068l.017-.122a1.975,1.975,0,0,0,1.616-2.806c-.043-.122-.094-.226-.139-.365,1.347,2.285,2.677,4.587,3.9,6.959,1.026,1.964,4.544,1.025,4.266-1.242A37.328,37.328,0,0,0,61.528,69.256Z" transform="translate(6.783 6.313)" fill="#f79744"/>
        <path id="Path_21-2" data-name="Path 21" d="M.762,4.043a.932.932,0,0,0,1.545.391l.243-.322A1.28,1.28,0,0,0,3.627,3a3.41,3.41,0,0,0-.008-.418,4.2,4.2,0,0,0,.33-.652A1,1,0,0,0,3.184.793,5.5,5.5,0,0,1,1.864.107,1.271,1.271,0,0,0,.2.706,2.4,2.4,0,0,0,.674,3.34,4.55,4.55,0,0,0,.762,4.043Z" transform="translate(60.852 13.301)" fill="#f79744"/>
        <path id="Path_22-2" data-name="Path 22" d="M.048,2.528.388,3.823A1.358,1.358,0,0,0,.8,4.466a1.02,1.02,0,0,0,1.546.678c.608-.375,1.233-.748,1.834-1.19a1.08,1.08,0,0,0,.051-1.59,3.1,3.1,0,0,0,.3-.565A1.438,1.438,0,0,0,2.428.174a3.683,3.683,0,0,0-.817.582A1.478,1.478,0,0,0,.048,2.528Z" transform="translate(54.258 6.57)" fill="#f79744"/>
        <path id="Path_23-2" data-name="Path 23" d="M4.536,5.188a1.23,1.23,0,0,0,.573-.982,1.9,1.9,0,0,0,.3-.764C5.631,1.73,3.928,1.2,2.868.341A1.556,1.556,0,0,0,.478.87C.01,2.2-.356,3.842.591,5.049,1.6,6.379,3.336,5.961,4.536,5.188Z" transform="translate(61.95 4.632)" fill="#f79744"/>
        <path id="Path_24-2" data-name="Path 24" d="M.8,4.078a.8.8,0,0,0,.148.1c.069,1.164.329,1.78,1.852,2.355a1.149,1.149,0,0,0,1.119-.321c.851-.982,1.841-2.242,1.433-3.6a2.133,2.133,0,0,0-.729-1.069,5.734,5.734,0,0,0-.547-.9A1.583,1.583,0,0,0,1.594.559L1.551.672a1.265,1.265,0,0,0-.426.243A1.488,1.488,0,0,0,.117,1.984,3.979,3.979,0,0,0,0,2.844,1.452,1.452,0,0,0,.8,4.078Z" transform="translate(10.299 21.397)" fill="#f79744"/>
        <path id="Path_25-2" data-name="Path 25" d="M1.089,3.418a1.055,1.055,0,0,0,1.9.2c.079-.044.156-.044.209-.087A2.715,2.715,0,0,0,3.547,1.9l-.025-.026a.979.979,0,0,0,0-.59C3.3.464,2.427.42,1.81.1A1.337,1.337,0,0,0,.081.89,2.19,2.19,0,0,0,1.089,3.418Z" transform="translate(16.954 9.965)" fill="#f79744"/>
        <path id="Path_26-2" data-name="Path 26" d="M2.307,5.032a1.622,1.622,0,0,0,1.878-.556,1.39,1.39,0,0,0,0-.938,1.606,1.606,0,0,0,.078-.174c.017-.582.061-1.148.1-1.738A1.321,1.321,0,0,0,3.185.168,6.069,6.069,0,0,1,2.159.037,1.434,1.434,0,0,0,.545.706C-.6,2.739.1,4.425,2.307,5.032Z" transform="translate(22.774 2.537)" fill="#f79744"/>
        <path id="Path_27-2" data-name="Path 27" d="M3.433,3.458c-.019-.07-.1-.391-.166-.7a6.094,6.094,0,0,0,.782-.843A1.184,1.184,0,0,0,3.31.191C2.224-.062,1.061-.226.338.791-.4,1.772.226,3.267.721,4.2A1.462,1.462,0,0,0,3.433,3.458Z" transform="translate(31.344 0.967)" fill="#f79744"/>
        <path id="Path_28-2" data-name="Path 28" d="M1.4,6.529a1.875,1.875,0,0,0,2.528.33,2.754,2.754,0,0,0,2.485-2.5,3.9,3.9,0,0,0-.547-2.25,2.874,2.874,0,0,0-.835-1.068A3.446,3.446,0,0,0,1.769.117C-1.158.943.152,4.974,1.4,6.529Z" transform="translate(3.295 49.883)" fill="#f79744"/>
        <path id="Path_29-2" data-name="Path 29" d="M2.831,3.889a1.12,1.12,0,0,0,1.258-1.6.918.918,0,0,0,.07-.226,1.258,1.258,0,0,0-.174-.756C3.629,1.2,3.29,1.066,2.951.935a2.347,2.347,0,0,0-.677-.7,1.362,1.362,0,0,0-2.042.6,7.252,7.252,0,0,0-.183.913c0,.061-.035.087-.035.139v.1a1.135,1.135,0,0,0,.877,1.3H.945l.087.017a2.3,2.3,0,0,0,.885.339A4.137,4.137,0,0,0,2.831,3.889Z" transform="translate(0.08 33.706)" fill="#f79744"/>
        <path id="Path_30-2" data-name="Path 30" d="M2.194,4.1a.977.977,0,0,0,1.312-.46A.708.708,0,0,0,3.6,3.162a.9.9,0,0,0,.1-.27,3.458,3.458,0,0,1,.148-1.069A1.19,1.19,0,0,0,2.985.4,7.114,7.114,0,0,0,1.377.008C.239-.123-.309,1.38.178,2.232A5.037,5.037,0,0,0,2.194,4.1Z" transform="translate(2.219 24.859)" fill="#f79744"/>
        <path id="Path_31-2" data-name="Path 31" d="M.061.981a1.144,1.144,0,0,0-.019.66,1.245,1.245,0,0,0,0,.643,1.031,1.031,0,0,0,1.053.643,3.441,3.441,0,0,0,1.58-.782,1.045,1.045,0,0,0,0-1.651C1.746-.253.521-.2.061.981Z" transform="translate(70.822 11.158)" fill="#f79744"/>
        <path id="Path_32-2" data-name="Path 32" d="M1.919,3.052a.984.984,0,0,0,.7-.635,1.223,1.223,0,0,0-.087-1.242l-.061-.069.008-.087A.745.745,0,0,0,1.945.377H1.919C1.441-.11.338-.223.13.637A1.945,1.945,0,0,0,.452,2.6,1.285,1.285,0,0,0,1.919,3.052Z" transform="translate(51.961)" fill="#f79744"/>
        <path id="Path_33-2" data-name="Path 33" d="M4.876,1.374c-.1-.052-.174-.052-.27-.1A1.143,1.143,0,0,0,3.321.471,1.6,1.6,0,0,0,.853.7,12.156,12.156,0,0,0,.142,1.991a1.811,1.811,0,0,0,.886,2.354,1.033,1.033,0,0,0,.338.225c.688.27,1.452.435,2.2.645A1.54,1.54,0,0,0,5.285,3.207,1.232,1.232,0,0,0,4.876,1.374Z" transform="translate(12.498 70.181)" fill="#f79744"/>
        <path id="Path_34-2" data-name="Path 34" d="M.012,0,0,.017H0Z" transform="translate(2.651 65.143)" fill="#f79744"/>
        <path id="Path_35-2" data-name="Path 35" d="M4.169,1.223C3.752,1.057,3.3.849,2.867.657L2.719.684,2.649.622l-.07.087C2.5.709,2.5.692,2.649.622A2.694,2.694,0,0,0,1.833.076,1.476,1.476,0,0,0,.2,2.239,2.961,2.961,0,0,0,2.354,3.646c.113.069.243.113.346.173a1.037,1.037,0,0,0,1.408-.947c.06-.078.156-.139.225-.225A1.035,1.035,0,0,0,4.169,1.223Z" transform="translate(0 64.538)" fill="#f79744"/>
        <path id="Path_36-2" data-name="Path 36" d="M3.44,2.71A1.394,1.394,0,0,0,3.823.556,2.327,2.327,0,0,0,1.807.035a.708.708,0,0,0-.33-.008,2,2,0,0,0-.27.06A1.375,1.375,0,0,0,.069,1.208c-.035.165-.044.33-.069.477l.034-.017A1.251,1.251,0,0,0,1.207,3.144l.034.017a2.133,2.133,0,0,0,.314-.052v.018A10.673,10.673,0,0,0,3.44,2.71Z" transform="translate(8.887 57.429)" fill="#f79744"/>
        <path id="Path_37-2" data-name="Path 37" d="M5.551,1.359l-.225-.086a1.182,1.182,0,0,0-.183-.148,2.62,2.62,0,0,0,.374.182A1.719,1.719,0,0,0,4.466.594L4.448.551A5.434,5.434,0,0,0,1.677,0,1.718,1.718,0,0,0,.556,3C.5,3.852.731,4.643,1.763,4.851a2.2,2.2,0,0,0,1.782-.574,2.2,2.2,0,0,0,.982-.313,1.465,1.465,0,0,0,1.355-1.6,1.066,1.066,0,0,0-.122-.574A1.335,1.335,0,0,0,5.551,1.359Z" transform="translate(11.188 83.871)" fill="#f79744"/>
        <path id="Path_38-2" data-name="Path 38" d="M1.987,2.463a1.242,1.242,0,0,0,0-2.171C1.909.248,1.839.213,1.761.161.745-.482-.488.943.2,1.907a1.545,1.545,0,0,0,.346.435A1.044,1.044,0,0,0,1.987,2.463Z" transform="translate(7.473 79.457)" fill="#f79744"/>
        <path id="Path_39-2" data-name="Path 39" d="M3.066,1.381C2.736.521,2.136-.14,1.147.025A1.319,1.319,0,0,0,.051,1.2l-.043.278a1.4,1.4,0,0,0,1.512,1.46A1.208,1.208,0,0,0,3.066,1.381Z" transform="translate(3.935 74.709)" fill="#f79744"/>
        <path id="Path_40-2" data-name="Path 40" d="M2.742.535A1.325,1.325,0,0,0,.935.231,2.449,2.449,0,0,0,.2.96,1.426,1.426,0,0,0,.361,2.654c.052.061.13.061.174.114A3.117,3.117,0,0,0,2.62,4.2,1.214,1.214,0,0,0,3.915,2.385C3.473,1.794,3.15,1.117,2.742.535Z" transform="translate(25.658 91.741)" fill="#f79744"/>
        <path id="Path_41-2" data-name="Path 41" d="M3.084,1.9C3.509.333,1.207-.831.383.759a3.307,3.307,0,0,0-.252.93A1.081,1.081,0,0,0,.009,2.3a2.317,2.317,0,0,0,1,1.468c.67.6,2.034.313,1.964-.79a2.466,2.466,0,0,1-.009-.66,1.726,1.726,0,0,0,.183-.443Z" transform="translate(19.068 92.316)" fill="#f79744"/>
        <path id="Path_42-2" data-name="Path 42" d="M1.608.257A1.288,1.288,0,0,0,1.355.5,1.319,1.319,0,0,0,.026,2.029a.689.689,0,0,1,.034.234,1.357,1.357,0,0,0,1.26,1.085,2.389,2.389,0,0,0,1.858-.521A.922.922,0,0,0,3.6,2.15,1.732,1.732,0,0,0,2.919.178,1.11,1.11,0,0,0,1.608.257Z" transform="translate(7.14 94.842)" fill="#f79744"/>
        <path id="Path_43-2" data-name="Path 43" d="M3.879,1.661A.993.993,0,0,0,3.375.35c-1.25-.426-1.8-.539-2.44.1a.7.7,0,0,0-.747.922A1.258,1.258,0,0,0,.457,3.017a1.922,1.922,0,0,0,2.649.121.947.947,0,0,0,.226-.513A3.738,3.738,0,0,0,3.879,1.661Z" transform="translate(4.364 84.514)" fill="#f79744"/>
        <path id="Path_44-2" data-name="Path 44" d="M.076,2.056a.794.794,0,0,0,.112.2,1.543,1.543,0,0,0,.54,1.459,2.337,2.337,0,0,0,2.849-.356,1.122,1.122,0,0,0,.339-.426.556.556,0,0,0,.13-.121l.017-.061a.627.627,0,0,0,.044-.191,1.362,1.362,0,0,0-.261-1.451L3.785,1.03h0C3.68.969,3.629.883,3.56.848L3.49.8A.7.7,0,0,0,3.212.7c.4-.026-.435-.356-.826-.539A1.836,1.836,0,0,0,.641.292,1.509,1.509,0,0,0,.076,2.056Z" transform="translate(76.871 29.814)" fill="#f79744"/>
        <path id="Path_45-2" data-name="Path 45" d="M.008,1.236a2.961,2.961,0,0,0,.373,1.72,1.137,1.137,0,0,0,1.1.7A1.227,1.227,0,0,0,3.187,2a3.019,3.019,0,0,1-.321-.677L2.831,1.28a4.826,4.826,0,0,1-.26-.5C2.119-.518.069-.076.008,1.236Z" transform="translate(83.159 25.212)" fill="#f79744"/>
        <path id="Path_46-2" data-name="Path 46" d="M4.585,1.177A3.659,3.659,0,0,0,3.559.2a1.43,1.43,0,0,0-1.52.035C.336.733-.645,3.2.483,4.452a1.524,1.524,0,0,0,.895.851.684.684,0,0,1-.06.191c-.243,1.373,1.886,2.077,2.4.722.19-.434.5-.817.67-1.251a1.909,1.909,0,0,0,1.111-.9l.044-.061A1.693,1.693,0,0,0,5.106,1.89C5.4,2.036,4.837,1.568,4.585,1.177Z" transform="translate(60.886 94.027)" fill="#f79744"/>
        <path id="Path_47-2" data-name="Path 47" d="M3.178,2.029A3.169,3.169,0,0,1,2.717.89,1.123,1.123,0,0,0,1.1.135c-1.713.938-1.357,2.927.571,3.31a.839.839,0,0,0,.67-.147h.035A.875.875,0,0,0,3.178,2.029Z" transform="translate(52.267 94.773)" fill="#f79744"/>
        <path id="Path_48-2" data-name="Path 48" d="M.806,3.433A2.629,2.629,0,0,0,3.265,2.217C4,.983,2.309-.051,1.354,0A1.152,1.152,0,0,0,.216,1.2a1.075,1.075,0,0,0-.2.791l.2-.217A1.1,1.1,0,0,0,.806,3.433Z" transform="translate(63.057 88.972)" fill="#f79744"/>
        <path id="Path_49-2" data-name="Path 49" d="M2.091,3.635a2.51,2.51,0,0,1,.278-.009.426.426,0,0,0,.365-.321,2.332,2.332,0,0,0,.086-.243A.263.263,0,0,0,2.874,2.9a2.424,2.424,0,0,0,.808-1.1,1.417,1.417,0,0,0-.9-1.746A2.521,2.521,0,0,0,.527.821,1.424,1.424,0,0,0,.155,1.889,1.364,1.364,0,0,0,2.091,3.635Z" transform="translate(74.368 84.374)" fill="#f79744"/>
        <path id="Path_50-2" data-name="Path 50" d="M1.064,2.654c.026.009.053.044.1.052.035.027.087.018.139.043.043.009.1.062.147.088l.035-.026A1.039,1.039,0,0,0,2.644,2.3c.054-.069.122-.1.183-.174A1.155,1.155,0,0,0,2.349.2a.6.6,0,0,0-.2-.052A.879.879,0,0,0,1.542,0C.281-.056-.666,1.664.595,2.394l.208.1C.854,2.576.959,2.6,1.064,2.654Z" transform="translate(74.25 76.546)" fill="#f79744"/>
        <path id="Path_51-2" data-name="Path 51" d="M2.666.015C.538-.183.043,1.588.087,3.3A2.316,2.316,0,0,0,.5,5.306l.078.1A4.62,4.62,0,0,0,4.308,7.461c2.008-.113,2.216-2.129,1.721-3.649C5.594,2.484,4.231.181,2.666.015Z" transform="translate(77.782 71.079)" fill="#f79744"/>
        <path id="Path_52-2" data-name="Path 52" d="M3.345,1.516A1.215,1.215,0,0,0,2.51.2c-.1-.026-.226.026-.321.018A1.15,1.15,0,0,0,.556.526a2.123,2.123,0,0,0,.565,3.327,1.245,1.245,0,0,0,.512.044A1.355,1.355,0,0,0,3.761,2.334,3.341,3.341,0,0,0,3.345,1.516Z" transform="translate(85.279 63.175)" fill="#f79744"/>
        <path id="Path_53-2" data-name="Path 53" d="M.4,4.138a1.652,1.652,0,0,0,2.284.721A3.119,3.119,0,0,0,4.638,3.191,1.318,1.318,0,0,0,4.09,1.618C3.474,1.227,3.2.48,2.51.133A1.517,1.517,0,0,0,.938.341,3.1,3.1,0,0,0,.4,4.138Z" transform="translate(83.698 54.411)" fill="#f79744"/>
        <path id="Path_54-2" data-name="Path 54" d="M1.875.16A1.193,1.193,0,0,0,.146.951,1.893,1.893,0,0,0,.6,3.114a.906.906,0,0,0,1.285-.008c.1-.1.165-.2.278-.3A1.153,1.153,0,0,0,2.7.681C2.447.516,2.18.334,1.875.16Z" transform="translate(88.468 49.71)" fill="#f79744"/>
        <path id="Path_55-2" data-name="Path 55" d="M2.576.385A1.116,1.116,0,0,0,1.515.029a1.855,1.855,0,0,0-.825.5C.664.472.578.49.438.62a1.124,1.124,0,0,0-.355.522A1,1,0,0,0,.229,2.175a2.818,2.818,0,0,0,1.3.729A1.06,1.06,0,0,0,2.966,2.01,2.776,2.776,0,0,0,2.576.385Z" transform="translate(95.456 49.78)" fill="#f79744"/>
        <path id="Path_56-2" data-name="Path 56" d="M3.032.81a.651.651,0,0,0-.322-.13L2.119.305a1.285,1.285,0,0,0-2.068.738A2.708,2.708,0,0,0,1,3.746a1.019,1.019,0,0,0,1.234.035,1.621,1.621,0,0,0,.521-.713.8.8,0,0,0,.408-.182c.061-.053.061-.113.113-.166.061-.1.166-.165.191-.33s.044-.33.078-.5A1.079,1.079,0,0,0,3.118.983C3.083.931,3.075.853,3.032.81Z" transform="translate(90.43 43.822)" fill="#f79744"/>
        <path id="Path_57-2" data-name="Path 57" d="M2.7.788,2.665.675A.928.928,0,0,0,1.719.006c-.192.026-.392.043-.573.061A1.345,1.345,0,0,0,.017,1.561,2.3,2.3,0,0,0,2.275,3.594a.838.838,0,0,0,.99-.435A1.591,1.591,0,0,0,3.6,2.881,1.319,1.319,0,0,0,3.8,1.326,1.581,1.581,0,0,0,2.7.788Z" transform="translate(55.133 103.529)" fill="#f79744"/>
        <path id="Path_58-2" data-name="Path 58" d="M2.088.585A1.109,1.109,0,0,0,0,.967a1.62,1.62,0,0,0,1.32,1.85A1.1,1.1,0,0,0,2.3.889,1.236,1.236,0,0,1,2.088.585Z" transform="translate(37.979 104.34)" fill="#f79744"/>
        <path id="Path_59-2" data-name="Path 59" d="M4.785,1.03a2.5,2.5,0,0,0-2.5-1C1.05.2.433,1.378.163,2.525l-.017.061a5.055,5.055,0,0,0-.139.782A1.616,1.616,0,0,0,1.84,5.122a6.324,6.324,0,0,0,1.73-.243,5.356,5.356,0,0,0,1.555-1.6,1.652,1.652,0,0,0-.3-2.19Z" transform="translate(32.283 94.859)" fill="#f79744"/>
        <path id="Path_60-2" data-name="Path 60" d="M0,1.56A2.315,2.315,0,0,0,.758,3.168c.034.148.069.269.1.443.139,1.676,2.6,1.243,2.44-.191h.024A4.883,4.883,0,0,0,2.374.535C1.531-.655-.068.343,0,1.56Z" transform="translate(62.697 104.729)" fill="#f79744"/>
        <path id="Path_61-2" data-name="Path 61" d="M1.061.121l-.427.2A1.136,1.136,0,0,0,.3,2.076l.122.113a1.116,1.116,0,0,0,1.258.218C3.1,2.189,2.477-.608,1.061.121Z" transform="translate(73.08 102.771)" fill="#f79744"/>
        <path id="Path_62-2" data-name="Path 62" d="M2.173.188A1.447,1.447,0,0,0,0,1.4c0,.269.034.556.034.834a1.6,1.6,0,0,0,.9,1.242,2.522,2.522,0,0,0,1.747.1.735.735,0,0,0,.166-.069,3.478,3.478,0,0,0,.484.122A1.292,1.292,0,0,0,4.31,1.352C3.614.848,2.9.631,2.173.188Z" transform="translate(74.947 93.373)" fill="#f79744"/>
        <path id="Path_63-2" data-name="Path 63" d="M1.765,3.593A1.084,1.084,0,0,0,2.851,2.255a5.023,5.023,0,0,0-.3-1.433A1.217,1.217,0,0,0,.22.942a2.656,2.656,0,0,0-.071,1.92A1.259,1.259,0,0,0,1.765,3.593Z" transform="translate(68.995 0.537)" fill="#f79744"/>
        <path id="Path_64-2" data-name="Path 64" d="M.26,3.834A1.3,1.3,0,0,0,2.519,4.85c.922-1,1.608-2.546.948-3.866C2.807-.389,1.269-.215.374.828A1.4,1.4,0,0,0,.425,2.783,7.034,7.034,0,0,0,.26,3.834Z" transform="translate(81.378 20.33)" fill="#f79744"/>
      </g>
      <path id="Path_65-2" data-name="Path 65" d="M32.509,11.956a15.727,15.727,0,0,0-.019-3.614c-.433-3.875-4.1-6.368-7.333-7.74-2.623-1.13-5.6-.547-8.53.746A13.951,13.951,0,0,0,9.217,3.92,10.888,10.888,0,0,0,3.241,6.683,10.639,10.639,0,0,0,.459,17.49a9.8,9.8,0,0,0-.286,2.65c.574,7.28,5.456,11.4,12.285,12.259l.652.686c6.455,7.029,18.218,2.163,18.608-7.046l.149-3.092A12.06,12.06,0,0,0,32.509,11.956Z" transform="translate(271.678 250.661)" fill="#b97d4f"/>
    </g>
  </g>
</svg>
