<svg xmlns="http://www.w3.org/2000/svg" width="109.272" height="162.729" viewBox="0 0 109.272 162.729">
  <g id="Group_236" data-name="Group 236" transform="translate(-286.8 -1136.635)">
    <path id="Path_761" data-name="Path 761" d="M.112,56.115a.3.3,0,0,0,.07.193c.87,1.026,2.2,1.075,3.471,1.015a.3.3,0,0,0,.05.541,4.837,4.837,0,0,0,1.847.418,8.956,8.956,0,0,0,.987-.025,2.073,2.073,0,0,1,.335-.036,1.139,1.139,0,0,0,.816.036l.009,0c.185.054.263.158.067.366a.258.258,0,0,0,.182.441,9.416,9.416,0,0,0,2.8-.646c.826-.279,2.255-1.294,2.192.165,0,.137.163.266.277.152,1.083-1.024,3-1.831,3.748-3.211a1.614,1.614,0,0,1-.108,1.063c-.089.188.152.382.321.3a8.773,8.773,0,0,0,2.862-2.216,4.418,4.418,0,0,0,1.041-2.241.3.3,0,0,1,.013-.036.55.55,0,0,0,.094.115.96.96,0,0,0,.15.12h0a.441.441,0,0,0,.4.287.27.27,0,0,0,.053.012,2.686,2.686,0,0,1,.462.353c.014.055.033.093.055.09l.008.012c0,.029.036.046.055.026.128-.107.15-.341.186-.492.068-.308.129-.62.19-.928.1-.258.175-.517.261-.775.049-.169.148-.546.376-.516.173.022.235.3.4.4a.545.545,0,0,1,.023.084.164.164,0,0,0,.323,0c.2-2.065,1.969-3.674,1.425-5.754,0,0,0-.008,0-.014a.061.061,0,0,1-.007-.021c-.043-.135-.089-.278-.142-.41a12.966,12.966,0,0,0,5.135-4.3c-.3.924-.59,1.853-.883,2.78a28.389,28.389,0,0,0-2.332,6.107,46.547,46.547,0,0,0-1.582,4.925c-.026,0-.053-.008-.082-.006a.7.7,0,0,0-.107.025,1,1,0,0,0-.274.129.139.139,0,0,0-.041.049,8.751,8.751,0,0,0-5,2.488,4.2,4.2,0,0,0-1.509,1.757,4.486,4.486,0,0,0-.541,1.146c-.05.168.122.39.309.321a1.776,1.776,0,0,1,.322-.1c.018.313.026.621.018.933a9.812,9.812,0,0,0-1.2,1.361.284.284,0,0,0,.248.416c.095-.013.193-.028.291-.039a12.006,12.006,0,0,0-1.416,2.764,4.28,4.28,0,0,0-.454,1.477.248.248,0,0,0,.3.252c.345-.089.558.179.671.489-.148.653-.326,1.289-.537,1.935a.666.666,0,0,0-.023.165,15.268,15.268,0,0,0-.444,2.379.242.242,0,0,0,.339.236,2.08,2.08,0,0,1,.43-.275,10.425,10.425,0,0,1,.16,1.756,11.552,11.552,0,0,0-.366,1.811.126.126,0,0,0,.2.1.292.292,0,0,0,.021.136,6.662,6.662,0,0,1,.323.653,12.342,12.342,0,0,1,.391,2.186,2.348,2.348,0,0,1-.077.4c-.035.109.121.223.2.125.05-.056.1-.109.145-.168a.2.2,0,0,0,.242-.022,2.509,2.509,0,0,1,.973-.492,2.507,2.507,0,0,0-.424,1.171c-.055.115-.121.226-.175.342a.361.361,0,0,0,.105.442,1.544,1.544,0,0,0-.012.234.133.133,0,0,0,.223.1,3.582,3.582,0,0,1,.531-.373,18.854,18.854,0,0,1,.141,1.968,7.082,7.082,0,0,1-.681,2.359.048.048,0,0,1-.022.025.329.329,0,0,0-.1.3.091.091,0,0,0,.012.074.284.284,0,0,0,.422.2.58.58,0,0,1,.068-.047h0l.007-.008a7.039,7.039,0,0,0,2.258-1.948,5.307,5.307,0,0,0,.512-.9c.084-.2.18-.388.279-.58a.483.483,0,0,1,.022-.046c.173.165.348.332.519.5a.244.244,0,0,0,.444-.022,7.211,7.211,0,0,0,.3-.844.277.277,0,0,0,.125-.159.289.289,0,0,0,.02-.08,3.749,3.749,0,0,0,.609-2.321,3.387,3.387,0,0,1,1.022.826c.023.036.044.07.064.109a.185.185,0,0,0,.338-.025c.033-.116.061-.223.082-.333a.318.318,0,0,0,.162-.22c.008-.046.019-.1.026-.149a5.786,5.786,0,0,0,.54-2.309,1.089,1.089,0,0,1,.985-.663.947.947,0,0,1,.171.285.187.187,0,0,0,.278.089,3.118,3.118,0,0,0,.788-2.9c.048-.749.006-1.541.077-2.248.073.046.137.1.211.141a.28.28,0,0,0,.382-.118c.139-.361.414-4.626-.047-4.465.474-.163.531-.541.536-1.01a10.34,10.34,0,0,0-.938-3.93c-.15-.447-.306-.892-.463-1.333a3.116,3.116,0,0,0,.615.263.36.36,0,0,0,.436-.488,8.357,8.357,0,0,0-1-1.987c-.226-.339-.6-.655-.865-.987.046-.018.091-.03.142-.045a.308.308,0,0,0,.232-.471,8.984,8.984,0,0,0-1.879-2.615c1.128-2.016,1.519-4.442,2.322-6.584a1.32,1.32,0,0,1,.06-.162c.982-2.2,2-4.353,2.782-6.641.186-.546.353-1.1.511-1.659.023.148.053.293.077.438a13.692,13.692,0,0,0,.328,1.4,2.978,2.978,0,0,0-.621,1.443,9.992,9.992,0,0,0,.962,6.92.319.319,0,0,0,.54.013,3.738,3.738,0,0,1,.285-.374,12.474,12.474,0,0,0,1.428,5.066c.108.3.243.6.318.861.032.1.176.057.176-.035a2.042,2.042,0,0,1,.091-.538.261.261,0,0,0,.069-.069c.633-1.22.976,1.817,1.056,2.269a8.671,8.671,0,0,0,1.275,3.423.24.24,0,0,0,.2.1.265.265,0,0,1,.007.048.223.223,0,0,0,.291.124c.266-.106.49.057.663.3.026.205.043.393.065.482.053.224.117.448.189.667a4.447,4.447,0,0,0,.774,2.292.168.168,0,0,0,.3-.087c.029-.195.084-.364.125-.532,1.04-.606,2.542,1.963,3.079,2.945a.094.094,0,0,0,0,.023.126.126,0,0,0,.1.154c0,.012.012.023.015.034s.03.013.04.023a2.623,2.623,0,0,1,.07.308c.036.232.374.158.352-.069-.009-.068-.012-.152-.021-.232a.179.179,0,0,0,.069-.114c.086-.542.179-1.087.25-1.63v-.012c.162-.47.349-.982.548-1.477.113-.033.237.071.373.417a.333.333,0,0,0,.634-.021c.189-.839-.057-2.295.921-2.692.027-.012.036-.031.056-.042s.047,0,.073-.006a1.4,1.4,0,0,1,.542.421.173.173,0,0,0,.3-.138c-.161-.667-.3-1.435-.532-2.148-.092-.383-.193-.757-.288-1.142.067-.319.241-.484.632-.271a.149.149,0,0,0,.168,0c.1.052.234.01.216-.127a8.355,8.355,0,0,0-1.18-3.148A.18.18,0,0,0,47.2,54.7a6.977,6.977,0,0,0-.309-1.171C46.536,50.9,45,48.058,42.415,47.212c.093-.093.183-.189.275-.28a.338.338,0,0,0,.162-.51,6.3,6.3,0,0,0-1.674-1.559,3.511,3.511,0,0,0-1.042-.431c.011,0-2.465-.395-1.547-.805a.351.351,0,0,0,.137-.54A5.06,5.06,0,0,0,34.3,41.267a1.721,1.721,0,0,0-1.353-.146c0-.845-.137-1.692-.165-2.54-.02-.726.063-1.51-.014-2.25.012-.059.027-.11.038-.169a11.427,11.427,0,0,0,.468-2.78c.3-2.048.566-4.1.871-6.105.02-.055.034-.11.055-.173v-.008a18.932,18.932,0,0,0,.9-1.98c.129-.237.264-.471.4-.7a8.838,8.838,0,0,0,.272.907,8.033,8.033,0,0,1-.829,2.413,6.254,6.254,0,0,0-.432,2.352,3.8,3.8,0,0,0,.042.5,8.032,8.032,0,0,0,.007,1.612c.025.246.383.237.45.033a2.207,2.207,0,0,1,.255-.466.624.624,0,0,0,.368-.125,6.949,6.949,0,0,0,.649,4.923c.136.243.572.3.653-.029a1.874,1.874,0,0,1,.191-.6.911.911,0,0,0,.188-.087,30.63,30.63,0,0,0,1.441,4.181.181.181,0,0,0,.35-.071,1.962,1.962,0,0,1,.528-1.143,4.6,4.6,0,0,0,.572,1.584c.416.815,1.706,1.988,1.759,2.926.013.257.362.216.411,0,.533-2.316,2,1.041,2.405,1.611a30.465,30.465,0,0,0,2.5,2.343.06.06,0,0,0,.107-.025,1.322,1.322,0,0,0,.006-.465c.043-.332-.034-.847.333-.969a1.753,1.753,0,0,1,1.131.259,3.638,3.638,0,0,1,1.768,1.573,3.424,3.424,0,0,0,.11.37c.082.225.407.123.391-.1a1.8,1.8,0,0,0-.107-.5c0-.267,0-.538,0-.806a22.211,22.211,0,0,0,.156-5.006c0,.016-1.2-4.022.462-2.97a.233.233,0,0,0,.36-.231,6.154,6.154,0,0,0-.641-1.862c-.02-.04-1.812-2.908-1.4-2.814.287.07.606-.217.438-.515a17.163,17.163,0,0,0-1.2-1.988c-.307-.4-3-2.588-1.711-2.441.4.048.469-.464.218-.67-1.477-1.225-2.507-2.426-4.427-2.305-.008-.093-.011-.187-.011-.282a1.525,1.525,0,0,1,.48-.359c.192-.115.17-.468-.1-.463-.635.016-1.293-.147-1.921-.086a5.42,5.42,0,0,0-1.533.442A.362.362,0,0,0,39.8,24.5c-.94.121-1.745-.15-2.608.313-.021.014-.034.031-.053.043a3.361,3.361,0,0,1-.68-.477,7.1,7.1,0,0,0-.2-1.289l0,0a30.389,30.389,0,0,0,2.785-6.937c.658-2.372.945-4.86,1.423-7.268a22.589,22.589,0,0,0,.105-8.74c-.033-.212-.347-.175-.361.034-.006.05-.006.1-.011.155a.488.488,0,0,0-.359.057A.643.643,0,0,0,39.8.3a.424.424,0,0,0-.8.246c.074,1.484.146,2.969.174,4.454-.028.475-.015.958,0,1.436A19.8,19.8,0,0,1,37.6,10.706a11.729,11.729,0,0,1-3.759,3.716c-.307-.939-1.252-1.129-2.323-1.7a7.447,7.447,0,0,0-5.31-.771.251.251,0,0,0-.023.478h.007c-1.85.372-3.652.108-5.327,1.392a.338.338,0,0,0-.038.527.9.9,0,0,0,.556.264,15.913,15.913,0,0,0-4.343,2.519c-.252.226.019.6.313.535.067.165.137.332.207.5-.267.116-.54.229-.81.345a1.264,1.264,0,0,0-.636.592.3.3,0,0,0,.141.451l.309.826a4.351,4.351,0,0,0-.955,1.743c-.046.151.066.366.254.316a1.036,1.036,0,0,1,.248-.043,10.356,10.356,0,0,1-.27,1.237c0,.009,0,.02,0,.035-.26.2-.481.359-.585.431a.283.283,0,0,0,.189.507c.042.014.079.028.116.037-.221.427-.41.87-.6,1.306a.267.267,0,0,0,.369.354,9.623,9.623,0,0,0,1.31-.744,3.239,3.239,0,0,0,.02.349.247.247,0,0,0,.4.137,5.111,5.111,0,0,1,2.086-1.092c.008,0,.242-.053.546-.1.519.025,1.038.118,1.527.172a.349.349,0,0,0-.023.054.2.2,0,0,0,.224.288c.322-.114.64-.236.948-.362a1.7,1.7,0,0,0,.565-.236l.068-.042c.154-.068.308-.134.461-.2.048-.025,2.024-1.317,1.843-.46a.187.187,0,0,0,.26.219c.45-.222,3.2-2.389,3.343-1.378.02.155.216.174.312.095.342-.264.677-.547,1.008-.846a4.425,4.425,0,0,0,1.144-1.132,8.966,8.966,0,0,0,2.569-5.795c0-.009.014-.013.014-.023a2.664,2.664,0,0,0-.023-.285c0-.084,0-.165,0-.251,0,0-.006,0-.009-.012a8.841,8.841,0,0,0,4.027-3.09,11.912,11.912,0,0,0,.92-1.414c-.055.421-.111.84-.183,1.25-.053.3-.115.6-.172.9a.207.207,0,0,0-.131.146,61.7,61.7,0,0,1-1.939,6.183c-.812,2.153-2.089,4.088-3.018,6.19a9.878,9.878,0,0,0-.447,1.282,13.073,13.073,0,0,1-2.144,4.062,8.562,8.562,0,0,1-2.909,2.215.8.8,0,0,1-.091.014l0-.006c0-.011-.013-.014-.013-.026a3.154,3.154,0,0,0-.2-1.985,3.028,3.028,0,0,0-1.3-1.415A.7.7,0,0,0,26.2,28.9a5.449,5.449,0,0,0-1-.418.168.168,0,0,0-.191.258c.472.759.212.25-.211,0a7.225,7.225,0,0,0-1.05-.54,3.333,3.333,0,0,0-3.043-.012.222.222,0,0,0-.012.352,1.69,1.69,0,0,1,.472.4.593.593,0,0,1-.175.032c-.089.006-.177.009-.26.013a8.273,8.273,0,0,1-2.052-.723.129.129,0,0,0-.054-.019,2.516,2.516,0,0,0-.692-.21c-.215-.02-.239.253-.1.361.608.459-.764.138-.783.131a4.309,4.309,0,0,0-1.064-.21,2.753,2.753,0,0,0-2.279.647.234.234,0,0,0,.055.4c.062.03.129.055.193.089-.982.211-2.023.053-2.581,1.068a.175.175,0,0,0,0,.195,4.171,4.171,0,0,0-1.623,1.759c-.087.162.1.346.256.314.336-.068-.879,1.11-.962,1.2a4.693,4.693,0,0,0-.824,1.469,5.413,5.413,0,0,0-.366,3.217.191.191,0,0,0,.274.124,10.074,10.074,0,0,1,.942-.452.3.3,0,0,0,.3-.014c.15.047.264.2.311.544a.177.177,0,0,0,.25.134,10.565,10.565,0,0,1,1.314-.687,3.994,3.994,0,0,0,.659-.272c.239-.08.474-.139.709-.2-.028.1.029.223.158.2-.021,0,1.346-.27.769.259a.194.194,0,0,0,.082.324,2.27,2.27,0,0,0,.973.1,4.017,4.017,0,0,0,.942-.2.17.17,0,0,0,.044-.014,1.883,1.883,0,0,1,2.118.428.174.174,0,0,0,.085.306,5.038,5.038,0,0,0,3.154-.6c.1-.062,2.241-1.442,1.914-.36a.192.192,0,0,0,.282.217,7.835,7.835,0,0,0,.777-.431c2.019-.579,4.127-3.144,3.995-5.216v0a5.742,5.742,0,0,0,2.3-1.094,7.928,7.928,0,0,0,2.138-1.99q-.07.629-.139,1.249c-.234,2.055-.586,4.1-.857,6.152a15.455,15.455,0,0,1-1.106,2.3,19.434,19.434,0,0,1-5.032,5.188,4.4,4.4,0,0,0-2.925-2.185,15.6,15.6,0,0,0-2.515-.375c-1.328-.094-3.068.495-4.249-.2a.3.3,0,0,0-.464.207,2.164,2.164,0,0,0,.53,1.8c-.8-.084-1.582-.343-2.384-.486a7.226,7.226,0,0,0-3.394.368A.258.258,0,0,0,9.8,44.3c2.583.892-.834,1.32-1.673,1.587A5.7,5.7,0,0,0,6.31,47.1a.25.25,0,0,0,.223.427c.583.257.584.429,0,.522a4.389,4.389,0,0,0-.921.474A4.6,4.6,0,0,0,4.446,49.7a.259.259,0,0,0,.181.439c1.116.138-.917,1.211-.867,1.19a3.133,3.133,0,0,0-.924.647.255.255,0,0,0,.055.4c1.035.5-.7,1.019-1.081,1.316a.266.266,0,0,0,.069.479A14.2,14.2,0,0,1,.11,55.662.289.289,0,0,0,.112,56.115Z" transform="translate(387.076 1204.039) rotate(120)" fill="#898989" opacity="0.292"/>
    <g id="Group_210" data-name="Group 210" transform="translate(313.59 1220.344)">
      <g id="Group_123" data-name="Group 123" transform="translate(0.926 29.025)">
        <path id="Path_69" data-name="Path 69" d="M1487.722,516.992c1.221-.5,3.635-2.158,4.893-1.066a4.749,4.749,0,0,0,2.2,1.163c3.7.805,4.763-3.3,7.832-3.513,2.779-.189,4.842.5,6.879-2.094a11.093,11.093,0,0,0,1.971-7.922c-.609-7.752-5.594-14.221-7.714-21.579a46.635,46.635,0,0,1-2.947-5.043,1.548,1.548,0,0,1-.183-.776,16.432,16.432,0,0,0-2.075-2.8,9.068,9.068,0,0,0-12.729-.386c-3.767,3.517-4.144,9.855-4.774,14.61-1.017,7.693-4.315,15.743-3.091,23.6C1478.79,516.322,1482.524,519.133,1487.722,516.992Z" transform="translate(-1448.258 -467.721)" fill="#f9d0d0"/>
        <path id="Path_70" data-name="Path 70" d="M1448.659,478.788c.426,1.736,1.914,2.61,3.551,3.059-1.453,1.321-3.706,3.1-4.315,4.044-1.5,2.333-.231,4.267,1.746,5.327.763,1.1,1.674,2.145,2.485,3.149,1.4,1.735,3.744,1.365,4.606,3.529.872,2.184,3.1,3.513,4.959,4.769,2.106,1.422,2.176,3.881,4.694,4.863,4.167,1.632,8.717-2.352,11.489-5.358,6.81-3.368,13.547-10.517,12.627-17.469a13.241,13.241,0,0,0-1.935-11.59c-3.723-5.265-9.55-5.931-15.552-5.283-4.238.456-8.5,1.17-12.7,1.878-3.48.587-6.818,1.235-9.64,3.44A5.561,5.561,0,0,0,1448.659,478.788Z" transform="translate(-1447.237 -467.623)" fill="#f9d0d0"/>
      </g>
      <g id="Group_122" data-name="Group 122" transform="translate(0)">
        <path id="Path_71" data-name="Path 71" d="M1528.677,458.313a5.616,5.616,0,0,0-3.817-2.46c-1.2-.139-3.032.244-4.432-.053-.017-.016-.04-.035-.06-.054a1.622,1.622,0,0,0-1.184-1.466c-.221-.08-.443-.156-.661-.23-.3-.938-.419-2.128-.752-2.986-.439-1.136-2.012-1.953-2.984-2.53-2.352-1.391-2.866-4.468-5.063-6.047-4.5-3.232-9.8-.917-12.091,3.664-1.388,2.783-1.429,6.052-2.77,8.9-1.228,2.613-2.551,5.047-3.024,7.923a1.949,1.949,0,0,0,0,.6c-1.195,2.354-1.79,4.942-.9,7.387,2.126,5.85,9.367,5,14.425,4.778,7.07-.311,14.133-1.992,20.024-6C1529.221,467.132,1531.854,462.6,1528.677,458.313Z" transform="translate(-1447.612 -437.748)" fill="#f9d0d0"/>
        <path id="Path_72" data-name="Path 72" d="M1489.418,440.172a1.173,1.173,0,0,1-1.346-.064c-2.755-1.841-5.815,2.247-8.688,3-3.514.927-6.55.472-9.772,2.59-4.848,3.184-10.111,7.1-10.729,12.971,1.512,7.2,10.921,12.753,19.043,14.448a3.019,3.019,0,0,0,1.072.026,16.242,16.242,0,0,0,1.548.6c.242.162.472.341.727.489a2.492,2.492,0,0,0,2.125.118,12.153,12.153,0,0,0,3-.072c6.1-.916,6.87-7.818,7.279-11.254.759-6.373,1.707-13.028-.706-18.732A8.551,8.551,0,0,0,1489.418,440.172Z" transform="translate(-1446.553 -437.703)" fill="#f9d0d0"/>
        <path id="Path_73" data-name="Path 73" d="M1511.225,499.5c3.113.907,5.857.218,6.754-3.131.363-1.346.214-2.772.573-4.115.28-1.056,3.654-1.6,4.6-2.03,3.176-1.441,2.663-5.513,1.61-8.145-1.454-3.629-6.188-5.885-9.58-7.165-5.737-2.164-12.042-2.492-17.875-4.37a1.74,1.74,0,0,0-1.835.425,14.559,14.559,0,0,0-2.218.076,1.872,1.872,0,0,0-1.5,2.158c1.15,7.927,8.872,12.51,13.1,18.669C1506.474,494.234,1508.178,498.615,1511.225,499.5Z" transform="translate(-1447.653 -438.735)" fill="#f9d0d0"/>
        <g id="Group_111" data-name="Group 111" transform="translate(30.801 36.507)">
          <path id="Path_74" data-name="Path 74" d="M1495,475.578a101.652,101.652,0,0,1,9.98,11.335c2.668,3.68,5.314,8.114,5.821,12.713a16.626,16.626,0,0,1-1.762,9.675c-2.24,4.013-5.894,2.178-8.313-.591a.1.1,0,0,0-.166.043c-1.744,9.06-15.791,11.341-20.959,4a9.028,9.028,0,0,1-1.105-7.219,46.437,46.437,0,0,0,1.348-4.934,12.135,12.135,0,0,0-.56-4.4c-1.988-7.9,3.722-15.091,8.634-20.6.085-.093-.055-.234-.139-.138-3.008,3.37-5.877,6.814-7.629,11.026a18.714,18.714,0,0,0-1.55,6.687c-.045,2.519,1.083,4.876,1.045,7.425-.033,2.382-1.517,4.554-1.642,6.966a8.719,8.719,0,0,0,.664,3.871,9.211,9.211,0,0,0,5.021,4.792c4.786,1.95,10.882,1.182,14.6-2.557a8.6,8.6,0,0,0,1.862-2.82c.122-.3.491-1.934.8-1.582a11.374,11.374,0,0,0,2.1,1.858,3.882,3.882,0,0,0,5.41-.661c3.017-3.385,3.321-9.911,1.843-13.983-3.029-8.343-9.059-14.818-15.167-21.049-.089-.09-.231.049-.141.141Z" transform="translate(-1477.994 -475.408)" fill="#f49a8c"/>
        </g>
        <g id="Group_112" data-name="Group 112" transform="translate(0 28.991)">
          <path id="Path_75" data-name="Path 75" d="M1488.813,476.335c-.26,7.671-5.482,15.024-10.614,20.338-5.609,5.8-13.279,10.635-21.5,7.662-7.28-2.634-10.638-10.607-10.387-17.858.117-3.356,1.31-16.2,7.27-11.254.08.069.222-.019.155-.12-3.6-5.392,7.045-7.4,10.443-7.288,3.449.114,7.063,1.964,10.031,3.546a33.5,33.5,0,0,1,8.883,6.651c.086.094.225-.046.139-.14a36.446,36.446,0,0,0-11.717-8.067c-3.086-1.415-6.393-2.529-9.816-2.067-2.806.378-6.1,1.173-8.1,3.34a3.027,3.027,0,0,0-.775,2.486,3.723,3.723,0,0,0,.518,1.308,3.955,3.955,0,0,0-1.212-.811c-4.368-1.918-5.483,6.814-5.771,9.21-.743,6.173.126,12.107,4.26,17.035a15.254,15.254,0,0,0,12.21,5.245c4.351-.227,8.41-2.71,11.74-5.324a44.228,44.228,0,0,0,10.088-11.527c2.286-3.688,4.2-7.968,4.349-12.365,0-.129-.193-.128-.2,0Z" transform="translate(-1446.126 -467.631)" fill="#f49a8c"/>
        </g>
        <g id="Group_113" data-name="Group 113" transform="translate(43.568 29.309)">
          <path id="Path_76" data-name="Path 76" d="M1494.8,472.361c.524,4.5,3.065,8.492,5.771,12.006a38.925,38.925,0,0,0,7.158,7.422c1.789,1.343,9.673,6.545,11.434,2.91a3.779,3.779,0,0,0-.049-2.457,12.7,12.7,0,0,0-.779-2.053c-.335-.755,1.928-1.479,2.412-1.712a8.677,8.677,0,0,0,3.367-2.35c.935-1.237-.485-2.519.627-3.561,5.648-5.287-2.437-11.5-7.1-13.359-9.294-3.695-19.615,1.418-26.406,7.637-.095.087.045.227.14.14,6.621-6.064,15.16-10.087,24.285-8.18,6.03,1.258,15.039,8.543,8.123,14.346a.1.1,0,0,0-.015.121c2.054,3.665-3.479,5.005-5.8,6.409a.1.1,0,0,0-.034.135c1.155,2.426,2.254,6.275-1.786,5.725a18.809,18.809,0,0,1-7.25-3.175,33.8,33.8,0,0,1-7.037-6.711c-3.183-3.739-6.288-8.3-6.868-13.293-.015-.125-.213-.126-.2,0Z" transform="translate(-1491.202 -467.961)" fill="#f49a8c"/>
        </g>
        <g id="Group_114" data-name="Group 114" transform="translate(44.26)">
          <path id="Path_77" data-name="Path 77" d="M1494.184,468.855a.2.2,0,0,0,.392-.091c-2-9.335-5.224-21.609,2.895-28.954,8.151-7.375,16.494,7.2,18.867,13.374a3.462,3.462,0,0,1,2.919,4.94c.05.092.1.183.152.271a.2.2,0,0,0,.26.286,11.366,11.366,0,0,1,5-1.372c4.465-.112,4.764,5.43,2.485,7.96-1.944,2.157-5.657,3.651-8.239,4.891-7.407,3.557-16.07,3.247-24.037,2.511-.258-.023-.273.377-.018.4,7.348.679,14.608.761,21.692-1.544,4-1.3,10.392-3.987,12.3-8.1,1.665-3.587-1.74-6.58-5-6.5-1.759.044-3.972,2.076-3.234-.377.314-1.04-.1-2.775-1.175-3.274a3.163,3.163,0,0,0-1.831-.5c-1.474.158-2.075-2.53-2.565-3.522a35.835,35.835,0,0,0-4.193-6.448c-2.719-3.389-6.671-6.227-11.139-4.8-4.365,1.4-6.984,6.789-7.525,10.976C1491.308,455.7,1492.781,462.319,1494.184,468.855Z" transform="translate(-1491.918 -437.636)" fill="#f49a8c"/>
        </g>
        <g id="Group_115" data-name="Group 115" transform="translate(8.759 0.116)">
          <path id="Path_78" data-name="Path 78" d="M1491.84,472.927c1.794-6.386,3.754-12.848,4.243-19.5.359-4.9-.388-10.339-4.7-13.353-2.441-1.707-5.565-2.179-8.471-2.292-4.069-.157-8.65.286-12.35,2.065a16.076,16.076,0,0,0-5.045,3.737c-1.875,2.213-3.34,4.044-6.006,5.348-3.172,1.552-4.737,5.55-4.222,8.954,1.541,10.2,13.981,16.015,23.124,16.823.127.013.126-.186,0-.2-9.022-.8-20.917-6.379-22.863-16.213a9.822,9.822,0,0,1,1.536-7.063c1.35-2.183,4.348-2.789,6.156-4.582a35.153,35.153,0,0,0,2.416-2.928,14.883,14.883,0,0,1,3.212-2.652,16.592,16.592,0,0,1,6.9-2.583c6.792-1.1,16.056-1.15,19.133,6.339,2.38,5.791.634,12.993-.763,18.8-.746,3.1-1.627,6.17-2.491,9.243a.1.1,0,0,0,.192.051Z" transform="translate(-1455.189 -437.756)" fill="#f49a8c"/>
        </g>
        <path id="Path_79" data-name="Path 79" d="M1491.743,479.615a1.169,1.169,0,0,0,.952-.986,1.217,1.217,0,0,0,.656-1.327,1.854,1.854,0,0,0-.3-.858c-.044-.591-.418-1.087-1.166-.859a1.11,1.11,0,0,0-.5.316.987.987,0,0,0-.264.284.525.525,0,0,0-.105.086l0,0a1.524,1.524,0,0,0-1.029,1.61A1.78,1.78,0,0,0,1491.743,479.615Z" transform="translate(-1447.594 -438.905)" fill="#b97d4f"/>
        <path id="Path_80" data-name="Path 80" d="M1511.225,499.52a.154.154,0,0,1,.034.01c-1.593-6.05-5.266-11.491-7.005-17.535a46.639,46.639,0,0,1-2.947-5.043,1.547,1.547,0,0,1-.183-.776,16.421,16.421,0,0,0-2.075-2.8,8.712,8.712,0,0,0-3.779-2.381,14.821,14.821,0,0,0-2.016.076,1.872,1.872,0,0,0-1.5,2.158c1.15,7.927,8.872,12.511,13.1,18.669C1506.474,494.252,1508.178,498.633,1511.225,499.52Z" transform="translate(-1447.653 -438.753)" fill="#f9d0d0" style="mix-blend-mode: multiply;isolation: isolate"/>
        <path id="Path_81" data-name="Path 81" d="M1495.568,453.6a13.931,13.931,0,0,1-.7,1.879c-1.228,2.613-2.551,5.047-3.024,7.923a1.949,1.949,0,0,0,0,.6c-1.195,2.354-1.79,4.942-.9,7.387a7.409,7.409,0,0,0,.609,1.255c2.413-2.553,2.9-6.714,3.185-9.148A86.258,86.258,0,0,0,1495.568,453.6Z" transform="translate(-1447.612 -438.171)" fill="#f9d0d0" style="mix-blend-mode: multiply;isolation: isolate"/>
        <path id="Path_82" data-name="Path 82" d="M1466.108,468.859a33.45,33.45,0,0,0,12.06,5.2,3.018,3.018,0,0,0,1.072.026,16.2,16.2,0,0,0,1.547.6c.243.162.472.341.727.489a2.492,2.492,0,0,0,2.125.118,12.148,12.148,0,0,0,3-.072,6.987,6.987,0,0,0,3.117-1.251c-.176-.292-.357-.579-.554-.859-3.723-5.265-9.55-5.931-15.552-5.283C1471.136,468.1,1468.619,468.463,1466.108,468.859Z" transform="translate(-1446.795 -438.64)" fill="#f9d0d0" style="mix-blend-mode: multiply;isolation: isolate"/>
        <path id="Path_83" data-name="Path 83" d="M1478.907,502.3c6.81-3.368,13.547-10.517,12.627-17.469a13.239,13.239,0,0,0-1.935-11.59,13.085,13.085,0,0,0-1.493-1.764,8.879,8.879,0,0,0-2.244,1.527c-3.767,3.517-4.144,9.855-4.774,14.61-.671,5.091-2.337,10.338-3.035,15.581C1478.354,502.893,1478.64,502.59,1478.907,502.3Z" transform="translate(-1447.195 -438.769)" fill="#f9d0d0" style="mix-blend-mode: multiply;isolation: isolate"/>
        <g id="Group_117" data-name="Group 117" transform="translate(33.188 26.947)">
          <g id="Group_116" data-name="Group 116">
            <path id="Path_84" data-name="Path 84" d="M1493.99,470.119a.092.092,0,0,0,.019-.021.027.027,0,0,1-.015.014Z" transform="translate(-1480.916 -465.67)" fill="#f79744"/>
            <path id="Path_85" data-name="Path 85" d="M1485.639,473.882a.467.467,0,0,0-.079.8c.288.193.558.4.821.608a3.289,3.289,0,0,0-1.724-.122.506.506,0,0,0-.323.675,7.882,7.882,0,0,0-1.209.16c-.518.114-.435.869.034.983.534.133,1.074.246,1.606.353a.226.226,0,0,0,.2.144c.178,0,.385.035.572.026a.542.542,0,0,0,.065.088,5.547,5.547,0,0,0-1.506.573.511.511,0,0,0,.138.929c.076.011.147.013.222.024a1.987,1.987,0,0,0-.189.3.494.494,0,0,0,.383.729.43.43,0,0,0-.091.153.366.366,0,0,0-.339.167.7.7,0,0,0-.421.7.751.751,0,0,0,1.077.56.734.734,0,0,0,.409-.716c0-.03-.016-.05-.023-.081.079-.022.158-.043.238-.068a.522.522,0,0,0,.182.584.382.382,0,0,0,.023.112c-.095.081-.2.159-.29.239a.366.366,0,0,0-.124.257c-.4.231-.035.9.449.725a4.975,4.975,0,0,0,.578-.259c.1-.049.2-.1.3-.156.078-.027.153-.065.228-.1a.54.54,0,0,0,.356.538c.01,0,.019,0,.027.008-.328.951-.512,1.964-.751,2.934a.455.455,0,0,0,.774.4,7.617,7.617,0,0,0,1.3-1.538,5.647,5.647,0,0,0,.219.844.34.34,0,0,0-.263.255c-.022.028-.048.053-.068.082a.208.208,0,0,0,.108.344,2.6,2.6,0,0,0,.434,0c.177.007.276-.2.237-.352a.409.409,0,0,0,.174-.075,1.59,1.59,0,0,0,.533-.855.306.306,0,0,0,.137-.068c.008.009.01.022.02.028.011.036.018.073.031.106a.356.356,0,0,0,.465.184.139.139,0,0,1,.026-.015c.014,0,.026,0,.042,0a.743.743,0,0,0,.65.144.247.247,0,0,0,.183-.169,2.814,2.814,0,0,0,.137-.582.935.935,0,0,0,.165.043,10.283,10.283,0,0,1-.046,1.116.416.416,0,0,0,.752.276.407.407,0,0,0,.136.16.5.5,0,0,0,.051.094.525.525,0,0,0,.642.068,4.052,4.052,0,0,0,.561.978.416.416,0,0,0,.733-.208c.02-.441.019-.88-.005-1.328a.919.919,0,0,0,.158-.018.152.152,0,0,0,.108.038.528.528,0,0,0,.336-.191,2.656,2.656,0,0,0,.59.675c.032.073.059.146.094.217a.346.346,0,0,0,.445.174.417.417,0,0,0,.563-.214,3.732,3.732,0,0,0-.361-2.934.959.959,0,0,0,.289-.156l.006.008a.356.356,0,0,0,.589-.128,5.447,5.447,0,0,0,.615.421.717.717,0,0,0-.174.015.385.385,0,0,0-.314-.007.568.568,0,0,0-.338.533c-.027.424.284,1.012.773.787a1,1,0,0,0,.479-.95.487.487,0,0,0-.157-.278.4.4,0,0,0,.36-.478,3.806,3.806,0,0,0-.427-1.23,2.64,2.64,0,0,0,1.125.084.305.305,0,0,0,.21-.437c-.08-.119-.162-.234-.247-.349a.267.267,0,0,0,.129-.082c.032-.025.063-.05.09-.073a.383.383,0,0,0,.193-.4.754.754,0,0,0-.019-.1.372.372,0,0,0-.341-.286c-.008,0-.011,0-.019,0a.228.228,0,0,0-.3,0,.233.233,0,0,1-.044,0,.283.283,0,0,0-.132.027.467.467,0,0,0,.139-.448.968.968,0,0,0-.058-.133,3.258,3.258,0,0,0,.793-.039.73.73,0,0,0,.612.194,1.068,1.068,0,0,0,.5-.277.466.466,0,0,0-.021-.641.362.362,0,0,1-.31-.261.356.356,0,0,0-.547-.128.77.77,0,0,0-.068.069,1.186,1.186,0,0,0-.183-.123.824.824,0,0,0,.295-.656.678.678,0,0,0-.2-.426,2.481,2.481,0,0,0,.378-.238.433.433,0,0,0-.154-.724,3.512,3.512,0,0,0-1.337-.2.657.657,0,0,0,.06-.146,1.181,1.181,0,0,0-1.445-1.227,6.336,6.336,0,0,0,1.825-2.7.389.389,0,0,0-.3-.467,2.46,2.46,0,0,0-2.047.871c-.075.068-.145.142-.219.213a5.538,5.538,0,0,0-.62.54c.044-.073.095-.142.141-.211a.374.374,0,0,0,.13-.607.708.708,0,0,1-.155-.172.44.44,0,0,0-.214-.225.466.466,0,0,0-.078-.4c.016-.02.034-.03.049-.053.159-.244-.009-.573-.183-.751a.321.321,0,0,0-.4-.022.151.151,0,0,1-.032.007l.007-.019c.127-.426.358-1.083.081-1.5-.459-.714-1.163.147-1.7.98-.01-.058-.019-.112-.034-.169a.348.348,0,0,0-.049-.1c.019-.043.045-.084.066-.129.007-.013.008-.017.013-.028a.2.2,0,0,1-.046.041.384.384,0,0,0,.05-.049c.023-.036.032-.036.016-.014.254-.264-.059-.693-.4-.673.156-.007.007-.042-.073-.1a.5.5,0,0,0,.023-.327.4.4,0,0,0-.012-.065c-.014-.056-.028-.109-.039-.164a.348.348,0,0,0-.466-.286c-.063.03-.131.062-.2.1a1.3,1.3,0,0,0-.291-.148.287.287,0,0,0-.383.271.129.129,0,0,0-.01-.032.276.276,0,0,0,.027.21.38.38,0,0,0,.064.1c.05.054.107.1.161.154a.512.512,0,0,0,.13.351c-.022.024-.044.047-.067.075s-.027.057-.043.087c-.115-.29-.248-.582-.411-.914a.435.435,0,0,0-.814.186c0,.038,0,.073,0,.112a4.3,4.3,0,0,0-1.115-1.852,2.275,2.275,0,0,0-.192-.34.443.443,0,0,0-.683-.111c-.67.658-.559,1.784-.332,2.87-.039-.006-.067-.02-.112-.024a.373.373,0,0,0-.371.236,1.326,1.326,0,0,0-.036.2,2.26,2.26,0,0,0-.664-.519.382.382,0,0,0-.569.32,5.008,5.008,0,0,0,.129,1.133c-.021-.013-.039-.028-.058-.04a.372.372,0,0,0-.331-.011.363.363,0,0,0-.259-.016.485.485,0,0,0-.187-.031.253.253,0,0,0-.247.306.087.087,0,0,0,0,.029.434.434,0,0,0-.191.687.609.609,0,0,1,.051.067c-.416-.411-.825-.827-1.216-1.262-.327-.361-1.027.032-.838.5A8.186,8.186,0,0,0,1485.639,473.882Z" transform="translate(-1480.541 -465.549)" fill="#f79744"/>
            <path id="Path_86" data-name="Path 86" d="M1490.532,486.566a.2.2,0,0,0-.344,0c-.016.028-.026.059-.037.082a.29.29,0,0,0-.172.3.239.239,0,0,0,.033.089.992.992,0,0,0-.039.157.212.212,0,0,0,.223.2,1.558,1.558,0,0,1,.323.072.275.275,0,0,0,.321-.218.535.535,0,0,0-.251-.534A.519.519,0,0,0,1490.532,486.566Z" transform="translate(-1480.782 -466.218)" fill="#f79744"/>
            <path id="Path_87" data-name="Path 87" d="M1492.605,487.951l-.145-.258a.308.308,0,0,0-.124-.114.218.218,0,0,0-.362-.058,3.559,3.559,0,0,0-.33.354.239.239,0,0,0,.08.342.5.5,0,0,0-.032.137.317.317,0,0,0,.535.23.886.886,0,0,0,.142-.173A.324.324,0,0,0,1492.605,487.951Z" transform="translate(-1480.836 -466.251)" fill="#f79744"/>
            <path id="Path_88" data-name="Path 88" d="M1489.914,488.5a.266.266,0,0,0-.073.238.457.457,0,0,0-.019.179c.043.377.438.4.712.523a.338.338,0,0,0,.475-.246.964.964,0,0,0-.253-.885A.626.626,0,0,0,1489.914,488.5Z" transform="translate(-1480.776 -466.277)" fill="#f79744"/>
            <path id="Path_89" data-name="Path 89" d="M1501.176,481.867l-.039-.015c-.077-.241-.169-.363-.521-.4a.251.251,0,0,0-.226.135.917.917,0,0,0-.1.843.492.492,0,0,0,.214.185,1.672,1.672,0,0,0,.17.163.343.343,0,0,0,.526-.12.144.144,0,0,1,.008-.029.256.256,0,0,0,.078-.076.324.324,0,0,0,.158-.28,1.456,1.456,0,0,0-.027-.19A.328.328,0,0,0,1501.176,481.867Z" transform="translate(-1481.125 -466.05)" fill="#f79744"/>
            <path id="Path_90" data-name="Path 90" d="M1500.36,484.939a.235.235,0,0,0-.419.062c-.013.013-.03.017-.038.031a.594.594,0,0,0,.016.368l.007,0a.279.279,0,0,0,.035.125c.092.16.279.122.429.156a.291.291,0,0,0,.324-.262A.479.479,0,0,0,1500.36,484.939Z" transform="translate(-1481.114 -466.164)" fill="#f79744"/>
            <path id="Path_91" data-name="Path 91" d="M1499.148,486.623c-.143,0-.332.067-.367.223a.273.273,0,0,0,.048.2.267.267,0,0,0,0,.039c.022.126.045.251.07.379a.3.3,0,0,0,.335.244,1.267,1.267,0,0,1,.224-.03.326.326,0,0,0,.308-.234A.592.592,0,0,0,1499.148,486.623Z" transform="translate(-1481.076 -466.224)" fill="#f79744"/>
            <path id="Path_92" data-name="Path 92" d="M1497.2,487.861c.006.016.037.077.071.141a1.034,1.034,0,0,0-.115.221.261.261,0,0,0,.252.328c.244-.01.5-.036.6-.291s-.114-.536-.274-.708A.321.321,0,0,0,1497.2,487.861Z" transform="translate(-1481.022 -466.252)" fill="#f79744"/>
            <path id="Path_93" data-name="Path 93" d="M1500.809,474.7a.414.414,0,0,0-.558.068.606.606,0,0,0-.384.672.823.823,0,0,0,.239.447.645.645,0,0,0,.237.182.756.756,0,0,0,.745.017C1501.67,475.746,1501.162,474.96,1500.809,474.7Z" transform="translate(-1481.113 -465.822)" fill="#f79744"/>
            <path id="Path_94" data-name="Path 94" d="M1502.308,478.741a.248.248,0,0,0-.181.41.173.173,0,0,0,0,.055.253.253,0,0,0,.082.148l.239.025a.572.572,0,0,0,.181.11.3.3,0,0,0,.4-.242.9.9,0,0,0-.009-.2c0-.01,0-.021,0-.033l-.007-.019a.25.25,0,0,0-.264-.224h-.006l-.02,0a.48.48,0,0,0-.21-.024A.832.832,0,0,0,1502.308,478.741Z" transform="translate(-1481.187 -465.959)" fill="#f79744"/>
            <path id="Path_95" data-name="Path 95" d="M1502.471,480.73a.214.214,0,0,0-.251.172.156.156,0,0,0,.008.1.294.294,0,0,0-.012.064.909.909,0,0,1,.035.233.262.262,0,0,0,.258.258,1.63,1.63,0,0,0,.362-.008c.252-.035.285-.384.136-.539A1.142,1.142,0,0,0,1502.471,480.73Z" transform="translate(-1481.192 -466.026)" fill="#f79744"/>
            <path id="Path_96" data-name="Path 96" d="M1488.788,488.234a.2.2,0,0,0-.031-.137.3.3,0,0,0-.034-.139.236.236,0,0,0-.264-.079.789.789,0,0,0-.291.253.233.233,0,0,0,.094.353A.342.342,0,0,0,1488.788,488.234Z" transform="translate(-1480.72 -466.265)" fill="#f79744"/>
            <path id="Path_97" data-name="Path 97" d="M1493.074,489.269a.242.242,0,0,0-.117.177.283.283,0,0,0,.092.26l.016.012v.019a.149.149,0,0,0,.153.1h0c.129.078.365.042.367-.153a.424.424,0,0,0-.181-.4A.273.273,0,0,0,1493.074,489.269Z" transform="translate(-1480.881 -466.311)" fill="#f79744"/>
            <path id="Path_98" data-name="Path 98" d="M1497.175,472.066a.468.468,0,0,0,.062,0,.251.251,0,0,0,.318.1.353.353,0,0,0,.51-.182,2.318,2.318,0,0,0,.079-.317.389.389,0,0,0-.318-.453.277.277,0,0,0-.08-.032c-.165-.018-.337-.009-.507-.014a.338.338,0,0,0-.254.521A.276.276,0,0,0,1497.175,472.066Z" transform="translate(-1481.015 -465.706)" fill="#f79744"/>
            <path id="Path_99" data-name="Path 99" d="M1500.787,472.664l0,0h0Z" transform="translate(-1481.144 -465.756)" fill="#f79744"/>
            <path id="Path_100" data-name="Path 100" d="M1500.417,472.591c.1.014.209.033.312.047a.25.25,0,0,1,.027-.012.042.042,0,0,1,.016.009.047.047,0,0,1,.012-.021c.019-.01.019,0-.012.021a.631.631,0,0,0,.213.067.319.319,0,0,0,.218-.547.638.638,0,0,0-.531-.181l-.086-.017a.229.229,0,0,0-.246.28.511.511,0,0,0-.034.061A.226.226,0,0,0,1500.417,472.591Z" transform="translate(-1481.127 -465.732)" fill="#f79744"/>
            <path id="Path_101" data-name="Path 101" d="M1498.952,474.31a.3.3,0,0,0,.031.482.508.508,0,0,0,.455,0,.2.2,0,0,0,.077-.014.375.375,0,0,1,.056-.031.3.3,0,0,0,.176-.3c0-.036-.007-.071-.01-.107,0,0,0,0-.008.009a.274.274,0,0,0-.328-.251h-.011a.307.307,0,0,0-.064.028v-.006A2.036,2.036,0,0,0,1498.952,474.31Z" transform="translate(-1481.079 -465.804)" fill="#f79744"/>
            <path id="Path_102" data-name="Path 102" d="M1496.536,469.016l.047.007a.237.237,0,0,0,.048.017l-.091-.016a.387.387,0,0,0,.265.094l.009.007a1.174,1.174,0,0,0,.621-.038.378.378,0,0,0,.068-.7c-.037-.179-.13-.339-.358-.327a.481.481,0,0,0-.345.222.5.5,0,0,0-.192.116.33.33,0,0,0-.2.418.3.3,0,0,0,.057.117A.386.386,0,0,0,1496.536,469.016Z" transform="translate(-1480.996 -465.602)" fill="#f79744"/>
            <path id="Path_103" data-name="Path 103" d="M1498.329,469.354a.276.276,0,0,0,.119.464.451.451,0,0,1,.053.015.269.269,0,0,0,.24-.459.477.477,0,0,0-.094-.071A.234.234,0,0,0,1498.329,469.354Z" transform="translate(-1481.059 -465.642)" fill="#f79744"/>
            <path id="Path_104" data-name="Path 104" d="M1499.2,470.489a.385.385,0,0,0,.482.18.3.3,0,0,0,.172-.309c0-.023,0-.043-.01-.065a.312.312,0,0,0-.4-.228A.27.27,0,0,0,1499.2,470.489Z" transform="translate(-1481.089 -465.669)" fill="#f79744"/>
            <path id="Path_105" data-name="Path 105" d="M1493.555,468.139a.284.284,0,0,0,.4-.037.492.492,0,0,0,.115-.193.308.308,0,0,0-.122-.355c-.017-.009-.033,0-.049-.012a.671.671,0,0,0-.523-.19.267.267,0,0,0-.173.457C1493.326,467.913,1493.432,468.036,1493.555,468.139Z" transform="translate(-1480.888 -465.578)" fill="#f79744"/>
            <path id="Path_106" data-name="Path 106" d="M1494.835,467.363a.322.322,0,0,0,.632.093.661.661,0,0,0,0-.214.233.233,0,0,0-.007-.134.514.514,0,0,0-.291-.258c-.18-.089-.456.047-.379.281a.408.408,0,0,1,.036.133c0,.036-.008.07-.011.108C1494.821,467.368,1494.831,467.366,1494.835,467.363Z" transform="translate(-1480.943 -465.56)" fill="#f79744"/>
            <path id="Path_107" data-name="Path 107" d="M1497.715,466.388a.521.521,0,0,0,.039-.061.294.294,0,0,0,.2-.4c-.008-.016-.017-.032-.024-.046a.3.3,0,0,0-.329-.164.535.535,0,0,0-.368.215.214.214,0,0,0-.049.168.374.374,0,0,0,.252.381A.246.246,0,0,0,1497.715,466.388Z" transform="translate(-1481.023 -465.523)" fill="#f79744"/>
            <path id="Path_108" data-name="Path 108" d="M1498.354,468.333a.216.216,0,0,0,.178.25c.293.021.413.015.518-.154a.154.154,0,0,0,.105-.238.276.276,0,0,0-.145-.337.421.421,0,0,0-.571.121.2.2,0,0,0-.02.123A.751.751,0,0,0,1498.354,468.333Z" transform="translate(-1481.063 -465.593)" fill="#f79744"/>
            <path id="Path_109" data-name="Path 109" d="M1486.317,484.239c-.011-.015-.023-.019-.033-.033a.382.382,0,0,0-.2-.286.512.512,0,0,0-.584.242.367.367,0,0,0-.055.1c0,.014-.012.024-.013.038v.012a.115.115,0,0,0,0,.042.306.306,0,0,0,.137.3.078.078,0,0,1,.015.014v0a.328.328,0,0,0,.061.031l.016.006a.361.361,0,0,0,.065.007c-.083.027.112.048.2.063a.4.4,0,0,0,.368-.12A.351.351,0,0,0,1486.317,484.239Z" transform="translate(-1480.629 -466.132)" fill="#f79744"/>
            <path id="Path_110" data-name="Path 110" d="M1485.259,485.789a.628.628,0,0,0-.176-.347.252.252,0,0,0-.273-.084.267.267,0,0,0-.265.447c.037.038.069.081.1.121,0,0,.006.007.007.011.028.033.055.059.08.094A.3.3,0,0,0,1485.259,485.789Z" transform="translate(-1480.597 -466.181)" fill="#f79744"/>
            <path id="Path_111" data-name="Path 111" d="M1485.221,469.6a.706.706,0,0,0,.274.152.314.314,0,0,0,.321-.09.626.626,0,0,0,.1-.983.335.335,0,0,0-.236-.134.239.239,0,0,1,0-.04.28.28,0,0,0-.553-.022c-.011.1-.057.2-.073.3a.441.441,0,0,0-.187.25l0,.013a.378.378,0,0,0,.215.428C1485,469.465,1485.149,469.537,1485.221,469.6Z" transform="translate(-1480.61 -465.609)" fill="#f79744"/>
            <path id="Path_112" data-name="Path 112" d="M1487.352,468.711a.724.724,0,0,1,.16.215.251.251,0,0,0,.383.074.378.378,0,0,0-.305-.676.176.176,0,0,0-.134.073h-.009A.188.188,0,0,0,1487.352,468.711Z" transform="translate(-1480.693 -465.611)" fill="#f79744"/>
            <path id="Path_113" data-name="Path 113" d="M1485.732,470.171a.591.591,0,0,0-.456.4c-.087.3.33.429.531.363a.254.254,0,0,0,.176-.316.237.237,0,0,0,0-.182l-.034.058A.245.245,0,0,0,1485.732,470.171Z" transform="translate(-1480.624 -465.672)" fill="#f79744"/>
            <path id="Path_114" data-name="Path 114" d="M1483.223,471.861a.563.563,0,0,0-.056.016.093.093,0,0,0-.064.089c0,.018,0,.037-.01.057s0,.025,0,.042a.585.585,0,0,0-.108.274.315.315,0,0,0,.287.325.554.554,0,0,0,.44-.289.313.313,0,0,0,.022-.253A.3.3,0,0,0,1483.223,471.861Z" transform="translate(-1480.548 -465.726)" fill="#f79744"/>
            <path id="Path_115" data-name="Path 115" d="M1483.976,473.739l-.024-.006a.121.121,0,0,0-.033,0,.256.256,0,0,0-.042-.008l-.007,0a.227.227,0,0,0-.212.174c-.008.016-.022.029-.03.044a.255.255,0,0,0,.205.387c.015,0,.033,0,.046,0a.235.235,0,0,0,.141-.006c.263-.057.377-.477.068-.561l-.051-.013A.17.17,0,0,0,1483.976,473.739Z" transform="translate(-1480.568 -465.792)" fill="#f79744"/>
            <path id="Path_116" data-name="Path 116" d="M1483.283,475.764c.463-.073.472-.482.367-.842a.511.511,0,0,0-.2-.405.109.109,0,0,0-.019-.014,1.039,1.039,0,0,0-.912-.233c-.423.137-.356.581-.165.873C1482.523,475.4,1482.945,475.818,1483.283,475.764Z" transform="translate(-1480.521 -465.809)" fill="#f79744"/>
            <path id="Path_117" data-name="Path 117" d="M1481.879,477.673a.273.273,0,0,0,.251.234.3.3,0,0,0,.073-.021.253.253,0,0,0,.33-.154.474.474,0,0,0-.3-.679.281.281,0,0,0-.114.021.3.3,0,0,0-.371.45C1481.781,477.568,1481.826,477.619,1481.879,477.673Z" transform="translate(-1480.504 -465.903)" fill="#f79744"/>
            <path id="Path_118" data-name="Path 118" d="M1483.207,478.785a.36.36,0,0,0-.522-.027.714.714,0,0,0-.329.462.3.3,0,0,0,.209.306c.152.046.254.192.418.23a.338.338,0,0,0,.327-.133A.669.669,0,0,0,1483.207,478.785Z" transform="translate(-1480.526 -465.957)" fill="#f79744"/>
            <path id="Path_119" data-name="Path 119" d="M1482.348,481.037a.271.271,0,0,0,.33-.268.421.421,0,0,0-.227-.435.2.2,0,0,0-.27.072.541.541,0,0,0-.037.077.256.256,0,0,0-.006.487Z" transform="translate(-1480.514 -466.012)" fill="#f79744"/>
            <path id="Path_120" data-name="Path 120" d="M1480.649,481.411a.234.234,0,0,0,.243.02.435.435,0,0,0,.15-.155c.012.012.024,0,.048-.032a.328.328,0,0,0,.047-.131.228.228,0,0,0-.089-.211.675.675,0,0,0-.323-.085.242.242,0,0,0-.255.275A.6.6,0,0,0,1480.649,481.411Z" transform="translate(-1480.464 -466.029)" fill="#f79744"/>
            <path id="Path_121" data-name="Path 121" d="M1481.974,482.367a.166.166,0,0,0,.07.008c.05.015.1.03.145.047a.282.282,0,0,0,.4-.273.589.589,0,0,0-.353-.52.224.224,0,0,0-.263.058.361.361,0,0,0-.071.182.163.163,0,0,0-.079.065c-.008.012-.006.026-.011.037-.009.028-.029.047-.023.08s.009.074.014.112a.222.222,0,0,0,.132.168C1481.951,482.342,1481.958,482.358,1481.974,482.367Z" transform="translate(-1480.508 -466.056)" fill="#f79744"/>
            <path id="Path_122" data-name="Path 122" d="M1486.382,467.182l.012.026a.21.21,0,0,0,.244.084l.115-.044a.3.3,0,0,0,.159-.378.5.5,0,0,0-.591-.312.193.193,0,0,0-.19.15.4.4,0,0,0-.052.077.293.293,0,0,0,.042.344A.343.343,0,0,0,1486.382,467.182Z" transform="translate(-1480.65 -465.551)" fill="#f79744"/>
            <path id="Path_123" data-name="Path 123" d="M1490.265,466.031a.241.241,0,0,0,.418-.2.348.348,0,0,0-.38-.315.24.24,0,0,0-.1.461C1490.222,466,1490.243,466.012,1490.265,466.031Z" transform="translate(-1480.785 -465.517)" fill="#f79744"/>
            <path id="Path_124" data-name="Path 124" d="M1491.44,467.83a.552.552,0,0,0,.588.074.633.633,0,0,0,.316-.647.046.046,0,0,1,0-.016,1.4,1.4,0,0,0-.014-.171.357.357,0,0,0-.491-.272,1.39,1.39,0,0,0-.351.144,1.179,1.179,0,0,0-.246.431.361.361,0,0,0,.189.445S1491.437,467.826,1491.44,467.83Z" transform="translate(-1480.824 -465.559)" fill="#f79744"/>
            <path id="Path_125" data-name="Path 125" d="M1485.178,467.029a.481.481,0,0,0-.25-.3c-.011-.028-.027-.052-.04-.085a.27.27,0,0,0-.51.173h0a1.059,1.059,0,0,0,.363.563C1484.978,467.588,1485.267,467.283,1485.178,467.029Z" transform="translate(-1480.594 -465.548)" fill="#f79744"/>
            <path id="Path_126" data-name="Path 126" d="M1482.872,468.439l.082-.071a.249.249,0,0,0-.027-.39l-.033-.016a.248.248,0,0,0-.28.019C1482.321,468.113,1482.612,468.67,1482.872,468.439Z" transform="translate(-1480.531 -465.597)" fill="#f79744"/>
            <path id="Path_127" data-name="Path 127" d="M1482.737,470.652a.321.321,0,0,0,.4-.376c-.019-.061-.04-.118-.057-.178a.329.329,0,0,0-.26-.214.535.535,0,0,0-.376.074c-.013,0-.021.018-.035.024a.776.776,0,0,0-.105,0,.286.286,0,0,0-.088.539A4.334,4.334,0,0,0,1482.737,470.652Z" transform="translate(-1480.517 -465.663)" fill="#f79744"/>
            <path id="Path_128" data-name="Path 128" d="M1489.294,490a.239.239,0,0,0-.16.343,1.149,1.149,0,0,0,.145.289.269.269,0,0,0,.492-.152.584.584,0,0,0-.09-.415A.281.281,0,0,0,1489.294,490Z" transform="translate(-1480.753 -466.335)" fill="#f79744"/>
            <path id="Path_129" data-name="Path 129" d="M1485.726,486.209a.282.282,0,0,0-.532-.089.79.79,0,0,0,.011.877.389.389,0,0,0,.663-.141.3.3,0,0,0-.114-.413A1.011,1.011,0,0,0,1485.726,486.209Z" transform="translate(-1480.618 -466.201)" fill="#f79744"/>
          </g>
          <path id="Path_130" data-name="Path 130" d="M1487.674,479.172c.391.7,1.631.245,2.182.052a6.278,6.278,0,0,0,.928-.42,3.01,3.01,0,0,0-.736,1.6.269.269,0,0,0,.346.244,2.135,2.135,0,0,0,.969-.822,1.261,1.261,0,0,0,.492,1.22.417.417,0,0,0,.629-.187,6.5,6.5,0,0,0,.161-.854,2.347,2.347,0,0,0,1.287,1.319.367.367,0,0,0,.485-.3,2.5,2.5,0,0,0-.364-1.719c-.04-.07-.091-.149-.137-.228a1.478,1.478,0,0,0,.34.061,3.982,3.982,0,0,0,1.06.2.2.2,0,0,0,.136-.349c-.147-.133-.3-.247-.449-.372a.436.436,0,0,0-.206-.334c-.329-.225-.655-.46-.977-.692a3.892,3.892,0,0,0,1.995-.472.324.324,0,0,0-.087-.587,4.161,4.161,0,0,0-2.336.068,3.94,3.94,0,0,0,.947-2.539c-.014-.286-.337-.605-.635-.4a3.136,3.136,0,0,0-.821.865,3.933,3.933,0,0,0-1.017-2.9.45.45,0,0,0-.738.2,3.785,3.785,0,0,0-.079,2.035,4.284,4.284,0,0,1-.178-.492c-.112-.422-.731-.187-.633.227.055.235.118.464.181.693-.687-.835-1.444-1.445-1.94-1.058s.008,1.3.765,2.2a.4.4,0,0,0-.347.7c.056.056.115.1.17.147a3.668,3.668,0,0,0-1.155,0,.436.436,0,0,0-.131.79,6.9,6.9,0,0,0,1.422.675c-.193.062-.392.13-.563.2C1488.228,478.124,1487.354,478.591,1487.674,479.172Z" transform="translate(-1480.702 -465.717)" fill="#f05f42"/>
          <path id="Path_131" data-name="Path 131" d="M1490.392,478.493a2.056,2.056,0,0,0,.1.363,1.128,1.128,0,0,0,.935.582,1.107,1.107,0,0,0,.835-.3,1.444,1.444,0,0,0,.677-.451,1.081,1.081,0,0,0,.524-1.586,1.129,1.129,0,0,0-.041-.274,1.333,1.333,0,0,0-1.551-.907l-.081-.051a1.125,1.125,0,0,0-1.683,1.189l.065.316A1.261,1.261,0,0,0,1490.392,478.493Z" transform="translate(-1480.786 -465.858)" fill="#b97d4f"/>
        </g>
      </g>
    </g>
    <path id="Path_762" data-name="Path 762" d="M4.71,71.822a1.666,1.666,0,0,0,2.447.21,1.532,1.532,0,0,0,.426-.94,1.557,1.557,0,0,0,.191-.338,1.206,1.206,0,0,0,.071-.436,2.859,2.859,0,0,0-.437-1.579,2.217,2.217,0,0,0-.193-.259c-.044-.155-.077-.314-.117-.47-.047-.218-.069-.45-.117-.67a15.12,15.12,0,0,0,.262-2.973,13.463,13.463,0,0,1,.887-5.094c.211-.469.464-.982.706-1.521A26.2,26.2,0,0,0,10.9,69.2c.092.215.188.423.28.636a2.543,2.543,0,0,0-1.036,2.018,1.943,1.943,0,0,0,1.56,2.242,1.853,1.853,0,0,0,1.292-.385,41.171,41.171,0,0,1,2.991,7.358,5.952,5.952,0,0,0-.318.677c-.139.275-.327.529-.45.807a2.516,2.516,0,0,0-.142,2.225c.038.065.084.128.123.191.477,1.112,1.81,1.867,2.882.818.042-.046.077-.093.123-.142.886-.613.938-3.426-.458-3.921a.547.547,0,0,0-.079-.057,2.132,2.132,0,0,0-.534-.276c-.019-.022-.049-.036-.066-.054a2.586,2.586,0,0,1-.742-.758,44.8,44.8,0,0,0-2.989-7.21,1.859,1.859,0,0,0,.384-1.3,1.793,1.793,0,0,0-.054-.695,1.952,1.952,0,0,0-.418-.861,1.323,1.323,0,0,0-.866-.81,1.684,1.684,0,0,0-.59-.1,1.018,1.018,0,0,0-.224-.041c-.074-.18-.153-.355-.227-.531-1.467-3.591-1.5-7.377-1.707-11.155a19.241,19.241,0,0,0,2.538,4.783c1.17,1.649,2.774,2.9,4.072,4.417a.248.248,0,0,0,.009.227c.349.671.042,1.374-.03,2.08a2.23,2.23,0,0,0,.392,1.522,1.661,1.661,0,0,0,2.151.513,1.966,1.966,0,0,0,.878-2.4c-.281-.793-1.667-1.983-2.637-1.777a22.4,22.4,0,0,0-2.62-3.063C12,61.459,10.2,58.757,9.594,55.13c-.031-.18-.058-.358-.084-.538-.01-.044-.01-.1-.021-.148v0c-.412-2.82-.48-5.672-1.048-8.488-.327-1.611-.741-3.207-1.186-4.8a17,17,0,0,0,1.851,2.924A33.948,33.948,0,0,0,13.4,48.2c-.011.417.074.856.089,1.27a2.724,2.724,0,0,0,.44,1.715,1.729,1.729,0,0,0,2.422.294,1.77,1.77,0,0,0-.662-3.236,4.7,4.7,0,0,0-1.219-.133,2.79,2.79,0,0,0-.349-.129.246.246,0,0,0-.147,0,.8.8,0,0,0-.373-.273l-.017,0c-1.263-1.442-2.632-2.775-3.916-4.215-1.208-1.353-1.745-3.363-2.928-4.723-.148-.4-.332-.783-.509-1.169-.027-.062-.051-.126-.076-.186-.079-.287-.164-.564-.245-.845a55.685,55.685,0,0,1-2-8.982,85.434,85.434,0,0,1-.1-10.373,54.513,54.513,0,0,0-.7-9.373C2.678,5.209,2.376,2.425.894.134A.26.26,0,0,0,.429.369C2.735,5.98,3.006,12.743,2.969,18.734c0,.849-.01,1.694-.017,2.545a25.347,25.347,0,0,0-.008,3.138c.006,1.148-.03,2.285-.073,3.423-1.4,3.539-2.686,8.679-1.712,12.669a3.288,3.288,0,0,1-.047.526c-.036.169-.087.328-.131.493-.052.077-.1.155-.156.227a4.839,4.839,0,0,0-.439.649,1.989,1.989,0,0,0-.374.87,1.657,1.657,0,0,0,.646,1.508.867.867,0,0,0,.524.3,2.7,2.7,0,0,0,.343.1A1.728,1.728,0,0,0,3.554,43.8a2.518,2.518,0,0,0-1.617-2.634c.085-2.069-.189-4.153.038-6.242a34.816,34.816,0,0,1,1.333-6.048,58.81,58.81,0,0,0,1.963,7.851c.082.262.159.518.234.775a2.2,2.2,0,0,0,.175.826.614.614,0,0,0,.041.111.288.288,0,0,0,.047.172.2.2,0,0,1,.022.033c.044.106.09.209.145.311.69,2.343,1.361,4.7,1.895,7.087a37.574,37.574,0,0,1,.632,4.15c-.164,1.773.344,3.622.3,5.405-.27,1.462-1.356,2.89-1.663,4.292a23.064,23.064,0,0,0-.382,3.833c-.044,1.238-.215,2.454-.344,3.67-.347.3-.7.559-1.016.845a1.777,1.777,0,0,0-.706.805,3.036,3.036,0,0,0-.2.358A2.286,2.286,0,0,0,4.71,71.822Z" transform="matrix(-0.966, 0.259, -0.259, -0.966, 365.457, 1219.982)" fill="#898989"/>
  </g>
</svg>
