<svg id="Group_230" data-name="Group 230" xmlns="http://www.w3.org/2000/svg" width="84.463" height="193.174" viewBox="0 0 84.463 193.174">
  <path id="Path_767" data-name="Path 767" d="M.038,29.915a.238.238,0,0,1,0-.18,3.474,3.474,0,0,1,2.548-1.858.263.263,0,0,1-.12-.458,4.2,4.2,0,0,1,1.392-.885,6.47,6.47,0,0,1,.817-.267c-.008,0,.118-.024.284-.074a.981.981,0,0,1,.658-.27H5.62c.138-.1.171-.209-.054-.316a.229.229,0,0,1,.023-.419,8.307,8.307,0,0,1,2.487-.3c.759-.008,2.23.4,1.749-.78-.044-.107.056-.259.179-.2,1.189.52,3,.614,4.017,1.529a1.394,1.394,0,0,0-.4-.842.206.206,0,0,1,.175-.336,7.614,7.614,0,0,1,3,.974,3.859,3.859,0,0,1,1.513,1.531.29.29,0,0,0,.027.023.444.444,0,0,1,.035-.12.873.873,0,0,1,.091-.143h0a.4.4,0,0,1,.246-.357.334.334,0,0,0,.038-.024,2.376,2.376,0,0,0,.275-.425c0-.049,0-.082.018-.089l0-.01a.033.033,0,0,1,.042-.04c.132.053.223.237.295.352.149.232.288.469.429.7.157.176.3.372.44.559.093.119.284.4.46.309.142-.071.106-.315.212-.449,0-.026,0-.046-.006-.073-.029-.154.192-.249.263-.1.768,1.632,2.695,2.429,2.861,4.3,0,0,0,.006,0,.013s0,.012,0,.017a2.629,2.629,0,0,1,0,.384A11.2,11.2,0,0,1,29.518,33.6c-.515-.669-1.026-1.347-1.543-2.02a24.792,24.792,0,0,1-3.7-4.318,39.79,39.79,0,0,1-2.749-3.569c-.026.007-.045.019-.068.027a.371.371,0,0,1-.095.013.834.834,0,0,1-.259-.023.169.169,0,0,1-.051-.033,7.588,7.588,0,0,1-4.823-.566,3.575,3.575,0,0,1-1.757-.993,3.9,3.9,0,0,1-.784-.782c-.086-.122-.012-.354.161-.349a1.716,1.716,0,0,0,.294-.02c-.075-.259-.163-.516-.259-.77a8.591,8.591,0,0,1-1.389-.758.247.247,0,0,1,.083-.414c.082-.015.166-.032.248-.054a10.477,10.477,0,0,1-1.972-1.844,3.767,3.767,0,0,1-.81-1.079.216.216,0,0,1,.17-.295c.309-.032.4-.315.4-.6-.308-.487-.645-.956-1.008-1.425a.591.591,0,0,1-.067-.128,13.375,13.375,0,0,1-1.064-1.818.208.208,0,0,1,.209-.292,1.873,1.873,0,0,0,.437.1A9.332,9.332,0,0,0,8.732,10.1,10.4,10.4,0,0,1,7.9,8.722c-.044-.083.049-.162.129-.144a.24.24,0,0,1-.022-.116c.032-.2.055-.416.069-.63a10.529,10.529,0,0,0-.318-1.906,2.853,2.853,0,0,0-.184-.309c-.058-.081.031-.22.13-.164l.167.1A.171.171,0,0,1,8.082,5.5a2.142,2.142,0,0,0,.943.114,2.157,2.157,0,0,1-.7-.831c-.078-.078-.165-.148-.243-.229a.324.324,0,0,1-.043-.394c-.027-.063-.058-.126-.079-.189a.117.117,0,0,1,.156-.145,2.907,2.907,0,0,0,.541.146A16.958,16.958,0,0,0,8.2,2.317,6.239,6.239,0,0,0,6.948.581L6.923.567A.283.283,0,0,1,6.747.354.079.079,0,0,1,6.738.293C6.727.129,6.823-.03,7.023,0c.023,0,.046.01.07.015v0L7.1.022A6.124,6.124,0,0,1,9.527.955a4.523,4.523,0,0,1,.688.592c.127.134.264.266.4.393.011.015.021.019.032.031.094-.187.185-.377.278-.564a.209.209,0,0,1,.368-.112,5.864,5.864,0,0,1,.5.6.236.236,0,0,1,.15.092.515.515,0,0,1,.037.057,3.3,3.3,0,0,1,1.187,1.725,3.014,3.014,0,0,0,.592-.977.837.837,0,0,1,.021-.107.158.158,0,0,1,.28-.079c.062.082.117.165.17.247a.281.281,0,0,1,.195.133c.023.036.048.074.069.112a5.05,5.05,0,0,1,1.119,1.734.95.95,0,0,0,1.005.256,1.031,1.031,0,0,0,.057-.284.161.161,0,0,1,.2-.155,2.7,2.7,0,0,1,1.5,2.145c.26.6.456,1.264.724,1.821.048-.06.086-.122.132-.179a.247.247,0,0,1,.348-.015c.221.258,1.7,3.668,1.277,3.674.436-.006.6.285.735.671a9.081,9.081,0,0,1,.386,3.494c.012.414.014.824.014,1.231a2.773,2.773,0,0,1,.428-.4.314.314,0,0,1,.5.272,7.5,7.5,0,0,1-.235,1.924c-.084.347-.3.711-.418,1.064.044,0,.087,0,.132-.006a.264.264,0,0,1,.322.318,7.609,7.609,0,0,1-.767,2.7c1.52,1.32,2.553,3.193,3.839,4.715.033.04.068.078.1.115,1.45,1.51,2.919,2.977,4.234,4.619.313.394.613.8.907,1.211-.023-.13-.044-.257-.064-.383a11.394,11.394,0,0,1-.145-1.243,2.565,2.565,0,0,1-.932-1,8.68,8.68,0,0,1-1.247-5.953.277.277,0,0,1,.437-.172,3.687,3.687,0,0,0,.344.224,10.843,10.843,0,0,1-.32-4.573c-.006-.278.02-.559.008-.8-.006-.09.122-.1.149-.023a1.9,1.9,0,0,0,.232.411.184.184,0,0,1,.08.04c.874.814.263-1.779.195-2.175a7.508,7.508,0,0,1,.041-3.175.222.222,0,0,1,.132-.148c0-.011,0-.028,0-.04a.194.194,0,0,1,.2-.187c.247.009.381-.189.451-.439-.04-.176-.078-.337-.088-.418-.024-.2-.036-.4-.04-.6a3.852,3.852,0,0,1-.043-2.106.149.149,0,0,1,.275-.019,4.233,4.233,0,0,0,.257.4c1.033.188,1.507-2.363,1.657-3.321L32.6,8.307a.117.117,0,0,1,.037-.162.071.071,0,0,0,0-.028c0-.019.017-.023.027-.034-.01-.091-.018-.182-.033-.273-.04-.2.255-.241.3-.049.014.059.034.129.053.2a.147.147,0,0,1,.089.073c.233.417.466.831.683,1.26,0,0,.006.006.006.01.27.334.572.7.884,1.048.1,0,.175-.129.185-.451a.289.289,0,0,1,.525-.169c.4.63.627,1.9,1.545,1.934.025,0,.04.015.062.018a.4.4,0,0,0,.057-.017,1.225,1.225,0,0,0,.322-.5.15.15,0,0,1,.288.021c.067.592.176,1.261.2,1.917.037.339.062.68.094,1.019.15.242.343.327.6.036a.148.148,0,0,1,.14-.048c.063-.071.188-.08.215.04a7.314,7.314,0,0,1-.041,2.928.158.158,0,0,1,.192.132,5.925,5.925,0,0,1,.087,1.045c.492,2.258.063,5.043-1.8,6.5.107.047.2.095.308.144.173.01.358.186.282.372A5.384,5.384,0,0,1,37,27.043a3.008,3.008,0,0,1-.723.66c.009,0-1.9,1.051-1.031,1.117a.306.306,0,0,1,.272.4,4.407,4.407,0,0,1-3.091,2.794,1.512,1.512,0,0,1-1.067.519c.248.692.381,1.429.61,2.126.2.6.5,1.22.654,1.852.026.042.053.083.077.127a10.017,10.017,0,0,1,1.2,2.14c.854,1.588,1.668,3.2,2.509,4.75.032.04.063.078.1.123l0,0a16.524,16.524,0,0,1,1.315,1.364c.175.158.356.306.537.455a6.587,6.587,0,0,1-.044-.826,7.105,7.105,0,0,0-1.393-1.733,5.413,5.413,0,0,1-1.049-1.8c-.045-.14-.079-.28-.11-.419a6.883,6.883,0,0,1-.465-1.324c-.053-.206.239-.307.36-.161a1.6,1.6,0,0,0,.346.309.5.5,0,0,1,.335,0,6.047,6.047,0,0,1-.916-4.228c.039-.237.379-.413.543-.168a1.625,1.625,0,0,0,.335.441.676.676,0,0,1,.18.019,26.918,26.918,0,0,1-.054-3.855.159.159,0,0,1,.31-.045c.189.47.517.587.77.782a3.965,3.965,0,0,1,0-1.463c.105-.793.814-2.134.583-2.919-.061-.212.235-.282.339-.121,1.119,1.744,1.326-1.434,1.494-2.025a26.091,26.091,0,0,1,1.36-2.656c.014-.035.072-.055.093-.011a1.393,1.393,0,0,1,.141.381c.13.259.219.7.555.692a1.5,1.5,0,0,0,.856-.542,3.2,3.2,0,0,0,.982-1.81,2.714,2.714,0,0,1-.019-.335c0-.212.3-.221.354-.032a1.753,1.753,0,0,1,.061.443c.082.218.159.436.229.657a19.506,19.506,0,0,1,1.6,4.058c0-.011.2,3.651,1.252,2.3.1-.128.348-.093.361.086a5.186,5.186,0,0,1,.024,1.716c0,.036-.627,2.916-.322,2.72a.32.32,0,0,1,.509.293,15.467,15.467,0,0,1-.4,1.978c-.137.419-1.7,3.007-.683,2.506.312-.157.519.239.374.486-.851,1.44-1.343,2.729-2.952,3.192.024.078.049.158.078.236a1.266,1.266,0,0,0,.5.152c.192.037.276.338.053.411-.522.17-1.009.5-1.546.635a4.73,4.73,0,0,1-1.389.088.315.315,0,0,1-.143.563c-.807.177-1.386.637-2.228.51a.223.223,0,0,1-.057-.022,2.972,2.972,0,0,0-.417.593,6.676,6.676,0,0,1,.217,1.114v0A26.552,26.552,0,0,1,43.7,51.2c1.239,1.748,2.2,3.7,3.31,5.535a19.806,19.806,0,0,1,2.658,7.133.161.161,0,0,1-.308.082c-.017-.041-.036-.085-.052-.126a.409.409,0,0,1-.312.055c0,.028,0,.057,0,.082a.372.372,0,0,1-.732.035c-.373-1.239-.753-2.477-1.168-3.7-.161-.383-.292-.782-.42-1.177a17.253,17.253,0,0,0-2.548-3.035,10.243,10.243,0,0,0-4.174-1.937c.022.854-.7,1.291-1.406,2.078a6.472,6.472,0,0,1-4.124,2.194.218.218,0,0,1-.159-.385l.006,0c-1.63.242-3.028.987-4.775.426a.3.3,0,0,1-.191-.419.8.8,0,0,1,.377-.379,13.767,13.767,0,0,1-4.294-.788.281.281,0,0,1,.1-.531c.008-.154.016-.311.026-.467-.256-.016-.51-.033-.765-.045a1.089,1.089,0,0,1-.7-.3.264.264,0,0,1-.019-.415l.012-.766a3.725,3.725,0,0,1-1.3-1.148c-.082-.105-.051-.318.115-.33a1.289,1.289,0,0,0,.215-.036,9.073,9.073,0,0,0-.586-.938c-.006-.007,0-.02-.01-.028-.271-.09-.5-.154-.6-.183a.244.244,0,0,1,0-.469c.027-.021.057-.042.082-.065-.305-.285-.593-.591-.876-.893a.232.232,0,0,1,.2-.4,8.614,8.614,0,0,1,1.294.226,2.575,2.575,0,0,1-.087-.3.215.215,0,0,1,.289-.226,4.365,4.365,0,0,0,2.027.28c.01,0,.216-.028.481-.079.417-.175.813-.4,1.2-.589a.174.174,0,0,0-.039-.037.174.174,0,0,1,.1-.3c.3,0,.594,0,.886.016a1.382,1.382,0,0,1,.528.025l.071.016c.146.01.289.018.438.033.045,0,2.048.482,1.645-.169a.162.162,0,0,1,.149-.255c.432.052,3.33,1.016,3.144.147-.032-.137.125-.206.23-.173.356.118.716.251,1.071.4a3.684,3.684,0,0,1,1.268.6A7.777,7.777,0,0,1,39.8,53.458c.006.006.015.011.019.017.032.086.042.158.065.238s.05.137.07.208c0,0,0,0,0,.01a7.726,7.726,0,0,1,4.212,1.349,10.054,10.054,0,0,1,1.169.884c-.168-.326-.337-.651-.519-.969-.133-.229-.271-.456-.4-.684a.179.179,0,0,1-.151-.081,54.579,54.579,0,0,0-3.407-4.5c-1.3-1.522-2.917-2.733-4.3-4.18a8.118,8.118,0,0,1-.744-.921,11.482,11.482,0,0,0-2.952-2.7,7.437,7.437,0,0,0-3.041-.957.682.682,0,0,0-.074.015v0c0,.011,0,.018,0,.027a2.739,2.739,0,0,1,.42,1.685,2.621,2.621,0,0,1-.65,1.539.36.36,0,0,1-.078.089,4.676,4.676,0,0,1-.7.634.145.145,0,0,1-.234-.152c.165-.76.1-.267-.171.057a6.492,6.492,0,0,1-.7.756,2.908,2.908,0,0,1-2.489.9.193.193,0,0,1-.112-.285,1.5,1.5,0,0,0,.274-.462.55.55,0,0,0-.158.027c-.072.021-.145.044-.215.064a7.419,7.419,0,0,0-1.468,1.2c-.011.014-.026.023-.038.037a2.513,2.513,0,0,1-.509.376c-.168.075-.269-.142-.187-.267.367-.556-.666.11-.678.122a3.655,3.655,0,0,1-.811.484,2.408,2.408,0,0,1-2.061.143.207.207,0,0,1-.069-.343c.041-.047.09-.086.134-.13-.869.115-1.672.551-2.432-.114a.153.153,0,0,1-.052-.159,3.693,3.693,0,0,1-1.852-.968.206.206,0,0,1,.12-.334c.295-.041-1.049-.648-1.148-.7a4.165,4.165,0,0,1-1.1-.965,4.692,4.692,0,0,1-1.249-2.529.168.168,0,0,1,.188-.183,6.967,6.967,0,0,0,.9.093.275.275,0,0,1,.251-.075c.111-.082.157-.24.089-.539a.155.155,0,0,1,.171-.179,8.824,8.824,0,0,0,1.282.175,3.282,3.282,0,0,1,.616.03c.223,0,.431-.029.638-.047-.048-.077-.039-.193.074-.208-.019,0,1.182-.172.553-.441a.167.167,0,0,1-.031-.287,2.017,2.017,0,0,1,.771-.369,3.62,3.62,0,0,1,.832-.117l.037,0a1.628,1.628,0,0,0,1.608-.972.151.151,0,0,1-.018-.276,4.366,4.366,0,0,1,2.758-.438c.1.019,2.262.522,1.673-.267a.175.175,0,0,1,.171-.266,7.181,7.181,0,0,1,.761.126c1.827-.12,4.309,1.36,4.811,3.1l0,0a5,5,0,0,1,2.2.22,6.9,6.9,0,0,1,2.339,1c-.162-.331-.319-.661-.481-.983-.8-1.615-1.69-3.19-2.511-4.791a13.761,13.761,0,0,0-1.588-1.559,16.924,16.924,0,0,0-5.65-2.772,3.841,3.841,0,0,1-1.757,2.654A13.938,13.938,0,0,1,20.263,35.6c-1.058.47-2.656.5-3.419,1.411a.262.262,0,0,1-.446-.028,1.9,1.9,0,0,1-.1-1.639c-.637.313-1.2.751-1.811,1.1a6.214,6.214,0,0,1-2.891.694.224.224,0,0,1-.146-.4c1.851-1.487-1.073-.834-1.843-.8a5.035,5.035,0,0,1-1.848-.465.219.219,0,0,1,.058-.416c.4-.382.354-.523-.152-.427a3.8,3.8,0,0,1-.893-.116,4.06,4.06,0,0,1-1.3-.622.228.228,0,0,1,.017-.414c.877-.443-1.106-.722-1.056-.719a2.607,2.607,0,0,1-.948-.26.224.224,0,0,1-.077-.347c.7-.711-.874-.628-1.274-.759a.231.231,0,0,1-.081-.412,12.183,12.183,0,0,0-1.892-.7A.25.25,0,0,1,.038,29.915Z" transform="translate(80.674 24.405) rotate(90)" fill="#fff"/>
  <path id="Path_768" data-name="Path 768" d="M55.771,54.674a1.8,1.8,0,0,0,2.114-1.618,1.659,1.659,0,0,0-.34-1.065,1.88,1.88,0,0,0-.1-.408,1.3,1.3,0,0,0-.26-.4,3.12,3.12,0,0,0-1.5-.948,2.146,2.146,0,0,0-.345-.063c-.146-.094-.292-.2-.437-.295-.2-.138-.384-.31-.58-.449a16.666,16.666,0,0,0-1.962-2.576,14.525,14.525,0,0,1-3.008-4.73c-.173-.53-.347-1.125-.545-1.731a28.506,28.506,0,0,0,10.006,7.667c.23.1.46.2.688.3a2.763,2.763,0,0,0,.644,2.374,2.107,2.107,0,0,0,2.888.659,2.041,2.041,0,0,0,.756-1.251,44.593,44.593,0,0,1,7.766,3.711,6.155,6.155,0,0,0,.241.775c.088.322.125.662.228.975a2.716,2.716,0,0,0,1.51,1.886c.076.025.159.042.236.065,1.194.541,2.814.173,2.908-1.449,0-.068-.008-.13-.006-.2.264-1.137-1.749-3.432-3.228-2.809-.041.007-.076.006-.106.012a2.477,2.477,0,0,0-.632.17.69.69,0,0,0-.088.007,2.814,2.814,0,0,1-1.148-.065,48.364,48.364,0,0,0-7.659-3.6,2.017,2.017,0,0,0-.644-1.324,1.92,1.92,0,0,0-.551-.517,2.11,2.11,0,0,0-.962-.386,1.438,1.438,0,0,0-1.284-.015,1.825,1.825,0,0,0-.55.351,1.2,1.2,0,0,0-.21.128l-.568-.259c-3.8-1.8-6.583-4.82-9.513-7.691a20.832,20.832,0,0,0,5.527,1.98c2.14.466,4.343.3,6.486.568a.273.273,0,0,0,.175.171c.766.284,1.037,1.073,1.494,1.692a2.414,2.414,0,0,0,1.422.932,1.8,1.8,0,0,0,2.1-1.161,2.134,2.134,0,0,0-1.046-2.561c-.805-.429-2.783-.37-3.413.506a23.8,23.8,0,0,0-4.335-.542c-3.9-.437-7.311-1.29-10.445-3.756-.156-.12-.308-.245-.458-.371-.043-.031-.08-.071-.125-.1l0,0c-2.39-1.96-4.524-4.2-7.036-6.036-1.436-1.053-2.935-2.028-4.453-2.98a18.862,18.862,0,0,0,3.616.992,37.067,37.067,0,0,0,6.456.166c.295.343.686.633,1,.953A2.906,2.906,0,0,0,48.1,31.4a1.866,1.866,0,0,0,2.154-1.529,1.918,1.918,0,0,0-2.892-2.109,5.02,5.02,0,0,0-1.074.786,2.624,2.624,0,0,0-.374.149.273.273,0,0,0-.121.105.858.858,0,0,0-.5.052s-.006.012-.012.014c-2.062-.231-4.13-.3-6.213-.517-1.956-.2-3.853-1.424-5.792-1.645-.411-.211-.84-.386-1.262-.568-.067-.03-.133-.064-.2-.093-.272-.172-.541-.331-.81-.5a61.012,61.012,0,0,1-8.159-5.738c-2.813-2.442-5.165-5.478-7.656-8.236a58.9,58.9,0,0,0-7.4-7C5.514,2.777,3.24.765.379.011a.284.284,0,0,0-.2.531c5.943,2.812,11.1,8.032,15.442,12.86.615.687,1.229,1.367,1.842,2.054a28.958,28.958,0,0,0,2.285,2.522c.844.915,1.642,1.85,2.443,2.8,1.462,3.853,4.182,8.916,7.877,11.4a4.134,4.134,0,0,1,.346.455c.092.163.171.326.251.491.015.1.037.2.044.3a5.621,5.621,0,0,0,.119.842,2.171,2.171,0,0,0,.337.97,1.791,1.791,0,0,0,1.618.735.953.953,0,0,0,.644-.138,3.139,3.139,0,0,0,.351-.165,1.876,1.876,0,0,0,.609-2.6,2.73,2.73,0,0,0-3.217-.934c-1.444-1.717-3.186-3.187-4.529-5.025a38.012,38.012,0,0,1-3.347-5.822A63.683,63.683,0,0,0,30.6,26.14c.255.15.5.3.754.452a2.328,2.328,0,0,0,.743.531,1.156,1.156,0,0,0,.111.059.323.323,0,0,0,.167.1.337.337,0,0,0,.04.011,3.527,3.527,0,0,0,.344.145c2.266,1.37,4.522,2.773,6.692,4.3A41.155,41.155,0,0,1,42.988,34.6c1.161,1.541,2.921,2.654,4.187,4.116.849,1.366,1.021,3.3,1.8,4.652a24.689,24.689,0,0,0,2.49,3.35c.869,1.026,1.62,2.122,2.4,3.192-.06.49-.151.958-.2,1.419a1.921,1.921,0,0,0,.022,1.158,3.03,3.03,0,0,0,.1.437A2.475,2.475,0,0,0,55.771,54.674Z" transform="translate(6.373 76.698) rotate(-90)" fill="#898989"/>
  <path id="Path_770" data-name="Path 770" d="M1447.533,469.942a.93.93,0,0,0,.738.635,7.972,7.972,0,0,0-.9.84.732.732,0,0,0,.363,1.107c.158.229.348.446.516.654.291.36.778.284.957.733a2.471,2.471,0,0,0,1.03.991c.438.3.452.806.975,1.01.866.339,1.811-.489,2.387-1.113,1.415-.7,2.814-2.185,2.623-3.629a2.751,2.751,0,0,0-.4-2.408,3.2,3.2,0,0,0-3.231-1.1c-.88.095-1.765.243-2.638.39a4.224,4.224,0,0,0-2,.715A1.155,1.155,0,0,0,1447.533,469.942Z" transform="translate(-1383.661 -308.67)" fill="#f9d0d0"/>
  <path id="Path_771" data-name="Path 771" d="M1479.8,480.2c.254-.1.755-.448,1.016-.221a.987.987,0,0,0,.457.242c.769.167.99-.686,1.627-.73.577-.039,1.006.1,1.429-.435a2.3,2.3,0,0,0,.41-1.646c-.127-1.611-1.162-2.954-1.6-4.483a9.666,9.666,0,0,1-.612-1.048.322.322,0,0,1-.038-.161,3.419,3.419,0,0,0-.431-.582,1.884,1.884,0,0,0-2.645-.08c-.782.731-.861,2.047-.992,3.035-.211,1.6-.9,3.271-.642,4.9A1.378,1.378,0,0,0,1479.8,480.2Z" transform="translate(-1420.588 -287.175)" fill="#f9d0d0"/>
  <g id="Group_211" data-name="Group 211" transform="translate(0 74.583)">
    <path id="Path_69" data-name="Path 69" d="M1502.119,471.292c-1.25.516-3.722,2.21-5.01,1.092a4.862,4.862,0,0,0-2.254-1.191c-3.792-.824-4.877,3.382-8.02,3.6-2.846.194-4.959-.51-7.044,2.145a11.361,11.361,0,0,0-2.019,8.112c.624,7.939,5.729,14.563,7.9,22.1a47.805,47.805,0,0,1,3.018,5.164,1.586,1.586,0,0,1,.187.795,16.832,16.832,0,0,0,2.125,2.87,9.285,9.285,0,0,0,13.035.395c3.857-3.6,4.243-10.092,4.888-14.961,1.041-7.878,4.419-16.121,3.165-24.169C1511.266,471.978,1507.442,469.1,1502.119,471.292Z" transform="translate(-1459.168 -470.551)" fill="#f9d0d0"/>
    <path id="Path_70" data-name="Path 70" d="M1490.7,497.441c-.437-1.777-1.959-2.672-3.636-3.132,1.488-1.353,3.795-3.176,4.418-4.141,1.536-2.389.236-4.37-1.787-5.455-.781-1.13-1.714-2.2-2.545-3.224-1.434-1.777-3.834-1.4-4.717-3.613-.893-2.237-3.172-3.6-5.078-4.883-2.157-1.456-2.229-3.974-4.807-4.98-4.268-1.672-8.926,2.408-11.765,5.487-6.974,3.449-13.872,10.769-12.93,17.888a13.557,13.557,0,0,0,1.981,11.869c3.813,5.391,9.78,6.074,15.926,5.41,4.34-.467,8.7-1.2,13-1.923,3.564-.6,6.983-1.265,9.872-3.522A5.694,5.694,0,0,0,1490.7,497.441Z" transform="translate(-1408.791 -457.68)" fill="#f9d0d0"/>
    <path id="Path_71" data-name="Path 71" d="M1491.965,459.011a5.751,5.751,0,0,0,3.908,2.519c1.224.142,3.1-.25,4.538.054l.061.055a1.661,1.661,0,0,0,1.213,1.5c.227.082.453.159.677.236.312.961.429,2.179.77,3.057.449,1.163,2.061,2,3.056,2.591,2.408,1.424,2.935,4.575,5.184,6.193,4.608,3.31,10.037.939,12.381-3.752,1.421-2.849,1.463-6.2,2.837-9.118,1.258-2.676,2.612-5.168,3.1-8.114a1.993,1.993,0,0,0,0-.617c1.223-2.411,1.833-5.06.925-7.564-2.177-5.991-9.592-5.123-14.771-4.893-7.24.319-14.472,2.04-20.505,6.148C1491.408,449.98,1488.711,454.616,1491.965,459.011Z" transform="translate(-1490.514 -399.196)" fill="#f9d0d0"/>
    <path id="Path_72" data-name="Path 72" d="M1464.1,474.825a1.2,1.2,0,0,1,1.379.065c2.822,1.885,5.955-2.3,8.9-3.077,3.6-.949,6.708-.483,10.007-2.652,4.965-3.26,10.354-7.275,10.987-13.283-1.549-7.377-11.184-13.059-19.5-14.8a3.091,3.091,0,0,0-1.1-.027,16.6,16.6,0,0,0-1.584-.613c-.248-.166-.483-.349-.744-.5a2.552,2.552,0,0,0-2.176-.121,12.436,12.436,0,0,0-3.069.073c-6.245.938-7.035,8.006-7.454,11.524-.777,6.526-1.748,13.341.722,19.182A8.758,8.758,0,0,0,1464.1,474.825Z" transform="translate(-1423.529 -396.479)" fill="#f9d0d0"/>
    <path id="Path_73" data-name="Path 73" d="M1506.428,470.823c-3.188-.928-6-.224-6.916,3.206-.372,1.379-.22,2.839-.587,4.214-.287,1.082-3.742,1.639-4.71,2.078-3.252,1.476-2.727,5.645-1.649,8.34,1.489,3.716,6.336,6.026,9.81,7.337,5.875,2.216,12.331,2.551,18.3,4.475a1.782,1.782,0,0,0,1.879-.435,14.905,14.905,0,0,0,2.271-.078,1.917,1.917,0,0,0,1.533-2.21c-1.178-8.118-9.085-12.811-13.414-19.118C1511.292,476.218,1509.547,471.732,1506.428,470.823Z" transform="translate(-1487.064 -452.176)" fill="#f9d0d0"/>
    <g id="Group_111" data-name="Group 111" transform="translate(18.947 0.624)">
      <path id="Path_74" data-name="Path 74" d="M1494.551,518.1a104.114,104.114,0,0,1-10.22-11.608c-2.733-3.769-5.442-8.309-5.961-13.019a17.026,17.026,0,0,1,1.8-9.907c2.294-4.109,6.035-2.231,8.513.6a.1.1,0,0,0,.17-.044c1.786-9.278,16.17-11.613,21.462-4.1a9.247,9.247,0,0,1,1.132,7.392,47.519,47.519,0,0,0-1.38,5.053,12.42,12.42,0,0,0,.573,4.507c2.036,8.085-3.811,15.454-8.841,21.093-.087.095.056.239.143.142,3.08-3.451,6.018-6.978,7.812-11.291a19.162,19.162,0,0,0,1.588-6.848c.047-2.579-1.108-4.993-1.07-7.6.035-2.44,1.554-4.664,1.682-7.133a8.932,8.932,0,0,0-.68-3.964,9.432,9.432,0,0,0-5.142-4.907c-4.9-2-11.143-1.21-14.956,2.618a8.814,8.814,0,0,0-1.906,2.888c-.125.31-.5,1.98-.816,1.62a11.663,11.663,0,0,0-2.154-1.9,3.975,3.975,0,0,0-5.54.677c-3.09,3.466-3.4,10.149-1.887,14.318,3.1,8.543,9.277,15.174,15.531,21.554a.1.1,0,0,0,.145-.145Z" transform="translate(-1477.994 -475.408)" fill="#f49a8c"/>
    </g>
    <g id="Group_112" data-name="Group 112" transform="translate(40.546 12.338)">
      <path id="Path_75" data-name="Path 75" d="M1446.33,497.567c.266-7.856,5.614-15.385,10.869-20.827,5.744-5.943,13.6-10.89,22.013-7.846,7.455,2.7,10.894,10.861,10.636,18.287-.12,3.436-1.341,16.594-7.445,11.524-.082-.07-.228.02-.158.123,3.687,5.522-7.214,7.579-10.694,7.464-3.532-.117-7.233-2.011-10.272-3.631a34.311,34.311,0,0,1-9.1-6.81c-.088-.1-.231.048-.142.143a37.322,37.322,0,0,0,12,8.26c3.16,1.449,6.547,2.59,10.052,2.117,2.873-.387,6.25-1.2,8.294-3.42a3.1,3.1,0,0,0,.794-2.546,3.807,3.807,0,0,0-.53-1.339,4.056,4.056,0,0,0,1.241.83c4.472,1.964,5.615-6.978,5.91-9.431.761-6.321-.13-12.4-4.362-17.444a15.621,15.621,0,0,0-12.5-5.371c-4.455.233-8.611,2.775-12.022,5.451a45.292,45.292,0,0,0-10.331,11.8c-2.341,3.777-4.3,8.159-4.454,12.662,0,.132.2.131.2,0Z" transform="translate(-1446.126 -467.631)" fill="#f49a8c"/>
    </g>
    <g id="Group_113" data-name="Group 113" transform="translate(3.53 22.183)">
      <path id="Path_76" data-name="Path 76" d="M1523.841,492.134c-.537-4.609-3.139-8.7-5.91-12.294a39.865,39.865,0,0,0-7.33-7.6c-1.832-1.376-9.9-6.7-11.708-2.98a3.869,3.869,0,0,0,.051,2.516,13,13,0,0,0,.8,2.1c.344.773-1.974,1.514-2.47,1.753a8.885,8.885,0,0,0-3.448,2.407c-.957,1.267.5,2.579-.642,3.646-5.784,5.414,2.5,11.78,7.269,13.68,9.517,3.784,20.087-1.452,27.04-7.821.1-.089-.047-.233-.144-.143-6.779,6.21-15.524,10.329-24.869,8.376-6.175-1.289-15.4-8.748-8.318-14.69a.1.1,0,0,0,.016-.124c-2.1-3.753,3.562-5.126,5.934-6.563a.1.1,0,0,0,.035-.139c-1.182-2.484-2.308-6.425,1.829-5.862a19.257,19.257,0,0,1,7.424,3.251,34.606,34.606,0,0,1,7.206,6.873c3.259,3.829,6.439,8.5,7.033,13.613.015.128.218.129.2,0Z" transform="translate(-1491.203 -467.961)" fill="#f49a8c"/>
    </g>
    <g id="Group_114" data-name="Group 114" transform="translate(0.878 44.161)">
      <path id="Path_77" data-name="Path 77" d="M1527.86,442.38a.206.206,0,0,0-.4.093c2.051,9.559,5.35,22.128-2.964,29.649-8.347,7.553-16.89-7.369-19.321-13.695a3.545,3.545,0,0,1-2.989-5.058c-.051-.094-.1-.187-.155-.277a.206.206,0,0,0-.266-.293,11.641,11.641,0,0,1-5.118,1.405c-4.572.115-4.878-5.56-2.544-8.151,1.99-2.209,5.793-3.739,8.436-5.008,7.585-3.642,16.456-3.326,24.614-2.571.264.024.28-.386.019-.41-7.525-.7-14.959-.779-22.214,1.581-4.092,1.327-10.641,4.083-12.592,8.294-1.7,3.673,1.781,6.738,5.125,6.654,1.8-.045,4.068-2.126,3.311.386-.321,1.065.1,2.841,1.2,3.352a3.24,3.24,0,0,0,1.875.509c1.509-.161,2.125,2.591,2.627,3.607a36.715,36.715,0,0,0,4.294,6.6c2.784,3.47,6.831,6.377,11.407,4.913,4.47-1.433,7.152-6.952,7.706-11.239C1530.805,455.848,1529.3,449.074,1527.86,442.38Z" transform="translate(-1491.918 -437.636)" fill="#f49a8c"/>
    </g>
    <g id="Group_115" data-name="Group 115" transform="translate(33.536 42.911)">
      <path id="Path_78" data-name="Path 78" d="M1459.614,439.584c-1.837,6.539-3.844,13.156-4.345,19.966-.368,5.021.4,10.587,4.816,13.674,2.5,1.748,5.7,2.231,8.675,2.347,4.167.16,8.857-.293,12.647-2.115a16.465,16.465,0,0,0,5.167-3.827c1.92-2.267,3.42-4.141,6.15-5.476,3.248-1.589,4.851-5.683,4.324-9.169-1.578-10.446-14.317-16.4-23.679-17.227-.13-.013-.129.19,0,.2,9.24.817,21.42,6.532,23.412,16.6a10.06,10.06,0,0,1-1.573,7.233c-1.383,2.236-4.453,2.856-6.3,4.692a36.029,36.029,0,0,0-2.474,3,15.24,15.24,0,0,1-3.289,2.716,16.988,16.988,0,0,1-7.07,2.646c-6.956,1.131-16.441,1.178-19.593-6.492-2.437-5.93-.649-13.3.782-19.253.764-3.176,1.665-6.318,2.55-9.465a.1.1,0,0,0-.2-.053Z" transform="translate(-1455.188 -437.756)" fill="#f49a8c"/>
    </g>
    <path id="Path_79" data-name="Path 79" d="M1491.637,475.537a1.2,1.2,0,0,0-.975,1.01,1.246,1.246,0,0,0-.672,1.359,1.9,1.9,0,0,0,.309.879c.045.606.428,1.113,1.194.88a1.136,1.136,0,0,0,.51-.324,1.007,1.007,0,0,0,.27-.291.54.54,0,0,0,.108-.088l0,0a1.561,1.561,0,0,0,1.054-1.649A1.823,1.823,0,0,0,1491.637,475.537Z" transform="translate(-1452.382 -436.351)" fill="#b97d4f"/>
    <path id="Path_80" data-name="Path 80" d="M1491.772,470.993a.162.162,0,0,1-.035-.01c1.631,6.2,5.393,11.767,7.174,17.957a47.716,47.716,0,0,1,3.018,5.164,1.587,1.587,0,0,1,.187.795,16.815,16.815,0,0,0,2.125,2.87,8.922,8.922,0,0,0,3.87,2.439,15.188,15.188,0,0,0,2.065-.078,1.917,1.917,0,0,0,1.533-2.21c-1.178-8.118-9.084-12.811-13.414-19.118C1496.637,476.388,1494.892,471.9,1491.772,470.993Z" transform="translate(-1472.408 -452.346)" fill="#f9d0d0" style="mix-blend-mode: multiply;isolation: isolate"/>
    <path id="Path_81" data-name="Path 81" d="M1490.514,473.1a14.226,14.226,0,0,1,.721-1.924c1.258-2.676,2.612-5.168,3.1-8.114a1.993,1.993,0,0,0,0-.617c1.224-2.411,1.833-5.06.925-7.564a7.572,7.572,0,0,0-.623-1.285c-2.471,2.615-2.965,6.876-3.261,9.368A88.322,88.322,0,0,0,1490.514,473.1Z" transform="translate(-1455.159 -408.027)" fill="#f9d0d0" style="mix-blend-mode: multiply;isolation: isolate"/>
    <path id="Path_82" data-name="Path 82" d="M1490.322,474.395a34.256,34.256,0,0,0-12.35-5.327,3.089,3.089,0,0,0-1.1-.027,16.581,16.581,0,0,0-1.585-.613c-.248-.166-.483-.349-.744-.5a2.551,2.551,0,0,0-2.176-.121,12.441,12.441,0,0,0-3.069.073,7.156,7.156,0,0,0-3.192,1.281c.18.3.366.593.567.88,3.813,5.391,9.779,6.074,15.926,5.41C1485.172,475.174,1487.75,474.8,1490.322,474.395Z" transform="translate(-1425.635 -424.466)" fill="#f9d0d0" style="mix-blend-mode: multiply;isolation: isolate"/>
    <path id="Path_83" data-name="Path 83" d="M1491.6,472.392c-6.974,3.449-13.872,10.769-12.931,17.888a13.557,13.557,0,0,0,1.981,11.869,13.379,13.379,0,0,0,1.529,1.806,9.1,9.1,0,0,0,2.3-1.564c3.857-3.6,4.243-10.092,4.888-14.961.687-5.213,2.393-10.586,3.108-15.955C1492.164,471.784,1491.87,472.094,1491.6,472.392Z" transform="translate(-1439.608 -456.574)" fill="#f9d0d0" style="mix-blend-mode: multiply;isolation: isolate"/>
    <g id="Group_117" data-name="Group 117" transform="translate(28.048 28.272)">
      <g id="Group_116" data-name="Group 116">
        <path id="Path_84" data-name="Path 84" d="M1494.01,470.1a.1.1,0,0,0-.02.022.029.029,0,0,1,.016-.014Z" transform="translate(-1484.968 -449.646)" fill="#f79744"/>
        <path id="Path_85" data-name="Path 85" d="M1498.479,480.311a.478.478,0,0,0,.081-.82c-.295-.2-.571-.41-.84-.623a3.368,3.368,0,0,0,1.766.125.518.518,0,0,0,.331-.691,8.076,8.076,0,0,0,1.238-.164c.531-.117.445-.89-.035-1.007-.547-.136-1.1-.252-1.645-.361a.231.231,0,0,0-.208-.148c-.182,0-.394-.036-.586-.027a.566.566,0,0,0-.066-.09,5.688,5.688,0,0,0,1.542-.587.523.523,0,0,0-.142-.951c-.078-.011-.151-.013-.228-.025a2.032,2.032,0,0,0,.194-.312.506.506,0,0,0-.392-.746.446.446,0,0,0,.093-.156.374.374,0,0,0,.347-.171.717.717,0,0,0,.432-.721.768.768,0,0,0-1.1-.573.751.751,0,0,0-.419.733c0,.031.017.052.024.083-.081.023-.162.044-.243.069a.535.535,0,0,0-.186-.6.393.393,0,0,0-.024-.115c.1-.083.2-.163.3-.244a.374.374,0,0,0,.127-.263c.412-.237.036-.923-.46-.742a5.1,5.1,0,0,0-.592.265c-.1.05-.2.1-.306.159-.08.028-.157.066-.234.1a.554.554,0,0,0-.364-.551c-.01,0-.02,0-.028-.008.336-.974.525-2.011.769-3,.116-.487-.475-.695-.793-.409a7.8,7.8,0,0,0-1.327,1.575,5.78,5.78,0,0,0-.225-.864.348.348,0,0,0,.269-.261c.023-.029.05-.054.069-.084a.213.213,0,0,0-.111-.352,2.687,2.687,0,0,0-.445,0c-.181-.007-.282.206-.242.36a.419.419,0,0,0-.178.077,1.627,1.627,0,0,0-.545.876.314.314,0,0,0-.141.069c-.008-.009-.01-.023-.021-.029-.011-.037-.019-.074-.032-.109a.364.364,0,0,0-.476-.188.142.142,0,0,1-.026.015c-.014,0-.027,0-.043,0a.762.762,0,0,0-.665-.147.253.253,0,0,0-.187.173,2.891,2.891,0,0,0-.141.6.959.959,0,0,0-.169-.044,10.407,10.407,0,0,1,.048-1.143.426.426,0,0,0-.77-.283.42.42,0,0,0-.14-.164.516.516,0,0,0-.052-.1.538.538,0,0,0-.657-.069,4.133,4.133,0,0,0-.574-1,.426.426,0,0,0-.75.213,13.593,13.593,0,0,0,.005,1.36.93.93,0,0,0-.161.019.156.156,0,0,0-.111-.039.539.539,0,0,0-.344.2,2.717,2.717,0,0,0-.6-.691c-.033-.075-.06-.149-.1-.222a.354.354,0,0,0-.455-.178.427.427,0,0,0-.577.219,3.821,3.821,0,0,0,.37,3,.982.982,0,0,0-.3.159l-.006-.008a.365.365,0,0,0-.6.131,5.521,5.521,0,0,0-.63-.431.742.742,0,0,0,.178-.015.394.394,0,0,0,.322.007.582.582,0,0,0,.346-.545c.028-.434-.291-1.036-.792-.806a1.025,1.025,0,0,0-.491.973.5.5,0,0,0,.16.285.41.41,0,0,0-.369.49,3.9,3.9,0,0,0,.437,1.26,2.7,2.7,0,0,0-1.152-.086.313.313,0,0,0-.215.447c.082.122.165.24.252.357a.27.27,0,0,0-.131.084c-.033.026-.064.051-.092.075a.392.392,0,0,0-.2.409.754.754,0,0,0,.02.1.381.381,0,0,0,.349.293c.008,0,.012,0,.02,0a.233.233,0,0,0,.306,0,.242.242,0,0,1,.046,0,.291.291,0,0,0,.136-.028.479.479,0,0,0-.142.459.985.985,0,0,0,.059.137,3.328,3.328,0,0,0-.812.039.748.748,0,0,0-.627-.2,1.093,1.093,0,0,0-.509.284.477.477,0,0,0,.022.656,1.2,1.2,0,0,0,.259.148,1.126,1.126,0,0,0,.058.119.365.365,0,0,0,.56.132.779.779,0,0,0,.07-.07,1.208,1.208,0,0,0,.187.126.844.844,0,0,0-.3.672.7.7,0,0,0,.207.436,2.538,2.538,0,0,0-.387.244.443.443,0,0,0,.157.741,3.6,3.6,0,0,0,1.369.209.659.659,0,0,0-.061.149,1.21,1.21,0,0,0,1.479,1.256,6.485,6.485,0,0,0-1.87,2.763.4.4,0,0,0,.309.478,2.519,2.519,0,0,0,2.1-.892c.076-.069.149-.146.224-.218a5.711,5.711,0,0,0,.634-.553c-.046.074-.1.146-.145.216a.383.383,0,0,0-.133.622.726.726,0,0,1,.158.176.452.452,0,0,0,.219.231.476.476,0,0,0,.08.413c-.016.021-.035.031-.051.054-.163.25.009.587.187.769a.329.329,0,0,0,.408.023.163.163,0,0,1,.033-.007l-.007.02c-.13.436-.366,1.109-.083,1.539.47.731,1.191-.151,1.737-1,.01.059.02.115.035.173a.354.354,0,0,0,.05.1c-.02.044-.047.086-.067.132-.007.013-.008.018-.014.029a.2.2,0,0,1,.047-.043.412.412,0,0,0-.052.05c-.024.037-.032.037-.016.014-.26.27.06.71.407.689-.159.007-.007.043.075.1a.509.509,0,0,0-.024.334.422.422,0,0,0,.012.066c.015.057.029.112.04.168a.357.357,0,0,0,.477.293c.064-.031.135-.063.2-.1a1.341,1.341,0,0,0,.3.151.3.3,0,0,0,.392-.277.131.131,0,0,0,.01.033.283.283,0,0,0-.028-.215.382.382,0,0,0-.065-.1c-.051-.055-.11-.106-.165-.157a.524.524,0,0,0-.133-.359c.023-.025.045-.048.068-.077s.028-.058.043-.089c.118.3.254.6.421.936a.445.445,0,0,0,.833-.19c0-.039,0-.075,0-.115a4.4,4.4,0,0,0,1.141,1.9,2.317,2.317,0,0,0,.2.348.454.454,0,0,0,.7.114c.686-.674.573-1.827.34-2.939.04.006.068.021.115.025a.382.382,0,0,0,.38-.241,1.392,1.392,0,0,0,.036-.2,2.314,2.314,0,0,0,.68.531.391.391,0,0,0,.583-.328,5.137,5.137,0,0,0-.132-1.16c.022.013.04.029.06.041a.381.381,0,0,0,.339.011.371.371,0,0,0,.265.016.494.494,0,0,0,.192.032.259.259,0,0,0,.253-.314.1.1,0,0,0,0-.03.444.444,0,0,0,.2-.7.657.657,0,0,1-.053-.068c.426.421.845.847,1.245,1.293.335.369,1.052-.033.858-.512A8.382,8.382,0,0,0,1498.479,480.311Z" transform="translate(-1481.268 -463.836)" fill="#f79744"/>
        <path id="Path_86" data-name="Path 86" d="M1490.295,487.394a.2.2,0,0,0,.352,0c.016-.029.027-.06.038-.084a.3.3,0,0,0,.176-.307.243.243,0,0,0-.034-.091,1.054,1.054,0,0,0,.04-.16.217.217,0,0,0-.229-.2,1.592,1.592,0,0,1-.33-.074.282.282,0,0,0-.328.223.547.547,0,0,0,.257.547A.538.538,0,0,0,1490.295,487.394Z" transform="translate(-1477.849 -483.222)" fill="#f79744"/>
        <path id="Path_87" data-name="Path 87" d="M1491.638,488.184l.149.264a.314.314,0,0,0,.126.117.223.223,0,0,0,.37.06,3.644,3.644,0,0,0,.339-.362.245.245,0,0,0-.082-.35.509.509,0,0,0,.033-.141.325.325,0,0,0-.548-.236.9.9,0,0,0-.146.177A.332.332,0,0,0,1491.638,488.184Z" transform="translate(-1481.259 -485.398)" fill="#f79744"/>
        <path id="Path_88" data-name="Path 88" d="M1490.954,489.2a.274.274,0,0,0,.074-.243.481.481,0,0,0,.019-.183c-.045-.386-.449-.406-.729-.535a.346.346,0,0,0-.487.252.988.988,0,0,0,.259.907A.641.641,0,0,0,1490.954,489.2Z" transform="translate(-1477.881 -486.945)" fill="#f79744"/>
        <path id="Path_89" data-name="Path 89" d="M1500.492,482.47c.013,0,.024.01.04.015.079.246.173.372.534.407a.258.258,0,0,0,.232-.139.94.94,0,0,0,.105-.863.507.507,0,0,0-.22-.189,1.689,1.689,0,0,0-.174-.167.352.352,0,0,0-.538.123.167.167,0,0,1-.008.03.26.26,0,0,0-.08.078.332.332,0,0,0-.162.287,1.461,1.461,0,0,0,.028.195A.335.335,0,0,0,1500.492,482.47Z" transform="translate(-1498.594 -473.659)" fill="#f79744"/>
        <path id="Path_90" data-name="Path 90" d="M1500.243,485.6a.24.24,0,0,0,.428-.063c.014-.013.031-.018.038-.032a.609.609,0,0,0-.016-.377l-.007,0a.286.286,0,0,0-.036-.128c-.094-.163-.286-.125-.439-.159a.3.3,0,0,0-.332.268A.49.49,0,0,0,1500.243,485.6Z" transform="translate(-1497.522 -479.824)" fill="#f79744"/>
        <path id="Path_91" data-name="Path 91" d="M1499.442,487.74c.146,0,.341-.068.376-.229a.278.278,0,0,0-.049-.208.282.282,0,0,0,0-.04c-.023-.129-.047-.257-.072-.388a.305.305,0,0,0-.344-.249,1.3,1.3,0,0,1-.229.031.334.334,0,0,0-.315.239A.606.606,0,0,0,1499.442,487.74Z" transform="translate(-1495.518 -483.622)" fill="#f79744"/>
        <path id="Path_92" data-name="Path 92" d="M1498,488.168c-.006-.017-.039-.079-.072-.144a1.059,1.059,0,0,0,.118-.227.267.267,0,0,0-.258-.336c-.249.01-.514.037-.614.3s.117.549.281.724A.328.328,0,0,0,1498,488.168Z" transform="translate(-1492.138 -485.289)" fill="#f79744"/>
        <path id="Path_93" data-name="Path 93" d="M1500.415,476.131a.424.424,0,0,0,.571-.069.62.62,0,0,0,.393-.688.843.843,0,0,0-.244-.457.661.661,0,0,0-.242-.186.775.775,0,0,0-.763-.018C1499.533,475.06,1500.053,475.865,1500.415,476.131Z" transform="translate(-1498.154 -460.216)" fill="#f79744"/>
        <path id="Path_94" data-name="Path 94" d="M1502.81,479.518a.254.254,0,0,0,.185-.42.182.182,0,0,0,0-.056.259.259,0,0,0-.084-.151c-.081-.008-.161-.016-.245-.026a.59.59,0,0,0-.185-.113.305.305,0,0,0-.41.248.908.908,0,0,0,.009.209c0,.01,0,.022,0,.034l.007.02a.256.256,0,0,0,.27.23h.006l.021,0a.491.491,0,0,0,.215.025A.851.851,0,0,0,1502.81,479.518Z" transform="translate(-1502.008 -467.599)" fill="#f79744"/>
        <path id="Path_95" data-name="Path 95" d="M1502.855,481.58a.219.219,0,0,0,.257-.176.161.161,0,0,0-.008-.107.273.273,0,0,0,.012-.065.948.948,0,0,1-.036-.239.268.268,0,0,0-.264-.264,1.668,1.668,0,0,0-.371.008c-.259.036-.292.393-.14.552A1.169,1.169,0,0,0,1502.855,481.58Z" transform="translate(-1502.214 -471.631)" fill="#f79744"/>
        <path id="Path_96" data-name="Path 96" d="M1488.121,488.172a.205.205,0,0,0,.032.141.3.3,0,0,0,.035.143.241.241,0,0,0,.27.081.808.808,0,0,0,.3-.259.239.239,0,0,0-.1-.361A.35.35,0,0,0,1488.121,488.172Z" transform="translate(-1473.953 -485.661)" fill="#f79744"/>
        <path id="Path_97" data-name="Path 97" d="M1493.482,489.846a.247.247,0,0,0,.12-.181.289.289,0,0,0-.094-.266l-.016-.012v-.02a.153.153,0,0,0-.156-.106h0c-.132-.08-.374-.043-.376.156a.434.434,0,0,0,.185.407A.28.28,0,0,0,1493.482,489.846Z" transform="translate(-1483.537 -488.349)" fill="#f79744"/>
        <path id="Path_98" data-name="Path 98" d="M1497.924,471.322a.481.481,0,0,0-.063,0,.257.257,0,0,0-.325-.1.362.362,0,0,0-.523.186,2.32,2.32,0,0,0-.081.325.4.4,0,0,0,.325.464.285.285,0,0,0,.082.033c.169.019.345.009.52.015a.346.346,0,0,0,.26-.533A.283.283,0,0,0,1497.924,471.322Z" transform="translate(-1492.042 -452.827)" fill="#f79744"/>
        <path id="Path_99" data-name="Path 99" d="M1500.789,472.659l0,0h0Z" transform="translate(-1498.474 -454.726)" fill="#f79744"/>
        <path id="Path_100" data-name="Path 100" d="M1501.192,472.07c-.107-.015-.214-.034-.319-.048a.246.246,0,0,1-.028.012.044.044,0,0,1-.017-.009.047.047,0,0,1-.012.022c-.02.01-.02,0,.012-.022a.645.645,0,0,0-.218-.068.327.327,0,0,0-.224.56.653.653,0,0,0,.544.185l.088.018a.235.235,0,0,0,.253-.287.507.507,0,0,0,.035-.062A.231.231,0,0,0,1501.192,472.07Z" transform="translate(-1498.514 -454.086)" fill="#f79744"/>
        <path id="Path_101" data-name="Path 101" d="M1499.662,474.638a.312.312,0,0,0-.031-.494.52.52,0,0,0-.465,0,.2.2,0,0,0-.079.015.4.4,0,0,1-.057.032.308.308,0,0,0-.18.308c0,.037.007.073.01.11a.018.018,0,0,1,.008-.009.281.281,0,0,0,.336.257h.012a.325.325,0,0,0,.065-.029v.006A2.071,2.071,0,0,0,1499.662,474.638Z" transform="translate(-1495.534 -458.341)" fill="#f79744"/>
        <path id="Path_102" data-name="Path 102" d="M1497.587,468.2l-.048-.007a.256.256,0,0,0-.05-.018l.093.017a.4.4,0,0,0-.271-.1l-.009-.007a1.2,1.2,0,0,0-.635.039.387.387,0,0,0-.07.717c.038.183.134.347.367.334a.492.492,0,0,0,.353-.228.506.506,0,0,0,.2-.119.338.338,0,0,0,.208-.428.31.31,0,0,0-.059-.12A.383.383,0,0,0,1497.587,468.2Z" transform="translate(-1491.07 -446.691)" fill="#f79744"/>
        <path id="Path_103" data-name="Path 103" d="M1498.755,469.765a.283.283,0,0,0-.122-.475.445.445,0,0,1-.055-.016.276.276,0,0,0-.245.47.485.485,0,0,0,.1.072A.24.24,0,0,0,1498.755,469.765Z" transform="translate(-1494.01 -448.559)" fill="#f79744"/>
        <path id="Path_104" data-name="Path 104" d="M1499.827,470.27a.394.394,0,0,0-.494-.184.3.3,0,0,0-.176.317c0,.024.005.044.01.066a.32.32,0,0,0,.412.234A.277.277,0,0,0,1499.827,470.27Z" transform="translate(-1495.947 -450.198)" fill="#f79744"/>
        <path id="Path_105" data-name="Path 105" d="M1493.658,467.417a.292.292,0,0,0-.406.038.5.5,0,0,0-.118.2.315.315,0,0,0,.125.363c.017.009.034,0,.05.012a.687.687,0,0,0,.536.2.273.273,0,0,0,.177-.468C1493.893,467.647,1493.784,467.522,1493.658,467.417Z" transform="translate(-1484.199 -445.031)" fill="#f79744"/>
        <path id="Path_106" data-name="Path 106" d="M1495.434,467.159a.33.33,0,0,0-.647-.095.678.678,0,0,0,0,.219.239.239,0,0,0,.007.138.525.525,0,0,0,.3.264c.184.091.467-.048.388-.288a.419.419,0,0,1-.037-.137c0-.037.008-.071.011-.111C1495.448,467.154,1495.438,467.156,1495.434,467.159Z" transform="translate(-1487.229 -443.998)" fill="#f79744"/>
        <path id="Path_107" data-name="Path 107" d="M1497.453,465.818a.525.525,0,0,0-.04.062.3.3,0,0,0-.206.409c.008.017.018.033.025.048a.309.309,0,0,0,.336.168.547.547,0,0,0,.377-.22.217.217,0,0,0,.051-.172.382.382,0,0,0-.258-.39A.252.252,0,0,0,1497.453,465.818Z" transform="translate(-1492.116 -441.696)" fill="#f79744"/>
        <path id="Path_108" data-name="Path 108" d="M1499.2,468.063a.221.221,0,0,0-.182-.256c-.3-.022-.423-.015-.531.157a.158.158,0,0,0-.108.243.283.283,0,0,0,.148.345.431.431,0,0,0,.585-.124.206.206,0,0,0,.021-.126A.771.771,0,0,0,1499.2,468.063Z" transform="translate(-1494.472 -445.862)" fill="#f79744"/>
        <path id="Path_109" data-name="Path 109" d="M1485.482,484.439c.011.016.024.02.034.034a.39.39,0,0,0,.208.293.525.525,0,0,0,.6-.247.371.371,0,0,0,.056-.1c0-.014.013-.025.014-.039v-.012a.13.13,0,0,0,0-.044.314.314,0,0,0-.141-.3.08.08,0,0,1-.016-.014v0a.334.334,0,0,0-.062-.032l-.017-.006a.373.373,0,0,0-.066-.007c.085-.028-.115-.049-.208-.064a.409.409,0,0,0-.377.123A.359.359,0,0,0,1485.482,484.439Z" transform="translate(-1468.876 -477.974)" fill="#f79744"/>
        <path id="Path_110" data-name="Path 110" d="M1484.466,485.7a.643.643,0,0,0,.18.355.258.258,0,0,0,.28.086.273.273,0,0,0,.271-.457c-.038-.039-.07-.083-.107-.124,0,0-.006-.007-.008-.011-.029-.034-.057-.06-.082-.1A.306.306,0,0,0,1484.466,485.7Z" transform="translate(-1466.809 -480.776)" fill="#f79744"/>
        <path id="Path_111" data-name="Path 111" d="M1485.76,468.431a.724.724,0,0,0-.281-.155.321.321,0,0,0-.328.092.641.641,0,0,0-.1,1.007.345.345,0,0,0,.242.138.25.25,0,0,1,0,.041.287.287,0,0,0,.566.023c.012-.1.058-.206.074-.311a.452.452,0,0,0,.192-.256l.005-.013a.387.387,0,0,0-.221-.439C1485.983,468.57,1485.833,468.5,1485.76,468.431Z" transform="translate(-1468.051 -447.512)" fill="#f79744"/>
        <path id="Path_112" data-name="Path 112" d="M1488.016,468.681a.743.743,0,0,1-.163-.221.257.257,0,0,0-.393-.075.387.387,0,0,0,.313.692.18.18,0,0,0,.137-.075h.009A.193.193,0,0,0,1488.016,468.681Z" transform="translate(-1472.406 -446.848)" fill="#f79744"/>
        <path id="Path_113" data-name="Path 113" d="M1485.541,470.968a.605.605,0,0,0,.467-.408c.089-.309-.337-.439-.544-.372a.26.26,0,0,0-.18.324.243.243,0,0,0,0,.186l.035-.059A.251.251,0,0,0,1485.541,470.968Z" transform="translate(-1468.341 -450.566)" fill="#f79744"/>
        <path id="Path_114" data-name="Path 114" d="M1483.518,472.588a.568.568,0,0,0,.057-.017.1.1,0,0,0,.065-.091c0-.019,0-.038.011-.058s0-.026,0-.043a.6.6,0,0,0,.111-.28.323.323,0,0,0-.294-.333.568.568,0,0,0-.45.3.321.321,0,0,0-.023.259A.306.306,0,0,0,1483.518,472.588Z" transform="translate(-1463.828 -453.862)" fill="#f79744"/>
        <path id="Path_115" data-name="Path 115" d="M1483.9,474.342l.025.006a.122.122,0,0,0,.034,0,.266.266,0,0,0,.043.008l.007,0a.233.233,0,0,0,.217-.178c.008-.016.023-.03.031-.045a.261.261,0,0,0-.21-.4c-.016,0-.034,0-.047,0a.241.241,0,0,0-.144.006c-.269.058-.386.489-.069.574l.052.014A.175.175,0,0,0,1483.9,474.342Z" transform="translate(-1464.961 -457.472)" fill="#f79744"/>
        <path id="Path_116" data-name="Path 116" d="M1482.639,474.242c-.474.075-.483.494-.376.862a.523.523,0,0,0,.2.415.113.113,0,0,0,.02.015,1.063,1.063,0,0,0,.934.239c.433-.141.364-.595.169-.894C1483.417,474.614,1482.986,474.187,1482.639,474.242Z" transform="translate(-1463.037 -459.429)" fill="#f79744"/>
        <path id="Path_117" data-name="Path 117" d="M1482.4,477.281a.28.28,0,0,0-.258-.24.306.306,0,0,0-.075.022.26.26,0,0,0-.338.157.485.485,0,0,0,.311.695.289.289,0,0,0,.117-.022.307.307,0,0,0,.38-.461C1482.5,477.389,1482.45,477.336,1482.4,477.281Z" transform="translate(-1461.373 -464.327)" fill="#f79744"/>
        <path id="Path_118" data-name="Path 118" d="M1482.566,479.659a.368.368,0,0,0,.534.028.731.731,0,0,0,.338-.473.312.312,0,0,0-.214-.314c-.156-.048-.26-.2-.428-.236a.347.347,0,0,0-.335.137A.685.685,0,0,0,1482.566,479.659Z" transform="translate(-1462.88 -467.788)" fill="#f79744"/>
        <path id="Path_119" data-name="Path 119" d="M1482.3,480.315a.277.277,0,0,0-.339.274.432.432,0,0,0,.232.445.2.2,0,0,0,.276-.073.54.54,0,0,0,.038-.079.262.262,0,0,0,.006-.5Q1482.411,480.351,1482.3,480.315Z" transform="translate(-1461.751 -470.693)" fill="#f79744"/>
        <path id="Path_120" data-name="Path 120" d="M1480.967,480.863a.239.239,0,0,0-.248-.021.446.446,0,0,0-.154.158c-.012-.012-.025,0-.049.033a.341.341,0,0,0-.049.135.234.234,0,0,0,.091.216.688.688,0,0,0,.33.087.247.247,0,0,0,.261-.282A.615.615,0,0,0,1480.967,480.863Z" transform="translate(-1458.726 -471.608)" fill="#f79744"/>
        <path id="Path_121" data-name="Path 121" d="M1482.421,481.7a.171.171,0,0,0-.072-.008c-.052-.016-.1-.031-.148-.048a.288.288,0,0,0-.41.28.6.6,0,0,0,.361.533.23.23,0,0,0,.269-.059.373.373,0,0,0,.072-.186.167.167,0,0,0,.081-.066c.008-.012.006-.027.011-.038.009-.029.03-.048.024-.082s-.009-.076-.014-.115a.227.227,0,0,0-.135-.172C1482.445,481.724,1482.438,481.707,1482.421,481.7Z" transform="translate(-1461.492 -473.394)" fill="#f79744"/>
        <path id="Path_122" data-name="Path 122" d="M1486.6,466.661l-.012-.027a.215.215,0,0,0-.249-.086l-.118.045a.3.3,0,0,0-.162.387.517.517,0,0,0,.6.32.2.2,0,0,0,.195-.153.408.408,0,0,0,.054-.079.3.3,0,0,0-.043-.352A.351.351,0,0,0,1486.6,466.661Z" transform="translate(-1470.043 -443.324)" fill="#f79744"/>
        <path id="Path_123" data-name="Path 123" d="M1490.489,465.6a.247.247,0,0,0-.428.2.357.357,0,0,0,.389.323.246.246,0,0,0,.1-.472C1490.533,465.632,1490.511,465.616,1490.489,465.6Z" transform="translate(-1477.767 -441.115)" fill="#f79744"/>
        <path id="Path_124" data-name="Path 124" d="M1492.142,466.9a.564.564,0,0,0-.6-.076.648.648,0,0,0-.323.662.048.048,0,0,1,0,.017,1.446,1.446,0,0,0,.014.175.366.366,0,0,0,.5.278,1.427,1.427,0,0,0,.359-.148,1.2,1.2,0,0,0,.252-.441.369.369,0,0,0-.194-.455S1492.146,466.9,1492.142,466.9Z" transform="translate(-1480.583 -444.219)" fill="#f79744"/>
        <path id="Path_125" data-name="Path 125" d="M1484.378,466.895a.492.492,0,0,0,.256.308c.011.029.028.053.041.087a.276.276,0,0,0,.522-.177h0a1.086,1.086,0,0,0-.371-.576C1484.583,466.323,1484.287,466.636,1484.378,466.895Z" transform="translate(-1466.642 -443.404)" fill="#f79744"/>
        <path id="Path_126" data-name="Path 126" d="M1482.659,467.985l-.084.072a.255.255,0,0,0,.028.4l.034.017a.254.254,0,0,0,.286-.02C1483.223,468.319,1482.926,467.748,1482.659,467.985Z" transform="translate(-1462.626 -445.887)" fill="#f79744"/>
        <path id="Path_127" data-name="Path 127" d="M1482.48,469.887a.328.328,0,0,0-.411.385c.02.062.041.121.058.182a.337.337,0,0,0,.266.219.548.548,0,0,0,.385-.076c.013,0,.022-.019.036-.025a.781.781,0,0,0,.108,0,.293.293,0,0,0,.09-.552A4.449,4.449,0,0,0,1482.48,469.887Z" transform="translate(-1462.323 -449.989)" fill="#f79744"/>
        <path id="Path_128" data-name="Path 128" d="M1489.6,490.726a.245.245,0,0,0,.165-.351,1.168,1.168,0,0,0-.149-.3.275.275,0,0,0-.5.155.6.6,0,0,0,.092.425A.288.288,0,0,0,1489.6,490.726Z" transform="translate(-1475.916 -489.956)" fill="#f79744"/>
        <path id="Path_129" data-name="Path 129" d="M1485.251,486.908a.289.289,0,0,0,.545.091.809.809,0,0,0-.012-.9.4.4,0,0,0-.679.144.308.308,0,0,0,.117.423A1.034,1.034,0,0,0,1485.251,486.908Z" transform="translate(-1468.052 -482.389)" fill="#f79744"/>
      </g>
      <path id="Path_130" data-name="Path 130" d="M1496.072,473.727c-.4-.718-1.67-.25-2.235-.053a6.446,6.446,0,0,0-.95.43,3.083,3.083,0,0,0,.754-1.635.275.275,0,0,0-.354-.25,2.185,2.185,0,0,0-.992.841,1.291,1.291,0,0,0-.5-1.249.428.428,0,0,0-.645.191,6.6,6.6,0,0,0-.164.875,2.4,2.4,0,0,0-1.319-1.351.376.376,0,0,0-.5.306,2.555,2.555,0,0,0,.373,1.761c.041.071.093.152.141.234a1.515,1.515,0,0,0-.348-.062,4.074,4.074,0,0,0-1.086-.2.209.209,0,0,0-.139.357c.15.137.307.253.46.381a.446.446,0,0,0,.211.343c.337.23.671.471,1,.709a3.984,3.984,0,0,0-2.042.483.332.332,0,0,0,.089.6,4.261,4.261,0,0,0,2.392-.069,4.035,4.035,0,0,0-.97,2.6c.015.293.345.62.65.409a3.209,3.209,0,0,0,.84-.886,4.028,4.028,0,0,0,1.041,2.965.461.461,0,0,0,.756-.208,3.874,3.874,0,0,0,.081-2.084,4.31,4.31,0,0,1,.182.5c.115.432.748.191.648-.233-.056-.24-.121-.475-.185-.71.7.855,1.479,1.48,1.986,1.084s-.009-1.328-.783-2.252a.412.412,0,0,0,.355-.715c-.057-.057-.118-.1-.174-.15a3.754,3.754,0,0,0,1.183,0,.446.446,0,0,0,.135-.809,7.066,7.066,0,0,0-1.456-.691c.2-.063.4-.134.577-.21C1495.5,474.8,1496.4,474.321,1496.072,473.727Z" transform="translate(-1480.781 -462.497)" fill="#f05f42"/>
      <path id="Path_131" data-name="Path 131" d="M1493.384,476.674a2.108,2.108,0,0,0-.1-.372,1.155,1.155,0,0,0-.957-.6,1.134,1.134,0,0,0-.855.3,1.479,1.479,0,0,0-.693.462,1.107,1.107,0,0,0-.536,1.624,1.17,1.17,0,0,0,.041.28,1.365,1.365,0,0,0,1.589.928l.083.052a1.152,1.152,0,0,0,1.723-1.217l-.066-.324A1.292,1.292,0,0,0,1493.384,476.674Z" transform="translate(-1480.791 -464.606)" fill="#b97d4f"/>
    </g>
  </g>
</svg>
