<svg xmlns="http://www.w3.org/2000/svg" width="109.34" height="203.893" viewBox="0 0 109.34 203.893">
  <g id="Group_237" data-name="Group 237" transform="translate(-308.01 -2241.899)">
    <g id="Group_231" data-name="Group 231" transform="translate(345.131 2309.005)">
      <path id="Path_69" data-name="Path 69" d="M1494.684,503.617c-.869-.359-2.588-1.537-3.483-.759a3.38,3.38,0,0,1-1.567.828c-2.636.573-3.391-2.351-5.576-2.5-1.978-.135-3.448.354-4.9-1.491a7.9,7.9,0,0,1-1.4-5.64c.434-5.52,3.983-10.126,5.492-15.365a33.193,33.193,0,0,0,2.1-3.591,1.1,1.1,0,0,0,.13-.553,11.7,11.7,0,0,1,1.478-2,6.456,6.456,0,0,1,9.063-.275c2.682,2.5,2.95,7.017,3.4,10.4.724,5.478,3.073,11.209,2.2,16.8C1501.044,503.14,1498.385,505.142,1494.684,503.617Z" transform="translate(-1464.82 -447.9)" fill="#f9d0d0"/>
      <path id="Path_70" data-name="Path 70" d="M1477.456,475.573a3.189,3.189,0,0,1-2.528,2.178A27.32,27.32,0,0,1,1478,480.63c1.068,1.661.165,3.038-1.243,3.793-.543.786-1.192,1.527-1.77,2.242-1,1.235-2.666.972-3.28,2.512s-2.206,2.5-3.531,3.4c-1.5,1.012-1.55,2.763-3.343,3.463-2.967,1.162-6.206-1.674-8.18-3.815-4.849-2.4-9.645-7.488-8.991-12.438a9.426,9.426,0,0,1,1.377-8.252c2.651-3.748,6.8-4.223,11.073-3.761,3.018.325,6.049.833,9.041,1.337,2.478.418,4.855.879,6.864,2.449A3.96,3.96,0,0,1,1477.456,475.573Z" transform="translate(-1420.506 -446.987)" fill="#f9d0d0"/>
      <path id="Path_71" data-name="Path 71" d="M1491.523,453.322a4,4,0,0,1,2.718-1.751,30.039,30.039,0,0,0,3.155-.038l.043-.039a1.155,1.155,0,0,1,.843-1.044c.157-.057.315-.111.471-.164.217-.668.3-1.515.535-2.126.312-.809,1.433-1.391,2.125-1.8,1.674-.99,2.04-3.181,3.6-4.306,3.2-2.3,6.979-.653,8.609,2.609.988,1.981,1.017,4.309,1.972,6.34a21.486,21.486,0,0,1,2.153,5.642,1.389,1.389,0,0,1,0,.429,6.6,6.6,0,0,1,.644,5.26c-1.514,4.165-6.67,3.562-10.271,3.4a27.229,27.229,0,0,1-14.258-4.275C1491.135,459.6,1489.261,456.377,1491.523,453.322Z" transform="translate(-1490.514 -438.679)" fill="#f9d0d0"/>
      <path id="Path_72" data-name="Path 72" d="M1462.508,440.018a.836.836,0,0,0,.959-.045c1.962-1.311,4.141,1.6,6.186,2.139,2.5.66,4.664.336,6.958,1.844,3.452,2.267,7.2,5.058,7.639,9.236-1.077,5.13-7.776,9.08-13.559,10.287a2.149,2.149,0,0,1-.763.019,11.539,11.539,0,0,1-1.1.426c-.173.116-.336.243-.517.348a1.774,1.774,0,0,1-1.513.084,8.649,8.649,0,0,1-2.134-.051c-4.342-.652-4.891-5.567-5.183-8.013-.54-4.538-1.215-9.276.5-13.337A6.091,6.091,0,0,1,1462.508,440.018Z" transform="translate(-1434.301 -438.26)" fill="#f9d0d0"/>
      <path id="Path_73" data-name="Path 73" d="M1501.952,491.135c-2.217.646-4.17.156-4.809-2.229-.259-.959-.153-1.974-.408-2.93-.2-.752-2.6-1.14-3.275-1.445-2.261-1.026-1.9-3.925-1.146-5.8,1.035-2.584,4.406-4.19,6.821-5.1,4.085-1.541,8.574-1.774,12.728-3.111a1.239,1.239,0,0,1,1.306.3,10.355,10.355,0,0,1,1.579.054,1.333,1.333,0,0,1,1.066,1.537c-.819,5.644-6.317,8.908-9.327,13.293C1505.334,487.384,1504.121,490.5,1501.952,491.135Z" transform="translate(-1488.488 -447.868)" fill="#f9d0d0"/>
      <g id="Group_111" data-name="Group 111" transform="translate(13.174 25.993)">
        <path id="Path_74" data-name="Path 74" d="M1489.507,475.529a72.382,72.382,0,0,0-7.106,8.071c-1.9,2.62-3.784,5.777-4.145,9.052a11.837,11.837,0,0,0,1.254,6.888c1.6,2.857,4.2,1.551,5.919-.42a.072.072,0,0,1,.119.03c1.242,6.451,11.243,8.075,14.923,2.849a6.429,6.429,0,0,0,.787-5.14,33.1,33.1,0,0,1-.96-3.513,8.648,8.648,0,0,1,.4-3.134c1.416-5.622-2.65-10.745-6.147-14.666-.061-.066.039-.167.1-.1a28.42,28.42,0,0,1,5.432,7.851,13.332,13.332,0,0,1,1.1,4.761c.032,1.793-.771,3.472-.744,5.286.024,1.7,1.08,3.243,1.169,4.96a6.209,6.209,0,0,1-.473,2.756,6.558,6.558,0,0,1-3.575,3.412,9.788,9.788,0,0,1-10.4-1.82,6.122,6.122,0,0,1-1.325-2.008c-.087-.215-.35-1.377-.568-1.126a8.106,8.106,0,0,1-1.5,1.323,2.764,2.764,0,0,1-3.852-.471c-2.148-2.41-2.364-7.056-1.312-9.956,2.157-5.94,6.45-10.551,10.8-14.987.063-.064.165.035.1.1Z" transform="translate(-1477.994 -475.408)" fill="#f49a8c"/>
      </g>
      <g id="Group_112" data-name="Group 112" transform="translate(28.192 20.642)">
        <path id="Path_75" data-name="Path 75" d="M1446.268,473.829c.185,5.462,3.9,10.7,7.557,14.481,3.993,4.132,9.455,7.572,15.306,5.455,5.183-1.875,7.575-7.552,7.4-12.715-.083-2.389-.932-11.538-5.176-8.013-.057.049-.158-.014-.11-.085,2.563-3.839-5.016-5.27-7.436-5.189-2.456.081-5.029,1.4-7.143,2.525a23.862,23.862,0,0,0-6.325,4.735c-.061.067-.16-.033-.1-.1a25.947,25.947,0,0,1,8.343-5.743,12.785,12.785,0,0,1,6.989-1.472c2,.269,4.346.835,5.767,2.378a2.154,2.154,0,0,1,.552,1.77,2.646,2.646,0,0,1-.369.931,2.822,2.822,0,0,1,.863-.577c3.11-1.365,3.9,4.852,4.109,6.557.529,4.4-.09,8.621-3.033,12.129a10.861,10.861,0,0,1-8.693,3.735c-3.1-.162-5.988-1.93-8.359-3.79a31.493,31.493,0,0,1-7.183-8.207,18.415,18.415,0,0,1-3.1-8.8c0-.091.138-.091.142,0Z" transform="translate(-1446.126 -467.631)" fill="#f49a8c"/>
      </g>
      <g id="Group_113" data-name="Group 113" transform="translate(2.454 20.869)">
        <path id="Path_76" data-name="Path 76" d="M1513.9,471.094c-.373,3.2-2.182,6.046-4.109,8.548a27.718,27.718,0,0,1-5.1,5.284c-1.274.957-6.887,4.66-8.141,2.072a2.688,2.688,0,0,1,.035-1.749,9.007,9.007,0,0,1,.555-1.462c.239-.537-1.373-1.053-1.718-1.219a6.18,6.18,0,0,1-2.4-1.674c-.665-.881.345-1.793-.447-2.535-4.021-3.764,1.735-8.191,5.055-9.512,6.617-2.631,13.966,1.01,18.8,5.438.067.062-.032.162-.1.1-4.714-4.318-10.794-7.182-17.292-5.824-4.293.9-10.708,6.083-5.783,10.214a.071.071,0,0,1,.011.086c-1.462,2.609,2.477,3.564,4.126,4.563a.072.072,0,0,1,.024.1c-.822,1.727-1.6,4.468,1.272,4.076a13.392,13.392,0,0,0,5.162-2.261,24.071,24.071,0,0,0,5.01-4.779c2.266-2.662,4.477-5.91,4.89-9.465.01-.089.151-.089.142,0Z" transform="translate(-1491.203 -467.961)" fill="#f49a8c"/>
      </g>
      <g id="Group_114" data-name="Group 114" transform="translate(0.611)">
        <path id="Path_77" data-name="Path 77" d="M1516.909,459.864a.143.143,0,0,1-.279-.065c1.426-6.646,3.719-15.386-2.061-20.615-5.8-5.251-11.744,5.123-13.434,9.522a2.465,2.465,0,0,0-2.079,3.517c-.036.065-.073.13-.108.193a.143.143,0,0,1-.185.2,8.092,8.092,0,0,0-3.559-.977c-3.179-.08-3.392,3.866-1.769,5.668,1.384,1.536,4.028,2.6,5.866,3.482,5.274,2.532,11.442,2.312,17.115,1.788.184-.017.195.268.013.285-5.232.484-10.4.542-15.445-1.1-2.845-.923-7.4-2.839-8.755-5.767-1.185-2.554,1.239-4.685,3.563-4.626,1.252.031,2.828,1.478,2.3-.268a2.123,2.123,0,0,1,.836-2.331,2.252,2.252,0,0,1,1.3-.354c1.05.112,1.478-1.8,1.826-2.508a25.511,25.511,0,0,1,2.985-4.591c1.936-2.413,4.75-4.434,7.931-3.416,3.108,1,4.972,4.834,5.358,7.815C1518.957,450.5,1517.908,455.21,1516.909,459.864Z" transform="translate(-1491.919 -437.636)" fill="#f49a8c"/>
      </g>
      <g id="Group_115" data-name="Group 115" transform="translate(23.318 0.082)">
        <path id="Path_78" data-name="Path 78" d="M1458.266,462.8c-1.277-4.547-2.673-9.148-3.021-13.882-.256-3.491.276-7.361,3.348-9.508a11.234,11.234,0,0,1,6.032-1.632,19.151,19.151,0,0,1,8.793,1.471,11.446,11.446,0,0,1,3.592,2.661,12.894,12.894,0,0,0,4.276,3.808,6.19,6.19,0,0,1,3.007,6.375c-1.1,7.263-9.955,11.4-16.464,11.978-.091.009-.09-.132,0-.14,6.424-.568,14.893-4.542,16.278-11.544a6.993,6.993,0,0,0-1.094-5.029c-.961-1.555-3.1-1.986-4.383-3.263a25.053,25.053,0,0,1-1.721-2.085,10.6,10.6,0,0,0-2.286-1.888,11.815,11.815,0,0,0-4.916-1.84c-4.836-.787-11.432-.819-13.623,4.514-1.694,4.123-.451,9.251.544,13.387.531,2.208,1.158,4.393,1.773,6.581a.071.071,0,0,1-.137.036Z" transform="translate(-1455.188 -437.756)" fill="#f49a8c"/>
      </g>
      <path id="Path_79" data-name="Path 79" d="M1491.133,478.438a.832.832,0,0,1-.678-.7.866.866,0,0,1-.467-.945,1.319,1.319,0,0,1,.215-.611c.032-.421.3-.774.83-.612a.792.792,0,0,1,.355.225.7.7,0,0,1,.188.2.365.365,0,0,1,.075.061l0,0a1.085,1.085,0,0,1,.733,1.147A1.267,1.267,0,0,1,1491.133,478.438Z" transform="translate(-1463.839 -449.452)" fill="#b97d4f"/>
      <path id="Path_80" data-name="Path 80" d="M1491.762,491.3a.108.108,0,0,0-.024.007c1.134-4.308,3.75-8.182,4.988-12.485a33.189,33.189,0,0,0,2.1-3.591,1.1,1.1,0,0,0,.13-.553,11.691,11.691,0,0,1,1.477-2,6.2,6.2,0,0,1,2.691-1.7,10.559,10.559,0,0,1,1.435.054,1.333,1.333,0,0,1,1.066,1.537c-.819,5.644-6.317,8.908-9.327,13.293C1495.144,487.551,1493.931,490.67,1491.762,491.3Z" transform="translate(-1478.298 -448.035)" fill="#f9d0d0" style="mix-blend-mode: multiply;isolation: isolate"/>
      <path id="Path_81" data-name="Path 81" d="M1490.514,453.6a9.907,9.907,0,0,0,.5,1.338,21.469,21.469,0,0,1,2.153,5.642,1.39,1.39,0,0,1,0,.429,6.605,6.605,0,0,1,.643,5.26,5.26,5.26,0,0,1-.434.893c-1.718-1.818-2.062-4.781-2.267-6.513A61.37,61.37,0,0,1,1490.514,453.6Z" transform="translate(-1465.931 -442.614)" fill="#f9d0d0" style="mix-blend-mode: multiply;isolation: isolate"/>
      <path id="Path_82" data-name="Path 82" d="M1482.944,468.5a23.819,23.819,0,0,1-8.587,3.7,2.149,2.149,0,0,1-.763.019,11.545,11.545,0,0,1-1.1.426c-.173.116-.336.243-.517.348a1.774,1.774,0,0,1-1.513.084,8.651,8.651,0,0,1-2.134-.051,4.974,4.974,0,0,1-2.219-.89c.125-.208.255-.412.394-.612,2.651-3.748,6.8-4.223,11.073-3.761C1479.363,467.961,1481.156,468.221,1482.944,468.5Z" transform="translate(-1437.967 -446.987)" fill="#f9d0d0" style="mix-blend-mode: multiply;isolation: isolate"/>
      <path id="Path_83" data-name="Path 83" d="M1487.47,493.422c-4.849-2.4-9.645-7.488-8.991-12.438a9.428,9.428,0,0,1,1.377-8.252,9.311,9.311,0,0,1,1.063-1.256,6.326,6.326,0,0,1,1.6,1.087c2.682,2.5,2.95,7.017,3.4,10.4.478,3.625,1.664,7.361,2.161,11.094C1487.865,493.845,1487.66,493.629,1487.47,493.422Z" transform="translate(-1451.322 -448.189)" fill="#f9d0d0" style="mix-blend-mode: multiply;isolation: isolate"/>
      <g id="Group_117" data-name="Group 117" transform="translate(19.502 19.186)">
        <g id="Group_116" data-name="Group 116">
          <path id="Path_84" data-name="Path 84" d="M1494,470.113a.064.064,0,0,1-.014-.015.019.019,0,0,0,.011.01Z" transform="translate(-1487.717 -466.945)" fill="#f79744"/>
          <path id="Path_85" data-name="Path 85" d="M1493.692,471.754a.333.333,0,0,1,.056.57c-.205.138-.4.285-.584.433a2.341,2.341,0,0,1,1.228-.087.36.36,0,0,1,.23.48,5.608,5.608,0,0,1,.861.114c.369.081.31.619-.024.7-.38.095-.764.175-1.144.251a.161.161,0,0,1-.145.1c-.127,0-.274.025-.408.019a.361.361,0,0,1-.046.063,3.951,3.951,0,0,1,1.072.408.364.364,0,0,1-.1.661c-.054.008-.1.009-.158.017a1.416,1.416,0,0,1,.135.217.352.352,0,0,1-.272.519.312.312,0,0,1,.065.109.261.261,0,0,1,.242.119.5.5,0,0,1,.3.5.534.534,0,0,1-.766.4.522.522,0,0,1-.291-.51c0-.021.012-.036.016-.058-.056-.016-.113-.03-.169-.048a.372.372,0,0,1-.129.416.278.278,0,0,1-.017.08c.068.058.14.114.206.17a.261.261,0,0,1,.088.183c.286.164.025.642-.32.516a3.573,3.573,0,0,1-.411-.184L1493,477.8c-.056-.019-.109-.046-.163-.068a.385.385,0,0,1-.253.383c-.007,0-.014,0-.019.005.233.677.365,1.4.535,2.089a.324.324,0,0,1-.551.284,5.424,5.424,0,0,1-.923-1.095,4.006,4.006,0,0,1-.156.6.242.242,0,0,1,.187.182c.016.02.035.038.048.058a.148.148,0,0,1-.077.245,1.854,1.854,0,0,1-.309,0c-.126,0-.2-.143-.169-.251a.292.292,0,0,1-.124-.054,1.133,1.133,0,0,1-.379-.609.217.217,0,0,1-.1-.048c-.005.006-.007.016-.014.02-.008.025-.013.052-.022.076a.254.254,0,0,1-.331.131.1.1,0,0,0-.019-.01h-.029a.53.53,0,0,1-.463.1.176.176,0,0,1-.13-.12,2.021,2.021,0,0,1-.1-.414.661.661,0,0,1-.117.03,7.294,7.294,0,0,0,.033.795.3.3,0,0,1-.536.2.289.289,0,0,1-.1.114.36.36,0,0,1-.037.067.374.374,0,0,1-.457.048,2.871,2.871,0,0,1-.4.7.3.3,0,0,1-.522-.148c-.014-.314-.014-.627,0-.946a.651.651,0,0,1-.112-.013.109.109,0,0,1-.077.027.376.376,0,0,1-.24-.136,1.887,1.887,0,0,1-.42.48c-.023.052-.042.1-.067.154a.246.246,0,0,1-.316.124.3.3,0,0,1-.4-.152,2.654,2.654,0,0,1,.257-2.089.682.682,0,0,1-.206-.111l0,.006a.254.254,0,0,1-.42-.091,3.858,3.858,0,0,1-.438.3.514.514,0,0,1,.124.01.274.274,0,0,1,.224,0,.4.4,0,0,1,.241.379c.019.3-.2.72-.551.56a.713.713,0,0,1-.341-.676.346.346,0,0,1,.112-.2.285.285,0,0,1-.257-.341,2.707,2.707,0,0,1,.3-.876,1.881,1.881,0,0,1-.8.06.217.217,0,0,1-.149-.311c.057-.085.115-.167.175-.248a.187.187,0,0,1-.091-.059l-.064-.052a.272.272,0,0,1-.138-.284.578.578,0,0,1,.014-.072.265.265,0,0,1,.243-.2c.005,0,.008,0,.014,0a.162.162,0,0,1,.213,0,.17.17,0,0,0,.031,0,.2.2,0,0,1,.094.019.333.333,0,0,1-.1-.319.706.706,0,0,1,.041-.095,2.321,2.321,0,0,1-.564-.027.52.52,0,0,1-.436.138.757.757,0,0,1-.354-.2.331.331,0,0,1,.015-.456.258.258,0,0,0,.221-.186.254.254,0,0,1,.39-.091.563.563,0,0,1,.049.049.83.83,0,0,1,.13-.087.586.586,0,0,1-.21-.467.483.483,0,0,1,.144-.3,1.76,1.76,0,0,1-.269-.169.308.308,0,0,1,.109-.516,2.5,2.5,0,0,1,.952-.145.466.466,0,0,1-.043-.1.841.841,0,0,1,1.029-.873,4.512,4.512,0,0,1-1.3-1.921.277.277,0,0,1,.215-.332,1.751,1.751,0,0,1,1.458.62c.053.048.1.1.156.151a3.93,3.93,0,0,1,.441.385c-.032-.052-.068-.1-.1-.15a.266.266,0,0,1-.092-.432.5.5,0,0,0,.11-.122.315.315,0,0,1,.152-.16.332.332,0,0,1,.056-.287c-.011-.014-.024-.021-.035-.038-.113-.174.006-.408.13-.535a.228.228,0,0,1,.283-.016.1.1,0,0,0,.023,0l0-.014c-.09-.3-.255-.771-.058-1.07.327-.509.828.1,1.208.7.007-.041.014-.08.024-.12a.243.243,0,0,1,.035-.073c-.014-.03-.032-.06-.047-.092l-.01-.02a.143.143,0,0,0,.033.03.283.283,0,0,1-.036-.035c-.017-.025-.023-.025-.011-.01-.181-.188.042-.493.283-.479-.111,0-.005-.03.052-.07a.355.355,0,0,1-.016-.233.317.317,0,0,1,.008-.046c.01-.04.02-.078.028-.117a.248.248,0,0,1,.331-.2c.045.021.094.044.14.07a.939.939,0,0,1,.207-.105.2.2,0,0,1,.273.193.109.109,0,0,1,.007-.023.2.2,0,0,1-.019.149.266.266,0,0,1-.045.073c-.036.039-.076.074-.115.109a.364.364,0,0,1-.092.25c.016.017.032.034.047.054s.019.041.03.062c.082-.206.177-.414.292-.651a.309.309,0,0,1,.579.132c0,.027,0,.052,0,.08a3.055,3.055,0,0,1,.793-1.318,1.616,1.616,0,0,1,.137-.242.316.316,0,0,1,.487-.079,2.221,2.221,0,0,1,.237,2.044c.027,0,.047-.014.08-.017a.266.266,0,0,1,.264.168.958.958,0,0,1,.025.142,1.608,1.608,0,0,1,.473-.369.272.272,0,0,1,.405.228,3.56,3.56,0,0,1-.092.806c.015-.009.028-.02.041-.028a.265.265,0,0,1,.235-.008.258.258,0,0,1,.184-.011.345.345,0,0,1,.134-.022.179.179,0,0,1,.176.218.066.066,0,0,1,0,.021.309.309,0,0,1,.136.489.448.448,0,0,0-.037.047c.3-.292.588-.589.866-.9.233-.257.731.023.6.356A5.829,5.829,0,0,1,1493.692,471.754Z" transform="translate(-1481.726 -465.822)" fill="#f79744"/>
          <path id="Path_86" data-name="Path 86" d="M1490.2,486.538a.142.142,0,0,1,.245,0c.011.02.019.042.026.058a.206.206,0,0,1,.122.213.164.164,0,0,1-.023.063.71.71,0,0,1,.028.111.151.151,0,0,1-.159.14,1.106,1.106,0,0,0-.23.052.2.2,0,0,1-.229-.155.381.381,0,0,1,.179-.381A.375.375,0,0,1,1490.2,486.538Z" transform="translate(-1481.543 -472.05)" fill="#f79744"/>
          <path id="Path_87" data-name="Path 87" d="M1491.627,487.807l.1-.184a.22.22,0,0,1,.088-.081.155.155,0,0,1,.258-.041,2.577,2.577,0,0,1,.235.252.17.17,0,0,1-.057.244.353.353,0,0,1,.023.1.226.226,0,0,1-.381.164.625.625,0,0,1-.1-.123A.23.23,0,0,1,1491.627,487.807Z" transform="translate(-1484.41 -472.356)" fill="#f79744"/>
          <path id="Path_88" data-name="Path 88" d="M1490.609,488.414a.191.191,0,0,1,.052.169.336.336,0,0,1,.013.127c-.031.268-.312.282-.507.372a.241.241,0,0,1-.339-.175.686.686,0,0,1,.18-.63A.445.445,0,0,1,1490.609,488.414Z" transform="translate(-1481.519 -472.592)" fill="#f79744"/>
          <path id="Path_89" data-name="Path 89" d="M1500.409,481.748l.027-.01c.055-.171.12-.259.371-.283a.179.179,0,0,1,.161.1.652.652,0,0,1,.073.6.351.351,0,0,1-.153.131,1.181,1.181,0,0,1-.121.116.245.245,0,0,1-.374-.085.112.112,0,0,0-.005-.021.182.182,0,0,1-.056-.054.231.231,0,0,1-.113-.2,1,1,0,0,1,.019-.136A.233.233,0,0,1,1500.409,481.748Z" transform="translate(-1499.089 -470.486)" fill="#f79744"/>
          <path id="Path_90" data-name="Path 90" d="M1500.133,484.91a.167.167,0,0,1,.3.044c.01.009.021.012.027.022a.424.424,0,0,1-.011.262l0,0a.2.2,0,0,1-.025.089c-.065.114-.2.087-.306.111a.207.207,0,0,1-.231-.187A.341.341,0,0,1,1500.133,484.91Z" transform="translate(-1498.241 -471.541)" fill="#f79744"/>
          <path id="Path_91" data-name="Path 91" d="M1499.239,486.623c.1,0,.237.048.261.159a.2.2,0,0,1-.034.144.181.181,0,0,1,0,.028c-.016.089-.032.179-.05.27a.212.212,0,0,1-.239.173.9.9,0,0,0-.16-.021.232.232,0,0,1-.219-.167A.422.422,0,0,1,1499.239,486.623Z" transform="translate(-1496.511 -472.098)" fill="#f79744"/>
          <path id="Path_92" data-name="Path 92" d="M1497.738,487.746c0,.012-.027.055-.05.1a.731.731,0,0,1,.082.158.186.186,0,0,1-.18.233c-.173-.007-.357-.025-.427-.207s.081-.382.2-.5A.228.228,0,0,1,1497.738,487.746Z" transform="translate(-1493.664 -472.36)" fill="#f79744"/>
          <path id="Path_93" data-name="Path 93" d="M1500.246,474.677a.3.3,0,0,1,.4.048.432.432,0,0,1,.274.478.587.587,0,0,1-.17.318.461.461,0,0,1-.169.129.538.538,0,0,1-.53.012C1499.632,475.422,1499.994,474.862,1500.246,474.677Z" transform="translate(-1498.673 -468.356)" fill="#f79744"/>
          <path id="Path_94" data-name="Path 94" d="M1502.584,478.74a.177.177,0,0,1,.129.292.121.121,0,0,1,0,.039.18.18,0,0,1-.058.105l-.17.018a.4.4,0,0,1-.129.078.212.212,0,0,1-.285-.172.659.659,0,0,1,.006-.145c0-.007,0-.015,0-.023l.005-.014a.178.178,0,0,1,.188-.16h0l.014,0a.341.341,0,0,1,.149-.017A.6.6,0,0,1,1502.584,478.74Z" transform="translate(-1502.027 -469.639)" fill="#f79744"/>
          <path id="Path_95" data-name="Path 95" d="M1502.66,480.728a.152.152,0,0,1,.179.122.111.111,0,0,1-.005.074.2.2,0,0,1,.008.045.661.661,0,0,0-.025.166.186.186,0,0,1-.184.184,1.164,1.164,0,0,1-.258-.006c-.18-.025-.2-.273-.1-.384A.814.814,0,0,1,1502.66,480.728Z" transform="translate(-1502.214 -470.258)" fill="#f79744"/>
          <path id="Path_96" data-name="Path 96" d="M1488.121,488.129a.142.142,0,0,1,.022-.1.209.209,0,0,1,.024-.1.168.168,0,0,1,.188-.056.559.559,0,0,1,.207.18.166.166,0,0,1-.066.251A.244.244,0,0,1,1488.121,488.129Z" transform="translate(-1478.27 -472.487)" fill="#f79744"/>
          <path id="Path_97" data-name="Path 97" d="M1493.321,489.256a.173.173,0,0,1,.083.126.2.2,0,0,1-.065.185l-.012.008v.014a.107.107,0,0,1-.109.074h0c-.092.056-.26.03-.262-.109a.3.3,0,0,1,.129-.283A.2.2,0,0,1,1493.321,489.256Z" transform="translate(-1486.406 -472.909)" fill="#f79744"/>
          <path id="Path_98" data-name="Path 98" d="M1497.621,471.809a.334.334,0,0,1-.044,0,.179.179,0,0,1-.227.073.251.251,0,0,1-.363-.129,1.643,1.643,0,0,1-.056-.226.277.277,0,0,1,.226-.323.2.2,0,0,1,.057-.023c.118-.013.24-.006.361-.01a.241.241,0,0,1,.181.371A.2.2,0,0,1,1497.621,471.809Z" transform="translate(-1493.531 -467.28)" fill="#f79744"/>
          <path id="Path_99" data-name="Path 99" d="M1500.789,472.663v0h0Z" transform="translate(-1499.179 -467.744)" fill="#f79744"/>
          <path id="Path_100" data-name="Path 100" d="M1500.917,472.408l-.222.034-.019-.008a.028.028,0,0,0-.012.006.034.034,0,0,0-.008-.015c-.014-.007-.014,0,.008.015a.451.451,0,0,1-.151.047.227.227,0,0,1-.156-.389.455.455,0,0,1,.379-.129l.061-.012a.163.163,0,0,1,.176.2.362.362,0,0,1,.024.043A.161.161,0,0,1,1500.917,472.408Z" transform="translate(-1499.056 -467.524)" fill="#f79744"/>
          <path id="Path_101" data-name="Path 101" d="M1499.414,474.247a.217.217,0,0,1-.022.343.362.362,0,0,1-.323,0,.138.138,0,0,1-.055-.01.283.283,0,0,0-.04-.022.214.214,0,0,1-.125-.214c0-.025,0-.051.007-.076,0,0,0,0,.005.006a.2.2,0,0,1,.233-.179h.008a.229.229,0,0,1,.046.02v0A1.448,1.448,0,0,1,1499.414,474.247Z" transform="translate(-1496.544 -468.19)" fill="#f79744"/>
          <path id="Path_102" data-name="Path 102" d="M1497.222,468.74l-.034,0a.171.171,0,0,1-.034.012l.065-.012a.276.276,0,0,1-.189.067l-.006,0a.837.837,0,0,1-.442-.027.269.269,0,0,1-.049-.5c.026-.127.093-.242.255-.233a.341.341,0,0,1,.246.158.351.351,0,0,1,.137.083.235.235,0,0,1,.145.3.215.215,0,0,1-.041.083A.271.271,0,0,1,1497.222,468.74Z" transform="translate(-1492.691 -466.31)" fill="#f79744"/>
          <path id="Path_103" data-name="Path 103" d="M1498.6,469.328a.2.2,0,0,1-.084.33l-.038.011a.192.192,0,0,1-.171-.327.345.345,0,0,1,.067-.05A.167.167,0,0,1,1498.6,469.328Z" transform="translate(-1495.301 -466.685)" fill="#f79744"/>
          <path id="Path_104" data-name="Path 104" d="M1499.622,470.363a.274.274,0,0,1-.343.128.21.21,0,0,1-.122-.22c0-.017,0-.03.007-.046a.222.222,0,0,1,.286-.162A.192.192,0,0,1,1499.622,470.363Z" transform="translate(-1496.924 -466.931)" fill="#f79744"/>
          <path id="Path_105" data-name="Path 105" d="M1493.494,467.912a.2.2,0,0,1-.282-.026.352.352,0,0,1-.082-.138.219.219,0,0,1,.087-.253c.012-.006.023,0,.035-.008a.478.478,0,0,1,.372-.136.19.19,0,0,1,.123.326C1493.657,467.752,1493.582,467.839,1493.494,467.912Z" transform="translate(-1486.917 -466.089)" fill="#f79744"/>
          <path id="Path_106" data-name="Path 106" d="M1495.234,467.208a.229.229,0,0,1-.45.066.461.461,0,0,1,0-.152.163.163,0,0,1,0-.1.366.366,0,0,1,.207-.184c.128-.063.325.034.27.2a.294.294,0,0,0-.025.095c0,.026.005.05.007.077C1495.244,467.211,1495.237,467.21,1495.234,467.208Z" transform="translate(-1489.529 -465.924)" fill="#f79744"/>
          <path id="Path_107" data-name="Path 107" d="M1497.372,466.193a.4.4,0,0,1-.028-.043.21.21,0,0,1-.143-.284c.006-.012.012-.023.017-.033a.215.215,0,0,1,.234-.117.38.38,0,0,1,.262.153.152.152,0,0,1,.035.12.266.266,0,0,1-.18.271A.175.175,0,0,1,1497.372,466.193Z" transform="translate(-1493.66 -465.577)" fill="#f79744"/>
          <path id="Path_108" data-name="Path 108" d="M1498.939,468.179a.154.154,0,0,1-.127.178c-.209.015-.294.01-.369-.109a.11.11,0,0,1-.075-.169.2.2,0,0,1,.1-.24.3.3,0,0,1,.407.086.144.144,0,0,1,.015.087A.539.539,0,0,1,1498.939,468.179Z" transform="translate(-1495.654 -466.228)" fill="#f79744"/>
          <path id="Path_109" data-name="Path 109" d="M1485.465,484.139c.008-.011.017-.014.024-.023a.271.271,0,0,1,.144-.2.365.365,0,0,1,.416.172.251.251,0,0,1,.039.073c0,.01.009.017.01.027v.008a.1.1,0,0,1,0,.03.219.219,0,0,1-.1.211.048.048,0,0,0-.011.01v0a.24.24,0,0,1-.043.022l-.011,0a.256.256,0,0,1-.046,0c.059.019-.08.034-.145.045a.285.285,0,0,1-.262-.085A.25.25,0,0,1,1485.465,484.139Z" transform="translate(-1473.919 -471.247)" fill="#f79744"/>
          <path id="Path_110" data-name="Path 110" d="M1484.465,485.661a.446.446,0,0,1,.125-.247.179.179,0,0,1,.195-.06.19.19,0,0,1,.188.318c-.026.027-.049.058-.074.086,0,0,0,0-.005.008-.02.023-.039.042-.057.067A.213.213,0,0,1,1484.465,485.661Z" transform="translate(-1472.188 -471.7)" fill="#f79744"/>
          <path id="Path_111" data-name="Path 111" d="M1485.483,469.215a.5.5,0,0,1-.2.108.223.223,0,0,1-.228-.064.446.446,0,0,1-.069-.7.239.239,0,0,1,.168-.1.182.182,0,0,0,0-.028.2.2,0,0,1,.394-.016c.008.071.041.143.052.216a.314.314,0,0,1,.134.178l0,.009a.269.269,0,0,1-.153.3C1485.637,469.118,1485.534,469.169,1485.483,469.215Z" transform="translate(-1473.169 -466.372)" fill="#f79744"/>
          <path id="Path_112" data-name="Path 112" d="M1487.8,468.6a.515.515,0,0,0-.114.153.179.179,0,0,1-.273.052.269.269,0,0,1,.218-.481.125.125,0,0,1,.1.052h.006A.134.134,0,0,1,1487.8,468.6Z" transform="translate(-1476.944 -466.392)" fill="#f79744"/>
          <path id="Path_113" data-name="Path 113" d="M1485.456,470.171a.42.42,0,0,1,.325.284c.062.215-.235.306-.378.259a.181.181,0,0,1-.125-.225.171.171,0,0,1,0-.129l.024.041A.174.174,0,0,1,1485.456,470.171Z" transform="translate(-1473.497 -466.968)" fill="#f79744"/>
          <path id="Path_114" data-name="Path 114" d="M1483.355,471.834l.04.012a.067.067,0,0,1,.045.063c0,.013,0,.026.008.041s0,.018,0,.03a.417.417,0,0,1,.077.195.224.224,0,0,1-.2.231.4.4,0,0,1-.313-.206.222.222,0,0,1-.016-.18A.213.213,0,0,1,1483.355,471.834Z" transform="translate(-1469.664 -467.466)" fill="#f79744"/>
          <path id="Path_115" data-name="Path 115" d="M1483.809,473.734l.017,0a.085.085,0,0,1,.023,0,.2.2,0,0,1,.03-.005l0,0a.161.161,0,0,1,.151.124c.005.011.016.021.021.032a.182.182,0,0,1-.146.275c-.011,0-.023,0-.033,0a.168.168,0,0,1-.1,0c-.187-.041-.268-.34-.048-.4l.036-.01A.121.121,0,0,1,1483.809,473.734Z" transform="translate(-1470.639 -468.076)" fill="#f79744"/>
          <path id="Path_116" data-name="Path 116" d="M1482.508,475.324c-.33-.052-.336-.343-.261-.6a.365.365,0,0,1,.14-.288.071.071,0,0,1,.014-.01.739.739,0,0,1,.65-.166c.3.1.253.414.118.621C1483.049,475.066,1482.749,475.363,1482.508,475.324Z" transform="translate(-1468.878 -468.236)" fill="#f79744"/>
          <path id="Path_117" data-name="Path 117" d="M1482.178,477.491a.2.2,0,0,1-.179.167.215.215,0,0,1-.052-.015.18.18,0,0,1-.235-.109.338.338,0,0,1,.216-.483.2.2,0,0,1,.081.015.214.214,0,0,1,.264.321C1482.248,477.416,1482.215,477.453,1482.178,477.491Z" transform="translate(-1467.56 -469.111)" fill="#f79744"/>
          <path id="Path_118" data-name="Path 118" d="M1482.5,478.748a.256.256,0,0,1,.372-.019.507.507,0,0,1,.235.329.217.217,0,0,1-.149.218c-.109.033-.181.137-.3.164a.24.24,0,0,1-.232-.1A.476.476,0,0,1,1482.5,478.748Z" transform="translate(-1468.813 -469.615)" fill="#f79744"/>
          <path id="Path_119" data-name="Path 119" d="M1482.2,480.826a.193.193,0,0,1-.235-.191.3.3,0,0,1,.162-.31.14.14,0,0,1,.192.051.4.4,0,0,1,.026.055.182.182,0,0,1,0,.347Z" transform="translate(-1467.91 -470.128)" fill="#f79744"/>
          <path id="Path_120" data-name="Path 120" d="M1480.814,481.24a.166.166,0,0,1-.173.014.312.312,0,0,1-.107-.11c-.008.008-.017,0-.034-.023a.239.239,0,0,1-.034-.094.162.162,0,0,1,.063-.15.481.481,0,0,1,.23-.061.172.172,0,0,1,.181.2A.428.428,0,0,1,1480.814,481.24Z" transform="translate(-1465.349 -470.288)" fill="#f79744"/>
          <path id="Path_121" data-name="Path 121" d="M1482.228,482.149a.12.12,0,0,1-.05.005c-.036.011-.07.021-.1.034a.2.2,0,0,1-.285-.195.419.419,0,0,1,.251-.37.16.16,0,0,1,.187.041.262.262,0,0,1,.05.129.116.116,0,0,1,.056.046c.006.008,0,.019.008.026s.021.034.016.057-.006.053-.01.08a.158.158,0,0,1-.094.12C1482.245,482.131,1482.24,482.143,1482.228,482.149Z" transform="translate(-1467.676 -470.535)" fill="#f79744"/>
          <path id="Path_122" data-name="Path 122" d="M1486.433,467l-.008.019a.149.149,0,0,1-.173.06l-.082-.031a.21.21,0,0,1-.113-.269.359.359,0,0,1,.421-.222.137.137,0,0,1,.135.107.3.3,0,0,1,.037.055.209.209,0,0,1-.03.245A.243.243,0,0,1,1486.433,467Z" transform="translate(-1474.918 -465.835)" fill="#f79744"/>
          <path id="Path_123" data-name="Path 123" d="M1490.357,465.883a.172.172,0,0,1-.3-.142.248.248,0,0,1,.271-.224.171.171,0,0,1,.072.328C1490.388,465.858,1490.373,465.869,1490.357,465.883Z" transform="translate(-1481.511 -465.517)" fill="#f79744"/>
          <path id="Path_124" data-name="Path 124" d="M1491.86,467.525a.392.392,0,0,1-.418.053.451.451,0,0,1-.225-.46.031.031,0,0,0,0-.012,1.027,1.027,0,0,1,.01-.122.254.254,0,0,1,.35-.193.99.99,0,0,1,.25.1.838.838,0,0,1,.175.307.257.257,0,0,1-.135.317S1491.862,467.522,1491.86,467.525Z" transform="translate(-1483.823 -465.908)" fill="#f79744"/>
          <path id="Path_125" data-name="Path 125" d="M1484.373,466.867a.343.343,0,0,1,.178-.214c.008-.02.019-.037.028-.061a.192.192,0,0,1,.363.123h0a.755.755,0,0,1-.258.4C1484.516,467.265,1484.31,467.047,1484.373,466.867Z" transform="translate(-1472.041 -465.813)" fill="#f79744"/>
          <path id="Path_126" data-name="Path 126" d="M1482.609,468.292l-.059-.05a.177.177,0,0,1,.02-.278l.023-.012a.177.177,0,0,1,.2.014C1483,468.059,1482.794,468.456,1482.609,468.292Z" transform="translate(-1468.68 -466.269)" fill="#f79744"/>
          <path id="Path_127" data-name="Path 127" d="M1482.351,470.428a.228.228,0,0,1-.286-.268c.014-.043.028-.084.041-.127a.234.234,0,0,1,.185-.152.381.381,0,0,1,.268.053c.009,0,.015.013.025.017a.545.545,0,0,1,.075,0,.2.2,0,0,1,.063.384A3.089,3.089,0,0,1,1482.351,470.428Z" transform="translate(-1468.335 -466.876)" fill="#f79744"/>
          <path id="Path_128" data-name="Path 128" d="M1489.45,489.99a.17.17,0,0,1,.114.244.811.811,0,0,1-.1.206.191.191,0,0,1-.35-.108.418.418,0,0,1,.064-.3A.2.2,0,0,1,1489.45,489.99Z" transform="translate(-1479.935 -473.138)" fill="#f79744"/>
          <path id="Path_129" data-name="Path 129" d="M1485.195,486.138a.2.2,0,0,1,.379-.063.563.563,0,0,1-.008.624.277.277,0,0,1-.472-.1.214.214,0,0,1,.081-.294A.729.729,0,0,1,1485.195,486.138Z" transform="translate(-1473.236 -471.892)" fill="#f79744"/>
        </g>
        <path id="Path_130" data-name="Path 130" d="M1493.485,476.964c-.278.5-1.161.174-1.554.037a4.491,4.491,0,0,1-.66-.3,2.144,2.144,0,0,1,.524,1.137.191.191,0,0,1-.246.173,1.518,1.518,0,0,1-.69-.585.9.9,0,0,1-.35.868.3.3,0,0,1-.448-.133,4.551,4.551,0,0,1-.114-.608,1.673,1.673,0,0,1-.917.939.261.261,0,0,1-.345-.213,1.776,1.776,0,0,1,.259-1.224c.028-.05.065-.106.1-.162a1.058,1.058,0,0,1-.242.043,2.836,2.836,0,0,1-.755.142.145.145,0,0,1-.1-.248c.1-.095.213-.176.32-.265a.311.311,0,0,1,.147-.238c.234-.16.467-.328.7-.493a2.77,2.77,0,0,1-1.42-.336.231.231,0,0,1,.062-.418,2.963,2.963,0,0,1,1.663.048,2.8,2.8,0,0,1-.674-1.808c.01-.2.24-.431.452-.284a2.228,2.228,0,0,1,.584.616,2.8,2.8,0,0,1,.724-2.062.32.32,0,0,1,.526.145,2.692,2.692,0,0,1,.057,1.449,3.069,3.069,0,0,0,.127-.35c.08-.3.52-.133.451.162-.039.167-.084.33-.129.493.489-.595,1.028-1.029,1.381-.754s-.006.924-.544,1.566a.286.286,0,0,1,.247.5c-.04.04-.082.07-.121.1a2.609,2.609,0,0,1,.822,0,.31.31,0,0,1,.094.562,4.915,4.915,0,0,1-1.012.48c.138.044.279.093.4.146C1493.091,476.218,1493.713,476.55,1493.485,476.964Z" transform="translate(-1482.853 -467.384)" fill="#f05f42"/>
        <path id="Path_131" data-name="Path 131" d="M1492.377,477.688a1.476,1.476,0,0,1-.068.259.8.8,0,0,1-.665.414.788.788,0,0,1-.595-.212,1.026,1.026,0,0,1-.482-.321.769.769,0,0,1-.373-1.129.823.823,0,0,1,.029-.195.949.949,0,0,1,1.1-.646l.058-.036a.8.8,0,0,1,1.2.846l-.046.225A.9.9,0,0,1,1492.377,477.688Z" transform="translate(-1483.621 -468.692)" fill="#b97d4f"/>
      </g>
    </g>
    <path id="Path_913" data-name="Path 913" d="M35,.033a.278.278,0,0,1,.2-.013,3.853,3.853,0,0,1,2.2,2.7.294.294,0,0,1,.5-.159,4.7,4.7,0,0,1,1.06,1.484,8.252,8.252,0,0,1,.349.886,2.625,2.625,0,0,0,.094.306,1.1,1.1,0,0,1,.338.711s0,.005,0,.009c.118.145.239.175.349-.079a.251.251,0,0,1,.46,0,9.136,9.136,0,0,1,.48,2.729c.059.838-.3,2.486.969,1.885.121-.056.3.044.238.188-.5,1.345-.5,3.351-1.443,4.533a1.578,1.578,0,0,0,.906-.5c.13-.154.392-.009.382.174a8.341,8.341,0,0,1-.893,3.368,4.248,4.248,0,0,1-1.6,1.766.129.129,0,0,0-.024.032.414.414,0,0,1,.137.035.824.824,0,0,1,.158.087h0a.436.436,0,0,1,.406.248.2.2,0,0,1,.029.044,2.959,2.959,0,0,0,.488.279c.055-.008.094-.006.1.013l.013,0a.034.034,0,0,1,.045.04c-.047.154-.248.264-.368.35-.246.179-.5.345-.753.518-.188.186-.391.349-.59.521-.129.108-.428.339-.315.527.087.146.357.1.509.206.027-.006.053-.008.082-.012.165-.04.286.2.125.284-1.758.949-2.519,3.128-4.571,3.419-.005,0-.006.007-.014.008a.05.05,0,0,1-.02,0,3.591,3.591,0,0,1-.422.028,12.418,12.418,0,0,1-1.885,6.173c.711-.612,1.423-1.218,2.135-1.823a27.89,27.89,0,0,1,4.542-4.364,44.661,44.661,0,0,1,3.778-3.25c-.008-.024-.024-.042-.034-.071a.424.424,0,0,1-.018-.105.87.87,0,0,1,.008-.289.214.214,0,0,1,.031-.056,8.422,8.422,0,0,1,.332-5.363,4,4,0,0,1,.994-2,4.247,4.247,0,0,1,.812-.911.248.248,0,0,1,.4.151,1.659,1.659,0,0,0,.033.325c.283-.1.563-.209.836-.334a9.276,9.276,0,0,1,.759-1.579.268.268,0,0,1,.456.067c.025.088.05.181.077.27A11.552,11.552,0,0,1,49.792,11.2a4.261,4.261,0,0,1,1.142-.958.236.236,0,0,1,.333.168c.053.341.372.428.688.41.522-.374,1.021-.77,1.514-1.2a.472.472,0,0,1,.141-.084A14.439,14.439,0,0,1,55.555,8.25a.231.231,0,0,1,.333.214,2.125,2.125,0,0,0-.083.488,10.39,10.39,0,0,0,1.618-.519,11.413,11.413,0,0,1,1.47-1.007c.09-.05.179.048.166.139a.247.247,0,0,1,.127-.034,6.831,6.831,0,0,0,.7.042A12.107,12.107,0,0,0,61.973,7.1a2.544,2.544,0,0,0,.328-.224c.087-.069.246.022.192.138-.034.065-.063.126-.1.188a.192.192,0,0,1,.071.227A2.4,2.4,0,0,0,62.4,8.477a2.422,2.422,0,0,1,.88-.818c.08-.092.154-.193.237-.281a.352.352,0,0,1,.433-.073,1.873,1.873,0,0,1,.2-.1.13.13,0,0,1,.172.164,3.579,3.579,0,0,0-.133.606,16.784,16.784,0,0,0,1.8-.61,6.814,6.814,0,0,0,1.843-1.488.171.171,0,0,0,.01-.029.32.32,0,0,1,.226-.2.1.1,0,0,1,.071-.015.269.269,0,0,1,.337.3A.628.628,0,0,0,68.454,6l0,0,0,.008a6.818,6.818,0,0,1-.882,2.736,4.7,4.7,0,0,1-.613.794c-.141.151-.277.306-.41.466-.013.013-.022.024-.034.036.214.093.427.183.642.272a.233.233,0,0,1,.145.4,5.939,5.939,0,0,1-.632.588.272.272,0,0,1-.094.173.491.491,0,0,1-.062.045,3.613,3.613,0,0,1-1.831,1.416,3.281,3.281,0,0,0,1.113.592c.045.008.081.014.123.018a.175.175,0,0,1,.107.3,2.954,2.954,0,0,1-.267.205.3.3,0,0,1-.133.224c-.038.025-.08.052-.124.078A5.455,5.455,0,0,1,63.657,15.7a1.05,1.05,0,0,0-.22,1.125,1.1,1.1,0,0,0,.317.046.177.177,0,0,1,.183.21,2.994,2.994,0,0,1-2.279,1.786c-.647.326-1.366.582-1.964.913.069.05.136.085.2.135a.274.274,0,0,1,.037.384c-.269.262-3.947,2.1-3.981,1.633.034.484-.278.675-.694.854a10.044,10.044,0,0,1-3.838.643c-.452.038-.906.066-1.356.089a3.091,3.091,0,0,1,.463.447.346.346,0,0,1-.268.57,8.091,8.091,0,0,1-2.135-.14c-.389-.074-.812-.289-1.2-.4,0,.052.008.1.013.146a.3.3,0,0,1-.332.382,8.575,8.575,0,0,1-3.024-.686c-1.366,1.757-3.371,3.016-4.97,4.529-.045.042-.083.078-.123.119C36.9,30.184,35.378,31.9,33.64,33.45c-.413.37-.843.724-1.28,1.075.14-.034.281-.062.42-.1a12.145,12.145,0,0,1,1.365-.235,2.919,2.919,0,0,1,1.05-1.095,9.615,9.615,0,0,1,6.5-1.738.308.308,0,0,1,.218.474,3.335,3.335,0,0,0-.226.394,12.023,12.023,0,0,1,5.032-.635c.306-.021.619-.011.88-.043.1-.009.118.132.036.168a2.348,2.348,0,0,0-.447.283.182.182,0,0,1-.032.09c-.846,1.017,1.98.185,2.41.083a8.281,8.281,0,0,1,3.514-.152.252.252,0,0,1,.171.141.138.138,0,0,0,.04-.012.219.219,0,0,1,.221.212c.006.278.232.412.516.473.192-.052.365-.107.453-.124.218-.034.44-.063.661-.08a4.288,4.288,0,0,1,2.323-.176.163.163,0,0,1,.04.3c-.163.1-.293.212-.43.309-.145,1.154,2.7,1.523,3.77,1.63a.2.2,0,0,1,.019-.01.121.121,0,0,1,.176.029.106.106,0,0,0,.034,0c.02,0,.025.018.038.025a2.1,2.1,0,0,0,.3-.053c.22-.053.28.272.071.339-.063.015-.139.045-.219.068a.15.15,0,0,1-.072.1c-.445.283-.891.57-1.351.833,0,0-.007,0-.009.008-.356.32-.738.676-1.105,1.041.013.112.152.184.51.177a.32.32,0,0,1,.221.568c-.676.483-2.061.81-2.045,1.826a.414.414,0,0,1-.016.067c0,.021.015.04.021.066a1.363,1.363,0,0,0,.574.321.167.167,0,0,1-.007.32c-.652.108-1.384.273-2.1.337-.375.061-.746.108-1.123.167-.26.18-.338.4,0,.664a.155.155,0,0,1,.065.148c.082.07.1.205-.034.241a8.079,8.079,0,0,1-3.235.133.179.179,0,0,1-.131.22,6.4,6.4,0,0,1-1.155.159c-2.465.68-5.567.376-7.286-1.594-.044.119-.1.233-.145.349,0,.193-.178.408-.393.338a6.144,6.144,0,0,1-2.009-.9,3.311,3.311,0,0,1-.774-.762c.005.009-1.277-2.039-1.294-1.071a.341.341,0,0,1-.426.325A4.87,4.87,0,0,1,34.66,35.94a1.659,1.659,0,0,1-.637-1.149c-.751.315-1.557.51-2.314.807-.653.256-1.32.624-2,.833-.048.033-.088.061-.134.1a11.168,11.168,0,0,1-2.291,1.457c-1.7,1.04-3.43,2.039-5.095,3.061-.043.041-.082.076-.13.118l-.005,0A18.158,18.158,0,0,1,20.626,42.7c-.161.2-.317.412-.468.619a8.5,8.5,0,0,1,.9-.1A7.821,7.821,0,0,0,22.9,41.582a6.041,6.041,0,0,1,1.922-1.271,3.424,3.424,0,0,1,.455-.143,7.456,7.456,0,0,1,1.435-.6c.224-.073.355.247.2.388a2.072,2.072,0,0,0-.323.4.572.572,0,0,1,.03.374,6.672,6.672,0,0,1,4.61-1.272c.264.028.479.394.218.59a1.93,1.93,0,0,0-.466.4.726.726,0,0,1,0,.2,29.367,29.367,0,0,1,4.254-.291.172.172,0,0,1,.063.335c-.5.235-.615.608-.812.9a4.393,4.393,0,0,1,1.617-.089c.881.061,2.4.766,3.258.463.228-.083.325.244.152.369-1.855,1.338,1.67,1.376,2.331,1.53A28.054,28.054,0,0,1,44.85,45.2a.056.056,0,0,1,.019.1,1.393,1.393,0,0,1-.412.179c-.279.162-.764.287-.732.658s.4.69.657.911a3.508,3.508,0,0,0,2.054.976,3.3,3.3,0,0,1,.368-.04.2.2,0,0,1,.059.385,1.9,1.9,0,0,1-.483.1c-.235.1-.477.205-.717.3a21.391,21.391,0,0,1-4.379,2.022c.012-.006-4.021.437-2.465,1.52a.224.224,0,0,1-.071.405,5.807,5.807,0,0,1-1.895.128c-.039,0-3.258-.512-3.022-.187a.355.355,0,0,1-.293.58,16.128,16.128,0,0,1-2.213-.318c-.467-.124-3.424-1.688-2.808-.6.2.34-.235.588-.512.447-1.642-.854-3.095-1.319-3.706-3.069-.087.03-.169.065-.255.1a1.433,1.433,0,0,0-.14.559c-.029.214-.353.326-.447.088-.222-.573-.617-1.091-.8-1.673a5.255,5.255,0,0,1-.185-1.526.348.348,0,0,1-.628-.128c-.246-.877-.79-1.491-.7-2.429a.425.425,0,0,1,.019-.063,3.321,3.321,0,0,0-.679-.426,6.69,6.69,0,0,1-1.217.309h0a29.194,29.194,0,0,1-5.111,5.07C12.3,51.048,10.2,52.232,8.243,53.56A21.906,21.906,0,0,1,.528,56.935.179.179,0,0,1,.416,56.6c.045-.024.093-.044.138-.067a.465.465,0,0,1-.082-.341.547.547,0,0,1-.091,0,.408.408,0,0,1-.082-.8c1.346-.493,2.69-.986,4.017-1.515a12.372,12.372,0,0,1,1.276-.535,19.124,19.124,0,0,0,3.192-3A11.3,11.3,0,0,0,10.669,45.6c-.945.081-1.47-.689-2.38-1.421a7.154,7.154,0,0,1-2.674-4.423.241.241,0,0,1,.416-.2l0,.005c-.367-1.78-1.277-3.281-.766-5.251a.332.332,0,0,1,.456-.231.877.877,0,0,1,.442.394,15.216,15.216,0,0,1,.607-4.8c.1-.309.539-.209.59.077.172,0,.347,0,.519,0,0-.283,0-.565,0-.851a1.218,1.218,0,0,1,.288-.787.291.291,0,0,1,.455-.048l.849-.033a4.2,4.2,0,0,1,1.188-1.5c.115-.1.351-.078.373.108a1.464,1.464,0,0,0,.055.234,9.749,9.749,0,0,0,1-.7c.007-.008.018-.007.031-.013.084-.305.136-.558.165-.679a.271.271,0,0,1,.519-.024c.027.029.053.059.078.084.293-.35.615-.689.933-1.019a.255.255,0,0,1,.45.193A9.721,9.721,0,0,1,14.1,26.17a1.971,1.971,0,0,1,.32-.117.234.234,0,0,1,.267.3,4.908,4.908,0,0,0-.186,2.257c0,.009.046.237.119.525.217.451.494.877.723,1.292a.266.266,0,0,0,.041-.044.189.189,0,0,1,.336.091c.022.33.036.656.038.98a1.575,1.575,0,0,1,0,.589c0,.026-.008.053-.013.08,0,.159,0,.322-.007.482-.006.052-.411,2.293.282,1.806a.182.182,0,0,1,.294.149c-.029.486-.918,3.743.031,3.482.145-.039.23.128.2.244-.106.4-.231.807-.372,1.21a4.254,4.254,0,0,1-.578,1.44,8.629,8.629,0,0,1-4.177,4.457.045.045,0,0,1-.014.02,2.416,2.416,0,0,1-.259.087c-.077.029-.15.061-.225.088,0,0,0,0-.01,0a8.511,8.511,0,0,1-1.236,4.734,10.577,10.577,0,0,1-.9,1.343c.352-.206.7-.414,1.039-.63.246-.158.489-.327.732-.489a.2.2,0,0,1,.079-.172,60.1,60.1,0,0,0,4.76-4.039c1.608-1.527,2.844-3.387,4.36-5a8.378,8.378,0,0,1,.969-.876,12.685,12.685,0,0,0,2.8-3.429,8.3,8.3,0,0,0,.873-3.415.5.5,0,0,0-.023-.083h0c-.012,0-.018-.007-.032-.005a3.009,3.009,0,0,1-1.835.568,2.913,2.913,0,0,1-1.742-.623.4.4,0,0,1-.1-.079,5.268,5.268,0,0,1-.748-.732.164.164,0,0,1,.156-.27c.85.137.3.1-.072-.185a7.286,7.286,0,0,1-.878-.732,3.212,3.212,0,0,1-1.15-2.7.21.21,0,0,1,.306-.138,1.7,1.7,0,0,0,.529.271.6.6,0,0,0-.04-.171c-.025-.077-.056-.159-.084-.231a7.886,7.886,0,0,0-1.409-1.549.16.16,0,0,1-.04-.043,2.682,2.682,0,0,1-.448-.536c-.1-.183.137-.307.285-.226.637.372-.165-.728-.178-.742a4.043,4.043,0,0,1-.583-.866,2.663,2.663,0,0,1-.286-2.268.227.227,0,0,1,.374-.1c.057.044.1.093.151.136-.178-.951-.708-1.815-.018-2.689a.154.154,0,0,1,.172-.066,4,4,0,0,1,.955-2.1.225.225,0,0,1,.375.108c.062.326.651-1.195.7-1.3a4.546,4.546,0,0,1,.992-1.279,5.169,5.169,0,0,1,2.718-1.534.185.185,0,0,1,.214.2,8.9,8.9,0,0,0-.049,1.007.3.3,0,0,1,.1.271c.1.117.275.157.6.063a.176.176,0,0,1,.21.177,9.823,9.823,0,0,0-.114,1.427,3.726,3.726,0,0,1,.005.685c.017.243.056.476.088.7a.14.14,0,0,1,.234.069c-.006-.023.267,1.3.521.582a.187.187,0,0,1,.316-.047,2.272,2.272,0,0,1,.458.826,4.043,4.043,0,0,1,.176.912.237.237,0,0,1,.006.044,1.811,1.811,0,0,0,1.171,1.716.168.168,0,0,1,.305-.035,4.812,4.812,0,0,1,.653,3.018c-.014.113-.441,2.528.4,1.832a.188.188,0,0,1,.3.173,7.561,7.561,0,0,1-.09.848c.245,2.012-1.239,4.843-3.128,5.5h0a5.52,5.52,0,0,1-.109,2.446,7.672,7.672,0,0,1-.962,2.647c.355-.2.711-.394,1.057-.591,1.73-.985,3.419-2.064,5.138-3.07A14.963,14.963,0,0,0,31.551,33,18.7,18.7,0,0,0,34.266,26.6a4.271,4.271,0,0,1-3.038-1.778,15.3,15.3,0,0,1-1.276-2.1c-.579-1.139-.711-2.9-1.768-3.69a.29.29,0,0,1,.007-.493,2.082,2.082,0,0,1,1.8-.205c-.378-.682-.9-1.277-1.326-1.933a6.942,6.942,0,0,1-.944-3.15.249.249,0,0,1,.436-.188c1.757,1.957.854-1.239.775-2.081a5.5,5.5,0,0,1,.4-2.068.24.24,0,0,1,.461.036c.444.423.6.357.463-.2a4.119,4.119,0,0,1,.073-.994,4.547,4.547,0,0,1,.607-1.476.249.249,0,0,1,.457-.008c.543.942.734-1.264.735-1.208A2.937,2.937,0,0,1,32.356,4a.25.25,0,0,1,.379-.107c.828.735.641-1,.761-1.451a.255.255,0,0,1,.45-.118A13.291,13.291,0,0,0,34.6.2.274.274,0,0,1,35,.033Z" transform="matrix(-0.259, -0.966, 0.966, -0.259, 362.35, 2322.775)" fill="#58595b" opacity="0.3"/>
    <g id="Group_232" data-name="Group 232" transform="translate(386.057 2374.165) rotate(97)">
      <path id="Path_69-2" data-name="Path 69" d="M20.122,39.216c-1.031-.425-3.07-1.822-4.131-.9a4.01,4.01,0,0,1-1.858.982c-3.127.68-4.022-2.789-6.613-2.967-2.346-.16-4.089.42-5.809-1.769A9.367,9.367,0,0,1,.046,27.873C.56,21.327,4.77,15.864,6.559,9.651A39.349,39.349,0,0,0,9.048,5.392,1.307,1.307,0,0,0,9.2,4.737,13.873,13.873,0,0,1,10.954,2.37,7.657,7.657,0,0,1,21.7,2.044c3.181,2.97,3.5,8.322,4.031,12.337.859,6.5,3.644,13.294,2.61,19.931C27.665,38.651,24.512,41.025,20.122,39.216Z" transform="translate(15.253 33.425)" fill="#f9d0d0"/>
      <path id="Path_70-2" data-name="Path 70" d="M35.839,9.428a3.782,3.782,0,0,1-3,2.583,32.386,32.386,0,0,1,3.643,3.415c1.267,1.97.2,3.6-1.474,4.5-.644.932-1.414,1.811-2.1,2.659-1.183,1.465-3.162,1.152-3.89,2.98-.736,1.845-2.616,2.967-4.188,4.027C23.056,30.791,23,32.868,20.87,33.7c-3.519,1.379-7.361-1.986-9.7-4.525C5.418,26.328-.271,20.292.505,14.422A11.18,11.18,0,0,1,2.139,4.634C5.283.189,10.2-.375,15.272.173c3.579.385,7.174.988,10.722,1.586,2.939.5,5.758,1.043,8.14,2.9A4.7,4.7,0,0,1,35.839,9.428Z" transform="translate(38.008 23.48)" fill="#f9d0d0"/>
      <path id="Path_71-2" data-name="Path 71" d="M1.2,14.637A4.742,4.742,0,0,1,4.42,12.559a35.609,35.609,0,0,0,3.742-.045l.051-.046a1.37,1.37,0,0,1,1-1.238c.187-.068.374-.131.558-.194.257-.792.354-1.8.635-2.521.37-.959,1.7-1.649,2.52-2.137C14.911,5.2,15.345,2.606,17.2,1.272,21-1.457,25.477.5,27.411,4.366c1.172,2.35,1.206,5.111,2.339,7.519A25.467,25.467,0,0,1,32.3,18.576a1.647,1.647,0,0,1,0,.508,7.833,7.833,0,0,1,.763,6.238c-1.8,4.94-7.91,4.224-12.181,4.035-5.97-.263-11.935-1.682-16.909-5.07C.737,22.083-1.486,18.26,1.2,14.637Z" transform="translate(1.184 5.136)" fill="#f9d0d0"/>
      <path id="Path_72-2" data-name="Path 72" d="M4.3.452A.991.991,0,0,0,5.437.4c2.327-1.555,4.911,1.9,7.336,2.537,2.968.783,5.531.4,8.252,2.187,4.094,2.688,8.538,6,9.06,10.954-1.277,6.084-9.223,10.769-16.081,12.2a2.549,2.549,0,0,1-.9.022,13.7,13.7,0,0,1-1.307.505c-.2.137-.4.288-.614.413a2.1,2.1,0,0,1-1.795.1,10.257,10.257,0,0,1-2.531-.06c-5.15-.774-5.8-6.6-6.147-9.5-.641-5.382-1.441-11,.6-15.818A7.222,7.222,0,0,1,4.3.452Z" transform="translate(29.531 0)" fill="#f9d0d0"/>
      <path id="Path_73-2" data-name="Path 73" d="M12.114,24.533c-2.629.766-4.946.184-5.7-2.644-.307-1.137-.181-2.341-.484-3.475C5.69,17.523,2.84,17.063,2.042,16.7-.64,15.484-.206,12.045.682,9.823c1.228-3.065,5.225-4.97,8.09-6.05,4.845-1.827,10.169-2.1,15.095-3.69a1.469,1.469,0,0,1,1.549.359,12.287,12.287,0,0,1,1.873.064,1.581,1.581,0,0,1,1.264,1.822c-.971,6.694-7.492,10.564-11.061,15.765C16.125,20.084,14.686,23.784,12.114,24.533Z" transform="matrix(0.995, 0.105, -0.105, 0.995, 2.597, 30.151)" fill="#f9d0d0"/>
      <g id="Group_111-2" data-name="Group 111" transform="translate(16.808 33.234)">
        <path id="Path_74-2" data-name="Path 74" d="M13.654.144A85.84,85.84,0,0,0,5.227,9.716C2.973,12.823.739,16.567.311,20.451A14.039,14.039,0,0,0,1.8,28.621c1.892,3.389,4.977,1.84,7.02-.5a.085.085,0,0,1,.14.036c1.473,7.651,13.334,9.577,17.7,3.379a7.624,7.624,0,0,0,.934-6.1,39.234,39.234,0,0,1-1.139-4.166,10.25,10.25,0,0,1,.473-3.717C28.6,10.891,23.782,4.815,19.634.164c-.072-.078.047-.2.118-.117a33.7,33.7,0,0,1,6.442,9.311A15.807,15.807,0,0,1,27.5,15.005c.038,2.127-.914,4.118-.882,6.27.029,2.012,1.281,3.846,1.387,5.882a7.363,7.363,0,0,1-.561,3.269,7.778,7.778,0,0,1-4.24,4.047c-4.042,1.647-9.189,1-12.333-2.159A7.263,7.263,0,0,1,9.3,29.932c-.1-.255-.414-1.633-.673-1.336a9.614,9.614,0,0,1-1.776,1.569,3.278,3.278,0,0,1-4.568-.558C-.264,26.748-.52,21.237.728,17.8,3.286,10.754,8.378,5.285,13.535.025c.075-.076.2.042.119.119Z" transform="translate(0 0)" fill="#f49a8c"/>
      </g>
      <g id="Group_112-2" data-name="Group 112" transform="translate(34.62 26.887)">
        <path id="Path_75-2" data-name="Path 75" d="M.168,7.35C.388,13.828,4.8,20.037,9.131,24.524c4.736,4.9,11.213,8.98,18.152,6.47,6.147-2.224,8.983-8.957,8.771-15.08-.1-2.834-1.106-13.684-6.139-9.5-.068.058-.188-.016-.131-.1,3.04-4.553-5.949-6.25-8.819-6.155C18.054.251,15,1.813,12.5,3.149a28.3,28.3,0,0,0-7.5,5.616c-.073.079-.19-.039-.118-.118a30.778,30.778,0,0,1,9.894-6.812C17.377.64,20.17-.3,23.06.089c2.369.319,5.154.991,6.839,2.821a2.556,2.556,0,0,1,.655,2.1,3.142,3.142,0,0,1-.437,1.1,3.343,3.343,0,0,1,1.023-.685c3.688-1.619,4.63,5.754,4.873,7.777.628,5.213-.107,10.224-3.6,14.385A12.881,12.881,0,0,1,22.106,32.02c-3.673-.192-7.1-2.289-9.914-4.5a37.35,37.35,0,0,1-8.519-9.733C1.743,14.677.126,11.063,0,7.35c0-.108.163-.108.168,0Z" transform="translate(0 0)" fill="#f49a8c"/>
      </g>
      <g id="Group_113-2" data-name="Group 113" transform="translate(4.095 27.156)">
        <path id="Path_76-2" data-name="Path 76" d="M26.914,3.715c-.442,3.8-2.588,7.171-4.873,10.138A32.872,32.872,0,0,1,16,20.121c-1.511,1.134-8.168,5.527-9.655,2.457A3.189,3.189,0,0,1,6.383,20.5a10.708,10.708,0,0,1,.658-1.734c.283-.637-1.628-1.249-2.037-1.445A7.327,7.327,0,0,1,2.16,15.34c-.789-1.045.41-2.127-.53-3.007C-3.139,7.868,3.688,2.619,7.625,1.052c7.848-3.12,16.564,1.2,22.3,6.449.08.073-.038.192-.118.118C24.214,2.5,17-.9,9.3.712,4.206,1.775-3.4,7.926,2.439,12.827a.085.085,0,0,1,.013.1c-1.734,3.095,2.937,4.227,4.894,5.412a.085.085,0,0,1,.029.114c-.975,2.049-1.9,5.3,1.508,4.834A15.881,15.881,0,0,0,15,20.608a28.535,28.535,0,0,0,5.942-5.667c2.688-3.158,5.31-7.009,5.8-11.225.012-.105.18-.106.168,0Z" transform="translate(0 0)" fill="#f49a8c"/>
      </g>
      <g id="Group_114-2" data-name="Group 114" transform="translate(1.908 2.406)">
        <path id="Path_77-2" data-name="Path 77" d="M29.638,26.363a.17.17,0,0,1-.33-.077C31,18.4,33.719,8.038,26.864,1.836,19.981-4.392,12.936,7.913,10.931,13.129A2.923,2.923,0,0,0,8.466,17.3c-.042.078-.087.154-.128.229a.17.17,0,0,1-.219.242A9.6,9.6,0,0,0,3.9,16.612C.128,16.517-.124,21.2,1.8,23.334c1.641,1.822,4.777,3.083,6.957,4.13,6.255,3,13.57,2.742,20.3,2.12.218-.02.231.318.016.338-6.205.574-12.335.642-18.318-1.3C7.378,27.524,1.977,25.252.369,21.779c-1.406-3.029,1.469-5.556,4.226-5.487,1.485.037,3.354,1.753,2.731-.318a2.518,2.518,0,0,1,.992-2.764,2.672,2.672,0,0,1,1.547-.42c1.245.133,1.752-2.137,2.166-2.974a30.259,30.259,0,0,1,3.54-5.445C17.866,1.51,21.2-.887,24.976.32c3.687,1.182,5.9,5.733,6.355,9.268C32.067,15.256,30.823,20.843,29.638,26.363Z" transform="translate(0 0)" fill="#f49a8c"/>
      </g>
      <g id="Group_115-2" data-name="Group 115" transform="translate(28.839 2.504)">
        <path id="Path_78-2" data-name="Path 78" d="M3.65,29.7C2.135,24.308.48,18.851.067,13.236-.237,9.1.394,4.505,4.038,1.96A13.323,13.323,0,0,1,11.192.025,22.713,22.713,0,0,1,21.621,1.769a13.577,13.577,0,0,1,4.26,3.156C27.464,6.794,28.7,8.34,30.953,9.441c2.679,1.311,4,4.686,3.566,7.561-1.3,8.614-11.807,13.524-19.527,14.206-.108.011-.107-.157,0-.167,7.619-.673,17.663-5.387,19.306-13.691A8.294,8.294,0,0,0,33,11.386c-1.14-1.844-3.672-2.355-5.2-3.869a29.657,29.657,0,0,1-2.04-2.473A12.563,12.563,0,0,0,23.051,2.8,14.008,14.008,0,0,0,17.221.622C11.485-.311,3.663-.349,1.064,5.975c-2.009,4.89-.535,10.972.645,15.877.63,2.619,1.374,5.21,2.1,7.8a.084.084,0,0,1-.162.043Z" transform="translate(0 0)" fill="#f49a8c"/>
      </g>
      <path id="Path_79-2" data-name="Path 79" d="M1.365,3.451a.987.987,0,0,1-.8-.832A1.028,1.028,0,0,1,.006,1.5,1.565,1.565,0,0,1,.261.773C.3.274.614-.145,1.245.048a.938.938,0,0,1,.421.267.833.833,0,0,1,.223.24.448.448,0,0,1,.089.073l0,0a1.287,1.287,0,0,1,.869,1.36A1.5,1.5,0,0,1,1.365,3.451Z" transform="translate(32.19 33.332)" fill="#b97d4f"/>
      <path id="Path_80-2" data-name="Path 80" d="M.029,24.1A.13.13,0,0,0,0,24.106C1.345,19,4.447,14.4,5.915,9.3A39.347,39.347,0,0,0,8.4,5.039a1.306,1.306,0,0,0,.154-.655,13.865,13.865,0,0,1,1.752-2.367A7.356,7.356,0,0,1,13.5.006a12.518,12.518,0,0,1,1.7.065,1.581,1.581,0,0,1,1.264,1.822C15.5,8.587,8.977,12.457,5.407,17.658,4.04,19.649,2.6,23.348.029,24.1Z" transform="translate(17.124 29.623)" fill="#f9d0d0" style="mix-blend-mode: multiply;isolation: isolate"/>
      <path id="Path_81-2" data-name="Path 81" d="M0,0A11.751,11.751,0,0,0,.595,1.587,25.471,25.471,0,0,1,3.149,8.277a1.651,1.651,0,0,1,0,.509,7.833,7.833,0,0,1,.763,6.238A6.257,6.257,0,0,1,3.4,16.083C1.357,13.927.95,10.413.706,8.358A72.868,72.868,0,0,1,0,0Z" transform="translate(30.339 15.435)" fill="#f9d0d0" style="mix-blend-mode: multiply;isolation: isolate"/>
      <path id="Path_82-2" data-name="Path 82" d="M19.967,1.044A28.246,28.246,0,0,1,9.783,5.437a2.549,2.549,0,0,1-.9.022,13.7,13.7,0,0,1-1.307.505c-.2.137-.4.288-.614.413a2.1,2.1,0,0,1-1.795.1,10.259,10.259,0,0,1-2.531-.06A5.9,5.9,0,0,1,0,5.36c.149-.247.3-.489.468-.726C3.612.189,8.532-.375,13.6.173,15.721.4,17.847.709,19.967,1.044Z" transform="translate(34.559 26.88)" fill="#f9d0d0" style="mix-blend-mode: multiply;isolation: isolate"/>
      <g id="Group_117-2" data-name="Group 117" transform="translate(24.313 25.161)">
        <g id="Group_116-2" data-name="Group 116" transform="translate(0 0)">
          <path id="Path_84-2" data-name="Path 84" d="M.016.018A.08.08,0,0,1,0,0,.023.023,0,0,0,.013.011Z" transform="translate(7.44 3.739)" fill="#f79744"/>
          <path id="Path_85-2" data-name="Path 85" d="M12.955,6.238a.394.394,0,0,1,.067.676c-.243.163-.471.338-.693.513a2.777,2.777,0,0,1,1.456-.1.427.427,0,0,1,.273.57,6.647,6.647,0,0,1,1.021.136c.437.1.367.734-.029.83-.451.113-.907.208-1.356.3a.191.191,0,0,1-.171.122c-.15,0-.325.029-.483.022a.453.453,0,0,1-.055.074,4.687,4.687,0,0,1,1.272.484.432.432,0,0,1-.117.784c-.064.009-.124.011-.188.02a1.671,1.671,0,0,1,.16.257.417.417,0,0,1-.323.615.366.366,0,0,1,.077.129.309.309,0,0,1,.287.141.591.591,0,0,1,.356.594.634.634,0,0,1-.909.473.62.62,0,0,1-.345-.6c0-.025.014-.042.02-.069-.067-.019-.134-.036-.2-.057a.441.441,0,0,1-.154.493.321.321,0,0,1-.02.095c.08.069.166.135.245.2a.31.31,0,0,1,.1.217c.34.2.029.761-.38.612a4.215,4.215,0,0,1-.488-.219c-.082-.042-.165-.087-.252-.131-.066-.023-.129-.055-.193-.081a.456.456,0,0,1-.3.455c-.008,0-.016,0-.023.007.277.8.433,1.658.634,2.478.1.4-.392.573-.654.337a6.429,6.429,0,0,1-1.095-1.3,4.76,4.76,0,0,1-.185.713.287.287,0,0,1,.222.215c.019.024.041.045.057.069a.176.176,0,0,1-.091.291,2.2,2.2,0,0,1-.366,0c-.149.006-.233-.17-.2-.3a.345.345,0,0,1-.147-.064,1.343,1.343,0,0,1-.45-.722.258.258,0,0,1-.116-.057c-.006.007-.008.019-.017.024-.009.03-.016.061-.026.09a.3.3,0,0,1-.393.155.114.114,0,0,0-.022-.012c-.011,0-.022,0-.035,0a.628.628,0,0,1-.549.122.209.209,0,0,1-.154-.143A2.384,2.384,0,0,1,7.91,15.2a.791.791,0,0,1-.139.036,8.63,8.63,0,0,0,.039.943.351.351,0,0,1-.635.233.344.344,0,0,1-.115.135.425.425,0,0,1-.043.079.443.443,0,0,1-.542.057A3.408,3.408,0,0,1,6,17.507a.351.351,0,0,1-.619-.175,11.179,11.179,0,0,1,0-1.121.769.769,0,0,1-.133-.015.129.129,0,0,1-.091.032.445.445,0,0,1-.284-.162,2.243,2.243,0,0,1-.5.57c-.027.062-.05.123-.079.183a.292.292,0,0,1-.375.147.352.352,0,0,1-.476-.18,3.151,3.151,0,0,1,.305-2.478.809.809,0,0,1-.244-.131l-.005.007a.3.3,0,0,1-.5-.108,4.582,4.582,0,0,1-.519.356.609.609,0,0,1,.147.012.325.325,0,0,1,.265-.006.48.48,0,0,1,.286.45c.023.358-.24.854-.653.664a.845.845,0,0,1-.4-.8.409.409,0,0,1,.132-.235.338.338,0,0,1-.3-.4,3.211,3.211,0,0,1,.361-1.039,2.23,2.23,0,0,1-.95.071.258.258,0,0,1-.177-.369c.068-.1.136-.2.208-.295a.223.223,0,0,1-.108-.069l-.076-.062a.323.323,0,0,1-.163-.337.622.622,0,0,1,.016-.086.314.314,0,0,1,.288-.242c.006,0,.01,0,.016,0a.192.192,0,0,1,.252,0,.2.2,0,0,0,.037,0,.239.239,0,0,1,.112.023.4.4,0,0,1-.118-.379.838.838,0,0,1,.049-.113,2.747,2.747,0,0,1-.669-.033.616.616,0,0,1-.517.164A.9.9,0,0,1,.1,11.111a.393.393,0,0,1,.018-.541.992.992,0,0,1,.214-.122.982.982,0,0,1,.048-.1.3.3,0,0,1,.462-.109A.654.654,0,0,1,.9,10.3a1,1,0,0,1,.154-.1A.7.7,0,0,1,.8,9.641a.572.572,0,0,1,.171-.36,2.09,2.09,0,0,1-.319-.2.365.365,0,0,1,.13-.611A2.965,2.965,0,0,1,1.915,8.3a.553.553,0,0,1-.051-.123,1,1,0,0,1,1.22-1.036A5.349,5.349,0,0,1,1.542,4.86.329.329,0,0,1,1.8,4.465,2.077,2.077,0,0,1,3.526,5.2c.063.057.123.12.185.18a4.681,4.681,0,0,1,.523.456c-.038-.061-.08-.12-.119-.178A.316.316,0,0,1,4,5.146.6.6,0,0,0,4.135,5a.373.373,0,0,1,.18-.19.394.394,0,0,1,.066-.34c-.013-.017-.029-.025-.042-.045-.135-.206.007-.484.154-.634a.271.271,0,0,1,.336-.019.124.124,0,0,0,.027.006l-.006-.016c-.107-.36-.3-.915-.069-1.269.388-.6.982.124,1.432.828.008-.049.016-.095.029-.143a.293.293,0,0,1,.041-.086c-.016-.036-.038-.071-.055-.109-.006-.011-.007-.015-.011-.024a.168.168,0,0,0,.039.035.342.342,0,0,1-.043-.042c-.02-.03-.027-.03-.013-.011-.215-.223.05-.585.335-.568-.131-.006-.006-.035.062-.082a.421.421,0,0,1-.019-.276.356.356,0,0,1,.01-.055c.012-.047.024-.092.033-.139a.294.294,0,0,1,.393-.242c.053.025.111.052.166.082a1.1,1.1,0,0,1,.246-.125.243.243,0,0,1,.323.229.109.109,0,0,1,.008-.027.232.232,0,0,1-.023.177A.313.313,0,0,1,7.682,2c-.042.046-.091.087-.136.13a.431.431,0,0,1-.109.3c.019.02.038.04.056.064s.023.048.036.073c.1-.245.21-.491.347-.772a.367.367,0,0,1,.687.157c0,.032,0,.062,0,.095A3.625,3.625,0,0,1,9.5.481,1.92,1.92,0,0,1,9.663.194.374.374,0,0,1,10.24.1a2.633,2.633,0,0,1,.281,2.424c.033,0,.056-.017.095-.02a.315.315,0,0,1,.313.2,1.152,1.152,0,0,1,.03.168,1.909,1.909,0,0,1,.561-.438A.322.322,0,0,1,12,2.7a4.229,4.229,0,0,1-.109.956c.018-.011.033-.024.049-.033a.314.314,0,0,1,.279-.009.306.306,0,0,1,.219-.013.408.408,0,0,1,.158-.026.213.213,0,0,1,.209.259.075.075,0,0,1,0,.024.367.367,0,0,1,.162.58.526.526,0,0,0-.043.056c.351-.347.7-.7,1.027-1.066.276-.3.868.027.708.422A6.913,6.913,0,0,1,12.955,6.238Z" transform="translate(1.237 0.798)" fill="#f79744"/>
          <path id="Path_86-2" data-name="Path 86" d="M.265.082a.169.169,0,0,1,.291,0c.013.024.022.05.031.069A.244.244,0,0,1,.732.406.2.2,0,0,1,.7.481.849.849,0,0,1,.737.613.179.179,0,0,1,.549.78,1.318,1.318,0,0,0,.276.841.232.232,0,0,1,.005.657.451.451,0,0,1,.217.206.438.438,0,0,1,.265.082Z" transform="translate(9.998 17.1)" fill="#f79744"/>
          <path id="Path_87-2" data-name="Path 87" d="M.03.424.153.206a.259.259,0,0,1,.1-.1A.184.184,0,0,1,.562.061a3.014,3.014,0,0,1,.279.3A.2.2,0,0,1,.774.648.421.421,0,0,1,.8.764.268.268,0,0,1,.349.958.749.749,0,0,1,.229.812.273.273,0,0,1,.03.424Z" transform="translate(8.529 17.901)" fill="#f79744"/>
          <path id="Path_88-2" data-name="Path 88" d="M.935.248A.226.226,0,0,1,1,.449.392.392,0,0,1,1.012.6c-.037.318-.37.335-.6.442a.286.286,0,0,1-.4-.208A.814.814,0,0,1,.222.086.529.529,0,0,1,.935.248Z" transform="translate(9.846 18.517)" fill="#f79744"/>
          <path id="Path_89-2" data-name="Path 89" d="M.226.349.258.336C.324.133.4.03.7,0A.213.213,0,0,1,.889.115.774.774,0,0,1,.976.827.417.417,0,0,1,.795.983a1.389,1.389,0,0,1-.144.138.29.29,0,0,1-.444-.1A.145.145,0,0,0,.2,1,.218.218,0,0,1,.134.931.273.273,0,0,1,0,.694,1.185,1.185,0,0,1,.023.533.276.276,0,0,1,.226.349Z" transform="translate(1.339 13.007)" fill="#f79744"/>
          <path id="Path_90-2" data-name="Path 90" d="M.3.086A.2.2,0,0,1,.652.139C.664.149.677.153.684.165A.5.5,0,0,1,.671.476l-.006,0A.237.237,0,0,1,.636.584C.558.719.4.687.274.716A.246.246,0,0,1,0,.495.4.4,0,0,1,.3.086Z" transform="translate(1.946 15.768)" fill="#f79744"/>
          <path id="Path_91-2" data-name="Path 91" d="M.55,0C.671,0,.831.056.86.189A.23.23,0,0,1,.819.36a.246.246,0,0,1,0,.033C.8.5.783.6.762.713A.252.252,0,0,1,.479.918,1.07,1.07,0,0,0,.29.893.275.275,0,0,1,.03.7.5.5,0,0,1,.55,0Z" transform="translate(2.686 17.226)" fill="#f79744"/>
          <path id="Path_92-2" data-name="Path 92" d="M.7.338C.7.352.67.4.642.457a.875.875,0,0,1,.1.187A.22.22,0,0,1,.527.921C.321.912.1.89.021.675s.1-.453.232-.6A.271.271,0,0,1,.7.338Z" transform="translate(4.13 17.91)" fill="#f79744"/>
          <path id="Path_93-2" data-name="Path 93" d="M.459.067A.35.35,0,0,1,.93.124a.512.512,0,0,1,.324.567.7.7,0,0,1-.2.377.545.545,0,0,1-.2.153.639.639,0,0,1-.629.015C-.268.95.161.287.459.067Z" transform="translate(1.405 7.43)" fill="#f79744"/>
          <path id="Path_94-2" data-name="Path 94" d="M.611,0A.21.21,0,0,1,.764.35.146.146,0,0,1,.764.4.213.213,0,0,1,.695.521l-.2.021A.48.48,0,0,1,.34.635.251.251,0,0,1,0,.431.76.76,0,0,1,.01.259c0-.008,0-.018,0-.028L.012.215A.211.211,0,0,1,.235.026H.24l.017,0A.406.406,0,0,1,.434.008.707.707,0,0,1,.611,0Z" transform="translate(0.05 10.789)" fill="#f79744"/>
          <path id="Path_95-2" data-name="Path 95" d="M.528.007A.181.181,0,0,1,.74.152.132.132,0,0,1,.734.24a.233.233,0,0,1,.01.054.776.776,0,0,0-.029.2A.221.221,0,0,1,.5.709,1.378,1.378,0,0,1,.19.7C-.023.673-.051.378.075.247A.965.965,0,0,1,.528.007Z" transform="translate(0 12.411)" fill="#f79744"/>
          <path id="Path_96-2" data-name="Path 96" d="M0,.309A.169.169,0,0,1,.028.193.25.25,0,0,1,.056.075.2.2,0,0,1,.279.009.665.665,0,0,1,.525.222a.2.2,0,0,1-.079.3A.289.289,0,0,1,0,.309Z" transform="translate(11.682 18.242)" fill="#f79744"/>
          <path id="Path_97-2" data-name="Path 97" d="M.436.04a.2.2,0,0,1,.1.149.239.239,0,0,1-.078.22L.443.419V.435A.126.126,0,0,1,.313.522h0C.2.588,0,.557,0,.393A.358.358,0,0,1,.153.058.231.231,0,0,1,.436.04Z" transform="translate(7.765 19.347)" fill="#f79744"/>
          <path id="Path_98-2" data-name="Path 98" d="M.823.754a.39.39,0,0,1-.052,0A.212.212,0,0,1,.5.843.3.3,0,0,1,.071.69,1.93,1.93,0,0,1,0,.422.329.329,0,0,1,.273.039.234.234,0,0,1,.34.012C.48,0,.625,0,.769,0A.285.285,0,0,1,.984.44.233.233,0,0,1,.823.754Z" transform="translate(4.028 4.616)" fill="#f79744"/>
          <path id="Path_99-2" data-name="Path 99" d="M0,0,0,0H0Z" transform="translate(1.908 5.829)" fill="#f79744"/>
          <path id="Path_100-2" data-name="Path 100" d="M.744.537C.656.549.568.565.481.577L.458.567A.036.036,0,0,0,.444.575.039.039,0,0,0,.434.557C.418.548.418.553.444.575a.533.533,0,0,1-.18.056A.269.269,0,0,1,.08.169.539.539,0,0,1,.529.016L.6,0A.193.193,0,0,1,.81.238.41.41,0,0,1,.838.29.19.19,0,0,1,.744.537Z" transform="translate(1.463 5.255)" fill="#f79744"/>
          <path id="Path_101-2" data-name="Path 101" d="M.672.187A.257.257,0,0,1,.646.594a.429.429,0,0,1-.384,0A.165.165,0,0,1,.2.58.329.329,0,0,0,.15.554.254.254,0,0,1,0,.3C0,.27.007.24.009.209c0,0,0,0,.006.007A.231.231,0,0,1,.292,0H.3A.265.265,0,0,1,.356.029v0A1.716,1.716,0,0,1,.672.187Z" transform="translate(2.732 6.997)" fill="#f79744"/>
          <path id="Path_102-2" data-name="Path 102" d="M.989.808.949.813A.206.206,0,0,1,.908.828L.985.814A.328.328,0,0,1,.761.893L.754.9A.992.992,0,0,1,.23.867.319.319,0,0,1,.172.276C.2.125.282-.01.475,0A.405.405,0,0,1,.766.188a.418.418,0,0,1,.162.1A.278.278,0,0,1,1.1.64a.254.254,0,0,1-.048.1A.322.322,0,0,1,.989.808Z" transform="translate(4.385 2.075)" fill="#f79744"/>
          <path id="Path_103-2" data-name="Path 103" d="M.42.077a.233.233,0,0,1-.1.392A.386.386,0,0,0,.275.482a.227.227,0,0,1-.2-.388A.4.4,0,0,1,.152.034.2.2,0,0,1,.42.077Z" transform="translate(3.493 3.057)" fill="#f79744"/>
          <path id="Path_104-2" data-name="Path 104" d="M.555.368A.325.325,0,0,1,.148.52.249.249,0,0,1,0,.259c0-.02,0-.036.008-.055A.263.263,0,0,1,.35.011.228.228,0,0,1,.555.368Z" transform="translate(2.644 3.702)" fill="#f79744"/>
          <path id="Path_105-2" data-name="Path 105" d="M.445.665A.24.24,0,0,1,.11.634a.419.419,0,0,1-.1-.163.26.26,0,0,1,.1-.3C.13.164.143.167.156.161A.567.567,0,0,1,.6,0,.225.225,0,0,1,.744.386C.638.475.548.578.445.665Z" transform="translate(7.356 1.497)" fill="#f79744"/>
          <path id="Path_106-2" data-name="Path 106" d="M.542.457A.272.272,0,0,1,.008.535a.551.551,0,0,1,0-.18A.2.2,0,0,1,.013.241.434.434,0,0,1,.258.023c.152-.075.385.04.32.237a.346.346,0,0,0-.03.113c0,.03.006.059.009.091C.553.461.545.459.542.457Z" transform="translate(6.224 1.066)" fill="#f79744"/>
          <path id="Path_107-2" data-name="Path 107" d="M.223.572A.436.436,0,0,1,.19.521.249.249,0,0,1,.021.184C.027.17.035.157.041.145A.255.255,0,0,1,.319.006.452.452,0,0,1,.629.187.18.18,0,0,1,.671.329.315.315,0,0,1,.458.651.208.208,0,0,1,.223.572Z" transform="translate(4.179 0.158)" fill="#f79744"/>
          <path id="Path_108-2" data-name="Path 108" d="M.7.452a.182.182,0,0,1-.15.211C.3.682.2.676.109.534A.13.13,0,0,1,.02.333.233.233,0,0,1,.142.048a.355.355,0,0,1,.482.1.17.17,0,0,1,.017.1A.635.635,0,0,1,.7.452Z" transform="translate(3.199 1.862)" fill="#f79744"/>
          <path id="Path_109-2" data-name="Path 109" d="M.045.293C.055.28.065.277.073.266A.322.322,0,0,1,.245.024a.433.433,0,0,1,.493.2A.3.3,0,0,1,.784.315c0,.011.011.02.011.032v.01A.106.106,0,0,1,.8.392.259.259,0,0,1,.68.642.061.061,0,0,0,.668.653v0A.281.281,0,0,1,.616.676L.6.681A.31.31,0,0,1,.547.687C.618.71.453.728.376.74a.338.338,0,0,1-.311-.1A.3.3,0,0,1,.045.293Z" transform="translate(13.648 14.997)" fill="#f79744"/>
          <path id="Path_110-2" data-name="Path 110" d="M0,.375A.529.529,0,0,1,.153.082.213.213,0,0,1,.384.011.225.225,0,0,1,.608.388C.577.42.55.456.52.49c0,0,0,.006-.006.009C.489.527.467.549.445.578A.252.252,0,0,1,0,.375Z" transform="translate(14.556 16.183)" fill="#f79744"/>
          <path id="Path_111-2" data-name="Path 111" d="M.751,1.132a.6.6,0,0,1-.232.128.265.265,0,0,1-.271-.076A.528.528,0,0,1,.167.355a.284.284,0,0,1,.2-.114.219.219,0,0,0,0-.033A.237.237,0,0,1,.832.189c.01.084.048.17.061.256a.373.373,0,0,1,.158.211l0,.011a.319.319,0,0,1-.182.362C.935,1.017.812,1.078.751,1.132Z" transform="translate(13.852 2.239)" fill="#f79744"/>
          <path id="Path_112-2" data-name="Path 112" d="M.59.328A.61.61,0,0,0,.455.51.212.212,0,0,1,.132.572.319.319,0,0,1,.389,0,.149.149,0,0,1,.5.063H.51A.159.159,0,0,1,.59.328Z" transform="translate(12.283 2.29)" fill="#f79744"/>
          <path id="Path_113-2" data-name="Path 113" d="M.227,0A.5.5,0,0,1,.613.336C.686.591.334.7.164.643A.214.214,0,0,1,.015.376a.2.2,0,0,1,0-.153L.044.272A.207.207,0,0,1,.227,0Z" transform="translate(13.956 3.798)" fill="#f79744"/>
          <path id="Path_114-2" data-name="Path 114" d="M.442.08A.447.447,0,0,1,.49.094.079.079,0,0,1,.544.169c0,.016,0,.031.009.048s0,.021,0,.035A.5.5,0,0,1,.646.483.266.266,0,0,1,.4.757.468.468,0,0,1,.033.513.264.264,0,0,1,.014.3.252.252,0,0,1,.442.08Z" transform="translate(15.795 5.1)" fill="#f79744"/>
          <path id="Path_115-2" data-name="Path 115" d="M.253.013l.02,0A.1.1,0,0,1,.3.007.225.225,0,0,1,.336,0L.342,0A.192.192,0,0,1,.52.15C.527.163.539.175.546.188A.216.216,0,0,1,.373.514c-.013,0-.028,0-.039,0a.2.2,0,0,1-.119,0C-.008.464-.1.109.157.038L.2.027A.146.146,0,0,1,.253.013Z" transform="translate(15.366 6.698)" fill="#f79744"/>
          <path id="Path_116-2" data-name="Path 116" d="M.356,1.289c-.391-.062-.4-.407-.31-.711A.432.432,0,0,1,.211.236.09.09,0,0,1,.228.224.877.877,0,0,1,1,.027c.358.116.3.49.14.737C1,.982.642,1.335.356,1.289Z" transform="translate(15.809 7.118)" fill="#f79744"/>
          <path id="Path_117-2" data-name="Path 117" d="M.593.533a.231.231,0,0,1-.212.2A.256.256,0,0,1,.319.713.214.214,0,0,1,.04.583.4.4,0,0,1,.3.01a.239.239,0,0,1,.1.018.253.253,0,0,1,.313.38C.676.444.638.488.593.533Z" transform="translate(16.743 9.406)" fill="#f79744"/>
          <path id="Path_118-2" data-name="Path 118" d="M.176.107A.3.3,0,0,1,.617.084.6.6,0,0,1,.9.474.257.257,0,0,1,.719.733C.59.772.5.9.365.927A.285.285,0,0,1,.09.814.565.565,0,0,1,.176.107Z" transform="translate(16.057 10.726)" fill="#f79744"/>
          <path id="Path_119-2" data-name="Path 119" d="M.279.618A.229.229,0,0,1,0,.392.356.356,0,0,1,.192.024.166.166,0,0,1,.42.085.456.456,0,0,1,.451.15a.216.216,0,0,1,0,.411Z" transform="translate(16.669 12.07)" fill="#f79744"/>
          <path id="Path_120-2" data-name="Path 120" d="M.415.5a.2.2,0,0,1-.2.017A.365.365,0,0,1,.083.388C.074.4.063.391.043.361A.283.283,0,0,1,0,.25.193.193,0,0,1,.078.072.569.569,0,0,1,.35,0,.2.2,0,0,1,.566.233.508.508,0,0,1,.415.5Z" transform="translate(17.926 12.488)" fill="#f79744"/>
          <path id="Path_121-2" data-name="Path 121" d="M.52.639A.141.141,0,0,1,.461.645C.418.658.378.671.338.685A.238.238,0,0,1,0,.454.5.5,0,0,1,.3.015.189.189,0,0,1,.52.064.308.308,0,0,1,.58.218.138.138,0,0,1,.647.272C.653.282.652.294.656.3s.024.04.02.068S.668.434.664.466A.188.188,0,0,1,.552.608C.54.618.534.632.52.639Z" transform="translate(16.738 13.135)" fill="#f79744"/>
          <path id="Path_122-2" data-name="Path 122" d="M.464.545.455.567A.177.177,0,0,1,.249.638L.152.6A.25.25,0,0,1,.018.282a.426.426,0,0,1,.5-.264A.163.163,0,0,1,.678.145.333.333,0,0,1,.722.211.247.247,0,0,1,.687.5.289.289,0,0,1,.464.545Z" transform="translate(13.192 0.832)" fill="#f79744"/>
          <path id="Path_123-2" data-name="Path 123" d="M.358.434A.2.2,0,0,1,.005.266.294.294,0,0,1,.326,0,.2.2,0,0,1,.412.389C.395.4.377.418.358.434Z" transform="translate(10.133 0)" fill="#f79744"/>
          <path id="Path_124-2" data-name="Path 124" d="M.763.895a.465.465,0,0,1-.5.063A.534.534,0,0,1,0,.412.037.037,0,0,0,0,.4,1.2,1.2,0,0,1,.012.253.3.3,0,0,1,.426.024a1.178,1.178,0,0,1,.3.122A.992.992,0,0,1,.931.51a.3.3,0,0,1-.16.375S.766.892.763.895Z" transform="translate(8.768 1.023)" fill="#f79744"/>
          <path id="Path_125-2" data-name="Path 125" d="M.014.476A.406.406,0,0,1,.225.222C.234.2.248.178.259.15A.228.228,0,0,1,.69.3h0A.9.9,0,0,1,.388.771C.183.948-.061.69.014.476Z" transform="translate(14.612 0.774)" fill="#f79744"/>
          <path id="Path_126-2" data-name="Path 126" d="M.138.432.068.372A.21.21,0,0,1,.091.042L.119.029A.21.21,0,0,1,.355.045C.6.156.357.627.138.432Z" transform="translate(16.382 1.968)" fill="#f79744"/>
          <path id="Path_127-2" data-name="Path 127" d="M.348.655A.271.271,0,0,1,.009.338C.026.287.043.238.058.188a.277.277,0,0,1,.22-.18A.452.452,0,0,1,.595.07c.011,0,.018.015.029.02a.649.649,0,0,1,.089,0A.241.241,0,0,1,.787.547,3.655,3.655,0,0,1,.348.655Z" transform="translate(16.274 3.558)" fill="#f79744"/>
          <path id="Path_128-2" data-name="Path 128" d="M.406.041A.2.2,0,0,1,.542.33.966.966,0,0,1,.419.574.227.227,0,0,1,0,.446.494.494,0,0,1,.08.1.238.238,0,0,1,.406.041Z" transform="translate(10.878 19.946)" fill="#f79744"/>
          <path id="Path_129-2" data-name="Path 129" d="M.152.209A.238.238,0,0,1,.6.134a.667.667,0,0,1-.01.74A.328.328,0,0,1,.033.755a.254.254,0,0,1,.1-.349A.86.86,0,0,1,.152.209Z" transform="translate(14.031 16.686)" fill="#f79744"/>
        </g>
        <path id="Path_130-2" data-name="Path 130" d="M7,6.476c-.33.592-1.377.207-1.843.044a5.31,5.31,0,0,1-.783-.355A2.542,2.542,0,0,1,5,7.513a.227.227,0,0,1-.292.206,1.8,1.8,0,0,1-.818-.694,1.065,1.065,0,0,1-.415,1.03A.353.353,0,0,1,2.94,7.9,5.449,5.449,0,0,1,2.8,7.176,1.983,1.983,0,0,1,1.718,8.29a.31.31,0,0,1-.41-.252,2.107,2.107,0,0,1,.308-1.452c.033-.059.077-.126.116-.193a1.251,1.251,0,0,1-.287.051,3.363,3.363,0,0,1-.9.168.173.173,0,0,1-.115-.295C.558,6.206.687,6.109.814,6a.368.368,0,0,1,.174-.282c.278-.19.553-.389.825-.584a3.286,3.286,0,0,1-1.684-.4.274.274,0,0,1,.073-.5A3.514,3.514,0,0,1,2.174,4.3a3.327,3.327,0,0,1-.8-2.144c.012-.242.285-.511.536-.337a2.646,2.646,0,0,1,.693.73A3.321,3.321,0,0,1,3.462.1a.38.38,0,0,1,.624.171A3.2,3.2,0,0,1,4.152,2,3.612,3.612,0,0,0,4.3,1.58c.095-.357.617-.158.535.192-.047.2-.1.392-.153.585.58-.705,1.219-1.22,1.638-.894s-.007,1.1-.646,1.857a.34.34,0,0,1,.293.589c-.047.047-.1.082-.143.124a3.1,3.1,0,0,1,.975,0,.368.368,0,0,1,.111.667,5.827,5.827,0,0,1-1.2.57c.163.052.331.11.476.173C6.534,5.591,7.272,5.985,7,6.476Z" transform="translate(5.608 4.886)" fill="#f05f42"/>
        <path id="Path_131-2" data-name="Path 131" d="M2.727,2.36a1.736,1.736,0,0,1-.081.307.952.952,0,0,1-.789.491.935.935,0,0,1-.705-.251A1.218,1.218,0,0,1,.58,2.526.936.936,0,0,1,.137,2.16a.932.932,0,0,1,0-.974A.961.961,0,0,1,.172.956,1.126,1.126,0,0,1,1.482.19L1.551.147a.95.95,0,0,1,1.421,1l-.055.267A1.065,1.065,0,0,1,2.727,2.36Z" transform="translate(7.658 8.309)" fill="#b97d4f"/>
      </g>
    </g>
    <path id="Path_911" data-name="Path 911" d="M1502.286,478.74a.225.225,0,0,0-.164.372.155.155,0,0,0,0,.05.228.228,0,0,0,.074.134l.217.023a.518.518,0,0,0,.164.1.27.27,0,0,0,.363-.219.81.81,0,0,0-.008-.185c0-.009,0-.019,0-.03l-.006-.018a.227.227,0,0,0-.239-.2h-.005l-.018,0a.437.437,0,0,0-.19-.022A.758.758,0,0,0,1502.286,478.74Z" transform="translate(-1153.733 1931.481)" fill="#f79744"/>
    <path id="Path_912" data-name="Path 912" d="M1502.447,480.73a.194.194,0,0,0-.228.156.141.141,0,0,0,.007.095.249.249,0,0,0-.011.058.821.821,0,0,1,.031.211.237.237,0,0,0,.234.234,1.477,1.477,0,0,0,.329-.007c.229-.031.258-.348.124-.489A1.037,1.037,0,0,0,1502.447,480.73Z" transform="translate(-1153.751 1931.235)" fill="#f79744"/>
  </g>
</svg>
