<svg xmlns="http://www.w3.org/2000/svg" width="95.755" height="141.737" viewBox="0 0 95.755 141.737">
  <g id="Group_238" data-name="Group 238" transform="translate(91.439 -2596.75)">
    <g id="Group_233" data-name="Group 233" transform="matrix(0.995, 0.105, -0.105, 0.995, -44.538, 2594.829)">
      <g id="Group_107" data-name="Group 107" transform="translate(0 0)">
        <path id="Path_1" data-name="Path 1" d="M8.131,18.7a3.881,3.881,0,0,0,3.353-.791c1.4-1.008,3.238-1.524,3.5-3.45.077-.566,1.894-1.343,2.345-1.824a3.045,3.045,0,0,0,.682-1.619,4.9,4.9,0,0,0-1.385-3.851c-1.743-2.093-4.489-3.4-7.031-4.481A13.267,13.267,0,0,0,4.489.171C-3.346-1.5,1.131,9.509,2.69,12.539,3.893,14.877,5.493,17.8,8.131,18.7Z" transform="translate(29.959 25.594)" fill="#f5a2b2"/>
        <path id="Path_2" data-name="Path 2" d="M4.353,20.991A8.691,8.691,0,0,0,14.2,18.172c2.437-3.145,1.539-7.707.3-11.409-.091-.3-.2-.6-.31-.889-.093-.257-.187-.51-.28-.755a1.249,1.249,0,0,0-.263-.427A8.384,8.384,0,0,0,9.017.394,4.18,4.18,0,0,0,4.559,1C1.6,3.161.495,8.521.084,12.208-.342,16.035.82,19.761,4.353,20.991Z" transform="translate(19.106 27.988)" fill="#f5a2b2"/>
        <path id="Path_3" data-name="Path 3" d="M.685,2.717C-1.085,5.673.9,8.192,2.923,10.209A6.649,6.649,0,0,0,5.2,14.775a9.135,9.135,0,0,0,.835,2.855,7.2,7.2,0,0,0,3.983,3.139c2.609.86,5.376-.275,7.858-1.5,1.01-.758,2.064-1.474,3.069-2.24a17.18,17.18,0,0,0,2.245-3.969c1.566-3.6,3.045-7.992-.331-11.054C20.452-.171,16.412-.084,13.4.067c-.891.044-1.774.131-2.656.239A24.908,24.908,0,0,0,7.265.354C4.875.182,2.012.5.685,2.717Z" transform="translate(1.138 22.392)" fill="#f5a2b2"/>
        <path id="Path_4" data-name="Path 4" d="M8.671,1.282C6-.759,3.34-.476,2.65,2.949c-.129.631-.181,1.673-.742,2.09-.493.366-1,.336-1.4.887A3.171,3.171,0,0,0,.106,8.532,3.141,3.141,0,0,0,.4,9.5a9.6,9.6,0,0,0,.675,1.388,8.625,8.625,0,0,0,5,3.42,16.84,16.84,0,0,0,6.888,1.806c3.594.086,3.72-2.774,2.45-5.279a32.494,32.494,0,0,0-2.366-3.746C11.6,5,10.758,2.875,8.671,1.282Z" transform="translate(7.629 8.91)" fill="#f5a2b2"/>
        <path id="Path_5" data-name="Path 5" d="M22.44,16.055c.707-3.213-.424-7.7-1.706-10.711A8.412,8.412,0,0,0,12.923,0C9.405.081,6.384,3.213,4.1,5.562a1.117,1.117,0,0,0-.312.653A9.6,9.6,0,0,0,.656,10.623c-.1.092-.2.185-.287.281a1.17,1.17,0,0,0,.066,1.763,6.7,6.7,0,0,0,3.906,5.352c3.432,1.782,6.866,1.909,10.533,1.588C17.3,19.4,21.763,19.116,22.44,16.055Z" transform="translate(25.448 12.928)" fill="#f5a2b2"/>
        <path id="Path_6" data-name="Path 6" d="M18.728,4.688c-1.358-.956-2.519-.367-3.743.084-1.613.589-2.763-1.979-4.08-3.079-1.9-1.585-3.76.449-5.591-.784C-1.633-3.77-.737,10.873,2.185,16.156a24.189,24.189,0,0,0,1.129,3.117c.342,3.383,2.67,5.993,5.3,6.065,2.068.056,3.8-1.711,5.06-3.9.465-.514.9-1.048,1.3-1.559,1.075-1.363,1.855-3.06,2.879-4.466,1.094-1.5,2.532-3.39,2.643-5.752C20.579,7.992,20.1,5.651,18.728,4.688Z" transform="translate(18.375 0)" fill="#f5a2b2"/>
        <g id="Group_102" data-name="Group 102" transform="translate(18.05 2.254)">
          <path id="Path_7" data-name="Path 7" d="M4.274,17.884C2.048,14.55.208,10.456.1,6.395.016,3.1,4.248-2.282,7.215,1.629a.083.083,0,0,0,.128.017c2.237-1.9,8.255-2.559,8.5,1.506a.082.082,0,0,0,.122.069c2.068-1.15,4.233-1.255,5.013,1.33a10.9,10.9,0,0,1-.324,5.985c-.833,2.815-3.258,4.949-5.6,6.562A29.405,29.405,0,0,1,5.69,20.975a.081.081,0,0,0,.043.156c5.889-1.538,13.457-4.577,15.226-11.083.781-2.872.852-9.1-3.762-7.592-.2.066-1.171.615-1.215.342a3.238,3.238,0,0,0-.522-1.369A3.764,3.764,0,0,0,12.91.087,7.9,7.9,0,0,0,9.616.318,7.323,7.323,0,0,0,8.15.893c-.691.348-.746.647-1.343-.009C5.064-1.03,2.709.642,1.488,2.205-.388,4.611-.217,7.3.518,10.116a26.442,26.442,0,0,0,3.616,7.85c.057.086.2,0,.139-.082Z" transform="translate(0 0)" fill="#f071a0"/>
        </g>
        <g id="Group_103" data-name="Group 103" transform="translate(25.227 10.955)">
          <path id="Path_8" data-name="Path 8" d="M.163,14.56C2.742,8.186,7.694.832,15.174.189c6.288-.54,12.771,8.114,7.73,13.2a.083.083,0,0,0,0,.113c3.986,4.171-3.464,7.541-6.843,7.969-5.534.7-10.412-3.3-13.045-7.783a.081.081,0,0,0-.139.081c3.292,5.608,9.506,9.5,16.021,7.149,2.064-.744,4.582-2.109,5.27-4.355a3,3,0,0,0-.618-2.576c-.473-.678-.116-.826.289-1.41a6.831,6.831,0,0,0,.959-1.962C26.344,5.52,20.455.367,15.832.025,8.969-.482,3.674,6.882,1.021,12.227c-.372.748-.7,1.516-1.015,2.289-.039.1.117.139.157.043Z" transform="translate(0 0)" fill="#f071a0"/>
        </g>
        <g id="Group_104" data-name="Group 104" transform="translate(3.286 8.133)">
          <path id="Path_9" data-name="Path 9" d="M20.462,17.287c.161-2.319-.968-4.613-2.022-6.606a34.531,34.531,0,0,0-4.974-7.061C11.781,1.773,9.4-.184,6.752.014A3.523,3.523,0,0,0,3.646,4.047a3.767,3.767,0,0,0,.582,1.337c.272.443.891.752.069.961a6.185,6.185,0,0,0-2.88,1.789,5.142,5.142,0,0,0-.989,5.6c1.029,2.381,3.85,3.342,6.242,3.308,3.058-.045,6.122-1.655,8.509-3.451.082-.061,0-.2-.082-.139-3.464,2.608-8.681,4.91-12.727,2.252-4.384-2.88-1.6-8.563,2.759-9.378a.081.081,0,0,0,.036-.135A3.639,3.639,0,0,1,3.9,2.4C4.469.473,6.823-.088,8.517.344c2.345.6,4.265,2.668,5.771,4.462A36.622,36.622,0,0,1,18.3,10.763c1.062,1.94,2.159,4.254,2,6.524-.008.1.154.1.161,0Z" transform="translate(0 0)" fill="#f071a0"/>
        </g>
        <g id="Group_105" data-name="Group 105" transform="translate(0 22.431)">
          <path id="Path_10" data-name="Path 10" d="M18.014,4.829C17.121.5,11.275-.289,7.68.081,3.646.5-1.531,3.666.428,8.477A6.188,6.188,0,0,0,2.907,11.2c.363.2.774.342,1.151.516.914.417.693,1.5.734,2.225a3.912,3.912,0,0,0,.574,1.272c1.045,1.988,2.369,4.41,4.416,5.52a1.956,1.956,0,0,0,1.865.013,2.723,2.723,0,0,0,.859-.837c.472-.614.638.5.963.966,1.17,1.659,3.355.3,4.478-.628a10.8,10.8,0,0,0,3.517-5.909A26.461,26.461,0,0,0,22.08,3.364c-.017-.1-.173-.059-.156.043a24.937,24.937,0,0,1,.017,7.677,18.186,18.186,0,0,1-1.568,5.936c-1.331,2.519-6.1,7.123-7.472,2.172a.081.081,0,0,0-.147-.019c-2.526,4.59-6.273-2.153-7.469-4.466a5.062,5.062,0,0,1-.369-2.227.757.757,0,0,0-.186-.512C3.9,11.29,2.855,11.1,2.064,10.33A5.148,5.148,0,0,1,1.019,3.755C2.74.751,7,.036,10.133.17c2.995.128,7.033,1.344,7.726,4.7.02.1.175.058.155-.042Z" transform="translate(0 0)" fill="#f071a0"/>
        </g>
        <g id="Group_106" data-name="Group 106" transform="translate(18.962 27.749)">
          <path id="Path_11" data-name="Path 11" d="M5.442.943C.7,5.666-1.963,13.8,1.738,19.878c2.741,4.5,8.653,4,10.8-.7a8.76,8.76,0,0,0,.672-3.758c0-.249-.2-.334.035-.053a4.562,4.562,0,0,0,.472.482,5.4,5.4,0,0,0,1.347.83c1.4.648,2.6.283,2.237-1.4.2.933,1.986,1.739,2.807,1.969a4.224,4.224,0,0,0,3.05-.487c2.207-1.139,3.491-3.758,3.807-6.115.558-4.157-2.959-7.467-6.395-9.053A18.177,18.177,0,0,0,7.837.793c-.1.032-.056.189.043.156C13.509-.847,21,.359,24.961,5.006a7.687,7.687,0,0,1,.508,9.3,6.287,6.287,0,0,1-3.526,2.766c-1.95.558-3.645-.75-4.77-2.2-.051-.065-.157.006-.135.079.946,3.066-3.02,1.565-3.857,0a.081.081,0,0,0-.15.04c.149,2.824-.777,5.622-3.26,7.18-2.467,1.55-5.376.6-7.2-1.435C-2.456,15.125.884,5.717,5.556,1.058,5.63.985,5.515.871,5.442.943Z" transform="translate(0 0)" fill="#f071a0"/>
        </g>
        <path id="Path_12" data-name="Path 12" d="M10.067,1.727A4.542,4.542,0,0,0,6.585.013a2.694,2.694,0,0,0-2.2,1.581,2.614,2.614,0,0,0-2.782-.1A4.06,4.06,0,0,0,.014,4.956c-.252,4.459,2.9,7.706,6.461,10.09a1.019,1.019,0,0,0,1,.077c2.451,1.1,4.4-2.35,4.687-4.521C12.6,7.343,12.326,4.117,10.067,1.727Z" transform="translate(13.351 11.745)" fill="#f5a2b2" opacity="0.4" style="mix-blend-mode: multiply;isolation: isolate"/>
        <path id="Path_13" data-name="Path 13" d="M10.746,11.912a4.549,4.549,0,0,0,3.366-1.927,2.691,2.691,0,0,0-.077-2.711,2.613,2.613,0,0,0,1.642-2.249,4.067,4.067,0,0,0-1.983-3.253C10.137-.933,5.686-.138,1.713,1.481a1.023,1.023,0,0,0-.625.789C-1.2,3.684.575,7.231,2.214,8.684,4.674,10.866,7.5,12.446,10.746,11.912Z" transform="translate(23.37 22.022)" fill="#f5a2b2" opacity="0.4" style="mix-blend-mode: multiply;isolation: isolate"/>
        <path id="Path_14" data-name="Path 14" d="M.647,5.958c-1.414,2.586-.432,5.03,2.166,4.9.554,2.031,2.227,3.072,4.448,1.757,2.91-1.721,4.345-5.811,4.877-8.942a.955.955,0,0,0-.684-1.141L11.4,2.5a9.329,9.329,0,0,0,.113-1.247A1.191,1.191,0,0,0,10.13.016C6.719.554,2.349,2.847.647,5.958Z" transform="translate(14.067 25.162)" fill="#f5a2b2" opacity="0.4" style="mix-blend-mode: multiply;isolation: isolate"/>
        <path id="Path_15" data-name="Path 15" d="M.4,2.149c-1.158,2.3.342,5.05,2.347,6.2,2.772,1.585,6.408.667,9.41,1.218A1.132,1.132,0,0,0,13.5,8.384a1.732,1.732,0,0,0,1.026-1.661C14.354,5.1,13.1,3.992,11.887,3.018,9.252.908,2.538-2.1.4,2.149Z" transform="translate(9.729 19.567)" fill="#f5a2b2" opacity="0.4" style="mix-blend-mode: multiply;isolation: isolate"/>
        <path id="Path_16" data-name="Path 16" d="M8.3,1.306A2.456,2.456,0,0,0,5.456.185a2.231,2.231,0,0,0-.7.408C3.942-.166,2.8-.306,1.469.824-1.022,2.944.23,6.9,1.058,9.881a1.261,1.261,0,0,0-.013.411,10.713,10.713,0,0,0,1.112,4.1,1.191,1.191,0,0,0,1.833.32A2.25,2.25,0,0,0,4.75,13.6a.972.972,0,0,0,.193-.264C6.542,10.222,10.45,4.889,8.3,1.306Z" transform="translate(21.654 11.396)" fill="#f5a2b2" opacity="0.4" style="mix-blend-mode: multiply;isolation: isolate"/>
        <path id="Path_17" data-name="Path 17" d="M1.6,13.029a2.645,2.645,0,0,0,3.023.029,2.242,2.242,0,0,0,.547-.56,2.489,2.489,0,0,0,3.049-1.229c1.757-2.542-.564-5.423-2.2-7.63A1.123,1.123,0,0,0,5.9,3.292,8.608,8.608,0,0,0,3.671.252,1.294,1.294,0,0,0,1.842.566a1.939,1.939,0,0,0-.4,1.157A.919.919,0,0,0,1.333,2C.709,5.09-1.467,10.742,1.6,13.029Z" transform="translate(22.612 25.456)" fill="#f5a2b2" opacity="0.4" style="mix-blend-mode: multiply;isolation: isolate"/>
        <path id="Path_18" data-name="Path 18" d="M12.515,1.577a3.269,3.269,0,0,0-3.461-.3c-.641-1.291-2.016-1.7-3.8-.791A6.8,6.8,0,0,0,1.894,4.956,15.107,15.107,0,0,0,.23,9.9c-.024.049-.048.1-.075.145a1.127,1.127,0,0,0-.03,1.089,6.461,6.461,0,0,0,.14,1.619,1.188,1.188,0,0,0,1.413.875A13.67,13.67,0,0,0,7.1,10.46c1.727-1.424,3.615-2.917,5.186-4.5C13.416,4.823,13.967,2.716,12.515,1.577Z" transform="translate(25.478 14.766)" fill="#f5a2b2" opacity="0.4" style="mix-blend-mode: multiply;isolation: isolate"/>
      </g>
      <g id="Group_108" data-name="Group 108" transform="translate(22.004 19.973)">
        <path id="Path_19" data-name="Path 19" d="M.008,0,0,.008,0,0Z" transform="translate(2.598 7.562)" fill="#f79744"/>
        <path id="Path_20" data-name="Path 20" d="M5.574,6.274a.192.192,0,0,0,.113-.312c-.094-.108-.179-.216-.262-.327a1.361,1.361,0,0,0,.676.227.208.208,0,0,0,.2-.235,3.127,3.127,0,0,0,.5.061c.218.009.264-.3.09-.394-.2-.109-.4-.211-.606-.308a.084.084,0,0,0-.064-.079c-.07-.019-.15-.054-.226-.07A.141.141,0,0,0,5.975,4.8a2.286,2.286,0,0,0,.66-.072.21.21,0,0,0,.039-.384c-.027-.013-.057-.02-.085-.033A.831.831,0,0,0,6.7,4.2a.2.2,0,0,0-.078-.33.209.209,0,0,0,.054-.051.146.146,0,0,0,.152-.031.285.285,0,0,0,.239-.237.309.309,0,0,0-.37-.334.3.3,0,0,0-.236.243.122.122,0,0,0,0,.034l-.1,0a.22.22,0,0,0-.015-.252.152.152,0,0,0,0-.046c.047-.023.093-.045.141-.066a.151.151,0,0,0,.076-.088c.185-.05.107-.357-.105-.338a2.15,2.15,0,0,0-.258.044c-.044.01-.09.02-.135.031S6,2.8,5.967,2.8a.227.227,0,0,0-.087-.252.029.029,0,0,0-.013,0,12.414,12.414,0,0,0,.605-1.092c.1-.177-.111-.318-.264-.239a3.231,3.231,0,0,0-.678.478,2.014,2.014,0,0,0,0-.359.143.143,0,0,0,.134-.075A.326.326,0,0,1,5.7,1.23a.088.088,0,0,0-.008-.149.855.855,0,0,0-.173-.043c-.07-.022-.131.052-.131.115a.193.193,0,0,0-.078.013.66.66,0,0,0-.3.284.123.123,0,0,0-.061.014.022.022,0,0,0-.005-.014V1.4a.146.146,0,0,0-.165-.121.033.033,0,0,0-.013,0,.05.05,0,0,0-.017,0A.306.306,0,0,0,4.5,1.157a.108.108,0,0,0-.09.048,1.22,1.22,0,0,0-.114.217.505.505,0,0,0-.06-.033A4.091,4.091,0,0,1,4.367.949.17.17,0,0,0,4.1.761.163.163,0,0,0,4.06.682c0-.014-.006-.029-.009-.042a.22.22,0,0,0-.25-.1A1.533,1.533,0,0,0,3.677.1.171.171,0,0,0,3.365.1c-.053.173-.1.35-.134.529-.024,0-.043-.006-.066-.008A.069.069,0,0,0,3.124.6a.193.193,0,0,0-.153.042A1.123,1.123,0,0,0,2.805.309C2.8.278,2.8.245,2.792.215A.145.145,0,0,0,2.633.1a.172.172,0,0,0-.246.028,1.525,1.525,0,0,0-.163,1.207.413.413,0,0,0-.131.032l0,0a.146.146,0,0,0-.248-.009,2.148,2.148,0,0,0-.2-.233.279.279,0,0,0,.071.012.159.159,0,0,0,.124.036.238.238,0,0,0,.19-.178C2.083.822,2.02.557,1.8.6a.409.409,0,0,0-.291.328.2.2,0,0,0,.033.127.167.167,0,0,0-.194.154,1.6,1.6,0,0,0,.043.536,1.029,1.029,0,0,0-.439-.15.126.126,0,0,0-.131.151c.02.057.041.11.064.163a.145.145,0,0,0-.061.021l-.043.02a.157.157,0,0,0-.119.139c0,.013,0,.028,0,.041a.155.155,0,0,0,.108.15l.007,0a.094.094,0,0,0,.118.033c.007,0,.013,0,.019,0a.12.12,0,0,0,.055,0,.192.192,0,0,0-.1.165.3.3,0,0,0,.008.059,1.359,1.359,0,0,0-.317-.067.307.307,0,0,0-.226-.142A.462.462,0,0,0,.1,2.39a.193.193,0,0,0-.057.258.415.415,0,0,0,.087.084c0,.016.006.035.009.053a.148.148,0,0,0,.207.107l.031-.02c.018.025.042.046.062.069a.332.332,0,0,0-.183.231.273.273,0,0,0,.035.19,1.15,1.15,0,0,0-.174.055.177.177,0,0,0-.017.3,1.529,1.529,0,0,0,.511.223.283.283,0,0,0-.037.05.488.488,0,0,0,.45.64,2.594,2.594,0,0,0-1.01.886.158.158,0,0,0,.071.216A1.015,1.015,0,0,0,1,5.6L1.1,5.54a2.558,2.558,0,0,0,.305-.15l-.08.07a.154.154,0,0,0-.113.228.3.3,0,0,1,.044.083.175.175,0,0,0,.062.113.19.19,0,0,0-.011.169.18.18,0,0,0-.026.016.268.268,0,0,0,0,.319.132.132,0,0,0,.156.05c.006,0,.008,0,.013,0l0,.008c-.1.158-.257.4-.192.591.109.332.482.063.78-.214a.661.661,0,0,0,0,.07c0,.018.007.031.01.046-.015.014-.026.03-.04.046l-.008.007.022-.009a.078.078,0,0,0-.025.014c-.013.013-.015.012,0,0-.13.08-.05.282.087.309-.061-.011-.008.018.02.048a.189.189,0,0,0-.044.128V7.51a.519.519,0,0,1,0,.069A.141.141,0,0,0,2.2,7.74c.028,0,.059-.01.088-.016a.562.562,0,0,0,.1.088.119.119,0,0,0,.18-.068v.016a.115.115,0,0,0,.011-.088.108.108,0,0,0-.015-.048c-.014-.026-.031-.05-.049-.077A.2.2,0,0,0,2.5,7.392c.012-.009.023-.014.034-.023a.224.224,0,0,0,.026-.03c.018.126.037.257.069.406a.179.179,0,0,0,.344.011c0-.015.007-.03.012-.046a1.78,1.78,0,0,0,.248.854c.013.053.024.105.042.157a.184.184,0,0,0,.262.114c.336-.193.409-.653.43-1.109.016.006.027.015.043.02a.149.149,0,0,0,.172-.055.451.451,0,0,0,.036-.076.9.9,0,0,0,.209.275.158.158,0,0,0,.261-.067,1.965,1.965,0,0,0,.067-.464c.008.005.011.014.019.02a.16.16,0,0,0,.131.041.162.162,0,0,0,.1.032.239.239,0,0,0,.072.031.106.106,0,0,0,.132-.1V7.377a.179.179,0,0,0,.146-.254c0-.011-.009-.02-.013-.033.122.207.242.416.353.63a.21.21,0,0,0,.386-.113A3.381,3.381,0,0,0,5.574,6.274Z" transform="translate(0.615 0.572)" fill="#f79744"/>
        <path id="Path_21" data-name="Path 21" d="M.069.366A.084.084,0,0,0,.209.4L.231.373a.116.116,0,0,0,.1-.1.315.315,0,0,0,0-.038A.382.382,0,0,0,.358.175a.091.091,0,0,0-.069-.1A.5.5,0,0,1,.169.01a.115.115,0,0,0-.15.054A.218.218,0,0,0,.061.3.414.414,0,0,0,.069.366Z" transform="translate(5.513 1.205)" fill="#f79744"/>
        <path id="Path_22" data-name="Path 22" d="M0,.229.035.346A.123.123,0,0,0,.072.4a.092.092,0,0,0,.14.061C.267.432.324.4.378.358a.1.1,0,0,0,0-.144A.279.279,0,0,0,.41.163.13.13,0,0,0,.22.016.335.335,0,0,0,.146.068.134.134,0,0,0,0,.229Z" transform="translate(4.915 0.595)" fill="#f79744"/>
        <path id="Path_23" data-name="Path 23" d="M.411.47A.112.112,0,0,0,.463.381.173.173,0,0,0,.49.312C.51.157.356.109.26.031A.141.141,0,0,0,.043.079a.4.4,0,0,0,.01.379A.259.259,0,0,0,.411.47Z" transform="translate(5.612 0.42)" fill="#f79744"/>
        <path id="Path_24" data-name="Path 24" d="M.073.369A.073.073,0,0,0,.086.379C.092.484.116.54.254.592a.1.1,0,0,0,.1-.029C.432.474.522.36.485.237A.193.193,0,0,0,.419.14.52.52,0,0,0,.369.059.143.143,0,0,0,.144.051l0,.01A.114.114,0,0,0,.1.083a.135.135,0,0,0-.091.1A.357.357,0,0,0,0,.258.131.131,0,0,0,.073.369Z" transform="translate(0.933 1.938)" fill="#f79744"/>
        <path id="Path_25" data-name="Path 25" d="M.1.31A.1.1,0,0,0,.271.328C.278.324.285.324.29.32A.246.246,0,0,0,.321.172l0,0a.089.089,0,0,0,0-.053C.3.042.22.038.164.009A.121.121,0,0,0,.007.081.2.2,0,0,0,.1.31Z" transform="translate(1.536 0.903)" fill="#f79744"/>
        <path id="Path_26" data-name="Path 26" d="M.209.456a.147.147,0,0,0,.17-.05.126.126,0,0,0,0-.085A.147.147,0,0,0,.386.3C.388.252.392.2.4.147A.12.12,0,0,0,.289.015.548.548,0,0,1,.2,0,.13.13,0,0,0,.049.064.243.243,0,0,0,.209.456Z" transform="translate(2.063 0.23)" fill="#f79744"/>
        <path id="Path_27" data-name="Path 27" d="M.311.313C.309.307.3.278.3.249A.553.553,0,0,0,.367.173.107.107,0,0,0,.3.017C.2-.006.1-.02.031.072S.02.3.065.38A.132.132,0,0,0,.311.313Z" transform="translate(2.839 0.088)" fill="#f79744"/>
        <path id="Path_28" data-name="Path 28" d="M.127.591a.17.17,0,0,0,.229.03A.25.25,0,0,0,.581.395a.353.353,0,0,0-.05-.2.261.261,0,0,0-.076-.1A.312.312,0,0,0,.16.011C-.1.085.014.451.127.591Z" transform="translate(0.299 4.519)" fill="#f79744"/>
        <path id="Path_29" data-name="Path 29" d="M.256.352A.1.1,0,0,0,.37.207.081.081,0,0,0,.377.187.114.114,0,0,0,.361.119C.329.108.3.1.267.085A.212.212,0,0,0,.206.021.123.123,0,0,0,.021.075.656.656,0,0,0,0,.158C0,.163,0,.166,0,.171V.179A.1.1,0,0,0,.081.3h0L.093.3a.209.209,0,0,0,.08.031A.375.375,0,0,0,.256.352Z" transform="translate(0.007 3.053)" fill="#f79744"/>
        <path id="Path_30" data-name="Path 30" d="M.2.371A.088.088,0,0,0,.318.33.064.064,0,0,0,.326.286.082.082,0,0,0,.336.262a.315.315,0,0,1,.013-.1A.108.108,0,0,0,.27.036.644.644,0,0,0,.125,0C.022-.011-.028.125.016.2A.456.456,0,0,0,.2.371Z" transform="translate(0.201 2.252)" fill="#f79744"/>
        <path id="Path_31" data-name="Path 31" d="M.006.089a.1.1,0,0,0,0,.06A.112.112,0,0,0,0,.207.093.093,0,0,0,.1.265.311.311,0,0,0,.242.194a.1.1,0,0,0,0-.15A.141.141,0,0,0,.006.089Z" transform="translate(6.416 1.011)" fill="#f79744"/>
        <path id="Path_32" data-name="Path 32" d="M.174.276A.089.089,0,0,0,.237.219.111.111,0,0,0,.229.106L.223.1V.092A.068.068,0,0,0,.176.034h0C.131-.01.031-.02.012.058A.176.176,0,0,0,.041.236.117.117,0,0,0,.174.276Z" transform="translate(4.707 0)" fill="#f79744"/>
        <path id="Path_33" data-name="Path 33" d="M.442.124C.433.12.426.12.417.116A.1.1,0,0,0,.3.043a.145.145,0,0,0-.224.02A1.1,1.1,0,0,0,.013.18a.164.164,0,0,0,.08.213.093.093,0,0,0,.031.02c.062.025.132.039.2.058A.14.14,0,0,0,.479.291.112.112,0,0,0,.442.124Z" transform="translate(1.132 6.358)" fill="#f79744"/>
        <path id="Path_34" data-name="Path 34" d="M0,0V0H0Z" transform="translate(0.24 5.901)" fill="#f79744"/>
        <path id="Path_35" data-name="Path 35" d="M.378.111C.34.1.3.077.26.06l-.013,0L.24.056.234.064C.227.064.227.063.24.056A.243.243,0,0,0,.166.007.134.134,0,0,0,.018.2a.268.268,0,0,0,.2.128c.01.006.022.01.031.016A.094.094,0,0,0,.372.26C.378.253.386.248.393.24A.094.094,0,0,0,.378.111Z" transform="translate(0 5.847)" fill="#f79744"/>
        <path id="Path_36" data-name="Path 36" d="M.312.245A.126.126,0,0,0,.346.05.211.211,0,0,0,.164,0a.064.064,0,0,0-.03,0A.186.186,0,0,0,.109.008a.125.125,0,0,0-.1.1C0,.124,0,.139,0,.153l0,0A.113.113,0,0,0,.109.285l0,0a.189.189,0,0,0,.028,0v0A.966.966,0,0,0,.312.245Z" transform="translate(0.805 5.203)" fill="#f79744"/>
        <path id="Path_37" data-name="Path 37" d="M.5.123.482.115A.106.106,0,0,0,.466.1.241.241,0,0,0,.5.118.155.155,0,0,0,.4.054l0,0A.492.492,0,0,0,.152,0a.156.156,0,0,0-.1.272c0,.077.016.149.109.168A.2.2,0,0,0,.321.387.2.2,0,0,0,.41.359.133.133,0,0,0,.533.214.1.1,0,0,0,.522.162.121.121,0,0,0,.5.123Z" transform="translate(1.014 7.598)" fill="#f79744"/>
        <path id="Path_38" data-name="Path 38" d="M.18.223a.113.113,0,0,0,0-.2L.16.015C.067-.044-.044.085.018.173A.141.141,0,0,0,.049.212.1.1,0,0,0,.18.223Z" transform="translate(0.677 7.198)" fill="#f79744"/>
        <path id="Path_39" data-name="Path 39" d="M.278.125C.248.047.193-.013.1,0A.12.12,0,0,0,0,.109L0,.134A.127.127,0,0,0,.138.266.109.109,0,0,0,.278.125Z" transform="translate(0.357 6.768)" fill="#f79744"/>
        <path id="Path_40" data-name="Path 40" d="M.248.048A.12.12,0,0,0,.085.021.222.222,0,0,0,.019.087.129.129,0,0,0,.033.24c0,.006.012.006.016.01a.282.282,0,0,0,.189.13A.11.11,0,0,0,.355.216C.315.163.285.1.248.048Z" transform="translate(2.324 8.311)" fill="#f79744"/>
        <path id="Path_41" data-name="Path 41" d="M.279.172C.318.03.109-.075.035.069A.3.3,0,0,0,.012.153.1.1,0,0,0,0,.208a.21.21,0,0,0,.09.133C.152.4.276.369.269.27a.221.221,0,0,1,0-.06A.156.156,0,0,0,.285.17Z" transform="translate(1.727 8.363)" fill="#f79744"/>
        <path id="Path_42" data-name="Path 42" d="M.146.023A.117.117,0,0,0,.123.045.12.12,0,0,0,0,.184a.062.062,0,0,1,0,.021A.123.123,0,0,0,.12.3.217.217,0,0,0,.288.256.083.083,0,0,0,.326.195.157.157,0,0,0,.264.016.1.1,0,0,0,.146.023Z" transform="translate(0.647 8.592)" fill="#f79744"/>
        <path id="Path_43" data-name="Path 43" d="M.351.151A.09.09,0,0,0,.306.032C.192-.007.143-.017.085.04A.064.064,0,0,0,.017.124a.114.114,0,0,0,.024.15.174.174,0,0,0,.24.011A.086.086,0,0,0,.3.238.339.339,0,0,0,.351.151Z" transform="translate(0.395 7.656)" fill="#f79744"/>
        <path id="Path_44" data-name="Path 44" d="M.007.186A.072.072,0,0,0,.017.2.14.14,0,0,0,.066.337.212.212,0,0,0,.324.3.1.1,0,0,0,.355.266.05.05,0,0,0,.367.255l0-.006a.057.057,0,0,0,0-.017A.123.123,0,0,0,.348.1L.343.093h0C.333.088.329.08.323.077l-.006,0A.063.063,0,0,0,.291.063C.327.061.252.031.216.015A.166.166,0,0,0,.058.026.137.137,0,0,0,.007.186Z" transform="translate(6.964 2.701)" fill="#f79744"/>
        <path id="Path_45" data-name="Path 45" d="M0,.112A.268.268,0,0,0,.035.268a.1.1,0,0,0,.1.063A.111.111,0,0,0,.289.181.271.271,0,0,1,.26.12l0,0A.437.437,0,0,1,.233.07.122.122,0,0,0,0,.112Z" transform="translate(7.534 2.284)" fill="#f79744"/>
        <path id="Path_46" data-name="Path 46" d="M.415.107A.332.332,0,0,0,.322.018a.13.13,0,0,0-.138,0A.258.258,0,0,0,.044.4.138.138,0,0,0,.125.48.063.063,0,0,1,.119.5C.1.622.29.686.337.563.354.524.382.489.4.45A.173.173,0,0,0,.5.369L.5.363A.153.153,0,0,0,.463.171C.489.184.438.142.415.107Z" transform="translate(5.516 8.518)" fill="#f79744"/>
        <path id="Path_47" data-name="Path 47" d="M.288.184a.289.289,0,0,1-.042-.1A.1.1,0,0,0,.1.012a.155.155,0,0,0,.052.3A.076.076,0,0,0,.212.3h0A.079.079,0,0,0,.288.184Z" transform="translate(4.735 8.586)" fill="#f79744"/>
        <path id="Path_48" data-name="Path 48" d="M.073.311A.238.238,0,0,0,.3.2C.363.089.209,0,.123,0a.1.1,0,0,0-.1.109A.1.1,0,0,0,0,.18L.02.161A.1.1,0,0,0,.073.311Z" transform="translate(5.712 8.06)" fill="#f79744"/>
        <path id="Path_49" data-name="Path 49" d="M.189.329H.215A.039.039,0,0,0,.248.3.22.22,0,0,0,.256.277a.024.024,0,0,0,0-.015.22.22,0,0,0,.073-.1A.128.128,0,0,0,.252,0a.228.228,0,0,0-.2.07.129.129,0,0,0-.034.1A.124.124,0,0,0,.189.329Z" transform="translate(6.737 7.644)" fill="#f79744"/>
        <path id="Path_50" data-name="Path 50" d="M.1.24s0,0,.009,0,.008,0,.013,0S.127.255.132.257l0,0A.094.094,0,0,0,.24.208C.244.2.251.2.256.192A.1.1,0,0,0,.213.018a.054.054,0,0,0-.018,0A.08.08,0,0,0,.14,0C.025-.005-.06.151.054.217L.073.225C.077.233.087.236.1.24Z" transform="translate(6.726 6.934)" fill="#f79744"/>
        <path id="Path_51" data-name="Path 51" d="M.242,0C.049-.017,0,.144.008.3A.21.21,0,0,0,.046.481L.053.489A.419.419,0,0,0,.39.676C.572.666.591.483.546.345.507.225.383.016.242,0Z" transform="translate(7.046 6.439)" fill="#f79744"/>
        <path id="Path_52" data-name="Path 52" d="M.3.137A.11.11,0,0,0,.227.018c-.009,0-.02,0-.029,0A.1.1,0,0,0,.05.048.192.192,0,0,0,.1.349a.113.113,0,0,0,.046,0A.123.123,0,0,0,.341.211.3.3,0,0,0,.3.137Z" transform="translate(7.726 5.723)" fill="#f79744"/>
        <path id="Path_53" data-name="Path 53" d="M.036.375A.15.15,0,0,0,.243.44.282.282,0,0,0,.42.289.119.119,0,0,0,.37.147C.315.111.29.043.227.012A.137.137,0,0,0,.085.031.281.281,0,0,0,.036.375Z" transform="translate(7.582 4.929)" fill="#f79744"/>
        <path id="Path_54" data-name="Path 54" d="M.17.014A.108.108,0,0,0,.013.086a.171.171,0,0,0,.041.2.082.082,0,0,0,.116,0C.18.273.186.263.2.255A.1.1,0,0,0,.245.062C.222.047.2.03.17.014Z" transform="translate(8.014 4.503)" fill="#f79744"/>
        <path id="Path_55" data-name="Path 55" d="M.233.035A.1.1,0,0,0,.137,0,.167.167,0,0,0,.063.048c0-.005-.01,0-.023.008A.1.1,0,0,0,.008.1.09.09,0,0,0,.021.2.255.255,0,0,0,.139.263.1.1,0,0,0,.269.182.251.251,0,0,0,.233.035Z" transform="translate(8.647 4.51)" fill="#f79744"/>
        <path id="Path_56" data-name="Path 56" d="M.275.073A.059.059,0,0,0,.246.061L.192.028A.116.116,0,0,0,0,.094.246.246,0,0,0,.09.339.092.092,0,0,0,.2.342.147.147,0,0,0,.249.278.073.073,0,0,0,.286.261C.292.257.292.251.3.246S.312.231.314.217s0-.03.007-.045A.1.1,0,0,0,.282.089S.279.077.275.073Z" transform="translate(8.192 3.97)" fill="#f79744"/>
        <path id="Path_57" data-name="Path 57" d="M.245.071l0-.01A.084.084,0,0,0,.156,0L.1.006A.122.122,0,0,0,0,.141a.208.208,0,0,0,.2.184A.076.076,0,0,0,.3.286.145.145,0,0,0,.326.261.12.12,0,0,0,.345.12.143.143,0,0,0,.245.071Z" transform="translate(4.995 9.379)" fill="#f79744"/>
        <path id="Path_58" data-name="Path 58" d="M.189.053A.1.1,0,0,0,0,.088.147.147,0,0,0,.12.255.1.1,0,0,0,.209.081.112.112,0,0,1,.189.053Z" transform="translate(3.441 9.452)" fill="#f79744"/>
        <path id="Path_59" data-name="Path 59" d="M.433.093A.227.227,0,0,0,.207,0C.1.018.039.125.015.229l0,.006A.455.455,0,0,0,0,.305.146.146,0,0,0,.167.464.573.573,0,0,0,.323.442.485.485,0,0,0,.464.3.15.15,0,0,0,.437.1Z" transform="translate(2.925 8.593)" fill="#f79744"/>
        <path id="Path_60" data-name="Path 60" d="M0,.141A.21.21,0,0,0,.069.287c0,.013.006.024.009.04C.09.479.313.44.3.31h0A.442.442,0,0,0,.215.048C.139-.059-.006.031,0,.141Z" transform="translate(5.68 9.488)" fill="#f79744"/>
        <path id="Path_61" data-name="Path 61" d="M.1.011.057.029A.1.1,0,0,0,.027.188L.038.2a.1.1,0,0,0,.114.02C.281.2.224-.055.1.011Z" transform="translate(6.62 9.31)" fill="#f79744"/>
        <path id="Path_62" data-name="Path 62" d="M.2.017a.131.131,0,0,0-.2.11C0,.152,0,.178,0,.2A.145.145,0,0,0,.085.315.228.228,0,0,0,.243.324.067.067,0,0,0,.258.318.314.314,0,0,0,.3.329.117.117,0,0,0,.39.122C.327.077.263.057.2.017Z" transform="translate(6.79 8.459)" fill="#f79744"/>
        <path id="Path_63" data-name="Path 63" d="M.16.325A.1.1,0,0,0,.258.2.456.456,0,0,0,.231.074.11.11,0,0,0,.02.085.241.241,0,0,0,.013.259.114.114,0,0,0,.16.325Z" transform="translate(6.25 0.049)" fill="#f79744"/>
        <path id="Path_64" data-name="Path 64" d="M.024.347a.117.117,0,0,0,.2.092A.324.324,0,0,0,.314.089.161.161,0,0,0,.034.075a.127.127,0,0,0,0,.177A.634.634,0,0,0,.024.347Z" transform="translate(7.372 1.842)" fill="#f79744"/>
      </g>
      <path id="Path_65" data-name="Path 65" d="M2.945,1.083a1.428,1.428,0,0,0,0-.327.979.979,0,0,0-.664-.7.966.966,0,0,0-.773.068A1.264,1.264,0,0,0,.835.355a.986.986,0,0,0-.541.25.964.964,0,0,0-.252.979.89.89,0,0,0-.026.24A1.167,1.167,0,0,0,1.129,2.935L1.188,3a.984.984,0,0,0,1.686-.638l.013-.28A1.093,1.093,0,0,0,2.945,1.083Z" transform="translate(24.612 22.708)" fill="#b97d4f"/>
    </g>
    <g id="Group_234" data-name="Group 234" transform="matrix(0.995, 0.105, -0.105, 0.995, -83.413, 2642.226)">
      <g id="Group_107-2" data-name="Group 107" transform="translate(0 0)">
        <path id="Path_1-2" data-name="Path 1" d="M14.162,32.578c1.993.68,4.233-.225,5.84-1.378,2.444-1.756,5.64-2.654,6.088-6.008.135-.986,3.3-2.339,4.085-3.176a5.3,5.3,0,0,0,1.187-2.82c.347-2.61-.786-4.75-2.412-6.707C25.914,8.843,21.13,6.576,16.7,4.684A23.108,23.108,0,0,0,7.818.3C-5.828-2.6,1.971,16.562,4.685,21.839,6.781,25.912,9.568,31.01,14.162,32.578Z" transform="translate(52.18 44.577)" fill="#f5a2b2"/>
        <path id="Path_2-2" data-name="Path 2" d="M7.582,36.559A15.137,15.137,0,0,0,24.725,31.65c4.245-5.478,2.68-13.423.514-19.871-.159-.522-.34-1.04-.54-1.549-.162-.448-.326-.888-.488-1.315a2.173,2.173,0,0,0-.458-.743c-1.93-3.661-4.878-6.567-8.048-7.487-2.333-1.1-4.982-.972-7.764,1.053C2.778,5.505.862,14.84.146,21.263-.6,27.929,1.428,34.418,7.582,36.559Z" transform="translate(33.278 48.747)" fill="#f5a2b2"/>
        <path id="Path_3-2" data-name="Path 3" d="M1.193,4.731c-3.083,5.149.381,9.537,3.9,13.05,0,2.894,1.6,5.6,3.966,7.952a15.908,15.908,0,0,0,1.454,4.973,12.535,12.535,0,0,0,6.936,5.467c4.544,1.5,9.364-.478,13.686-2.61,1.76-1.32,3.6-2.568,5.346-3.9a29.925,29.925,0,0,0,3.909-6.913c2.728-6.267,5.3-13.92-.577-19.253C35.621-.3,28.584-.146,23.336.117c-1.552.077-3.09.228-4.627.417a43.384,43.384,0,0,0-6.056.082C8.491.316,3.5.864,1.193,4.731Z" transform="translate(1.982 39)" fill="#f5a2b2"/>
        <path id="Path_4-2" data-name="Path 4" d="M15.1,2.233C10.447-1.321,5.818-.829,4.615,5.136,4.39,6.236,4.3,8.051,3.322,8.777c-.86.638-1.74.585-2.432,1.545a5.522,5.522,0,0,0-.706,4.539,5.473,5.473,0,0,0,.507,1.682,16.724,16.724,0,0,0,1.175,2.418c1.617,2.784,5.061,4.868,8.71,5.957a29.33,29.33,0,0,0,12,3.145c6.259.149,6.478-4.831,4.267-9.2a56.594,56.594,0,0,0-4.121-6.525C20.206,8.715,18.736,5.007,15.1,2.233Z" transform="translate(13.288 15.519)" fill="#f5a2b2"/>
        <path id="Path_5-2" data-name="Path 5" d="M39.084,27.964c1.232-5.6-.739-13.408-2.972-18.655C33.681,3.6,28.385-.131,22.509,0,16.382.141,11.119,5.6,7.144,9.688A1.945,1.945,0,0,0,6.6,10.826,16.728,16.728,0,0,0,1.142,18.5c-.167.16-.34.322-.5.489a2.038,2.038,0,0,0,.115,3.071c.27,4.073,3.04,7.368,6.8,9.321,5.978,3.1,11.959,3.324,18.345,2.766C30.136,33.783,37.9,33.294,39.084,27.964Z" transform="translate(44.323 22.516)" fill="#f5a2b2"/>
        <path id="Path_6-2" data-name="Path 6" d="M32.618,8.165C30.252,6.5,28.23,7.526,26.1,8.312c-2.81,1.025-4.812-3.446-7.106-5.363-3.308-2.761-6.548.781-9.738-1.365C-2.844-6.567-1.284,18.938,3.806,28.139a42.114,42.114,0,0,0,1.966,5.43c.6,5.892,4.651,10.437,9.238,10.563,3.6.1,6.613-2.98,8.813-6.788.81-.9,1.567-1.825,2.266-2.715,1.872-2.374,3.231-5.33,5.014-7.778,1.905-2.62,4.41-5.9,4.6-10.019C35.842,13.92,35,9.843,32.618,8.165Z" transform="translate(32.004 0)" fill="#f5a2b2"/>
        <g id="Group_102-2" data-name="Group 102" transform="translate(31.438 3.926)">
          <path id="Path_7-2" data-name="Path 7" d="M7.443,31.149C3.568,25.342.362,18.211.178,11.138.029,5.394,7.4-3.975,12.567,2.836a.144.144,0,0,0,.222.03C16.685-.443,27.167-1.591,27.6,5.489a.142.142,0,0,0,.212.121c3.6-2,7.373-2.186,8.731,2.316.992,3.306.393,7.186-.565,10.424-1.45,4.9-5.674,8.62-9.748,11.428-4.877,3.364-10.632,5.269-16.315,6.754a.141.141,0,0,0,.075.271c10.256-2.679,23.439-7.971,26.519-19.3,1.361-5,1.483-15.857-6.553-13.223-.347.115-2.04,1.072-2.116.595a5.638,5.638,0,0,0-.909-2.385C25.964,1.036,24.1.437,22.485.151a13.758,13.758,0,0,0-5.737.4,12.753,12.753,0,0,0-2.554,1c-1.2.606-1.3,1.127-2.34-.017-3.035-3.334-7.136-.422-9.262,2.3C-.676,8.032-.379,12.721.9,17.619A46.054,46.054,0,0,0,7.2,31.291c.1.149.341.008.243-.143Z" transform="translate(0 0)" fill="#f071a0"/>
        </g>
        <g id="Group_103-2" data-name="Group 103" transform="translate(43.937 19.08)">
          <path id="Path_8-2" data-name="Path 8" d="M.283,25.359C4.776,14.257,13.4,1.448,26.428.33,37.38-.611,48.672,14.463,39.891,23.314a.144.144,0,0,0,0,.2c6.943,7.265-6.033,13.135-11.919,13.879C18.333,38.606,9.838,31.644,5.251,23.835a.14.14,0,0,0-.243.141c5.734,9.767,16.556,16.543,27.9,12.451,3.594-1.3,7.981-3.674,9.179-7.585a5.231,5.231,0,0,0-1.076-4.487c-.824-1.18-.2-1.439.5-2.456a11.9,11.9,0,0,0,1.671-3.417C45.883,9.614,35.626.64,27.574.043,15.621-.84,6.4,11.986,1.778,21.3,1.131,22.6.556,23.936.011,25.284c-.067.17.2.243.273.075Z" transform="translate(0 0)" fill="#f071a0"/>
        </g>
        <g id="Group_104-2" data-name="Group 104" transform="translate(5.722 14.166)">
          <path id="Path_9-2" data-name="Path 9" d="M35.639,30.109c.281-4.038-1.686-8.034-3.522-11.505a60.141,60.141,0,0,0-8.663-12.3C20.519,3.088,16.364-.32,11.761.024A6.136,6.136,0,0,0,6.35,7.048,6.56,6.56,0,0,0,7.363,9.377c.473.772,1.552,1.311.119,1.674a10.773,10.773,0,0,0-5.016,3.116A8.956,8.956,0,0,0,.744,23.922c1.792,4.147,6.706,5.82,10.872,5.761,5.325-.078,10.663-2.883,14.819-6.011.143-.107,0-.352-.143-.243-6.033,4.543-15.12,8.551-22.167,3.922-7.635-5.016-2.794-14.914,4.8-16.333a.142.142,0,0,0,.063-.234C7.11,8.994,6.034,6.792,6.8,4.187,7.784.823,11.884-.153,14.834.6c4.085,1.04,7.428,4.647,10.051,7.771a63.786,63.786,0,0,1,6.99,10.377c1.849,3.379,3.76,7.409,3.483,11.363-.014.179.269.179.281,0Z" transform="translate(0 0)" fill="#f071a0"/>
        </g>
        <g id="Group_105-2" data-name="Group 105" transform="translate(0 39.069)">
          <path id="Path_10-2" data-name="Path 10" d="M31.375,8.411C29.82.87,19.638-.5,13.377.141,6.35.866-2.666,6.386.745,14.764A10.778,10.778,0,0,0,5.064,19.5c.632.352,1.348.6,2,.9,1.593.727,1.206,2.6,1.279,3.875a6.816,6.816,0,0,0,1,2.215c1.82,3.463,4.126,7.68,7.691,9.613a3.407,3.407,0,0,0,3.249.022,4.742,4.742,0,0,0,1.5-1.457c.822-1.069,1.112.879,1.678,1.683,2.038,2.89,5.844.528,7.8-1.094a18.8,18.8,0,0,0,6.126-10.292A46.088,46.088,0,0,0,38.456,5.858c-.03-.178-.3-.1-.271.075a43.429,43.429,0,0,1,.03,13.371c-.467,3.424-1.1,7.254-2.731,10.338C33.167,34.029,24.862,42.05,22.47,33.426a.141.141,0,0,0-.256-.033c-4.4,7.994-10.926-3.751-13.009-7.778a8.816,8.816,0,0,1-.643-3.878,1.319,1.319,0,0,0-.325-.892c-1.45-1.182-3.265-1.512-4.643-2.854C.309,14.8-.544,10.594,1.775,6.539,4.772,1.309,12.188.062,17.649.3,22.865.519,29.9,2.637,31.1,8.485c.036.177.306.1.27-.074Z" transform="translate(0 0)" fill="#f071a0"/>
        </g>
        <g id="Group_106-2" data-name="Group 106" transform="translate(33.026 48.33)">
          <path id="Path_11-2" data-name="Path 11" d="M9.479,1.643c-8.251,8.226-12.9,22.4-6.451,32.978C7.8,42.459,18.1,41.579,21.843,33.4a15.258,15.258,0,0,0,1.171-6.545c-.005-.433-.356-.582.062-.092a7.927,7.927,0,0,0,.822.839,9.4,9.4,0,0,0,2.347,1.446c2.436,1.128,4.533.494,3.9-2.439.352,1.626,3.46,3.028,4.888,3.43a7.358,7.358,0,0,0,5.312-.849c3.844-1.983,6.08-6.545,6.631-10.651.972-7.241-5.154-13-11.138-15.767A31.659,31.659,0,0,0,13.65,1.381c-.171.056-.1.329.075.271,9.8-3.128,22.852-1.027,29.749,7.066,4.055,4.76,4.118,11.013.884,16.2a10.951,10.951,0,0,1-6.141,4.817c-3.4.972-6.348-1.306-8.308-3.827-.089-.114-.274.011-.236.138,1.648,5.339-5.26,2.725-6.718-.007a.141.141,0,0,0-.262.07c.259,4.918-1.353,9.791-5.678,12.506-4.3,2.7-9.364,1.045-12.536-2.5-8.757-9.775-2.94-26.162,5.2-34.275.129-.128-.071-.326-.2-.2Z" transform="translate(0 0)" fill="#f071a0"/>
        </g>
        <path id="Path_12-2" data-name="Path 12" d="M17.534,3.007c-1.393-1.478-3.6-3.23-6.064-2.984A4.692,4.692,0,0,0,7.635,2.777,4.552,4.552,0,0,0,2.789,2.6C.58,3.967.144,6.536.025,8.632-.414,16.4,5.073,22.053,11.277,26.205a1.775,1.775,0,0,0,1.749.134c4.269,1.92,7.663-4.093,8.163-7.874C21.939,12.789,21.468,7.17,17.534,3.007Z" transform="translate(23.253 20.456)" fill="#f5a2b2" opacity="0.4" style="mix-blend-mode: multiply;isolation: isolate"/>
        <path id="Path_13-2" data-name="Path 13" d="M18.716,20.747c2-.332,4.685-1.176,5.863-3.357a4.688,4.688,0,0,0-.134-4.721A4.551,4.551,0,0,0,27.3,8.753c.1-2.595-1.786-4.395-3.454-5.666C17.656-1.624,9.9-.24,2.984,2.58A1.782,1.782,0,0,0,1.9,3.954c-3.979,2.463-.9,8.641,1.96,11.172C8.14,18.925,13.064,21.678,18.716,20.747Z" transform="translate(40.704 38.356)" fill="#f5a2b2" opacity="0.4" style="mix-blend-mode: multiply;isolation: isolate"/>
        <path id="Path_14-2" data-name="Path 14" d="M1.128,10.377c-2.462,4.5-.753,8.761,3.772,8.54.965,3.538,3.878,5.35,7.748,3.06,5.068-3,7.568-10.121,8.495-15.575a1.664,1.664,0,0,0-1.191-1.988l-.089-.055a16.238,16.238,0,0,0,.2-2.173A2.074,2.074,0,0,0,17.644.028C11.7.964,4.091,4.959,1.128,10.377Z" transform="translate(24.501 43.824)" fill="#f5a2b2" opacity="0.4" style="mix-blend-mode: multiply;isolation: isolate"/>
        <path id="Path_15-2" data-name="Path 15" d="M.7,3.742c-2.016,4.007.6,8.8,4.088,10.794C9.619,17.3,15.952,15.7,21.18,16.658A1.971,1.971,0,0,0,23.518,14.6,3.017,3.017,0,0,0,25.3,11.711C25,8.876,22.82,6.953,20.7,5.257,16.114,1.581,4.421-3.657.7,3.742Z" transform="translate(16.945 34.079)" fill="#f5a2b2" opacity="0.4" style="mix-blend-mode: multiply;isolation: isolate"/>
        <path id="Path_16-2" data-name="Path 16" d="M14.462,2.275A4.278,4.278,0,0,0,9.5.323a3.885,3.885,0,0,0-1.224.711c-1.413-1.323-3.4-1.567-5.72.4C-1.779,5.127.4,12.014,1.843,17.209a2.2,2.2,0,0,0-.023.716,18.657,18.657,0,0,0,1.937,7.136,2.075,2.075,0,0,0,3.193.557,3.918,3.918,0,0,0,1.323-1.93,1.693,1.693,0,0,0,.336-.459C11.394,17.8,18.2,8.515,14.462,2.275Z" transform="translate(37.715 19.849)" fill="#f5a2b2" opacity="0.4" style="mix-blend-mode: multiply;isolation: isolate"/>
        <path id="Path_17-2" data-name="Path 17" d="M2.78,22.692a4.607,4.607,0,0,0,5.265.051A3.9,3.9,0,0,0,9,21.767c1.723.651,3.682.224,5.311-2.141,3.061-4.428-.983-9.445-3.84-13.288a1.957,1.957,0,0,0-.189-.6A14.994,14.994,0,0,0,6.394.439,2.253,2.253,0,0,0,3.208.986,3.376,3.376,0,0,0,2.508,3a1.6,1.6,0,0,0-.187.489C1.234,8.865-2.555,18.709,2.78,22.692Z" transform="translate(39.384 44.337)" fill="#f5a2b2" opacity="0.4" style="mix-blend-mode: multiply;isolation: isolate"/>
        <path id="Path_18-2" data-name="Path 18" d="M21.8,2.747a5.694,5.694,0,0,0-6.027-.519C14.655-.021,12.259-.726,9.146.849,5.734,2.575,4.311,5.462,3.3,8.633a26.311,26.311,0,0,0-2.9,8.6c-.042.085-.084.17-.13.252a1.963,1.963,0,0,0-.052,1.9A11.249,11.249,0,0,0,.463,22.2a2.069,2.069,0,0,0,2.46,1.524c3.624-.829,6.621-3.193,9.435-5.511,3.007-2.48,6.3-5.08,9.033-7.831C23.366,8.4,24.326,4.73,21.8,2.747Z" transform="translate(44.376 25.718)" fill="#f5a2b2" opacity="0.4" style="mix-blend-mode: multiply;isolation: isolate"/>
      </g>
      <g id="Group_108-2" data-name="Group 108" transform="translate(38.325 34.787)">
        <path id="Path_19-2" data-name="Path 19" d="M.014,0,0,.014.008.008Z" transform="translate(4.525 13.171)" fill="#f79744"/>
        <path id="Path_20-2" data-name="Path 20" d="M9.708,10.927a.334.334,0,0,0,.2-.543c-.163-.188-.313-.377-.456-.57a2.372,2.372,0,0,0,1.178.395.363.363,0,0,0,.344-.408,5.443,5.443,0,0,0,.866.107c.38.015.459-.524.158-.687-.347-.19-.7-.367-1.056-.536a.147.147,0,0,0-.112-.137c-.122-.033-.262-.095-.394-.122a.247.247,0,0,0-.027-.074,3.98,3.98,0,0,0,1.149-.125.365.365,0,0,0,.068-.669c-.047-.022-.1-.036-.148-.058a1.454,1.454,0,0,0,.189-.178.356.356,0,0,0-.136-.574.364.364,0,0,0,.095-.089.254.254,0,0,0,.265-.055.5.5,0,0,0,.417-.413.537.537,0,0,0-.644-.583.52.52,0,0,0-.411.424.212.212,0,0,0,0,.059c-.06,0-.121,0-.176,0a.382.382,0,0,0-.026-.439.266.266,0,0,0,.007-.08c.081-.04.162-.078.245-.115a.263.263,0,0,0,.133-.154c.322-.088.187-.622-.184-.588a3.757,3.757,0,0,0-.45.077c-.077.018-.156.034-.235.055-.055,0-.115.018-.173.025a.4.4,0,0,0-.151-.439.049.049,0,0,0-.022-.008,21.614,21.614,0,0,0,1.054-1.9c.166-.308-.193-.554-.461-.417a5.626,5.626,0,0,0-1.182.832,3.515,3.515,0,0,0,0-.625.248.248,0,0,0,.233-.13.58.58,0,0,1,.062-.045.153.153,0,0,0-.014-.259,1.485,1.485,0,0,0-.3-.076c-.122-.038-.227.091-.227.2a.334.334,0,0,0-.136.022,1.15,1.15,0,0,0-.529.495.214.214,0,0,0-.106.025.038.038,0,0,0-.01-.025V2.445a.255.255,0,0,0-.288-.211.057.057,0,0,0-.022.007.085.085,0,0,0-.03-.008.533.533,0,0,0-.425-.217.187.187,0,0,0-.158.084,2.131,2.131,0,0,0-.2.378.868.868,0,0,0-.1-.058,7.127,7.127,0,0,1,.229-.768.3.3,0,0,0-.47-.328.285.285,0,0,0-.066-.137c-.007-.025-.01-.051-.016-.073A.383.383,0,0,0,6.618.949,2.672,2.672,0,0,0,6.4.171a.3.3,0,0,0-.543.011c-.093.3-.171.61-.234.921-.043-.005-.075-.011-.115-.014a.12.12,0,0,0-.07-.044.337.337,0,0,0-.266.073,1.955,1.955,0,0,0-.291-.58C4.879.483,4.872.427,4.862.374a.253.253,0,0,0-.277-.2A.3.3,0,0,0,4.158.22a2.656,2.656,0,0,0-.284,2.1.718.718,0,0,0-.229.056l0-.008a.255.255,0,0,0-.432-.015,3.732,3.732,0,0,0-.35-.406.489.489,0,0,0,.123.021.278.278,0,0,0,.215.063.414.414,0,0,0,.332-.31c.1-.291-.014-.753-.392-.685a.712.712,0,0,0-.507.572.35.35,0,0,0,.058.222.29.29,0,0,0-.337.267,2.8,2.8,0,0,0,.075.933,1.791,1.791,0,0,0-.765-.262.22.22,0,0,0-.227.263c.036.1.071.192.111.284a.253.253,0,0,0-.107.037l-.076.036a.273.273,0,0,0-.207.243c0,.022,0,.048,0,.071a.27.27,0,0,0,.188.262l.012,0a.164.164,0,0,0,.206.058c.012,0,.022,0,.033,0a.208.208,0,0,0,.1.005.335.335,0,0,0-.177.288.511.511,0,0,0,.014.1,2.365,2.365,0,0,0-.552-.117.535.535,0,0,0-.393-.247.8.8,0,0,0-.4.1.336.336,0,0,0-.1.45.724.724,0,0,0,.151.147c.006.029.011.06.016.092a.258.258,0,0,0,.361.186C.627,5.028.644,5.014.664,5c.031.044.074.081.108.121a.578.578,0,0,0-.319.4.475.475,0,0,0,.06.332,2,2,0,0,0-.3.1.309.309,0,0,0-.029.53,2.664,2.664,0,0,0,.89.388.494.494,0,0,0-.064.086A.85.85,0,0,0,1.79,8.071,4.52,4.52,0,0,0,.032,9.614a.275.275,0,0,0,.123.377,1.768,1.768,0,0,0,1.58-.233c.063-.036.123-.073.186-.11a4.46,4.46,0,0,0,.532-.262l-.14.122a.269.269,0,0,0-.2.4.517.517,0,0,1,.077.144.3.3,0,0,0,.108.2.331.331,0,0,0-.019.295.321.321,0,0,0-.045.027.467.467,0,0,0-.007.555.229.229,0,0,0,.271.086c.01,0,.014,0,.022,0l0,.014c-.169.275-.447.688-.334,1.029.189.578.84.11,1.358-.373A1.159,1.159,0,0,0,3.535,12c0,.031.012.053.017.079-.026.025-.045.052-.07.08l-.014.012c.012,0,.022-.011.038-.016a.135.135,0,0,0-.044.025c-.023.022-.026.021-.008.005-.226.138-.086.491.151.537-.107-.019-.014.032.034.084a.329.329,0,0,0-.077.223v.047a.891.891,0,0,1,0,.121.246.246,0,0,0,.271.281c.049-.007.1-.018.154-.029a.98.98,0,0,0,.175.154.208.208,0,0,0,.314-.119v.027a.2.2,0,0,0,.019-.154.188.188,0,0,0-.026-.084c-.025-.045-.055-.086-.085-.134a.347.347,0,0,0-.025-.267c.02-.015.04-.025.059-.04a.381.381,0,0,0,.045-.052c.031.219.065.448.121.707a.312.312,0,0,0,.6.019c.005-.026.012-.052.02-.08a3.1,3.1,0,0,0,.432,1.487c.022.092.043.184.073.274a.321.321,0,0,0,.456.2c.586-.336.713-1.136.749-1.932.029.011.046.026.075.034a.259.259,0,0,0,.3-.1.776.776,0,0,0,.062-.133,1.559,1.559,0,0,0,.365.48.274.274,0,0,0,.455-.116,3.432,3.432,0,0,0,.116-.807c.014.01.019.025.033.034a.279.279,0,0,0,.228.071.282.282,0,0,0,.175.056.416.416,0,0,0,.125.055.185.185,0,0,0,.23-.169l0-.019a.312.312,0,0,0,.255-.443c-.007-.019-.015-.036-.022-.058.213.361.422.724.616,1.1a.365.365,0,0,0,.673-.2A5.89,5.89,0,0,0,9.708,10.927Z" transform="translate(1.07 0.996)" fill="#f79744"/>
        <path id="Path_21-2" data-name="Path 21" d="M.12.638A.147.147,0,0,0,.364.7L.4.649A.2.2,0,0,0,.572.473a.538.538,0,0,0,0-.066A.662.662,0,0,0,.623.3.158.158,0,0,0,.5.125.868.868,0,0,1,.294.017.2.2,0,0,0,.032.111.379.379,0,0,0,.106.527.718.718,0,0,0,.12.638Z" transform="translate(9.601 2.099)" fill="#f79744"/>
        <path id="Path_22-2" data-name="Path 22" d="M.007.4.061.6A.214.214,0,0,0,.125.7.161.161,0,0,0,.369.812C.465.753.564.694.659.624A.17.17,0,0,0,.667.373.49.49,0,0,0,.713.284.227.227,0,0,0,.383.027.581.581,0,0,0,.254.119.233.233,0,0,0,.007.4Z" transform="translate(8.561 1.037)" fill="#f79744"/>
        <path id="Path_23-2" data-name="Path 23" d="M.716.819A.194.194,0,0,0,.806.664.3.3,0,0,0,.853.543C.888.273.62.189.452.054A.246.246,0,0,0,.075.137.69.69,0,0,0,.093.8.451.451,0,0,0,.716.819Z" transform="translate(9.775 0.731)" fill="#f79744"/>
        <path id="Path_24-2" data-name="Path 24" d="M.127.643A.126.126,0,0,0,.15.66C.161.844.2.941.442,1.031A.181.181,0,0,0,.619.981C.753.826.909.627.845.413A.336.336,0,0,0,.73.244.9.9,0,0,0,.644.1.25.25,0,0,0,.252.088L.245.106A.2.2,0,0,0,.178.144.235.235,0,0,0,.018.313.628.628,0,0,0,0,.449.229.229,0,0,0,.127.643Z" transform="translate(1.625 3.376)" fill="#f79744"/>
        <path id="Path_25-2" data-name="Path 25" d="M.172.539a.166.166,0,0,0,.3.031C.484.564.5.564.5.557A.428.428,0,0,0,.56.3l0,0A.154.154,0,0,0,.556.2C.52.073.383.066.286.016A.211.211,0,0,0,.013.14.345.345,0,0,0,.172.539Z" transform="translate(2.675 1.572)" fill="#f79744"/>
        <path id="Path_26-2" data-name="Path 26" d="M.364.794A.256.256,0,0,0,.66.706a.219.219,0,0,0,0-.148A.253.253,0,0,0,.673.531C.675.439.682.35.689.257A.208.208,0,0,0,.5.026.958.958,0,0,1,.341.006.226.226,0,0,0,.086.111.423.423,0,0,0,.364.794Z" transform="translate(3.593 0.4)" fill="#f79744"/>
        <path id="Path_27-2" data-name="Path 27" d="M.542.546C.539.535.527.484.516.435A.961.961,0,0,0,.639.3.187.187,0,0,0,.522.03C.351-.01.167-.036.053.125S.036.515.114.662A.231.231,0,0,0,.542.546Z" transform="translate(4.946 0.153)" fill="#f79744"/>
        <path id="Path_28-2" data-name="Path 28" d="M.222,1.03a.3.3,0,0,0,.4.052A.435.435,0,0,0,1.013.687.615.615,0,0,0,.926.332.453.453,0,0,0,.794.164.544.544,0,0,0,.279.018C-.183.149.024.785.222,1.03Z" transform="translate(0.52 7.871)" fill="#f79744"/>
        <path id="Path_29-2" data-name="Path 29" d="M.447.614a.177.177,0,0,0,.2-.252A.145.145,0,0,0,.656.326.2.2,0,0,0,.629.206C.573.189.519.168.466.148A.37.37,0,0,0,.359.036.215.215,0,0,0,.037.131,1.144,1.144,0,0,0,.008.275C.008.285,0,.289,0,.3V.312A.179.179,0,0,0,.141.518H.149l.014,0A.364.364,0,0,0,.3.574.653.653,0,0,0,.447.614Z" transform="translate(0.013 5.318)" fill="#f79744"/>
        <path id="Path_30-2" data-name="Path 30" d="M.346.647A.154.154,0,0,0,.553.574.112.112,0,0,0,.568.5.142.142,0,0,0,.585.456.546.546,0,0,1,.608.288.188.188,0,0,0,.471.063,1.122,1.122,0,0,0,.217,0C.038-.019-.049.218.028.352A.8.8,0,0,0,.346.647Z" transform="translate(0.35 3.922)" fill="#f79744"/>
        <path id="Path_31-2" data-name="Path 31" d="M.01.155a.18.18,0,0,0,0,.1.2.2,0,0,0,0,.1.163.163,0,0,0,.166.1A.543.543,0,0,0,.422.338a.165.165,0,0,0,0-.26A.246.246,0,0,0,.01.155Z" transform="translate(11.175 1.761)" fill="#f79744"/>
        <path id="Path_32-2" data-name="Path 32" d="M.3.482a.155.155,0,0,0,.11-.1A.193.193,0,0,0,.4.185L.389.174V.161a.118.118,0,0,0-.084-.1h0C.227-.017.053-.035.021.1A.307.307,0,0,0,.071.41.2.2,0,0,0,.3.482Z" transform="translate(8.199 0)" fill="#f79744"/>
        <path id="Path_33-2" data-name="Path 33" d="M.769.217C.754.209.742.209.727.2a.18.18,0,0,0-.2-.128A.253.253,0,0,0,.135.11a1.918,1.918,0,0,0-.112.2.286.286,0,0,0,.14.371A.163.163,0,0,0,.215.721c.108.043.229.069.347.1A.243.243,0,0,0,.834.506.194.194,0,0,0,.769.217Z" transform="translate(1.972 11.073)" fill="#f79744"/>
        <path id="Path_34-2" data-name="Path 34" d="M0,0,0,0H0Z" transform="translate(0.418 10.279)" fill="#f79744"/>
        <path id="Path_35-2" data-name="Path 35" d="M.658.193C.592.167.521.134.452.1l-.023,0L.418.1.407.112C.395.112.395.109.418.1A.425.425,0,0,0,.289.012.233.233,0,0,0,.032.353a.467.467,0,0,0,.34.222C.389.586.41.593.426.6A.164.164,0,0,0,.648.453C.658.441.673.431.684.418A.163.163,0,0,0,.658.193Z" transform="translate(0 10.183)" fill="#f79744"/>
        <path id="Path_36-2" data-name="Path 36" d="M.543.428A.22.22,0,0,0,.6.088.367.367,0,0,0,.285.005.112.112,0,0,0,.233,0,.316.316,0,0,0,.19.014.217.217,0,0,0,.011.191C.005.217,0,.243,0,.266l.005,0A.2.2,0,0,0,.19.5L.2.5A.336.336,0,0,0,.245.491v0A1.684,1.684,0,0,0,.543.428Z" transform="translate(1.402 9.061)" fill="#f79744"/>
        <path id="Path_37-2" data-name="Path 37" d="M.876.214.84.2A.186.186,0,0,0,.811.177.413.413,0,0,0,.87.206.271.271,0,0,0,.7.094L.7.087A.857.857,0,0,0,.265,0,.271.271,0,0,0,.088.474C.08.608.115.733.278.765A.348.348,0,0,0,.559.675.348.348,0,0,0,.714.626.231.231,0,0,0,.928.373.168.168,0,0,0,.909.283.211.211,0,0,0,.876.214Z" transform="translate(1.765 13.234)" fill="#f79744"/>
        <path id="Path_38-2" data-name="Path 38" d="M.314.389a.2.2,0,0,0,0-.343C.3.039.29.034.278.025.118-.076-.077.149.031.3A.244.244,0,0,0,.086.369.165.165,0,0,0,.314.389Z" transform="translate(1.179 12.537)" fill="#f79744"/>
        <path id="Path_39-2" data-name="Path 39" d="M.484.218C.432.082.337-.022.181,0A.208.208,0,0,0,.008.189L0,.233A.221.221,0,0,0,.24.463.191.191,0,0,0,.484.218Z" transform="translate(0.621 11.788)" fill="#f79744"/>
        <path id="Path_40-2" data-name="Path 40" d="M.433.084A.209.209,0,0,0,.147.036.386.386,0,0,0,.032.151.225.225,0,0,0,.057.419c.008.01.02.01.027.018A.492.492,0,0,0,.413.663a.192.192,0,0,0,.2-.287C.548.283.5.176.433.084Z" transform="translate(4.048 14.475)" fill="#f79744"/>
        <path id="Path_41-2" data-name="Path 41" d="M.487.3C.554.053.191-.131.06.12a.522.522,0,0,0-.04.147A.171.171,0,0,0,0,.362.366.366,0,0,0,.159.594C.265.689.48.643.469.469a.389.389,0,0,1,0-.1A.272.272,0,0,0,.5.3Z" transform="translate(3.009 14.566)" fill="#f79744"/>
        <path id="Path_42-2" data-name="Path 42" d="M.254.04a.2.2,0,0,0-.04.038A.208.208,0,0,0,0,.32.109.109,0,0,1,.01.357a.214.214,0,0,0,.2.171A.377.377,0,0,0,.5.446.145.145,0,0,0,.567.339.273.273,0,0,0,.461.028.175.175,0,0,0,.254.04Z" transform="translate(1.127 14.965)" fill="#f79744"/>
        <path id="Path_43-2" data-name="Path 43" d="M.612.262A.157.157,0,0,0,.532.055C.335-.012.249-.03.147.07A.111.111,0,0,0,.03.216a.2.2,0,0,0,.042.26A.3.3,0,0,0,.49.5.149.149,0,0,0,.526.414.59.59,0,0,0,.612.262Z" transform="translate(0.689 13.335)" fill="#f79744"/>
        <path id="Path_44-2" data-name="Path 44" d="M.012.324A.125.125,0,0,0,.03.356a.243.243,0,0,0,.085.23A.369.369,0,0,0,.564.53.177.177,0,0,0,.618.463.088.088,0,0,0,.638.444l0-.01A.1.1,0,0,0,.648.4.215.215,0,0,0,.607.175L.6.163h0C.581.153.573.139.562.134L.551.126A.11.11,0,0,0,.507.11C.57.106.438.054.377.025A.29.29,0,0,0,.1.046.238.238,0,0,0,.012.324Z" transform="translate(12.129 4.704)" fill="#f79744"/>
        <path id="Path_45-2" data-name="Path 45" d="M0,.2A.467.467,0,0,0,.06.466a.179.179,0,0,0,.174.11A.194.194,0,0,0,.5.316.476.476,0,0,1,.452.209L.447.2A.761.761,0,0,1,.406.123.213.213,0,0,0,0,.2Z" transform="translate(13.121 3.978)" fill="#f79744"/>
        <path id="Path_46-2" data-name="Path 46" d="M.723.186A.577.577,0,0,0,.562.032a.226.226,0,0,0-.24.006A.449.449,0,0,0,.076.7.24.24,0,0,0,.217.837a.108.108,0,0,1-.009.03c-.038.217.3.328.378.114C.616.912.666.852.692.783A.3.3,0,0,0,.867.642L.874.632A.267.267,0,0,0,.806.3C.852.321.763.247.723.186Z" transform="translate(9.607 14.836)" fill="#f79744"/>
        <path id="Path_47-2" data-name="Path 47" d="M.5.32A.5.5,0,0,1,.429.14.177.177,0,0,0,.174.021a.27.27,0,0,0,.09.522A.132.132,0,0,0,.37.52H.375A.138.138,0,0,0,.5.32Z" transform="translate(8.247 14.954)" fill="#f79744"/>
        <path id="Path_48-2" data-name="Path 48" d="M.127.542A.415.415,0,0,0,.515.35C.632.155.364-.008.214,0a.182.182,0,0,0-.18.189A.17.17,0,0,0,0,.314L.034.28A.174.174,0,0,0,.127.542Z" transform="translate(9.949 14.038)" fill="#f79744"/>
        <path id="Path_49-2" data-name="Path 49" d="M.33.574H.374A.067.067,0,0,0,.431.522.368.368,0,0,0,.445.483.042.042,0,0,0,.453.457.383.383,0,0,0,.581.283.224.224,0,0,0,.438.007.4.4,0,0,0,.083.13.225.225,0,0,0,.024.3.215.215,0,0,0,.33.574Z" transform="translate(11.734 13.313)" fill="#f79744"/>
        <path id="Path_50-2" data-name="Path 50" d="M.168.419S.176.426.184.427.2.43.206.434s.015.01.023.014l.006,0A.164.164,0,0,0,.417.363C.426.352.436.346.446.335a.182.182,0,0,0-.075-.3A.1.1,0,0,0,.339.023.139.139,0,0,0,.243,0c-.2-.01-.348.262-.149.377L.127.393C.135.406.151.411.168.419Z" transform="translate(11.715 12.078)" fill="#f79744"/>
        <path id="Path_51-2" data-name="Path 51" d="M.421,0C.085-.029.007.251.014.521A.365.365,0,0,0,.079.837L.092.852a.729.729,0,0,0,.588.325C1,1.159,1.029.841.951.6.883.392.668.029.421,0Z" transform="translate(12.273 11.215)" fill="#f79744"/>
        <path id="Path_52-2" data-name="Path 52" d="M.528.239A.192.192,0,0,0,.4.031c-.016,0-.036,0-.051,0A.181.181,0,0,0,.088.083.335.335,0,0,0,.177.608.2.2,0,0,0,.258.615.214.214,0,0,0,.593.368.527.527,0,0,0,.528.239Z" transform="translate(13.456 9.968)" fill="#f79744"/>
        <path id="Path_53-2" data-name="Path 53" d="M.063.653a.261.261,0,0,0,.36.114A.492.492,0,0,0,.732.5.208.208,0,0,0,.645.255C.548.194.5.076.4.021A.239.239,0,0,0,.148.054.489.489,0,0,0,.063.653Z" transform="translate(13.206 8.585)" fill="#f79744"/>
        <path id="Path_54-2" data-name="Path 54" d="M.3.025A.188.188,0,0,0,.023.15.3.3,0,0,0,.095.491a.143.143,0,0,0,.2,0C.314.475.323.459.341.443A.182.182,0,0,0,.426.108C.386.081.344.053.3.025Z" transform="translate(13.959 7.843)" fill="#f79744"/>
        <path id="Path_55-2" data-name="Path 55" d="M.406.061A.176.176,0,0,0,.239,0a.293.293,0,0,0-.13.079C.1.075.091.077.069.1A.177.177,0,0,0,.013.18.157.157,0,0,0,.036.343.445.445,0,0,0,.242.458.167.167,0,0,0,.468.317.438.438,0,0,0,.406.061Z" transform="translate(15.061 7.855)" fill="#f79744"/>
        <path id="Path_56-2" data-name="Path 56" d="M.478.128A.1.1,0,0,0,.428.107L.334.048A.2.2,0,0,0,.008.165.427.427,0,0,0,.158.591.161.161,0,0,0,.352.6.256.256,0,0,0,.435.484.127.127,0,0,0,.5.455C.509.447.509.438.517.429S.543.4.547.377.554.325.559.3A.17.17,0,0,0,.492.155C.487.147.485.135.478.128Z" transform="translate(14.268 6.914)" fill="#f79744"/>
        <path id="Path_57-2" data-name="Path 57" d="M.426.124.421.106A.146.146,0,0,0,.271,0L.181.01A.212.212,0,0,0,0,.246.363.363,0,0,0,.359.567.132.132,0,0,0,.515.5.251.251,0,0,0,.567.455.208.208,0,0,0,.6.209.25.25,0,0,0,.426.124Z" transform="translate(8.699 16.335)" fill="#f79744"/>
        <path id="Path_58-2" data-name="Path 58" d="M.33.092A.175.175,0,0,0,0,.153.256.256,0,0,0,.209.445.174.174,0,0,0,.364.14.2.2,0,0,1,.33.092Z" transform="translate(5.992 16.463)" fill="#f79744"/>
        <path id="Path_59-2" data-name="Path 59" d="M.755.163A.4.4,0,0,0,.36,0C.166.031.068.217.026.4l0,.01A.8.8,0,0,0,0,.531.255.255,0,0,0,.29.808,1,1,0,0,0,.563.77.845.845,0,0,0,.809.518.261.261,0,0,0,.761.172Z" transform="translate(5.094 14.967)" fill="#f79744"/>
        <path id="Path_60-2" data-name="Path 60" d="M0,.246A.365.365,0,0,0,.12.5C.125.523.13.542.135.57c.022.264.41.2.385-.03h0A.771.771,0,0,0,.375.084C.242-.1-.011.054,0,.246Z" transform="translate(9.893 16.525)" fill="#f79744"/>
        <path id="Path_61-2" data-name="Path 61" d="M.167.019.1.051A.179.179,0,0,0,.047.328L.066.345a.176.176,0,0,0,.2.034C.489.345.391-.1.167.019Z" transform="translate(11.531 16.216)" fill="#f79744"/>
        <path id="Path_62-2" data-name="Path 62" d="M.343.03A.228.228,0,0,0,0,.222C0,.264.005.309.005.353a.252.252,0,0,0,.143.2A.4.4,0,0,0,.424.564.116.116,0,0,0,.45.553.549.549,0,0,0,.526.573.2.2,0,0,0,.68.213C.57.134.458.1.343.03Z" transform="translate(11.825 14.733)" fill="#f79744"/>
        <path id="Path_63-2" data-name="Path 63" d="M.278.567A.171.171,0,0,0,.45.356.793.793,0,0,0,.4.13.192.192,0,0,0,.035.149a.419.419,0,0,0-.011.3A.2.2,0,0,0,.278.567Z" transform="translate(10.886 0.085)" fill="#f79744"/>
        <path id="Path_64-2" data-name="Path 64" d="M.041.6A.2.2,0,0,0,.4.765a.564.564,0,0,0,.15-.61A.28.28,0,0,0,.059.131.22.22,0,0,0,.067.439,1.11,1.11,0,0,0,.041.6Z" transform="translate(12.84 3.208)" fill="#f79744"/>
      </g>
      <path id="Path_65-2" data-name="Path 65" d="M5.129,1.886a2.481,2.481,0,0,0,0-.57A1.7,1.7,0,0,0,3.97.095,1.683,1.683,0,0,0,2.624.213,2.2,2.2,0,0,0,1.454.619a1.718,1.718,0,0,0-.943.436A1.679,1.679,0,0,0,.072,2.76a1.546,1.546,0,0,0-.045.418A2.033,2.033,0,0,0,1.966,5.112l.1.108A1.714,1.714,0,0,0,5,4.108l.023-.488A1.9,1.9,0,0,0,5.129,1.886Z" transform="translate(42.866 39.55)" fill="#b97d4f"/>
    </g>
  </g>
</svg>
